
<svg width="578" height="1342" viewBox="0 0 578 1342" fill="none" xmlns="http://www.w3.org/2000/svg">
<path d="M234.576 272.86V130.631L110.353 47.0137L110.312 190.115L234.576 272.86Z" fill="#6E7373"/>
<path d="M554.602 459.408V255.191L510.687 225.846V83.6172L386.465 0V142.838V376.255V1341.28H577.542V470.754L554.602 459.408Z" fill="#AAB1B3"/>
<path d="M386.464 142.838V0H239.658V19.1619H186.957V64.4515H110.417V47.0318H69.0098V142.838H30.1137V376.255H0V1341.28H386.464V376.255V142.838Z" fill="#616666"/>
<path d="M386.423 142.838H30.1133V376.255H386.423V142.838Z" fill="#6E7373"/>
<path d="M386.424 64.6035H68.9473V143.101H386.424V64.6035Z" fill="#798080"/>
<path d="M386.424 376.255L554.602 459.408V255.191L386.424 143.102V376.255Z" fill="#B5BDBF"/>
<path d="M510.687 225.846V83.6172L386.465 0L386.424 143.102L510.687 225.846Z" fill="#BFC7C9"/>
<path d="M110.309 47.0322H69.0098V67.3273H110.309V47.0322Z" fill="#798080"/>
<path d="M386.315 19.1621H186.957V73.1262H386.315V19.1621Z" fill="#798080"/>
<path d="M385.903 0H239.658V42.4773H385.903V0Z" fill="#798080"/>
<path d="M240.858 33.751H200.803V128.29H240.858V33.751Z" fill="#6E7373"/>
<path d="M187.172 128.292V82.2969L109.837 82.2969L109.837 128.292H187.172Z" fill="#6E7373"/>
<path d="M295.774 33.751H255.719V128.29H295.774V33.751Z" fill="#6E7373"/>
<path d="M350.688 33.751H310.633V128.29H350.688V33.751Z" fill="#6E7373"/>
<path d="M51.5495 405.095H20.5664V436.078H51.5495V405.095Z" fill="#525757"/>
<path d="M103.247 405.095H72.2637V436.078H103.247V405.095Z" fill="#525757"/>
<path d="M154.948 405.095H123.965V436.078H154.948V405.095Z" fill="#525757"/>
<path d="M206.647 405.095H175.664V436.078H206.647V405.095Z" fill="#525757"/>
<path d="M258.344 405.095H227.361V436.078H258.344V405.095Z" fill="#525757"/>
<path d="M310.044 405.095H279.061V436.078H310.044V405.095Z" fill="#525757"/>
<path d="M361.741 405.095H330.758V436.078H361.741V405.095Z" fill="#525757"/>
<path d="M51.5495 458.082H20.5664V489.065H51.5495V458.082Z" fill="#525757"/>
<path d="M103.247 458.082H72.2637V489.065H103.247V458.082Z" fill="#525757"/>
<path d="M154.948 458.082H123.965V489.065H154.948V458.082Z" fill="#525757"/>
<path d="M206.647 458.082H175.664V489.065H206.647V458.082Z" fill="#525757"/>
<path d="M258.344 458.082H227.361V489.065H258.344V458.082Z" fill="#525757"/>
<path d="M310.044 458.082H279.061V489.065H310.044V458.082Z" fill="#525757"/>
<path d="M361.741 458.082H330.758V489.065H361.741V458.082Z" fill="#525757"/>
<path d="M51.5495 511.072H20.5664V542.055H51.5495V511.072Z" fill="#525757"/>
<path d="M103.247 511.072H72.2637V542.055H103.247V511.072Z" fill="#525757"/>
<path d="M154.948 511.072H123.965V542.055H154.948V511.072Z" fill="#525757"/>
<path d="M206.647 511.072H175.664V542.055H206.647V511.072Z" fill="#525757"/>
<path d="M258.344 511.072H227.361V542.055H258.344V511.072Z" fill="#525757"/>
<path d="M310.044 511.072H279.061V542.055H310.044V511.072Z" fill="#525757"/>
<path d="M361.741 511.072H330.758V542.055H361.741V511.072Z" fill="#525757"/>
<path d="M51.5495 564.063H20.5664V595.047H51.5495V564.063Z" fill="#525757"/>
<path d="M103.247 564.063H72.2637V595.047H103.247V564.063Z" fill="#525757"/>
<path d="M154.948 564.063H123.965V595.047H154.948V564.063Z" fill="#525757"/>
<path d="M206.647 564.063H175.664V595.047H206.647V564.063Z" fill="#525757"/>
<path d="M258.344 564.063H227.361V595.047H258.344V564.063Z" fill="#525757"/>
<path d="M310.044 564.063H279.061V595.047H310.044V564.063Z" fill="#525757"/>
<path d="M361.741 564.063H330.758V595.047H361.741V564.063Z" fill="#525757"/>
<path d="M51.5495 617.05H20.5664V648.033H51.5495V617.05Z" fill="#525757"/>
<path d="M103.247 617.05H72.2637V648.033H103.247V617.05Z" fill="#525757"/>
<path d="M154.948 617.05H123.965V648.033H154.948V617.05Z" fill="#525757"/>
<path d="M206.647 617.05H175.664V648.033H206.647V617.05Z" fill="#525757"/>
<path d="M258.344 617.05H227.361V648.033H258.344V617.05Z" fill="#525757"/>
<path d="M310.044 617.05H279.061V648.033H310.044V617.05Z" fill="#525757"/>
<path d="M361.741 617.05H330.758V648.033H361.741V617.05Z" fill="#525757"/>
<path d="M51.5495 670.041H20.5664V701.024H51.5495V670.041Z" fill="#525757"/>
<path d="M103.247 670.041H72.2637V701.024H103.247V670.041Z" fill="#525757"/>
<path d="M154.948 670.041H123.965V701.024H154.948V670.041Z" fill="#525757"/>
<path d="M206.647 670.041H175.664V701.024H206.647V670.041Z" fill="#525757"/>
<path d="M258.344 670.041H227.361V701.024H258.344V670.041Z" fill="#525757"/>
<path d="M310.044 670.041H279.061V701.024H310.044V670.041Z" fill="#525757"/>
<path d="M361.741 670.041H330.758V701.024H361.741V670.041Z" fill="#525757"/>
<path d="M51.5495 723.028H20.5664V754.012H51.5495V723.028Z" fill="#525757"/>
<path d="M103.247 723.028H72.2637V754.012H103.247V723.028Z" fill="#525757"/>
<path d="M154.948 723.028H123.965V754.012H154.948V723.028Z" fill="#525757"/>
<path d="M206.647 723.028H175.664V754.012H206.647V723.028Z" fill="#525757"/>
<path d="M258.344 723.028H227.361V754.012H258.344V723.028Z" fill="#525757"/>
<path d="M310.044 723.028H279.061V754.012H310.044V723.028Z" fill="#525757"/>
<path d="M361.741 723.028H330.758V754.012H361.741V723.028Z" fill="#525757"/>
<path d="M51.5495 776.019H20.5664V807.002H51.5495V776.019Z" fill="#525757"/>
<path d="M103.247 776.019H72.2637V807.002H103.247V776.019Z" fill="#525757"/>
<path d="M154.948 776.019H123.965V807.002H154.948V776.019Z" fill="#525757"/>
<path d="M206.647 776.019H175.664V807.002H206.647V776.019Z" fill="#525757"/>
<path d="M258.344 776.019H227.361V807.002H258.344V776.019Z" fill="#525757"/>
<path d="M310.044 776.019H279.061V807.002H310.044V776.019Z" fill="#525757"/>
<path d="M361.741 776.019H330.758V807.002H361.741V776.019Z" fill="#525757"/>
<path d="M51.5495 829.01H20.5664V859.993H51.5495V829.01Z" fill="#525757"/>
<path d="M103.247 829.01H72.2637V859.993H103.247V829.01Z" fill="#525757"/>
<path d="M154.948 829.01H123.965V859.993H154.948V829.01Z" fill="#525757"/>
<path d="M206.647 829.01H175.664V859.993H206.647V829.01Z" fill="#525757"/>
<path d="M258.344 829.01H227.361V859.993H258.344V829.01Z" fill="#525757"/>
<path d="M310.044 829.01H279.061V859.993H310.044V829.01Z" fill="#525757"/>
<path d="M361.741 829.01H330.758V859.993H361.741V829.01Z" fill="#525757"/>
<path d="M51.5495 881.997H20.5664V912.98H51.5495V881.997Z" fill="#525757"/>
<path d="M103.247 881.997H72.2637V912.98H103.247V881.997Z" fill="#525757"/>
<path d="M154.948 881.997H123.965V912.98H154.948V881.997Z" fill="#525757"/>
<path d="M206.647 881.997H175.664V912.98H206.647V881.997Z" fill="#525757"/>
<path d="M258.344 881.997H227.361V912.98H258.344V881.997Z" fill="#525757"/>
<path d="M310.044 881.997H279.061V912.98H310.044V881.997Z" fill="#525757"/>
<path d="M361.741 881.997H330.758V912.98H361.741V881.997Z" fill="#525757"/>
<path d="M51.5495 934.987H20.5664V965.97H51.5495V934.987Z" fill="#525757"/>
<path d="M103.247 934.987H72.2637V965.97H103.247V934.987Z" fill="#525757"/>
<path d="M154.948 934.987H123.965V965.97H154.948V934.987Z" fill="#525757"/>
<path d="M206.647 934.987H175.664V965.97H206.647V934.987Z" fill="#525757"/>
<path d="M258.344 934.987H227.361V965.97H258.344V934.987Z" fill="#525757"/>
<path d="M310.044 934.987H279.061V965.97H310.044V934.987Z" fill="#525757"/>
<path d="M361.741 934.987H330.758V965.97H361.741V934.987Z" fill="#525757"/>
<path d="M51.5495 987.975H20.5664V1018.96H51.5495V987.975Z" fill="#525757"/>
<path d="M103.247 987.975H72.2637V1018.96H103.247V987.975Z" fill="#525757"/>
<path d="M154.948 987.975H123.965V1018.96H154.948V987.975Z" fill="#525757"/>
<path d="M206.647 987.975H175.664V1018.96H206.647V987.975Z" fill="#525757"/>
<path d="M258.344 987.975H227.361V1018.96H258.344V987.975Z" fill="#525757"/>
<path d="M310.044 987.975H279.061V1018.96H310.044V987.975Z" fill="#525757"/>
<path d="M361.741 987.975H330.758V1018.96H361.741V987.975Z" fill="#525757"/>
<path d="M51.5495 1040.96H20.5664V1071.95H51.5495V1040.96Z" fill="#525757"/>
<path d="M103.247 1040.96H72.2637V1071.95H103.247V1040.96Z" fill="#525757"/>
<path d="M154.948 1040.96H123.965V1071.95H154.948V1040.96Z" fill="#525757"/>
<path d="M206.647 1040.96H175.664V1071.95H206.647V1040.96Z" fill="#525757"/>
<path d="M258.344 1040.96H227.361V1071.95H258.344V1040.96Z" fill="#525757"/>
<path d="M310.044 1040.96H279.061V1071.95H310.044V1040.96Z" fill="#525757"/>
<path d="M361.741 1040.96H330.758V1071.95H361.741V1040.96Z" fill="#525757"/>
<path d="M51.5495 1093.95H20.5664V1124.94H51.5495V1093.95Z" fill="#525757"/>
<path d="M103.247 1093.95H72.2637V1124.94H103.247V1093.95Z" fill="#525757"/>
<path d="M154.948 1093.95H123.965V1124.94H154.948V1093.95Z" fill="#525757"/>
<path d="M206.647 1093.95H175.664V1124.94H206.647V1093.95Z" fill="#525757"/>
<path d="M258.344 1093.95H227.361V1124.94H258.344V1093.95Z" fill="#525757"/>
<path d="M310.044 1093.95H279.061V1124.94H310.044V1093.95Z" fill="#525757"/>
<path d="M361.741 1093.95H330.758V1124.94H361.741V1093.95Z" fill="#525757"/>
<path d="M51.5495 1146.94H20.5664V1177.93H51.5495V1146.94Z" fill="#525757"/>
<path d="M103.247 1146.94H72.2637V1177.93H103.247V1146.94Z" fill="#525757"/>
<path d="M154.948 1146.94H123.965V1177.93H154.948V1146.94Z" fill="#525757"/>
<path d="M206.647 1146.94H175.664V1177.93H206.647V1146.94Z" fill="#525757"/>
<path d="M258.344 1146.94H227.361V1177.93H258.344V1146.94Z" fill="#525757"/>
<path d="M310.044 1146.94H279.061V1177.93H310.044V1146.94Z" fill="#525757"/>
<path d="M361.741 1146.94H330.758V1177.93H361.741V1146.94Z" fill="#525757"/>
<path d="M51.5495 1199.93H20.5664V1230.92H51.5495V1199.93Z" fill="#525757"/>
<path d="M103.247 1199.93H72.2637V1230.92H103.247V1199.93Z" fill="#525757"/>
<path d="M154.948 1199.93H123.965V1230.92H154.948V1199.93Z" fill="#525757"/>
<path d="M206.647 1199.93H175.664V1230.92H206.647V1199.93Z" fill="#525757"/>
<path d="M258.344 1199.93H227.361V1230.92H258.344V1199.93Z" fill="#525757"/>
<path d="M310.044 1199.93H279.061V1230.92H310.044V1199.93Z" fill="#525757"/>
<path d="M361.741 1199.93H330.758V1230.92H361.741V1199.93Z" fill="#525757"/>
<path d="M51.5495 1252.92H20.5664V1283.9H51.5495V1252.92Z" fill="#525757"/>
<path d="M103.247 1252.92H72.2637V1283.9H103.247V1252.92Z" fill="#525757"/>
<path d="M154.948 1252.92H123.965V1283.9H154.948V1252.92Z" fill="#525757"/>
<path d="M206.647 1252.92H175.664V1283.9H206.647V1252.92Z" fill="#525757"/>
<path d="M258.344 1252.92H227.361V1283.9H258.344V1252.92Z" fill="#525757"/>
<path d="M310.044 1252.92H279.061V1283.9H310.044V1252.92Z" fill="#525757"/>
<path d="M361.741 1252.92H330.758V1283.9H361.741V1252.92Z" fill="#525757"/>
<path d="M564.796 521.337L409.115 445.153V413.282L564.796 489.469V521.337Z" fill="#969E9E"/>
<path d="M564.796 571.437L409.115 495.25V463.383L564.796 539.57V571.437Z" fill="#969E9E"/>
<path d="M564.796 621.538L409.115 545.351V513.479L564.796 589.667V621.538Z" fill="#969E9E"/>
<path d="M564.796 671.635L409.115 595.447V563.58L564.796 639.767V671.635Z" fill="#969E9E"/>
<path d="M564.796 721.735L409.115 645.548V613.681L564.796 689.864V721.735Z" fill="#969E9E"/>
<path d="M564.796 771.832L409.115 695.645V663.777L564.796 739.965V771.832Z" fill="#969E9E"/>
<path d="M564.796 821.932L409.115 745.745V713.878L564.796 790.061V821.932Z" fill="#969E9E"/>
<path d="M564.796 872.029L409.115 795.846V763.975L564.796 840.162V872.029Z" fill="#969E9E"/>
<path d="M564.796 922.13L409.115 845.942V814.075L564.796 890.263V922.13Z" fill="#969E9E"/>
<path d="M564.796 972.23L409.115 896.043V864.172L564.796 940.359V972.23Z" fill="#969E9E"/>
<path d="M564.796 1022.33L409.115 946.14V914.272L564.796 990.46V1022.33Z" fill="#969E9E"/>
<path d="M564.796 1072.43L409.115 996.24V964.373L564.796 1040.56V1072.43Z" fill="#969E9E"/>
<path d="M564.796 1122.52L409.115 1046.34V1014.47L564.796 1090.66V1122.52Z" fill="#969E9E"/>
<path d="M564.796 1172.62L409.115 1096.44V1064.57L564.796 1140.76V1172.62Z" fill="#969E9E"/>
<path d="M564.796 1222.72L409.115 1146.53V1114.67L564.796 1190.85V1222.72Z" fill="#969E9E"/>
<path d="M564.796 1272.82L409.115 1196.63V1164.77L564.796 1240.95V1272.82Z" fill="#969E9E"/>
<path d="M564.796 1322.92L409.115 1246.74V1214.86L564.796 1291.05V1322.92Z" fill="#969E9E"/>
<path d="M506.755 444.741H482.57V1317.55H506.755V444.741Z" fill="#AAB1B3"/>
<path d="M99.3211 163.987H67.8477V355.392H99.3211V163.987Z" fill="#616666"/>
<path d="M160.339 163.987H128.865V355.392H160.339V163.987Z" fill="#616666"/>
<path d="M221.358 163.987H189.885V355.392H221.358V163.987Z" fill="#616666"/>
<path d="M282.374 163.987H250.9V355.392H282.374V163.987Z" fill="#616666"/>
<path d="M343.391 163.987H311.918V355.392H343.391V163.987Z" fill="#616666"/>
<path d="M447.442 388.221L415.973 370.805V179.404L447.442 200.669V388.221Z" fill="#AAB1B3"/>
<path d="M500.11 415.196L468.641 397.787V210.235L500.11 231.504V415.196Z" fill="#AAB1B3"/>
<path d="M544.653 438.322L514.885 420.91V241.066L544.653 262.335V438.322Z" fill="#AAB1B3"/>
<path d="M475.382 82.897L415.648 42.2734V140.543L475.382 181.17V82.897Z" fill="#B0B8BA"/>
</svg>
