<svg width="162" height="155" viewBox="0 0 162 155" fill="none" xmlns="http://www.w3.org/2000/svg">
<path d="M147.419 70.6733C147.863 73.4996 148.726 76.2387 149.977 78.7943C151.75 81.8298 152.135 88.1232 151.95 92.1916C151.765 96.2601 151.549 107.401 153.121 110.659C154.693 113.916 159.486 120.194 160.827 125.057C162.168 129.92 162.599 136.627 160.827 140.949C159.055 145.272 157.467 151.502 154.662 152.519C151.858 153.536 143.443 152.519 143.443 152.519C143.443 152.519 143.443 149.484 144.63 148.466C145.816 147.449 149.947 145.415 150.332 142.109C150.717 138.804 151.318 133.385 151.318 133.385C151.318 133.385 141.285 129.125 136.169 124.04C131.052 118.954 124.564 111.787 124.564 111.787C123.491 115.913 122.104 119.947 120.418 123.849C119.764 125.167 119.422 126.627 119.422 128.108C119.422 129.589 119.764 131.049 120.418 132.368C121.019 133.782 113.53 142.253 105.269 148.61C97.0085 154.966 90.1196 151.041 90.1196 151.041C90.1196 151.041 88.9329 145.765 91.1059 144.684C93.2105 144.052 95.4139 143.847 97.5941 144.08C97.5941 144.08 107.827 136.356 106.641 130.683C105.454 125.009 101.925 118.509 101.524 114.234C101.123 109.959 100.938 107.957 100.938 107.957C94.595 108.839 88.1978 109.243 81.7975 109.165C77.7438 109.022 73.7246 108.343 69.8382 107.146C69.8382 107.146 66.494 128.251 68.667 131.287C70.84 134.322 77.7134 140.012 78.3145 143.874C78.9155 147.735 77.9138 153.298 73.5832 152.853C69.2526 152.408 69.4529 149.674 69.6533 146.098C66.9532 143.383 64.4499 140.467 62.1634 137.374C60.7918 134.942 53.3172 113.63 53.3172 113.63C53.3172 113.63 41.6971 136.77 41.3118 140.822C41.1631 142.268 40.6955 143.661 39.9449 144.892C39.1943 146.123 38.1805 147.161 36.9811 147.926C36.1952 148.133 34.4229 154.903 31.6642 154.903C28.4932 154.668 25.3385 154.238 22.217 153.616C22.217 153.616 22.4174 149.15 25.2993 147.735C28.1813 146.321 32.3886 145.701 32.3886 139.789C32.3886 133.877 35.7328 110.754 35.4708 109.943C35.2089 109.133 29.183 97.5632 28.1967 93.5107C27.2103 89.4581 25.1144 80.1134 25.1144 80.1134C25.1144 80.1134 21.1691 67.3995 18.0252 64.078C14.8812 60.7565 10.3195 60.8995 7.00602 60.4227C3.69257 59.946 3.49222 58.5951 2.47507 56.3702C1.45792 54.1453 -0.838367 49.2663 0.317486 48.6624C1.47334 48.0585 7.59163 45.4045 8.37761 44.1967C9.16359 42.9888 9.76463 40.3348 12.3229 39.3177C14.8812 38.3006 21.1691 34.0414 24.3284 34.0414C27.4877 34.0414 33.5753 39.7309 34.9469 40.9387C37.6221 43.533 40.1196 46.3155 42.4213 49.2663C44.5944 52.1111 46.1663 59.8188 54.2419 60.0254C62.3175 60.232 131.777 61.8531 135.121 59.8188C138.465 57.7846 142.827 60.0254 144.183 43.5768C145.539 27.1282 146.34 16.385 144.568 13.7469C142.796 11.1088 144.568 10.5684 141.224 9.90096C137.879 9.23348 133.749 8.47061 132.563 6.03908C131.376 3.60755 132.177 0 135.321 0C138.465 0 153.029 1.83622e-05 155.356 19.8337C157.683 39.6674 151.426 52.111 150.054 59.8188C148.683 67.5266 146.726 67.4949 147.419 70.6733Z" fill="#3E3E3E"/>
<path d="M95.2676 106.796C96.8211 106.835 98.3735 106.68 99.891 106.335C101.53 105.894 103.146 105.363 104.73 104.746C106.706 103.945 108.781 103.437 110.895 103.236C113.064 103.153 115.22 103.628 117.167 104.618C118.743 105.398 120.198 106.416 121.482 107.638C122.354 108.437 123.149 109.32 123.856 110.276C124.364 110.944 124.595 111.357 124.549 111.389C124.503 111.42 123.332 109.974 121.112 108.067C119.817 106.959 118.387 106.03 116.859 105.302C115.011 104.406 112.981 103.981 110.941 104.062C108.886 104.258 106.865 104.733 104.931 105.477C103.335 106.082 101.703 106.581 100.045 106.971C98.8959 107.222 97.7163 107.292 96.5467 107.177C96.1016 107.131 95.6682 107.001 95.2676 106.796Z" fill="#7A7A7A"/>
<path d="M32.8667 43.1296C31.8896 37.8203 30.1932 32.6791 27.8272 27.8571C27.5498 27.3009 27.1953 26.6969 26.5943 26.6016C25.7004 26.4903 25.1764 27.5869 24.9607 28.4928C24.379 30.8569 24.0177 33.2729 23.8818 35.7079" fill="#3E3E3E"/>
<path d="M20.3819 35.8604C19.8374 33.7314 18.7459 31.7933 17.2225 30.2504C16.8064 29.8372 16.2362 29.4081 15.6814 29.6465C15.1266 29.8849 15.0341 30.5365 14.9724 31.1086C14.7451 33.7545 14.7865 36.4177 15.0958 39.0548" fill="#3E3E3E"/>
<path d="M1.41113 53.3341C2.47104 52.8102 3.29764 51.8896 3.72284 50.7596C3.96253 49.6098 3.76388 48.409 3.16805 47.4062C3.16805 47.4062 0.409391 48.2644 0.209043 49.0908C0.00869476 49.9172 1.41113 53.3341 1.41113 53.3341Z" fill="#7A7A7A"/>
<path d="M24.9439 35.1724C24.8498 34.3485 24.9021 33.5137 25.098 32.7091C25.2367 31.8191 25.3754 30.945 25.4987 30.0551C25.5297 29.763 25.6079 29.4783 25.7299 29.2128C25.7759 29.1071 25.8419 29.012 25.9239 28.9329C26.0059 28.8538 26.1024 28.7922 26.2076 28.7519C26.3359 28.7077 26.4733 28.6991 26.6058 28.727C26.7384 28.7549 26.8615 28.8183 26.9628 28.9108C27.1817 29.1726 27.3398 29.4824 27.4251 29.8167L27.7025 30.6431C28.3063 32.547 28.6689 34.5235 28.7813 36.5233C28.8659 37.1506 28.7971 37.7898 28.581 38.3826C28.3806 38.8117 28.1341 38.9389 28.1032 38.8912C28.0724 38.8435 28.1957 38.6687 28.2882 38.2873C28.3568 37.7201 28.3308 37.1449 28.2111 36.5868C27.9425 34.6562 27.5145 32.7529 26.932 30.8973L26.67 30.0868C26.614 29.8852 26.531 29.6927 26.4234 29.5147C26.3213 29.7355 26.2537 29.9715 26.223 30.214L25.6682 32.8044C25.5486 33.628 25.3042 34.4271 24.9439 35.1724Z" fill="#7A7A7A"/>
<path d="M11.8145 39.5983C13.1448 38.5215 14.6257 37.6588 16.2067 37.0396C17.6816 36.1536 19.2839 35.5152 20.9534 35.1484C19.6281 36.2533 18.1469 37.1429 16.5611 37.7866C15.0815 38.6449 13.4795 39.2564 11.8145 39.5983Z" fill="#7A7A7A"/>
<path d="M34.9326 92.4922C35.3851 94.0172 35.984 95.4919 36.7203 96.8944C38.7404 100.129 41.3588 102.921 44.426 105.111C46.2137 106.334 48.2326 107.177 49.7583 108.48C51.1318 109.598 52.2566 111.007 53.0564 112.612C53.5875 113.679 54.0159 114.796 54.3355 115.949C54.4834 116.357 54.5717 116.786 54.5975 117.221C54.4434 117.221 53.9656 115.473 52.5632 112.898C51.735 111.417 50.6296 110.12 49.3114 109.084C47.8473 107.892 45.8901 107.081 43.9791 105.81C40.8325 103.545 38.2029 100.601 36.2734 97.1804C35.72 96.1233 35.3202 94.9881 35.0867 93.8112C34.9458 93.3876 34.8933 92.9382 34.9326 92.4922Z" fill="#7A7A7A"/>
<path d="M31.5409 88.3281C31.7875 88.3281 31.8029 90.712 32.7122 93.4296C33.6215 96.1472 34.9777 98.0543 34.7927 98.1973C33.3929 97.0544 32.3965 95.4684 31.957 93.6839C31.2649 91.9909 31.119 90.1132 31.5409 88.3281Z" fill="#7A7A7A"/>
<path d="M18.3632 44.5313C18.3663 44.8117 18.2885 45.0868 18.1396 45.3215C17.9908 45.5561 17.7776 45.7399 17.5273 45.8494C17.277 45.9589 17.0007 45.9892 16.7336 45.9364C16.4665 45.8836 16.2207 45.7502 16.0273 45.553C15.8339 45.3559 15.7018 45.1039 15.6476 44.8291C15.5934 44.5543 15.6197 44.2691 15.723 44.0097C15.8264 43.7504 16.0022 43.5285 16.228 43.3724C16.4539 43.2162 16.7197 43.1328 16.9916 43.1328C17.3527 43.1328 17.6993 43.2796 17.9561 43.5415C18.2129 43.8033 18.3592 44.159 18.3632 44.5313Z" fill="#7A7A7A"/>
</svg>
