<?xml version="1.0" encoding="UTF-8"?>
<svg viewBox="0 0 1116 292" xmlns="http://www.w3.org/2000/svg">
<path d="m835.58 0h-322.1c-9.112 0-16.498 7.3866-16.498 16.498v201.82c0 9.112 7.386 16.498 16.498 16.498h322.1c9.112 0 16.498-7.386 16.498-16.498v-201.82c0-9.1119-7.386-16.498-16.498-16.498z"/>
<path d="m482.13 217.46h384.72v0.396c0 5.346-2.124 10.473-5.904 14.253s-8.906 5.903-14.252 5.903h-344.41c-5.346 0-10.473-2.123-14.253-5.903s-5.903-8.907-5.903-14.253v-0.396z"/>
<path d="m841.55 9.3359h-335.04v198.3h335.04v-198.3z" fill="#fff"/>
<path d="m67 257h-32v35h32v-35z"/>
<path d="m1065 257h-31v35h31v-35z"/>
<path d="m1092.9 237.8h-1069.8c-12.269 0-22.214 4.156-22.214 9.282v2.548c0 5.126 9.9458 9.282 22.214 9.282h1069.8c12.26 0 22.21-4.156 22.21-9.282v-2.548c0-5.126-9.95-9.282-22.21-9.282z"/>
<path d="m923.75 163.6 0.279 59.456c0 19.976 57.272 19.308 56.546-0.549 0-1.178-0.28-59.456-0.28-59.456l-56.545 0.549z"/>
<path d="m978.9 173.5c3.377-0.765 6.82-0.765 10.197 0 2.498 0.336 4.809 2.008 6.454 4.67 0.994 2.381 1.524 5.088 1.536 7.849 0.586 5.187 0.211 10.499-1.089 15.423-1.573 4.344-4.228 7.725-7.46 9.497-3.191 1.734-6.619 2.432-10.029 2.041v-9.065c2.009 0.144 4.024-0.027 6.006-0.511 2.01-0.462 3.856-1.841 5.253-3.924 1.953-3.854 2.746-8.634 2.207-13.304 0.014-1.86-0.355-3.686-1.062-5.259-0.628-0.924-1.396-1.637-2.247-2.086-0.852-0.448-1.764-0.621-2.67-0.504-2.397 2e-3 -4.771 0.669-6.984 1.962"/>
</svg>