<?xml version="1.0" encoding="UTF-8"?>
<svg fill="none" viewBox="0 0 682 424" xmlns="http://www.w3.org/2000/svg">
<path d="m681.06 296.86c0 0.15-29.71 0.26-66.36 0.26s-66.37-0.11-66.37-0.26 29.71-0.26 66.37-0.26 66.36 0.12 66.36 0.26z" fill="#3D3D3D"/>
<path d="M681.058 273H548.328V407.58H681.058V273Z" fill="#E0E0E0"/>
<path d="m681.06 296.02c0 0.15-29.75 0.29-66.45 0.31s-66.45-0.06-66.45-0.21 29.74-0.28 66.45-0.31 66.45 0.07 66.45 0.21z" fill="#3D3D3D"/>
<path d="m623.41 281.1h-23.18v8.29h23.18v-8.29z" fill="#3D3D3D"/>
<path d="m645.62 285.25s0-0.47-0.26-1.27c-0.321-1.119-1.003-2.1-1.94-2.79-0.753-0.562-1.646-0.903-2.581-0.986-0.935-0.082-1.875 0.097-2.714 0.518-0.839 0.42-1.545 1.066-2.038 1.865s-0.754 1.719-0.754 2.658 0.261 1.859 0.754 2.658c0.493 0.798 1.199 1.444 2.038 1.865s1.779 0.6 2.714 0.517 1.828-0.424 2.581-0.985c0.937-0.69 1.619-1.671 1.94-2.79 0.22-0.79 0.21-1.26 0.26-1.26s0 0.11 0 0.34c4e-3 0.336-0.03 0.671-0.1 1-0.269 1.191-0.945 2.252-1.91 3-0.723 0.568-1.578 0.944-2.486 1.092-0.907 0.149-1.838 0.065-2.704-0.242-1.036-0.362-1.937-1.032-2.58-1.92-0.707-0.946-1.089-2.095-1.089-3.275 0-1.181 0.382-2.33 1.089-3.275 0.647-0.883 1.547-1.549 2.58-1.91 0.866-0.307 1.795-0.391 2.702-0.245 0.907 0.147 1.763 0.52 2.488 1.085 0.962 0.751 1.636 1.81 1.91 3 0.07 0.328 0.104 0.664 0.1 1 0.03 0.23 0.02 0.35 0 0.35z" fill="#3D3D3D"/>
<path d="m591.63 285.25c2e-3 0.524-0.152 1.038-0.442 1.475s-0.703 0.778-1.187 0.98-1.017 0.256-1.532 0.155c-0.514-0.101-0.988-0.353-1.359-0.723-0.372-0.37-0.625-0.842-0.728-1.356-0.103-0.515-0.051-1.048 0.149-1.533s0.54-0.899 0.976-1.191c0.436-0.291 0.949-0.447 1.473-0.447 0.701 0 1.374 0.278 1.87 0.773 0.497 0.494 0.777 1.166 0.78 1.867z" fill="#646464"/>
<path d="m584.16 285.25c0 0.522-0.155 1.032-0.445 1.467-0.29 0.434-0.702 0.772-1.185 0.972-0.482 0.2-1.013 0.252-1.525 0.15s-0.983-0.353-1.352-0.722c-0.369-0.37-0.621-0.84-0.722-1.352-0.102-0.512-0.05-1.043 0.15-1.525 0.2-0.483 0.538-0.895 0.972-1.185s0.945-0.445 1.467-0.445c0.7 0 1.372 0.278 1.867 0.773s0.773 1.167 0.773 1.867z" fill="#646464"/>
<path d="m576.7 285.25c0 0.522-0.155 1.032-0.445 1.467-0.29 0.434-0.702 0.772-1.185 0.972-0.482 0.2-1.013 0.252-1.525 0.15s-0.983-0.353-1.352-0.722c-0.369-0.37-0.621-0.84-0.722-1.352-0.102-0.512-0.05-1.043 0.15-1.525 0.2-0.483 0.538-0.895 0.972-1.185s0.945-0.445 1.467-0.445c0.7 0 1.372 0.278 1.867 0.773s0.773 1.167 0.773 1.867z" fill="#646464"/>
<path d="m661.26 285.25c-0.06 0 0-0.47-0.27-1.27-0.32-1.116-0.998-2.096-1.93-2.79-0.684-0.5-1.48-0.824-2.319-0.943-0.839-0.118-1.695-0.028-2.491 0.263-0.678 0.255-1.293 0.653-1.804 1.167-0.511 0.513-0.906 1.131-1.158 1.81-0.251 0.679-0.354 1.404-0.302 2.127 0.053 0.723 0.26 1.425 0.608 2.061 0.348 0.635 0.828 1.189 1.408 1.623s1.247 0.738 1.955 0.892 1.44 0.154 2.148 1e-3c0.708-0.154 1.375-0.457 1.955-0.891 0.932-0.693 1.61-1.673 1.93-2.79 0.22-0.79 0.21-1.26 0.27-1.26 0.014 0.113 0.014 0.227 0 0.34 0.01 0.336-0.024 0.673-0.1 1-0.269 1.192-0.944 2.252-1.91 3-0.811 0.628-1.783 1.016-2.804 1.12s-2.051-0.08-2.973-0.532c-0.921-0.452-1.698-1.154-2.241-2.025s-0.831-1.876-0.832-2.903c1e-3 -1.18 0.38-2.33 1.08-3.28 0.435-0.588 0.982-1.082 1.611-1.455 0.628-0.373 1.325-0.617 2.049-0.717 0.724-0.099 1.461-0.053 2.167 0.136 0.705 0.189 1.366 0.518 1.943 0.966 0.962 0.751 1.637 1.811 1.91 3 0.076 0.328 0.109 0.664 0.1 1 0.014 0.116 0.014 0.234 0 0.35z" fill="#3D3D3D"/>
<path d="m623.03 395.27h-22.03v4.92h22.03v-4.92z" fill="#3D3D3D"/>
<path d="m548.33 407.23v0.64 2h-0.14c-0.11-7.71-0.19-34.83-0.19-67.06 0-19.24 0.06-36.66 0.08-49.3 0-6.29 0.06-11.38 0.08-14.94 0-1.74 0-3.1 0.05-4.06v-1.06c-0.044-8e-3 -0.085-0.032-0.112-0.067-0.028-0.036-0.041-0.081-0.037-0.126 3e-3 -0.045 0.024-0.087 0.057-0.117 0.033-0.031 0.077-0.048 0.122-0.048s0.089 0.017 0.122 0.048c0.033 0.03 0.054 0.072 0.057 0.117 4e-3 0.045-9e-3 0.09-0.037 0.126-0.027 0.035-0.067 0.059-0.112 0.067v1.06c0 1 0 2.32 0.05 4.06 0 3.56 0 8.65 0.09 14.94 0 12.64 0 30.06 0.07 49.3 0 32.23-0.08 59.35-0.19 67.06h-0.14v-2c0-0.46 0.18-0.64 0.18-0.64z" fill="#3D3D3D"/>
<path d="M547.56 273H410V407.99H547.56V273Z" fill="#fff"/>
<path d="M547.56 273H410V296.12H547.56V273Z" fill="#E0E0E0"/>
<path d="m460.6 283.28c-0.05 0 0-0.59-0.3-1.6-0.399-1.423-1.257-2.675-2.44-3.56-0.868-0.642-1.881-1.058-2.949-1.212-1.068-0.153-2.158-0.039-3.171 0.332-1.234 0.456-2.299 1.28-3.051 2.36s-1.155 2.364-1.155 3.68 0.403 2.6 1.155 3.68 1.817 1.903 3.051 2.36c1.013 0.374 2.103 0.489 3.171 0.335 1.069-0.153 2.083-0.571 2.949-1.215 1.184-0.881 2.042-2.129 2.44-3.55 0.27-1 0.25-1.61 0.3-1.61 0.023 0.142 0.023 0.287 0 0.43-5e-3 0.414-0.055 0.827-0.15 1.23-0.333 1.507-1.186 2.849-2.41 3.79-1.018 0.784-2.236 1.268-3.515 1.396s-2.568-0.105-3.722-0.672c-1.153-0.567-2.125-1.446-2.804-2.538-0.679-1.091-1.039-2.351-1.039-3.636 5e-3 -1.472 0.478-2.905 1.35-4.09 0.542-0.738 1.227-1.36 2.013-1.829s1.658-0.776 2.565-0.903 1.83-0.071 2.715 0.165 1.713 0.646 2.437 1.207c1.224 0.944 2.077 2.29 2.41 3.8 0.095 0.4 0.146 0.809 0.15 1.22 0.024 0.142 0.024 0.287 0 0.43z" fill="#3D3D3D"/>
<path d="m510.94 283.28c-0.05 0 0-0.59-0.3-1.6-0.399-1.423-1.256-2.674-2.44-3.56-0.867-0.642-1.881-1.058-2.949-1.212-1.068-0.153-2.157-0.039-3.171 0.332-1.234 0.457-2.298 1.28-3.05 2.36s-1.155 2.364-1.155 3.68 0.403 2.6 1.155 3.68 1.816 1.904 3.05 2.36c1.013 0.374 2.103 0.489 3.172 0.336 1.069-0.154 2.082-0.572 2.948-1.216 1.185-0.88 2.043-2.129 2.44-3.55 0.27-1 0.25-1.61 0.3-1.61 0.026 0.142 0.026 0.288 0 0.43 5e-3 0.414-0.042 0.827-0.14 1.23-0.337 1.506-1.189 2.846-2.41 3.79-1.314 1.012-2.951 1.515-4.607 1.415-1.656-0.099-3.22-0.793-4.405-1.955-1.185-1.161-1.91-2.712-2.042-4.366s0.339-3.299 1.324-4.634c0.542-0.739 1.226-1.362 2.012-1.832s1.659-0.777 2.566-0.904 1.831-0.07 2.716 0.166 1.713 0.648 2.436 1.21c1.222 0.948 2.074 2.292 2.41 3.8 0.099 0.399 0.146 0.809 0.14 1.22 0.03 0.29 0.02 0.43 0 0.43z" fill="#3D3D3D"/>
<path d="m490.15 277.4h-22.62v10.7h22.62v-10.7z" fill="#3D3D3D"/>
<path d="m474.74 292.16c0 0.396-0.117 0.782-0.337 1.111s-0.532 0.586-0.897 0.737c-0.366 0.151-0.768 0.191-1.156 0.114s-0.744-0.268-1.024-0.548c-0.28-0.279-0.47-0.636-0.547-1.024s-0.038-0.79 0.114-1.155c0.151-0.366 0.407-0.678 0.736-0.898s0.716-0.337 1.111-0.337c0.531 0 1.039 0.211 1.415 0.586 0.375 0.375 0.585 0.884 0.585 1.414z" fill="#3D3D3D"/>
<path d="m480.98 292.16c0 0.396-0.117 0.782-0.337 1.111-0.219 0.329-0.532 0.586-0.897 0.737-0.366 0.151-0.768 0.191-1.156 0.114s-0.744-0.268-1.024-0.548c-0.279-0.279-0.47-0.636-0.547-1.024s-0.038-0.79 0.114-1.155c0.151-0.366 0.407-0.678 0.736-0.898s0.716-0.337 1.111-0.337c0.531 0 1.04 0.211 1.415 0.586s0.585 0.884 0.585 1.414z" fill="#3D3D3D"/>
<path d="m487.21 292.16c0 0.396-0.117 0.782-0.337 1.111s-0.532 0.586-0.898 0.737c-0.365 0.151-0.767 0.191-1.155 0.114s-0.745-0.268-1.024-0.548c-0.28-0.279-0.47-0.636-0.548-1.024-0.077-0.388-0.037-0.79 0.114-1.155 0.152-0.366 0.408-0.678 0.737-0.898s0.715-0.337 1.111-0.337c0.53 0 1.039 0.211 1.414 0.586s0.586 0.884 0.586 1.414z" fill="#3D3D3D"/>
<path d="m536.59 303.2h-114.57c-1.823 0-3.3 1.478-3.3 3.3v0.73c0 1.823 1.477 3.3 3.3 3.3h114.57c1.822 0 3.3-1.477 3.3-3.3v-0.73c0-1.822-1.478-3.3-3.3-3.3z" fill="#E0E0E0"/>
<path d="m536.59 310.53c0.215-0.016 0.429-0.047 0.64-0.09 0.616-0.131 1.182-0.437 1.63-0.88 0.365-0.36 0.645-0.798 0.818-1.281s0.235-0.999 0.182-1.509c0.046-0.69-0.129-1.377-0.5-1.961-0.37-0.585-0.917-1.036-1.56-1.289-0.798-0.216-1.628-0.287-2.45-0.21h-24.42l-88.85 0.07c-0.753-3e-3 -1.479 0.277-2.035 0.785-0.555 0.507-0.9 1.205-0.965 1.955-0.045 0.512-0.045 1.028 0 1.54 0.078 0.487 0.275 0.946 0.573 1.339 0.298 0.392 0.689 0.705 1.137 0.911 0.451 0.207 0.944 0.306 1.44 0.29h37.61l39.95 0.06 26.95 0.2h7.32l-7.32 0.05-26.93 0.08-39.95 0.05h-37.68c-0.872 0.035-1.726-0.251-2.401-0.804s-1.123-1.335-1.259-2.196c-0.05-0.556-0.05-1.115 0-1.67 0.061-0.582 0.26-1.141 0.58-1.63 0.331-0.49 0.778-0.891 1.301-1.167 0.524-0.275 1.107-0.417 1.699-0.413l88.85 0.08h24.42c0.847-0.079 1.702 3e-3 2.52 0.24 0.676 0.271 1.249 0.751 1.636 1.369 0.386 0.619 0.566 1.344 0.514 2.071 0.055 0.521-6e-3 1.048-0.179 1.542-0.173 0.495-0.453 0.945-0.821 1.318-0.466 0.449-1.054 0.751-1.69 0.87-0.233 0.141-0.491 0.236-0.76 0.28z" fill="#3D3D3D"/>
<path d="m530.33 317.53h-104.04v59.02h104.04v-59.02z" fill="#3D3D3D"/>
<path d="m478.31 317.53-52.02 50.18v8.83h26.01l60.37-59.01h-34.36z" fill="#646464"/>
<path d="m452.31 376.57h-26.05v-8.87l52-50.19h34.48l-60.43 59.06zm-26-0.05h26l60.32-59h-34.31l-52 50.17-0.01 8.83z" fill="#3D3D3D"/>
<path d="m464.84 376.54 59.15-59.14h6.34v9.89l-49.29 49.29-16.2-0.04z" fill="#646464"/>
<path d="m481.05 376.6h-16.26l59.15-59.16h6.37v9.93l-49.26 49.23zm-16.15-0.08h16.13l49.27-49.27v-9.79h-6.3l-59.1 59.06z" fill="#3D3D3D"/>
<path d="M410.08 272.645H233V408.105H410.08V272.645Z" fill="#6A6A6A"/>
<path d="m320.89 408.1c-0.14 0-0.33-30.31-0.42-67.7s0-67.71 0.11-67.71 0.33 30.31 0.41 67.71 0.04 67.7-0.1 67.7z" fill="#3B3B3B"/>
<path d="m306.37 352.42h0.36c0.624 0 1.13-0.506 1.13-1.13v-21.83c0-0.624-0.506-1.13-1.13-1.13h-0.36c-0.624 0-1.13 0.506-1.13 1.13v21.83c0 0.624 0.506 1.13 1.13 1.13z" fill="#E0E0E0"/>
<path d="m335.62 352h0.36c0.624 0 1.13-0.506 1.13-1.13v-21.83c0-0.624-0.506-1.13-1.13-1.13h-0.36c-0.624 0-1.13 0.506-1.13 1.13v21.83c0 0.624 0.506 1.13 1.13 1.13z" fill="#E0E0E0"/>
<g opacity=".3">
<path d="m314.48 402.54v-0.62-1.78-6.88c0-6 0-14.78-0.07-25.84 0-22.1-0.07-53.36-0.12-90.06l0.24 0.24h-76.16l0.26-0.26c0 47.58 0 91.3-0.06 125.18l-0.2-0.21 55.52 0.11 15.27 0.05h5.38-5.33l-15.22 0.05-55.65 0.11h-0.2v-0.09c0-33.88 0-77.6-0.06-125.18v-0.26h76.68v0.24c0 36.76-0.08 68.08-0.11 90.22 0 11-0.05 19.78-0.07 25.78v6.84 1.75c0 0.4-0.1 0.61-0.1 0.61z" fill="#000"/>
</g>
<g opacity=".3">
<path d="m320.58 272.68c-0.834 0.999-1.8 1.881-2.87 2.62-0.962 0.874-2.035 1.617-3.19 2.21 0.83-1.002 1.796-1.884 2.87-2.62 0.961-0.874 2.034-1.617 3.19-2.21z" fill="#000"/>
</g>
<g opacity=".3">
<path d="m321.02 407.96c-1.231-0.702-2.37-1.555-3.39-2.54-1.132-0.856-2.159-1.843-3.06-2.94 1.23 0.704 2.369 1.557 3.39 2.54 1.136 0.852 2.163 1.84 3.06 2.94z" fill="#000"/>
</g>
<g opacity=".3">
<path d="m402.84 402.54v-0.62-1.78-6.88c0-6 0-14.78-0.07-25.84 0-22.1-0.07-53.36-0.12-90.06l0.24 0.24h-76.16l0.26-0.26c0 47.58 0 91.3-0.06 125.18l-0.2-0.21 55.52 0.11 15.27 0.05h5.38-5.33l-15.22 0.05-55.65 0.11h-0.2v-0.09c0-33.88 0-77.6-0.06-125.18v-0.26h76.67v0.24c0 36.76-0.08 68.08-0.11 90.22 0 11-0.05 19.78-0.07 25.78v6.84 1.75c0 0.4-0.09 0.61-0.09 0.61z" fill="#000"/>
</g>
<g opacity=".3">
<path d="m410.25 273.16c-1.031 1.014-2.212 1.863-3.5 2.52-1.206 0.801-2.524 1.421-3.91 1.84 1.14-0.874 2.358-1.641 3.64-2.29 1.195-0.797 2.456-1.489 3.77-2.07z" fill="#000"/>
</g>
<g opacity=".3">
<path d="m326.73 277.02c-1.128-0.554-2.206-1.207-3.22-1.95-1.12-0.603-2.114-1.414-2.93-2.39 1.123 0.583 2.2 1.252 3.22 2 1.116 0.588 2.11 1.382 2.93 2.34z" fill="#000"/>
</g>
<g opacity=".3">
<path d="m326.6 402.7c-0.706 1.121-1.615 2.102-2.68 2.89-0.934 0.91-1.937 1.746-3 2.5 0.706-1.121 1.615-2.101 2.68-2.89 0.933-0.91 1.937-1.746 3-2.5z" fill="#000"/>
</g>
<g opacity=".3">
<path d="m411.25 407.72c-0.1 0.11-1.8-1.29-4.08-2.72s-4.27-2.38-4.21-2.52c3.173 0.994 6.031 2.801 8.29 5.24z" fill="#000"/>
</g>
<path d="m670.26 407.66h-436.98v15.41h436.98v-15.41z" fill="#3B3B3B"/>
<path d="m681.9 268.92h-448.62v4.15h448.62v-4.15z" fill="#3B3B3B"/>
<path d="m309.25 269.42h-61.1v-3.89h61.1v3.89zm-60.1-1h59.1v-1.89h-59.1v1.89z" fill="#3B3B3B"/>
<path d="m278.52 265.54h-4v-24.6c0-2.204 0.875-4.318 2.433-5.876 1.559-1.558 3.673-2.434 5.877-2.434 2.203 0 4.317 0.876 5.876 2.434 1.558 1.558 2.434 3.672 2.434 5.876v1.11h-4v-1.11c0-1.143-0.455-2.239-1.263-3.048-0.808-0.808-1.904-1.262-3.047-1.262-1.144 0-2.24 0.454-3.048 1.262-0.808 0.809-1.262 1.905-1.262 3.048v24.6z" fill="#3B3B3B"/>
<path d="m291.59 241.24h-4.9c-0.657 0-1.19 0.533-1.19 1.19v0.26c0 0.657 0.533 1.19 1.19 1.19h4.9c0.657 0 1.19-0.533 1.19-1.19v-0.26c0-0.657-0.533-1.19-1.19-1.19z" fill="#3B3B3B"/>
<path d="m264.66 260.04h-7.67v2.62h7.67v-2.62z" fill="#3B3B3B"/>
<path d="m295.81 260.04h-7.67v2.62h7.67v-2.62z" fill="#3B3B3B"/>
<path d="M225.94 0H8.08984V423.07H225.94V0Z" fill="#3B3B3B"/>
<path d="m232.37 21.01h-232.11v388.32h232.11v-388.32z" fill="#E0E0E0"/>
<path d="m232.34 409.33c0-2.19-0.1-160.54-0.24-388.32l0.24 0.24-232 0.02 0.26-0.26c0 147.83 1e-6 283.57-0.059999 388.32l-0.2-0.21 232 0.21-232.08 0.2h-0.2v-0.2c0-104.75 5e-7 -240.49-0.06-388.32v-0.26h232.66v0.24c-0.19 227.8-0.32 386.15-0.32 388.34z" fill="#3B3B3B"/>
<path d="m57.018 148.11h-43.69v58.45h43.69v-58.45z" fill="#3B3B3B"/>
<path d="m57.018 211.07h-43.69v64.29h43.69v-64.29z" fill="#3B3B3B"/>
<path d="m47.608 211.07h-25.96v9.54h25.96v-9.54z" fill="#696969"/>
<path d="m71.07 126.82h-0.67c-1.6403 0-2.97 1.33-2.97 2.97v165.13c0 1.64 1.3297 2.97 2.97 2.97h0.67c1.6403 0 2.97-1.33 2.97-2.97v-165.13c0-1.64-1.3297-2.97-2.97-2.97z" fill="#fff"/>
<path d="m71.059 297.89c0.3013-0.023 0.5995-0.077 0.89-0.16 0.4142-0.141 0.7926-0.37 1.1087-0.673 0.3161-0.302 0.5623-0.67 0.7213-1.077 0.1913-0.618 0.2559-1.267 0.19-1.91v-2.36-5.89c0-8.87 0-21.69-0.09-37.53s0-34.72-0.05-55.66v-32.87-28.52c0.0392-0.725 0.0057-1.452-0.1-2.17-0.1872-0.67-0.6238-1.242-1.22-1.6-0.6255-0.342-1.3427-0.478-2.05-0.39-0.6951-1e-3 -1.364 0.265-1.8684 0.743-0.5044 0.479-0.8057 1.133-0.8416 1.827v4.47 8.9 17.39 32.88c0 21 0 39.82-0.06 55.67s-0.06 28.65-0.08 37.52v5.89c0 1.7-0.26 3.22 0.48 4.19 0.2463 0.36 0.568 0.661 0.9427 0.884 0.3748 0.223 0.7936 0.361 1.2273 0.406h0.9c-0.2997 0.018-0.6002 0.018-0.9 0-0.4494-0.032-0.8859-0.164-1.2771-0.387-0.3913-0.224-0.7272-0.532-0.9829-0.903-0.4125-0.523-0.6442-1.165-0.66-1.83v-2.36-5.89c0-8.87 0-21.69-0.09-37.52s0-34.72-0.05-55.67v-32.88-26.29-4.5c0.0381-0.829 0.3967-1.611 1-2.18 0.6029-0.569 1.4013-0.884 2.23-0.88 0.3893-0.034 0.7808-0.034 1.17 0 0.4061 0.067 0.7961 0.209 1.15 0.42 0.7071 0.431 1.2251 1.113 1.45 1.91 0.0984 0.385 0.1389 0.783 0.12 1.18v12.26 17.39 32.87c0 20.94 0 39.81-0.06 55.66s-0.06 28.66-0.08 37.53v5.89 2.36c0.06 0.658-0.0148 1.322-0.22 1.95-0.1672 0.419-0.4266 0.794-0.759 1.099s-0.7293 0.531-1.161 0.661c-0.3124 0.118-0.6464 0.169-0.98 0.15z" fill="#3B3B3B"/>
<path d="m90.441 17.18h-4.07v395.81h4.07v-395.81z" fill="#3B3B3B"/>
<path d="m90.951 413.53h-5.08v-396.85h5.08v396.85zm-4.08-1h3.08v-394.85h-3.08v394.85z" fill="#3B3B3B"/>
<path d="m47.05 154.49h-24.71v30.42h24.71v-30.42z" fill="#696969"/>
<path d="m29.448 189.46h-6.37v5.16h6.37v-5.16z" fill="#696969"/>
<path d="m38.042 189.46h-6.37v5.16h6.37v-5.16z" fill="#696969"/>
<path d="m46.632 189.46h-6.37v5.16h6.37v-5.16z" fill="#696969"/>
<path d="m29.448 196.96h-6.37v5.16h6.37v-5.16z" fill="#696969"/>
<path d="m38.042 196.96h-6.37v5.16h6.37v-5.16z" fill="#696969"/>
<path d="m46.632 196.96h-6.37v5.16h6.37v-5.16z" fill="#AD343E"/>
<path d="m50.222 266.56h-31.3v9.6h31.3v-9.6z" fill="#E0E0E0"/>
<g clip-path="url(#s)" clip-rule="evenodd" fill-rule="evenodd">
<path d="m184.7 97.415 3.085 1.2845 0.562 4.0495 3.29-2.446 3.057 1.274-8.648 6.699-1.346-10.861z" fill="#000"/>
<path d="m181.41 96.045 2.26 17.939 14.384-11.008-3.359-1.399-8.649 6.7-1.345-10.862-3.291-1.3704z" fill="#757575"/>
</g>
<g clip-path="url(#i)">
<path d="m159 109.5 8.84 3.15-1.34 11.7-7.5 4.15-7.5-4.15-1.34-11.7 8.84-3.15zm0 2.1-5.53 12.4h2.06l1.11-2.78h4.7l1.11 2.78h2.05l-5.5-12.4zm1.62 7.9h-3.23l1.61-3.87 1.62 3.87z" fill="#000"/>
</g>
<g clip-path="url(#h)">
<path d="m138.83 107.7c0.332-0.162 0.608-0.418 0.794-0.737 0.187-0.318 0.275-0.685 0.253-1.053-0.021-0.368-0.151-0.722-0.373-1.017-0.223-0.294-0.527-0.517-0.875-0.639s-0.725-0.138-1.082-0.047c-0.358 0.092-0.68 0.287-0.927 0.561-0.247 0.275-0.407 0.616-0.46 0.981s3e-3 0.738 0.161 1.071c0.107 0.223 0.257 0.422 0.441 0.587 0.184 0.164 0.398 0.291 0.631 0.373 0.233 0.081 0.48 0.116 0.726 0.103 0.247-0.014 0.488-0.076 0.711-0.183zm-8.496-6.861c0.4-0.618 1.886-0.697 3.981-0.05-0.214 0.781-0.389 1.572-0.524 2.37-0.686 0.434-1.348 0.905-1.983 1.411-1.396-1.7-1.869-3.105-1.474-3.731zm3.154 4.848-0.037 0.586c-0.225-0.203-0.438-0.419-0.638-0.646 0.216-0.173 0.464-0.349 0.721-0.53l-0.046 0.59zm6.211-2.183 1.386 0.994-0.071 1.703c-0.037 0.608-0.119 1.171-0.174 1.72-0.472 0.264-0.984 0.514-1.524 0.776-0.539 0.263-1.051 0.513-1.537 0.75-0.466-0.296-0.96-0.578-1.462-0.923l-1.398-1.02 0.07-1.703c0.038-0.608 0.119-1.171 0.174-1.721 0.486-0.236 0.998-0.486 1.537-0.749 0.54-0.263 1.052-0.513 1.537-0.749 0.467 0.295 0.961 0.577 1.462 0.922zm0.59 7.189c-0.267-0.115-0.548-0.234-0.846-0.389l1.061-0.517c-0.062 0.331-0.141 0.625-0.215 0.906zm-4.575-9.384c0.268 0.114 0.548 0.233 0.846 0.388l-1.06 0.517c0.061-0.33 0.14-0.624 0.214-0.905zm9.946 9.858c-0.391 0.614-1.885 0.697-3.972 0.045 0.215-0.78 0.39-1.571 0.525-2.369 0.69-0.423 1.358-0.882 1.999-1.375 1.397 1.7 1.87 3.104 1.466 3.735m-3.145-4.852 0.037-0.586c0.225 0.203 0.438 0.419 0.638 0.646-0.217 0.172-0.464 0.349-0.721 0.529l0.046-0.589zm4.371 5.656c0.953-1.399 0.129-3.455-1.568-5.499 1.954-1.787 3.051-3.712 2.315-5.222-0.736-1.5104-2.929-1.8322-5.54-1.3933-0.574-2.5908-1.686-4.5072-3.366-4.6225-1.681-0.1153-3.049 1.6196-3.973 4.1059-2.527-0.8037-4.737-0.7946-5.69 0.6046-0.953 1.3993-0.142 3.4063 1.568 5.4993-1.955 1.787-3.052 3.712-2.316 5.222s2.934 1.841 5.545 1.402c0.574 2.591 1.686 4.508 3.366 4.623 1.681 0.115 3.058-1.624 3.982-4.11 2.528 0.803 4.737 0.794 5.681-0.601m-4.34-8.241c-0.01-0.814-0.065-1.627-0.163-2.435 2.163-0.354 3.618-0.062 3.938 0.594 0.32 0.657-0.373 1.996-1.958 3.469-0.576-0.575-1.182-1.119-1.817-1.628zm-9.133 4.452c0.011 0.814 0.065 1.626 0.164 2.434-2.164 0.354-3.619 0.062-3.939-0.594s0.373-1.995 1.958-3.469c0.576 0.576 1.183 1.119 1.817 1.629zm7.1-5.975-0.493-0.327c0.279-0.136 0.592-0.178 0.861-0.242 0.056 0.297 0.095 0.598 0.116 0.9l-0.484-0.331zm-4.395-2.3523c0.772-2.0451 1.785-3.1843 2.482-3.1012 0.697 0.083 1.544 1.2722 2.04 3.4555-0.784 0.201-1.556 0.444-2.315 0.728-0.717-0.398-1.453-0.759-2.207-1.0823zm-0.672 9.8503 0.494 0.327c-0.279 0.136-0.593 0.177-0.862 0.242-0.056-0.298-0.094-0.598-0.116-0.9l0.484 0.331zm4.395 2.352c-0.799 2.058-1.785 3.184-2.518 3.119-0.732-0.066-1.534-1.277-2.031-3.46 0.784-0.201 1.557-0.444 2.315-0.728 0.726 0.394 1.472 0.751 2.234 1.069z" fill="#000"/>
</g>
<g clip-path="url(#g)">
<path d="m136.1 155.82c-0.071 0.037-0.065 0.049 3e-3 0.015 0.022-9e-3 0.04-0.022 0.056-0.037 0-0.012 0-0.012-0.059 0.022zm0.142-0.077c-0.033 0.027-0.033 0.027 7e-3 9e-3 0.021-0.012 0.04-0.024 0.04-0.028 0-0.016-9e-3 -0.012-0.047 0.019zm0.093-0.056c-0.034 0.028-0.034 0.028 7e-3 9e-3 0.022-0.012 0.04-0.025 0.04-0.028 0-0.015-0.01-0.012-0.047 0.019zm0.094-0.055c-0.034 0.027-0.034 0.027 5e-3 8e-3 0.022-0.011 0.041-0.024 0.041-0.027 0-0.015-0.01-0.012-0.046 0.019zm0.126-0.084c-0.064 0.043-0.087 0.071-0.028 0.04 0.04-0.024 0.108-0.078 0.096-0.078-0.025 0.01-0.047 0.026-0.068 0.038zm-5.678-17.537c-0.043 3e-3 -0.173 0.015-0.287 0.024-2.7 0.245-5.227 1.698-6.828 3.937-0.885 1.228-1.46 2.653-1.677 4.15-0.076 0.523-0.086 0.677-0.086 1.385s0.01 0.86 0.086 1.382c0.517 3.57 3.056 6.566 6.497 7.676 0.62 0.198 1.269 0.334 2.008 0.418 0.287 0.031 1.53 0.031 1.817 0 1.278-0.143 2.357-0.458 3.425-1.002 0.163-0.083 0.194-0.105 0.172-0.124-0.522-0.689-1.035-1.379-1.549-2.075l-1.518-2.05-1.902-2.818c-0.634-0.942-1.27-1.883-1.917-2.816-6e-3 0-0.015 1.252-0.018 2.779-7e-3 2.675-7e-3 2.784-0.041 2.845-0.034 0.074-0.089 0.136-0.164 0.171-0.058 0.028-0.111 0.034-0.392 0.034h-0.321l-0.084-0.053c-0.052-0.034-0.096-0.08-0.124-0.136l-0.04-0.083 3e-3 -3.724 7e-3 -3.723 0.058-0.074c0.038-0.046 0.084-0.084 0.136-0.111 0.078-0.038 0.109-0.044 0.43-0.044 0.377 0 0.44 0.015 0.539 0.124 0.769 1.147 1.536 2.297 2.291 3.451 1.234 1.871 2.92 4.425 3.748 5.678l1.506 2.279 0.074-0.049c0.724-0.483 1.383-1.058 1.951-1.713 1.197-1.371 1.973-3.056 2.236-4.855 0.077-0.523 0.087-0.678 0.087-1.386s-0.01-0.859-0.087-1.382c-0.517-3.569-3.056-6.565-6.497-7.676-0.644-0.203-1.306-0.342-1.976-0.414-0.18-0.018-1.408-0.04-1.562-0.024l-1e-3 -1e-3zm3.888 5.746c0.089 0.042 0.157 0.123 0.188 0.216 0.016 0.05 0.019 1.082 0.016 3.408l-7e-3 3.339-0.587-0.902-0.591-0.904v-2.424c0-1.572 7e-3 -2.453 0.015-2.496 0.028-0.099 0.096-0.182 0.186-0.235 0.074-0.037 0.102-0.04 0.396-0.04 0.275 0 0.322 3e-3 0.384 0.038z" fill="#000"/>
</g>
<g clip-path="url(#f)">
<path d="m111.96 152.86c-4.691-1.589-9.695 0.88-11.285 5.574-1.59 4.695 0.88 9.695 5.574 11.285 4.695 1.59 9.696-0.884 11.285-5.574 1.589-4.691-0.88-9.695-5.574-11.285zm-9.477 6.266 4.317 8.733c-3.594-1.213-5.534-5.14-4.317-8.733zm5.901 9.111-5.23-10.6c1.653-2.71 5.036-4.016 8.186-2.949 2.111 0.724 3.756 2.4 4.432 4.525l-1.225 0.483c-0.508-1.817-1.884-3.265-3.674-3.863-2.28-0.789-4.805-0.028-6.278 1.879l4.557 9.232c1.885-0.017 3.7-1.036 4.664-2.672l-2.859-0.968 0.422-1.244 4.323 1.464c-1.067 3.151-4.161 5.047-7.318 4.713z" fill="#3C3C3C"/>
</g>
<g clip-path="url(#e)">
<path d="m220.63 127.8h-7.665l0.183 1.6h7.3c-0.107 1.402-0.431 4.371-0.55 5.722l-4.1 1.039v3e-3l-9e-3 4e-3 -4.102-1.299-0.281-3.069h2.011l0.142 1.65 2.234 0.75h5e-3l2.231-0.72 0.229-2.48h-6.942c-0.034-0.321-0.465-4.486-0.541-4.8h10.034c-0.056 0.528-0.113 1.07-0.179 1.6zm-12.831-4.8 1.456 14.518 6.534 1.482 6.552-1.511 1.458-14.489h-16z" clip-rule="evenodd" fill="#000" fill-rule="evenodd"/>
</g>
<path d="m224.02 141.02-1.501 14.444-6.499 1.556-6.5-1.556-1.5-14.444h16zm-3.023 2.937h-10.055l0.243 1.744h5.1l-0.271 0.1-4.653 1.723 0.155 1.705 4.498 0.013 2.41 6e-3 -0.154 2.274-2.256 0.564v-1e-3l-0.019 4e-3 -2.179-0.489-0.132-1.411h-2.036l0.265 2.724 4.101 1.078v-2e-3l7e-3 2e-3 4.079-1.058 0.529-5.409h-4.627l0.012-5e-3 4.784-1.818 0.199-1.744z" fill="#000"/>
<path d="m158.01 71.306c0 5.0562 0.362 9.3047-2.133 11.819-1.403 1.4144-3.617 2.2478-6.342 2.2478-4.468 0-6.949-2.1767-8.532-5.1887 1.524-0.9734 3.082-1.9143 4.67-2.8246 0.648 1.8116 2.835 3.8483 5.304 2.5946 1.564-0.7954 1.384-3.2063 1.384-5.8232v-16.604c-5e-3 -0.0816-0.01-0.163 0.057-0.173h5.592v13.952zm14.183-3.2859c-1.426-0.6104-3.198-1.3326-3.632-2.6525-0.487-1.4792 0.343-2.6978 1.268-3.1125 2.033-0.9132 4.456 0.5903 4.958 2.1329 1.53-0.9107 3.055-1.8269 4.439-2.8825-1.627-2.7019-4.012-4.6361-8.359-4.497-2.394 0.0765-4.192 0.8322-5.535 1.96-1.31 1.1004-2.322 2.6448-2.479 4.8429-0.471 6.5791 4.452 8.2584 8.648 10.089 1.322 0.577 2.793 1.1596 3.401 2.306 1.255 2.3658-0.968 3.9266-2.882 4.0936-3.073 0.2677-5.145-1.5303-6.342-3.4016-1.495 0.9266-3.12 1.7223-4.555 2.7096 1.995 3.5084 5.267 5.7797 10.378 5.7651 5.214-0.0147 9.079-2.5286 9.397-7.2638 0.431-6.4363-4.391-8.2418-8.705-10.089z" fill="#D3D3D3"/>
<g clip-path="url(#d)">
<path d="m178.94 156.75c0.205 0.068 0.372 0.29 0.501 0.667 0.133 0.393 0.145 0.721 0.035 0.985-0.11 0.263-0.366 0.509-0.767 0.739l-0.605 0.346-0.722-2.124 0.682-0.39c0.378-0.216 0.67-0.29 0.876-0.223zm-8.642 4.663-0.682 0.39 0.722 2.124 0.605-0.346c0.401-0.23 0.657-0.476 0.767-0.739 0.11-0.264 0.098-0.592-0.036-0.985-0.128-0.377-0.295-0.599-0.5-0.667-0.206-0.067-0.498 7e-3 -0.876 0.223zm13.008-5.719c1.439 2.517-1.274 6.776-6.059 9.511-4.785 2.736-9.831 2.913-11.27 0.396s1.273-6.775 6.058-9.511c4.786-2.736 9.831-2.913 11.271-0.396zm-10.433 6.383c-3e-3 -0.244-0.046-0.49-0.13-0.738-0.205-0.601-0.525-0.978-0.962-1.129-0.436-0.151-0.943-0.062-1.518 0.267l-1.914 1.094 1.724 5.075 0.995-0.569-0.458-1.349 0.852-0.488c0.376-0.214 0.663-0.431 0.861-0.649 0.197-0.218 0.342-0.476 0.435-0.776 0.079-0.248 0.117-0.494 0.115-0.738zm4.087-0.98-0.802-2.361c-0.164-0.481-0.405-0.757-0.726-0.83-0.32-0.073-0.757 0.048-1.31 0.365l-0.88 0.502-0.458-1.349-0.987 0.565 1.723 5.075 0.988-0.565-0.988-2.907 0.789-0.451c0.253-0.145 0.442-0.197 0.567-0.158s0.231 0.187 0.318 0.442l0.763 2.246 1.003-0.574zm2.587-5.327c-0.436-0.151-0.943-0.062-1.518 0.267l-1.913 1.094 1.723 5.075 0.995-0.569-0.458-1.349 0.852-0.488c0.376-0.214 0.663-0.431 0.861-0.649 0.197-0.218 0.342-0.476 0.435-0.776 0.079-0.248 0.117-0.494 0.115-0.738-3e-3 -0.244-0.046-0.49-0.13-0.738-0.204-0.601-0.525-0.978-0.962-1.129z" fill="#000"/>
</g>
<g clip-path="url(#c)">
<path d="m159 169.5c2.472 0 4.889 0.733 6.945 2.107 2.055 1.373 3.657 3.325 4.603 5.609 0.947 2.285 1.194 4.798 0.712 7.223-0.483 2.424-1.673 4.652-3.421 6.4s-3.976 2.938-6.4 3.421c-2.425 0.482-4.938 0.235-7.223-0.712-2.284-0.946-4.236-2.548-5.609-4.603-1.374-2.056-2.107-4.473-2.107-6.945 0-3.315 1.317-6.495 3.661-8.839s5.524-3.661 8.839-3.661zm-2.5 16.662c0.188 0.611 0.188 1.265 0 1.875 0 0.063 0 0.125-0.075 0.213-0.075 0.087 0 0.087-0.088 0.15-0.144 0.309-0.338 0.592-0.575 0.837-0.725 0.8-1.762 1.1-2.175 0.85-0.412-0.25-0.212-1.4 0.613-2.287 0.646-0.637 1.388-1.169 2.2-1.575l0.1-0.063zm10.337-11.25c-0.562-2.225-4.25-2.95-7.725-1.712-2.178 0.713-4.196 1.847-5.937 3.337-1.913 1.8-2.225 3.363-2.1 4.013 0.425 2.3 3.6 3.812 4.9 4.925-0.375 0.187-3.175 1.6-3.85 3.05-0.285 0.453-0.38 1-0.263 1.523 0.117 0.522 0.437 0.977 0.888 1.264 0.802 0.194 1.644 0.132 2.408-0.178 0.765-0.309 1.413-0.85 1.854-1.547 0.366-0.562 0.594-1.202 0.668-1.868s-9e-3 -1.34-0.243-1.969c0.627-0.146 1.275-0.18 1.913-0.1 2.2 0.262 2.625 1.625 2.5 2.2-0.037 0.204-0.118 0.398-0.236 0.568-0.119 0.171-0.273 0.314-0.452 0.419-0.15 0.088-0.2 0.125-0.187 0.2 0.012 0.075 0.087 0.1 0.212 0.075 0.342-0.092 0.645-0.289 0.869-0.562 0.224-0.274 0.358-0.61 0.381-0.963 0-1.35-1.25-2.85-3.512-2.812-0.661-0.015-1.319 0.077-1.95 0.275l-0.1-0.113c-1.413-1.5-4.013-2.5-3.9-4.587 0-0.738 0.287-2.663 5-5 3.85-1.925 6.937-1.4 7.5-0.213 0.762 1.663-1.65 4.775-5.65 5.225-0.438 0.083-0.889 0.069-1.321-0.041s-0.834-0.314-1.179-0.596c-0.213-0.213-0.238-0.25-0.313-0.213-0.075 0.038 0 0.288 0 0.413 0.318 0.547 0.832 0.954 1.438 1.137 1.577 0.341 3.22 0.179 4.7-0.462 2.35-0.95 4.25-3.6 3.687-5.75v0.062z" fill="#3B3B3B"/>
</g>
<g clip-path="url(#b)">
<path d="m194.65 169.72c0.048 0.351 0.074 0.726 0.074 1.131 0 1.934-0.179 2.043-4.196 13.655 3.27-1.907 5.47-5.45 5.47-9.508 0-1.913-0.488-3.711-1.348-5.278zm-9.458 6.241-3.301 9.589c2.227 0.656 4.588 0.589 6.76-0.175-0.03-0.047-0.056-0.098-0.078-0.152l-3.381-9.262zm7.232-1.518c0-1.36-0.488-2.302-0.907-3.035-0.557-0.906-1.081-1.672-1.081-2.579 0-1.011 0.768-1.952 1.848-1.952 0.049 0 0.095 6e-3 0.142 9e-3 -1.957-1.793-4.564-2.888-7.428-2.888-3.842 0-7.224 1.971-9.19 4.958 0.7 0.022 1.641 0.031 3.639-0.126 0.593-0.035 0.663 0.836 0.071 0.905 0 0-0.596 0.071-1.26 0.106l4.006 11.915 2.407-7.22-1.713-4.696c-0.592-0.034-1.153-0.105-1.153-0.105-0.593-0.035-0.524-0.941 0.069-0.906 2.274 0.175 3.437 0.188 5.829 0 0.593-0.035 0.663 0.836 0.07 0.906 0 0-0.597 0.071-1.259 0.105l3.975 11.825c1.57-5.245 1.935-6.122 1.935-7.222zm-18.426 0.555c0 4.354 2.53 8.117 6.2 9.9l-5.247-14.377c-0.611 1.369-0.953 2.882-0.953 4.477z" clip-rule="evenodd" fill="#000" fill-rule="evenodd"/>
</g>
<path d="M225.94 0H8.08984V423.07H225.94V0Z" fill="#3B3B3B"/>
<path d="m232.37 21.01h-232.11v388.32h232.11v-388.32z" fill="#E0E0E0"/>
<path d="m232.34 409.33c0-2.19-0.1-160.54-0.24-388.32l0.24 0.24-232 0.02 0.26-0.26c0 147.83 1e-6 283.57-0.059999 388.32l-0.2-0.21 232 0.21-232.08 0.2h-0.2v-0.2c0-104.75 5e-7 -240.49-0.06-388.32v-0.26h232.66v0.24c-0.19 227.8-0.32 386.15-0.32 388.34z" fill="#3B3B3B"/>
<path d="m57.018 148.11h-43.69v58.45h43.69v-58.45z" fill="#3B3B3B"/>
<path d="m57.018 211.07h-43.69v64.29h43.69v-64.29z" fill="#3B3B3B"/>
<path d="m47.608 211.07h-25.96v9.54h25.96v-9.54z" fill="#696969"/>
<path d="m71.07 126.82h-0.67c-1.6403 0-2.97 1.33-2.97 2.97v165.13c0 1.64 1.3297 2.97 2.97 2.97h0.67c1.6403 0 2.97-1.33 2.97-2.97v-165.13c0-1.64-1.3297-2.97-2.97-2.97z" fill="#fff"/>
<path d="m71.059 297.89c0.3013-0.023 0.5995-0.077 0.89-0.16 0.4142-0.141 0.7926-0.37 1.1087-0.673 0.3161-0.302 0.5623-0.67 0.7213-1.077 0.1913-0.618 0.2559-1.267 0.19-1.91v-2.36-5.89c0-8.87 0-21.69-0.09-37.53s0-34.72-0.05-55.66v-32.87-28.52c0.0392-0.725 0.0057-1.452-0.1-2.17-0.1872-0.67-0.6238-1.242-1.22-1.6-0.6255-0.342-1.3427-0.478-2.05-0.39-0.6951-1e-3 -1.364 0.265-1.8684 0.743-0.5044 0.479-0.8057 1.133-0.8416 1.827v4.47 8.9 17.39 32.88c0 21 0 39.82-0.06 55.67s-0.06 28.65-0.08 37.52v5.89c0 1.7-0.26 3.22 0.48 4.19 0.2463 0.36 0.568 0.661 0.9427 0.884 0.3748 0.223 0.7936 0.361 1.2273 0.406h0.9c-0.2997 0.018-0.6002 0.018-0.9 0-0.4494-0.032-0.8859-0.164-1.2771-0.387-0.3913-0.224-0.7272-0.532-0.9829-0.903-0.4125-0.523-0.6442-1.165-0.66-1.83v-2.36-5.89c0-8.87 0-21.69-0.09-37.52s0-34.72-0.05-55.67v-32.88-26.29-4.5c0.0381-0.829 0.3967-1.611 1-2.18 0.6029-0.569 1.4013-0.884 2.23-0.88 0.3893-0.034 0.7808-0.034 1.17 0 0.4061 0.067 0.7961 0.209 1.15 0.42 0.7071 0.431 1.2251 1.113 1.45 1.91 0.0984 0.385 0.1389 0.783 0.12 1.18v12.26 17.39 32.87c0 20.94 0 39.81-0.06 55.66s-0.06 28.66-0.08 37.53v5.89 2.36c0.06 0.658-0.0148 1.322-0.22 1.95-0.1672 0.419-0.4266 0.794-0.759 1.099s-0.7293 0.531-1.161 0.661c-0.3124 0.118-0.6464 0.169-0.98 0.15z" fill="#3B3B3B"/>
<path d="m90.441 17.18h-4.07v395.81h4.07v-395.81z" fill="#3B3B3B"/>
<path d="m90.951 413.53h-5.08v-396.85h5.08v396.85zm-4.08-1h3.08v-394.85h-3.08v394.85z" fill="#3B3B3B"/>
<path d="m47.05 154.49h-24.71v30.42h24.71v-30.42z" fill="#696969"/>
<path d="m29.448 189.46h-6.37v5.16h6.37v-5.16z" fill="#696969"/>
<path d="m38.042 189.46h-6.37v5.16h6.37v-5.16z" fill="#696969"/>
<path d="m46.632 189.46h-6.37v5.16h6.37v-5.16z" fill="#696969"/>
<path d="m29.448 196.96h-6.37v5.16h6.37v-5.16z" fill="#696969"/>
<path d="m38.042 196.96h-6.37v5.16h6.37v-5.16z" fill="#696969"/>
<path d="m46.632 196.96h-6.37v5.16h6.37v-5.16z" fill="#AD343E"/>
<path d="m50.222 266.56h-31.3v9.6h31.3v-9.6z" fill="#E0E0E0"/>
<g clip-path="url(#a)" clip-rule="evenodd" fill-rule="evenodd">
<path d="m184.7 97.415 3.085 1.2845 0.562 4.0495 3.29-2.446 3.057 1.274-8.648 6.699-1.346-10.861z" fill="#000"/>
<path d="m181.41 96.045 2.26 17.939 14.384-11.008-3.359-1.399-8.649 6.7-1.345-10.862-3.291-1.3704z" fill="#757575"/>
</g>
<g clip-path="url(#r)">
<path d="m159 109.5 8.84 3.15-1.34 11.7-7.5 4.15-7.5-4.15-1.34-11.7 8.84-3.15zm0 2.1-5.53 12.4h2.06l1.11-2.78h4.7l1.11 2.78h2.05l-5.5-12.4zm1.62 7.9h-3.23l1.61-3.87 1.62 3.87z" fill="#000"/>
</g>
<g clip-path="url(#q)">
<path d="m138.83 107.7c0.332-0.162 0.608-0.418 0.794-0.737 0.187-0.318 0.275-0.685 0.253-1.053-0.021-0.368-0.151-0.722-0.373-1.017-0.223-0.294-0.527-0.517-0.875-0.639s-0.725-0.138-1.082-0.047c-0.358 0.092-0.68 0.287-0.927 0.561-0.247 0.275-0.407 0.616-0.46 0.981s3e-3 0.738 0.161 1.071c0.107 0.223 0.257 0.422 0.441 0.587 0.184 0.164 0.398 0.291 0.631 0.373 0.233 0.081 0.48 0.116 0.726 0.103 0.247-0.014 0.488-0.076 0.711-0.183zm-8.496-6.861c0.4-0.618 1.886-0.697 3.981-0.05-0.214 0.781-0.389 1.572-0.524 2.37-0.686 0.434-1.348 0.905-1.983 1.411-1.396-1.7-1.869-3.105-1.474-3.731zm3.154 4.848-0.037 0.586c-0.225-0.203-0.438-0.419-0.638-0.646 0.216-0.173 0.464-0.349 0.721-0.53l-0.046 0.59zm6.211-2.183 1.386 0.994-0.071 1.703c-0.037 0.608-0.119 1.171-0.174 1.72-0.472 0.264-0.984 0.514-1.524 0.776-0.539 0.263-1.051 0.513-1.537 0.75-0.466-0.296-0.96-0.578-1.462-0.923l-1.398-1.02 0.07-1.703c0.038-0.608 0.119-1.171 0.174-1.721 0.486-0.236 0.998-0.486 1.537-0.749 0.54-0.263 1.052-0.513 1.537-0.749 0.467 0.295 0.961 0.577 1.462 0.922zm0.59 7.189c-0.267-0.115-0.548-0.234-0.846-0.389l1.061-0.517c-0.062 0.331-0.141 0.625-0.215 0.906zm-4.575-9.384c0.268 0.114 0.548 0.233 0.846 0.388l-1.06 0.517c0.061-0.33 0.14-0.624 0.214-0.905zm9.946 9.858c-0.391 0.614-1.885 0.697-3.972 0.045 0.215-0.78 0.39-1.571 0.525-2.369 0.69-0.423 1.358-0.882 1.999-1.375 1.397 1.7 1.87 3.104 1.466 3.735m-3.145-4.852 0.037-0.586c0.225 0.203 0.438 0.419 0.638 0.646-0.217 0.172-0.464 0.349-0.721 0.529l0.046-0.589zm4.371 5.656c0.953-1.399 0.129-3.455-1.568-5.499 1.954-1.787 3.051-3.712 2.315-5.222-0.736-1.5104-2.929-1.8322-5.54-1.3933-0.574-2.5908-1.686-4.5072-3.366-4.6225-1.681-0.1153-3.049 1.6196-3.973 4.1059-2.527-0.8037-4.737-0.7946-5.69 0.6046-0.953 1.3993-0.142 3.4063 1.568 5.4993-1.955 1.787-3.052 3.712-2.316 5.222s2.934 1.841 5.545 1.402c0.574 2.591 1.686 4.508 3.366 4.623 1.681 0.115 3.058-1.624 3.982-4.11 2.528 0.803 4.737 0.794 5.681-0.601m-4.34-8.241c-0.01-0.814-0.065-1.627-0.163-2.435 2.163-0.354 3.618-0.062 3.938 0.594 0.32 0.657-0.373 1.996-1.958 3.469-0.576-0.575-1.182-1.119-1.817-1.628zm-9.133 4.452c0.011 0.814 0.065 1.626 0.164 2.434-2.164 0.354-3.619 0.062-3.939-0.594s0.373-1.995 1.958-3.469c0.576 0.576 1.183 1.119 1.817 1.629zm7.1-5.975-0.493-0.327c0.279-0.136 0.592-0.178 0.861-0.242 0.056 0.297 0.095 0.598 0.116 0.9l-0.484-0.331zm-4.395-2.3523c0.772-2.0451 1.785-3.1843 2.482-3.1012 0.697 0.083 1.544 1.2722 2.04 3.4555-0.784 0.201-1.556 0.444-2.315 0.728-0.717-0.398-1.453-0.759-2.207-1.0823zm-0.672 9.8503 0.494 0.327c-0.279 0.136-0.593 0.177-0.862 0.242-0.056-0.298-0.094-0.598-0.116-0.9l0.484 0.331zm4.395 2.352c-0.799 2.058-1.785 3.184-2.518 3.119-0.732-0.066-1.534-1.277-2.031-3.46 0.784-0.201 1.557-0.444 2.315-0.728 0.726 0.394 1.472 0.751 2.234 1.069z" fill="#000"/>
</g>
<g clip-path="url(#p)">
<path d="m136.1 155.82c-0.071 0.037-0.065 0.049 3e-3 0.015 0.022-9e-3 0.04-0.022 0.056-0.037 0-0.012 0-0.012-0.059 0.022zm0.142-0.077c-0.033 0.027-0.033 0.027 7e-3 9e-3 0.021-0.012 0.04-0.024 0.04-0.028 0-0.016-9e-3 -0.012-0.047 0.019zm0.093-0.056c-0.034 0.028-0.034 0.028 7e-3 9e-3 0.022-0.012 0.04-0.025 0.04-0.028 0-0.015-0.01-0.012-0.047 0.019zm0.094-0.055c-0.034 0.027-0.034 0.027 5e-3 8e-3 0.022-0.011 0.041-0.024 0.041-0.027 0-0.015-0.01-0.012-0.046 0.019zm0.126-0.084c-0.064 0.043-0.087 0.071-0.028 0.04 0.04-0.024 0.108-0.078 0.096-0.078-0.025 0.01-0.047 0.026-0.068 0.038zm-5.678-17.537c-0.043 3e-3 -0.173 0.015-0.287 0.024-2.7 0.245-5.227 1.698-6.828 3.937-0.885 1.228-1.46 2.653-1.677 4.15-0.076 0.523-0.086 0.677-0.086 1.385s0.01 0.86 0.086 1.382c0.517 3.57 3.056 6.566 6.497 7.676 0.62 0.198 1.269 0.334 2.008 0.418 0.287 0.031 1.53 0.031 1.817 0 1.278-0.143 2.357-0.458 3.425-1.002 0.163-0.083 0.194-0.105 0.172-0.124-0.522-0.689-1.035-1.379-1.549-2.075l-1.518-2.05-1.902-2.818c-0.634-0.942-1.27-1.883-1.917-2.816-6e-3 0-0.015 1.252-0.018 2.779-7e-3 2.675-7e-3 2.784-0.041 2.845-0.034 0.074-0.089 0.136-0.164 0.171-0.058 0.028-0.111 0.034-0.392 0.034h-0.321l-0.084-0.053c-0.052-0.034-0.096-0.08-0.124-0.136l-0.04-0.083 3e-3 -3.724 7e-3 -3.723 0.058-0.074c0.038-0.046 0.084-0.084 0.136-0.111 0.078-0.038 0.109-0.044 0.43-0.044 0.377 0 0.44 0.015 0.539 0.124 0.769 1.147 1.536 2.297 2.291 3.451 1.234 1.871 2.92 4.425 3.748 5.678l1.506 2.279 0.074-0.049c0.724-0.483 1.383-1.058 1.951-1.713 1.197-1.371 1.973-3.056 2.236-4.855 0.077-0.523 0.087-0.678 0.087-1.386s-0.01-0.859-0.087-1.382c-0.517-3.569-3.056-6.565-6.497-7.676-0.644-0.203-1.306-0.342-1.976-0.414-0.18-0.018-1.408-0.04-1.562-0.024l-1e-3 -1e-3zm3.888 5.746c0.089 0.042 0.157 0.123 0.188 0.216 0.016 0.05 0.019 1.082 0.016 3.408l-7e-3 3.339-0.587-0.902-0.591-0.904v-2.424c0-1.572 7e-3 -2.453 0.015-2.496 0.028-0.099 0.096-0.182 0.186-0.235 0.074-0.037 0.102-0.04 0.396-0.04 0.275 0 0.322 3e-3 0.384 0.038z" fill="#000"/>
</g>
<g clip-path="url(#o)">
<path d="m111.96 152.86c-4.691-1.589-9.695 0.88-11.285 5.574-1.59 4.695 0.88 9.695 5.574 11.285 4.695 1.59 9.696-0.884 11.285-5.574 1.589-4.691-0.88-9.695-5.574-11.285zm-9.477 6.266 4.317 8.733c-3.594-1.213-5.534-5.14-4.317-8.733zm5.901 9.111-5.23-10.6c1.653-2.71 5.036-4.016 8.186-2.949 2.111 0.724 3.756 2.4 4.432 4.525l-1.225 0.483c-0.508-1.817-1.884-3.265-3.674-3.863-2.28-0.789-4.805-0.028-6.278 1.879l4.557 9.232c1.885-0.017 3.7-1.036 4.664-2.672l-2.859-0.968 0.422-1.244 4.323 1.464c-1.067 3.151-4.161 5.047-7.318 4.713z" fill="#3C3C3C"/>
</g>
<g clip-path="url(#n)">
<path d="m220.63 127.8h-7.665l0.183 1.6h7.3c-0.107 1.402-0.431 4.371-0.55 5.722l-4.1 1.039v3e-3l-9e-3 4e-3 -4.102-1.299-0.281-3.069h2.011l0.142 1.65 2.234 0.75h5e-3l2.231-0.72 0.229-2.48h-6.942c-0.034-0.321-0.465-4.486-0.541-4.8h10.034c-0.056 0.528-0.113 1.07-0.179 1.6zm-12.831-4.8 1.456 14.518 6.534 1.482 6.552-1.511 1.458-14.489h-16z" clip-rule="evenodd" fill="#000" fill-rule="evenodd"/>
</g>
<path d="m224.02 141.02-1.501 14.444-6.499 1.556-6.5-1.556-1.5-14.444h16zm-3.023 2.937h-10.055l0.243 1.744h5.1l-0.271 0.1-4.653 1.723 0.155 1.705 4.498 0.013 2.41 6e-3 -0.154 2.274-2.256 0.564v-1e-3l-0.019 4e-3 -2.179-0.489-0.132-1.411h-2.036l0.265 2.724 4.101 1.078v-2e-3l7e-3 2e-3 4.079-1.058 0.529-5.409h-4.627l0.012-5e-3 4.784-1.818 0.199-1.744z" fill="#000"/>
<path d="m158.01 71.306c0 5.0562 0.362 9.3047-2.133 11.819-1.403 1.4144-3.617 2.2478-6.342 2.2478-4.468 0-6.949-2.1767-8.532-5.1887 1.524-0.9734 3.082-1.9143 4.67-2.8246 0.648 1.8116 2.835 3.8483 5.304 2.5946 1.564-0.7954 1.384-3.2063 1.384-5.8232v-16.604c-5e-3 -0.0816-0.01-0.163 0.057-0.173h5.592v13.952zm14.183-3.2859c-1.426-0.6104-3.198-1.3326-3.632-2.6525-0.487-1.4792 0.343-2.6978 1.268-3.1125 2.033-0.9132 4.456 0.5903 4.958 2.1329 1.53-0.9107 3.055-1.8269 4.439-2.8825-1.627-2.7019-4.012-4.6361-8.359-4.497-2.394 0.0765-4.192 0.8322-5.535 1.96-1.31 1.1004-2.322 2.6448-2.479 4.8429-0.471 6.5791 4.452 8.2584 8.648 10.089 1.322 0.577 2.793 1.1596 3.401 2.306 1.255 2.3658-0.968 3.9266-2.882 4.0936-3.073 0.2677-5.145-1.5303-6.342-3.4016-1.495 0.9266-3.12 1.7223-4.555 2.7096 1.995 3.5084 5.267 5.7797 10.378 5.7651 5.214-0.0147 9.079-2.5286 9.397-7.2638 0.431-6.4363-4.391-8.2418-8.705-10.089z" fill="#D3D3D3"/>
<g clip-path="url(#m)">
<path d="m178.94 156.75c0.205 0.068 0.372 0.29 0.501 0.667 0.133 0.393 0.145 0.721 0.035 0.985-0.11 0.263-0.366 0.509-0.767 0.739l-0.605 0.346-0.722-2.124 0.682-0.39c0.378-0.216 0.67-0.29 0.876-0.223zm-8.642 4.663-0.682 0.39 0.722 2.124 0.605-0.346c0.401-0.23 0.657-0.476 0.767-0.739 0.11-0.264 0.098-0.592-0.036-0.985-0.128-0.377-0.295-0.599-0.5-0.667-0.206-0.067-0.498 7e-3 -0.876 0.223zm13.008-5.719c1.439 2.517-1.274 6.776-6.059 9.511-4.785 2.736-9.831 2.913-11.27 0.396s1.273-6.775 6.058-9.511c4.786-2.736 9.831-2.913 11.271-0.396zm-10.433 6.383c-3e-3 -0.244-0.046-0.49-0.13-0.738-0.205-0.601-0.525-0.978-0.962-1.129-0.436-0.151-0.943-0.062-1.518 0.267l-1.914 1.094 1.724 5.075 0.995-0.569-0.458-1.349 0.852-0.488c0.376-0.214 0.663-0.431 0.861-0.649 0.197-0.218 0.342-0.476 0.435-0.776 0.079-0.248 0.117-0.494 0.115-0.738zm4.087-0.98-0.802-2.361c-0.164-0.481-0.405-0.757-0.726-0.83-0.32-0.073-0.757 0.048-1.31 0.365l-0.88 0.502-0.458-1.349-0.987 0.565 1.723 5.075 0.988-0.565-0.988-2.907 0.789-0.451c0.253-0.145 0.442-0.197 0.567-0.158s0.231 0.187 0.318 0.442l0.763 2.246 1.003-0.574zm2.587-5.327c-0.436-0.151-0.943-0.062-1.518 0.267l-1.913 1.094 1.723 5.075 0.995-0.569-0.458-1.349 0.852-0.488c0.376-0.214 0.663-0.431 0.861-0.649 0.197-0.218 0.342-0.476 0.435-0.776 0.079-0.248 0.117-0.494 0.115-0.738-3e-3 -0.244-0.046-0.49-0.13-0.738-0.204-0.601-0.525-0.978-0.962-1.129z" fill="#000"/>
</g>
<g clip-path="url(#l)">
<path d="m159 169.5c2.472 0 4.889 0.733 6.945 2.107 2.055 1.373 3.657 3.325 4.603 5.609 0.947 2.285 1.194 4.798 0.712 7.223-0.483 2.424-1.673 4.652-3.421 6.4s-3.976 2.938-6.4 3.421c-2.425 0.482-4.938 0.235-7.223-0.712-2.284-0.946-4.236-2.548-5.609-4.603-1.374-2.056-2.107-4.473-2.107-6.945 0-3.315 1.317-6.495 3.661-8.839s5.524-3.661 8.839-3.661zm-2.5 16.662c0.188 0.611 0.188 1.265 0 1.875 0 0.063 0 0.125-0.075 0.213-0.075 0.087 0 0.087-0.088 0.15-0.144 0.309-0.338 0.592-0.575 0.837-0.725 0.8-1.762 1.1-2.175 0.85-0.412-0.25-0.212-1.4 0.613-2.287 0.646-0.637 1.388-1.169 2.2-1.575l0.1-0.063zm10.337-11.25c-0.562-2.225-4.25-2.95-7.725-1.712-2.178 0.713-4.196 1.847-5.937 3.337-1.913 1.8-2.225 3.363-2.1 4.013 0.425 2.3 3.6 3.812 4.9 4.925-0.375 0.187-3.175 1.6-3.85 3.05-0.285 0.453-0.38 1-0.263 1.523 0.117 0.522 0.437 0.977 0.888 1.264 0.802 0.194 1.644 0.132 2.408-0.178 0.765-0.309 1.413-0.85 1.854-1.547 0.366-0.562 0.594-1.202 0.668-1.868s-9e-3 -1.34-0.243-1.969c0.627-0.146 1.275-0.18 1.913-0.1 2.2 0.262 2.625 1.625 2.5 2.2-0.037 0.204-0.118 0.398-0.236 0.568-0.119 0.171-0.273 0.314-0.452 0.419-0.15 0.088-0.2 0.125-0.187 0.2 0.012 0.075 0.087 0.1 0.212 0.075 0.342-0.092 0.645-0.289 0.869-0.562 0.224-0.274 0.358-0.61 0.381-0.963 0-1.35-1.25-2.85-3.512-2.812-0.661-0.015-1.319 0.077-1.95 0.275l-0.1-0.113c-1.413-1.5-4.013-2.5-3.9-4.587 0-0.738 0.287-2.663 5-5 3.85-1.925 6.937-1.4 7.5-0.213 0.762 1.663-1.65 4.775-5.65 5.225-0.438 0.083-0.889 0.069-1.321-0.041s-0.834-0.314-1.179-0.596c-0.213-0.213-0.238-0.25-0.313-0.213-0.075 0.038 0 0.288 0 0.413 0.318 0.547 0.832 0.954 1.438 1.137 1.577 0.341 3.22 0.179 4.7-0.462 2.35-0.95 4.25-3.6 3.687-5.75v0.062z" fill="#3B3B3B"/>
</g>
<g clip-path="url(#k)">
<path d="m194.65 169.72c0.048 0.351 0.074 0.726 0.074 1.131 0 1.934-0.179 2.043-4.196 13.655 3.27-1.907 5.47-5.45 5.47-9.508 0-1.913-0.488-3.711-1.348-5.278zm-9.458 6.241-3.301 9.589c2.227 0.656 4.588 0.589 6.76-0.175-0.03-0.047-0.056-0.098-0.078-0.152l-3.381-9.262zm7.232-1.518c0-1.36-0.488-2.302-0.907-3.035-0.557-0.906-1.081-1.672-1.081-2.579 0-1.011 0.768-1.952 1.848-1.952 0.049 0 0.095 6e-3 0.142 9e-3 -1.957-1.793-4.564-2.888-7.428-2.888-3.842 0-7.224 1.971-9.19 4.958 0.7 0.022 1.641 0.031 3.639-0.126 0.593-0.035 0.663 0.836 0.071 0.905 0 0-0.596 0.071-1.26 0.106l4.006 11.915 2.407-7.22-1.713-4.696c-0.592-0.034-1.153-0.105-1.153-0.105-0.593-0.035-0.524-0.941 0.069-0.906 2.274 0.175 3.437 0.188 5.829 0 0.593-0.035 0.663 0.836 0.07 0.906 0 0-0.597 0.071-1.259 0.105l3.975 11.825c1.57-5.245 1.935-6.122 1.935-7.222zm-18.426 0.555c0 4.354 2.53 8.117 6.2 9.9l-5.247-14.377c-0.611 1.369-0.953 2.882-0.953 4.477z" clip-rule="evenodd" fill="#000" fill-rule="evenodd"/>
</g>
<path d="m504.91 117.72v-117.72h-47.81v117.72l-43.1 29.09v8.62h134v-8.62l-43.09-29.09z" fill="#E0E0E0"/>
<path d="m547.54 146.72c0 0.14-29.77 0.26-66.48 0.26s-66.48-0.12-66.48-0.26 29.76-0.26 66.48-0.26 66.48 0.12 66.48 0.26z" fill="#3B3B3B"/>
<path d="m482.68 149.75h-15.9v2.53h15.9v-2.53z" fill="#3B3B3B"/>
<path d="m487.67 151.04c2e-3 0.258-0.072 0.51-0.214 0.725s-0.344 0.383-0.581 0.483c-0.238 0.1-0.499 0.127-0.752 0.078s-0.486-0.172-0.668-0.353c-0.183-0.182-0.308-0.413-0.359-0.666-0.051-0.252-0.026-0.514 0.072-0.752s0.265-0.442 0.479-0.585 0.466-0.22 0.723-0.22c0.343 0 0.672 0.136 0.916 0.377 0.243 0.242 0.382 0.57 0.384 0.913z" fill="#AD343E"/>
<path d="m491.34 151.04c2e-3 0.258-0.072 0.51-0.214 0.725s-0.344 0.383-0.581 0.483c-0.238 0.1-0.499 0.127-0.752 0.078s-0.486-0.172-0.669-0.353c-0.182-0.182-0.307-0.413-0.358-0.666-0.051-0.252-0.026-0.514 0.072-0.752s0.265-0.442 0.479-0.585 0.466-0.22 0.723-0.22c0.343 0 0.672 0.136 0.916 0.377 0.243 0.242 0.382 0.57 0.384 0.913z" fill="#6A6A6A"/>
<path d="m494.94 151.04c2e-3 0.258-0.073 0.51-0.214 0.725-0.142 0.215-0.344 0.383-0.582 0.483-0.237 0.1-0.499 0.127-0.752 0.078-0.252-0.049-0.485-0.172-0.668-0.353-0.183-0.182-0.307-0.413-0.358-0.666-0.051-0.252-0.026-0.514 0.072-0.752s0.265-0.442 0.479-0.585 0.465-0.22 0.723-0.22c0.343 0 0.672 0.136 0.916 0.377 0.243 0.242 0.381 0.57 0.384 0.913z" fill="#6A6A6A"/>
<g clip-path="url(#j)" fill="#000">
<path d="m192.36 144h-15.604c-0.638 0-1.207-0.325-1.522-0.87-0.308-0.532-0.309-1.167-2e-3 -1.7l7.803-13.556c0.314-0.547 0.884-0.874 1.523-0.874s1.209 0.326 1.524 0.874l7.802 13.556c0.307 0.532 0.306 1.168-1e-3 1.699-0.316 0.546-0.885 0.871-1.523 0.871zm-7.802-15.5c-0.057 0-0.163 0.016-0.223 0.122l-7.803 13.556c-0.038 0.066-0.038 0.134 0 0.2 0.022 0.037 0.086 0.122 0.224 0.122h15.604c0.138 0 0.203-0.085 0.224-0.122 0.038-0.066 0.038-0.134 0-0.2l-7.802-13.556c-0.061-0.106-0.167-0.122-0.224-0.122z"/>
<path d="m197.36 144h-13.87c-0.593 0-1.141-0.313-1.431-0.818-0.284-0.494-0.281-1.083 6e-3 -1.575l6.936-11.863c0.295-0.505 0.827-0.807 1.423-0.807s1.128 0.302 1.424 0.807l6.935 11.862c0.288 0.492 0.291 1.08 7e-3 1.574-0.289 0.507-0.837 0.82-1.43 0.82zm-6.935-13.562c-0.034 0-0.096 8e-3 -0.129 0.063l-6.936 11.863c0.014 0.095 0.049 0.136 0.13 0.136h13.87c0.081 0 0.116-0.041 0.13-0.065l-6.936-11.933c-0.032-0.057-0.095-0.064-0.129-0.064z"/>
</g>
<defs>
<clipPath id="s">
<rect transform="translate(180.23 91) rotate(22.608)" width="24" height="24" fill="#fff"/>
</clipPath>
<clipPath id="i">
<rect transform="translate(147 107)" width="24" height="24" fill="#fff"/>
</clipPath>
<clipPath id="h">
<rect transform="matrix(.89888 -.43819 -.43819 -.89888 132.47 122.05)" width="24" height="24" fill="#fff"/>
</clipPath>
<clipPath id="g">
<rect transform="translate(122 138)" width="19" height="19" fill="#fff"/>
</clipPath>
<clipPath id="f">
<rect transform="translate(103.53 150) rotate(18.712)" width="17.8" height="17.8" fill="#fff"/>
</clipPath>
<clipPath id="e">
<rect transform="translate(207 123)" width="16" height="16" fill="#fff"/>
</clipPath>
<clipPath id="d">
<rect transform="translate(161 156.93) rotate(-29.758)" width="20" height="20" fill="#fff"/>
</clipPath>
<clipPath id="c">
<rect transform="translate(144 167)" width="30" height="30" fill="#fff"/>
</clipPath>
<clipPath id="b">
<rect transform="translate(174 164)" width="22" height="22" fill="#fff"/>
</clipPath>
<clipPath id="a">
<rect transform="translate(180.23 91) rotate(22.608)" width="24" height="24" fill="#fff"/>
</clipPath>
<clipPath id="r">
<rect transform="translate(147 107)" width="24" height="24" fill="#fff"/>
</clipPath>
<clipPath id="q">
<rect transform="matrix(.89888 -.43819 -.43819 -.89888 132.47 122.05)" width="24" height="24" fill="#fff"/>
</clipPath>
<clipPath id="p">
<rect transform="translate(122 138)" width="19" height="19" fill="#fff"/>
</clipPath>
<clipPath id="o">
<rect transform="translate(103.53 150) rotate(18.712)" width="17.8" height="17.8" fill="#fff"/>
</clipPath>
<clipPath id="n">
<rect transform="translate(207 123)" width="16" height="16" fill="#fff"/>
</clipPath>
<clipPath id="m">
<rect transform="translate(161 156.93) rotate(-29.758)" width="20" height="20" fill="#fff"/>
</clipPath>
<clipPath id="l">
<rect transform="translate(144 167)" width="30" height="30" fill="#fff"/>
</clipPath>
<clipPath id="k">
<rect transform="translate(174 164)" width="22" height="22" fill="#fff"/>
</clipPath>
<clipPath id="j">
<rect transform="translate(175 123)" width="24" height="24" fill="#fff"/>
</clipPath>
</defs>
</svg>
