<svg
        width="682"
        height="424"
        viewBox="0 0 682 424"
        fill="none"
        xmlns="http://www.w3.org/2000/svg"
      >
        <path
          d="M681.06 296.862C681.06 297.012 651.35 297.122 614.7 297.122C578.05 297.122 548.33 297.012 548.33 296.862C548.33 296.712 578.04 296.602 614.7 296.602C651.36 296.602 681.06 296.722 681.06 296.862Z"
          fill="#3D3D3D"
        />
        <path d="M681.06 273H548.33V407.58H681.06V273Z" fill="#E0E0E0" />
        <path
          d="M681.06 296.02C681.06 296.17 651.31 296.31 614.61 296.33C577.91 296.35 548.16 296.27 548.16 296.12C548.16 295.97 577.9 295.84 614.61 295.81C651.32 295.78 681.06 295.88 681.06 296.02Z"
          fill="#3D3D3D"
        />
        <path
          d="M623.41 281.102H600.23V289.392H623.41V281.102Z"
          fill="#3D3D3D"
        />
        <path
          d="M645.62 285.247C645.62 285.247 645.62 284.777 645.36 283.977C645.039 282.858 644.357 281.877 643.42 281.187C642.667 280.625 641.774 280.284 640.839 280.202C639.904 280.119 638.964 280.298 638.125 280.719C637.286 281.139 636.58 281.785 636.087 282.584C635.594 283.383 635.333 284.303 635.333 285.242C635.333 286.181 635.594 287.101 636.087 287.9C636.58 288.698 637.286 289.344 638.125 289.765C638.964 290.186 639.904 290.365 640.839 290.282C641.774 290.2 642.667 289.858 643.42 289.297C644.357 288.607 645.039 287.626 645.36 286.507C645.58 285.717 645.57 285.247 645.62 285.247C645.67 285.247 645.62 285.357 645.62 285.587C645.624 285.923 645.59 286.258 645.52 286.587C645.251 287.778 644.575 288.839 643.61 289.587C642.887 290.155 642.031 290.531 641.124 290.679C640.217 290.828 639.286 290.745 638.42 290.437C637.384 290.075 636.483 289.405 635.84 288.517C635.133 287.571 634.751 286.422 634.751 285.242C634.751 284.061 635.133 282.912 635.84 281.967C636.487 281.084 637.387 280.418 638.42 280.057C639.286 279.75 640.215 279.666 641.122 279.812C642.029 279.959 642.885 280.332 643.61 280.897C644.572 281.648 645.246 282.707 645.52 283.897C645.59 284.225 645.624 284.561 645.62 284.897C645.65 285.127 645.64 285.247 645.62 285.247Z"
          fill="#3D3D3D"
        />
        <path
          d="M591.63 285.249C591.632 285.774 591.478 286.287 591.188 286.724C590.898 287.161 590.485 287.503 590.001 287.705C589.517 287.907 588.984 287.961 588.469 287.86C587.954 287.759 587.481 287.507 587.11 287.137C586.738 286.767 586.485 286.294 586.382 285.78C586.279 285.266 586.331 284.732 586.531 284.248C586.731 283.763 587.071 283.348 587.507 283.057C587.943 282.765 588.456 282.609 588.98 282.609C589.681 282.609 590.354 282.887 590.85 283.382C591.347 283.877 591.627 284.548 591.63 285.249Z"
          fill="#646464"
        />
        <path
          d="M584.16 285.249C584.16 285.772 584.005 286.282 583.715 286.716C583.425 287.15 583.013 287.489 582.53 287.688C582.048 287.888 581.517 287.941 581.005 287.839C580.493 287.737 580.022 287.485 579.653 287.116C579.284 286.747 579.032 286.277 578.931 285.764C578.829 285.252 578.881 284.722 579.081 284.239C579.281 283.757 579.619 283.344 580.053 283.054C580.487 282.764 580.998 282.609 581.52 282.609C582.22 282.609 582.892 282.888 583.387 283.383C583.882 283.878 584.16 284.549 584.16 285.249Z"
          fill="#646464"
        />
        <path
          d="M576.7 285.249C576.7 285.772 576.545 286.282 576.255 286.716C575.965 287.15 575.553 287.489 575.07 287.688C574.588 287.888 574.057 287.941 573.545 287.839C573.033 287.737 572.562 287.485 572.193 287.116C571.824 286.747 571.573 286.277 571.471 285.764C571.369 285.252 571.421 284.722 571.621 284.239C571.821 283.757 572.159 283.344 572.593 283.054C573.027 282.764 573.538 282.609 574.06 282.609C574.76 282.609 575.432 282.888 575.927 283.383C576.422 283.878 576.7 284.549 576.7 285.249Z"
          fill="#646464"
        />
        <path
          d="M661.26 285.253C661.2 285.253 661.26 284.783 660.99 283.983C660.67 282.867 659.992 281.887 659.06 281.193C658.376 280.693 657.58 280.369 656.741 280.25C655.902 280.132 655.046 280.222 654.25 280.513C653.572 280.768 652.957 281.166 652.446 281.68C651.935 282.193 651.54 282.81 651.288 283.49C651.037 284.169 650.934 284.894 650.986 285.617C651.039 286.339 651.246 287.042 651.594 287.678C651.942 288.313 652.422 288.867 653.002 289.301C653.582 289.735 654.249 290.039 654.957 290.193C655.664 290.347 656.397 290.347 657.105 290.194C657.813 290.04 658.48 289.737 659.06 289.303C659.992 288.61 660.67 287.629 660.99 286.513C661.21 285.723 661.2 285.253 661.26 285.253C661.274 285.366 661.274 285.48 661.26 285.593C661.27 285.929 661.236 286.265 661.16 286.593C660.891 287.785 660.216 288.845 659.25 289.593C658.439 290.221 657.467 290.609 656.446 290.713C655.425 290.817 654.395 290.633 653.473 290.181C652.552 289.729 651.775 289.027 651.232 288.156C650.689 287.285 650.401 286.28 650.4 285.253C650.401 284.073 650.78 282.923 651.48 281.973C651.915 281.385 652.462 280.89 653.091 280.517C653.719 280.144 654.416 279.901 655.14 279.801C655.864 279.702 656.601 279.748 657.307 279.937C658.012 280.126 658.673 280.455 659.25 280.903C660.212 281.654 660.887 282.714 661.16 283.903C661.236 284.231 661.269 284.567 661.26 284.903C661.274 285.019 661.274 285.137 661.26 285.253Z"
          fill="#3D3D3D"
        />
        <path d="M623.03 395.273H601V400.193H623.03V395.273Z" fill="#3D3D3D" />
        <path
          d="M548.33 407.231C548.33 407.231 548.33 407.441 548.33 407.871C548.33 408.301 548.33 408.991 548.33 409.871H548.19C548.08 402.161 548 375.041 548 342.811C548 323.571 548.06 306.151 548.08 293.511C548.08 287.221 548.14 282.131 548.16 278.571C548.16 276.831 548.16 275.471 548.21 274.511C548.21 274.061 548.21 273.711 548.21 273.451C548.166 273.444 548.125 273.42 548.098 273.384C548.07 273.348 548.057 273.304 548.061 273.259C548.064 273.214 548.085 273.172 548.118 273.141C548.151 273.111 548.195 273.094 548.24 273.094C548.285 273.094 548.329 273.111 548.362 273.141C548.395 273.172 548.416 273.214 548.419 273.259C548.423 273.304 548.41 273.348 548.382 273.384C548.355 273.42 548.315 273.444 548.27 273.451C548.27 273.711 548.27 274.061 548.27 274.511C548.27 275.511 548.27 276.831 548.32 278.571C548.32 282.131 548.32 287.221 548.41 293.511C548.41 306.151 548.41 323.571 548.48 342.811C548.48 375.041 548.4 402.161 548.29 409.871H548.15C548.15 408.991 548.15 408.331 548.15 407.871C548.15 407.411 548.33 407.231 548.33 407.231Z"
          fill="#3D3D3D"
        />
        <path d="M547.56 273H410V407.99H547.56V273Z" fill="white" />
        <path d="M547.56 273H410V296.12H547.56V273Z" fill="#E0E0E0" />
        <path
          d="M460.6 283.278C460.55 283.278 460.6 282.688 460.3 281.678C459.901 280.255 459.043 279.004 457.86 278.118C456.992 277.477 455.979 277.06 454.911 276.907C453.843 276.753 452.753 276.867 451.74 277.238C450.506 277.695 449.441 278.518 448.689 279.598C447.937 280.678 447.534 281.962 447.534 283.278C447.534 284.594 447.937 285.878 448.689 286.958C449.441 288.038 450.506 288.862 451.74 289.318C452.753 289.692 453.843 289.808 454.911 289.654C455.98 289.5 456.994 289.082 457.86 288.438C459.044 287.558 459.902 286.309 460.3 284.888C460.57 283.888 460.55 283.278 460.6 283.278C460.623 283.421 460.623 283.566 460.6 283.708C460.595 284.123 460.545 284.535 460.45 284.938C460.117 286.446 459.264 287.787 458.04 288.728C457.022 289.513 455.804 289.997 454.525 290.125C453.246 290.253 451.957 290.02 450.803 289.453C449.65 288.885 448.678 288.006 447.999 286.915C447.32 285.824 446.96 284.564 446.96 283.278C446.965 281.806 447.438 280.374 448.31 279.188C448.852 278.451 449.537 277.829 450.323 277.36C451.109 276.89 451.981 276.583 452.888 276.457C453.795 276.33 454.718 276.386 455.603 276.622C456.488 276.857 457.316 277.267 458.04 277.828C459.264 278.773 460.117 280.118 460.45 281.628C460.545 282.028 460.596 282.437 460.6 282.848C460.624 282.991 460.624 283.136 460.6 283.278Z"
          fill="#3D3D3D"
        />
        <path
          d="M510.94 283.283C510.89 283.283 510.94 282.692 510.64 281.682C510.241 280.26 509.384 279.008 508.2 278.123C507.333 277.481 506.319 277.065 505.251 276.911C504.183 276.757 503.094 276.871 502.08 277.242C500.846 277.699 499.782 278.523 499.03 279.602C498.278 280.682 497.875 281.967 497.875 283.283C497.875 284.598 498.278 285.883 499.03 286.962C499.782 288.042 500.846 288.866 502.08 289.322C503.093 289.696 504.183 289.812 505.252 289.658C506.321 289.504 507.334 289.087 508.2 288.443C509.385 287.562 510.243 286.313 510.64 284.892C510.91 283.892 510.89 283.283 510.94 283.283C510.966 283.425 510.966 283.57 510.94 283.712C510.945 284.127 510.898 284.54 510.8 284.943C510.463 286.448 509.611 287.789 508.39 288.732C507.076 289.744 505.439 290.247 503.783 290.148C502.127 290.049 500.562 289.354 499.378 288.193C498.193 287.031 497.468 285.481 497.336 283.827C497.204 282.173 497.675 280.527 498.66 279.193C499.202 278.454 499.886 277.831 500.672 277.361C501.458 276.891 502.331 276.583 503.238 276.457C504.145 276.33 505.069 276.386 505.954 276.623C506.839 276.859 507.667 277.27 508.39 277.832C509.612 278.78 510.464 280.124 510.8 281.633C510.899 282.032 510.946 282.442 510.94 282.853C510.97 283.143 510.96 283.283 510.94 283.283Z"
          fill="#3D3D3D"
        />
        <path
          d="M490.15 277.398H467.53V288.098H490.15V277.398Z"
          fill="#3D3D3D"
        />
        <path
          d="M474.74 292.156C474.74 292.552 474.623 292.938 474.403 293.267C474.183 293.596 473.871 293.853 473.506 294.004C473.14 294.155 472.738 294.195 472.35 294.118C471.962 294.041 471.606 293.85 471.326 293.57C471.046 293.291 470.856 292.934 470.779 292.546C470.701 292.158 470.741 291.756 470.892 291.391C471.044 291.025 471.3 290.713 471.629 290.493C471.958 290.274 472.345 290.156 472.74 290.156C473.271 290.156 473.779 290.367 474.154 290.742C474.53 291.117 474.74 291.626 474.74 292.156Z"
          fill="#3D3D3D"
        />
        <path
          d="M480.98 292.156C480.98 292.552 480.863 292.938 480.643 293.267C480.424 293.596 480.111 293.853 479.746 294.004C479.38 294.155 478.978 294.195 478.59 294.118C478.202 294.041 477.846 293.85 477.566 293.57C477.287 293.291 477.096 292.934 477.019 292.546C476.942 292.158 476.981 291.756 477.133 291.391C477.284 291.025 477.54 290.713 477.869 290.493C478.198 290.274 478.585 290.156 478.98 290.156C479.511 290.156 480.02 290.367 480.395 290.742C480.77 291.117 480.98 291.626 480.98 292.156Z"
          fill="#3D3D3D"
        />
        <path
          d="M487.21 292.156C487.21 292.552 487.093 292.938 486.873 293.267C486.653 293.596 486.341 293.853 485.975 294.004C485.61 294.155 485.208 294.195 484.82 294.118C484.432 294.041 484.075 293.85 483.796 293.57C483.516 293.291 483.326 292.934 483.248 292.546C483.171 292.158 483.211 291.756 483.362 291.391C483.514 291.025 483.77 290.713 484.099 290.493C484.428 290.274 484.814 290.156 485.21 290.156C485.74 290.156 486.249 290.367 486.624 290.742C486.999 291.117 487.21 291.626 487.21 292.156Z"
          fill="#3D3D3D"
        />
        <path
          d="M536.59 303.203H422.02C420.197 303.203 418.72 304.681 418.72 306.503V307.233C418.72 309.056 420.197 310.533 422.02 310.533H536.59C538.412 310.533 539.89 309.056 539.89 307.233V306.503C539.89 304.681 538.412 303.203 536.59 303.203Z"
          fill="#E0E0E0"
        />
        <path
          d="M536.59 310.528C536.805 310.512 537.019 310.482 537.23 310.438C537.846 310.307 538.412 310.001 538.86 309.558C539.225 309.198 539.505 308.76 539.678 308.277C539.851 307.794 539.913 307.278 539.86 306.768C539.906 306.078 539.731 305.391 539.36 304.807C538.99 304.222 538.444 303.771 537.8 303.518C537.002 303.302 536.172 303.231 535.35 303.308H532.57H526.28H510.93L422.08 303.378C421.327 303.375 420.601 303.655 420.045 304.163C419.49 304.67 419.145 305.368 419.08 306.118C419.035 306.63 419.035 307.146 419.08 307.658C419.158 308.145 419.355 308.604 419.653 308.997C419.951 309.389 420.342 309.702 420.79 309.908C421.241 310.115 421.734 310.214 422.23 310.198H459.84L499.79 310.258L526.74 310.458H534.06L526.74 310.508L499.81 310.588L459.86 310.638H436.27H422.18C421.308 310.673 420.454 310.387 419.779 309.834C419.104 309.281 418.656 308.5 418.52 307.638C418.47 307.082 418.47 306.523 418.52 305.968C418.581 305.386 418.78 304.827 419.1 304.338C419.431 303.848 419.878 303.447 420.401 303.171C420.925 302.896 421.508 302.754 422.1 302.758L510.95 302.838H526.3H532.59H535.37C536.217 302.759 537.072 302.841 537.89 303.078C538.566 303.349 539.139 303.829 539.526 304.447C539.912 305.066 540.092 305.791 540.04 306.518C540.095 307.039 540.034 307.566 539.861 308.06C539.688 308.555 539.408 309.005 539.04 309.378C538.574 309.827 537.986 310.129 537.35 310.248C537.117 310.389 536.859 310.484 536.59 310.528Z"
          fill="#3D3D3D"
        />
        <path
          d="M530.33 317.531H426.29V376.551H530.33V317.531Z"
          fill="#3D3D3D"
        />
        <path
          d="M478.31 317.531L426.29 367.711V376.541H452.3L512.67 317.531H478.31Z"
          fill="#646464"
        />
        <path
          d="M452.31 376.568H426.26V367.698L478.26 317.508H512.74L452.31 376.568ZM426.31 376.518H452.31L512.63 317.518H478.32L426.32 367.688L426.31 376.518Z"
          fill="#3D3D3D"
        />
        <path
          d="M464.84 376.538L523.99 317.398H530.33V327.288L481.04 376.578L464.84 376.538Z"
          fill="#646464"
        />
        <path
          d="M481.05 376.598H464.79L523.94 317.438H530.31V327.367L481.05 376.598ZM464.9 376.517H481.03L530.3 327.247V317.457H524L464.9 376.517Z"
          fill="#3D3D3D"
        />
        <path d="M410.08 272.648H233V408.108H410.08V272.648Z" fill="#6A6A6A" />
        <path
          d="M320.89 408.098C320.75 408.098 320.56 377.787 320.47 340.397C320.38 303.007 320.47 272.688 320.58 272.688C320.69 272.688 320.91 302.997 320.99 340.397C321.07 377.797 321.03 408.098 320.89 408.098Z"
          fill="#3B3B3B"
        />
        <path
          d="M306.37 352.414H306.73C307.354 352.414 307.86 351.908 307.86 351.284V329.454C307.86 328.83 307.354 328.324 306.73 328.324H306.37C305.746 328.324 305.24 328.83 305.24 329.454V351.284C305.24 351.908 305.746 352.414 306.37 352.414Z"
          fill="#E0E0E0"
        />
        <path
          d="M335.62 352.008H335.98C336.604 352.008 337.11 351.502 337.11 350.878V329.048C337.11 328.424 336.604 327.918 335.98 327.918H335.62C334.996 327.918 334.49 328.424 334.49 329.048V350.878C334.49 351.502 334.996 352.008 335.62 352.008Z"
          fill="#E0E0E0"
        />
        <g opacity="0.3">
          <path
            d="M314.48 402.534C314.48 402.534 314.48 402.324 314.48 401.914C314.48 401.504 314.48 400.914 314.48 400.134C314.48 398.564 314.48 396.254 314.48 393.254C314.48 387.254 314.48 378.474 314.41 367.414C314.41 345.314 314.34 314.054 314.29 277.354L314.53 277.594H238.37L238.63 277.334C238.63 324.914 238.63 368.634 238.57 402.514L238.37 402.304L293.89 402.414L309.16 402.464H313.16H314.54H313.21H309.21L293.99 402.514L238.34 402.624H238.14V402.534C238.14 368.654 238.14 324.934 238.08 277.354V277.094H238.35H314.51H314.76V277.334C314.76 314.094 314.68 345.414 314.65 367.554C314.65 378.554 314.6 387.334 314.58 393.334C314.58 396.334 314.58 398.614 314.58 400.174C314.58 400.934 314.58 401.524 314.58 401.924C314.58 402.324 314.48 402.534 314.48 402.534Z"
            fill="black"
          />
        </g>
        <g opacity="0.3">
          <path
            d="M320.58 272.688C319.746 273.687 318.78 274.568 317.71 275.307C316.748 276.181 315.675 276.924 314.52 277.518C315.35 276.515 316.316 275.634 317.39 274.897C318.351 274.024 319.424 273.281 320.58 272.688Z"
            fill="black"
          />
        </g>
        <g opacity="0.3">
          <path
            d="M321.02 407.964C319.789 407.262 318.65 406.409 317.63 405.424C316.498 404.568 315.471 403.582 314.57 402.484C315.8 403.189 316.939 404.042 317.96 405.024C319.096 405.877 320.123 406.864 321.02 407.964Z"
            fill="black"
          />
        </g>
        <g opacity="0.3">
          <path
            d="M402.84 402.534C402.84 402.534 402.84 402.324 402.84 401.914C402.84 401.504 402.84 400.914 402.84 400.134C402.84 398.564 402.84 396.254 402.84 393.254C402.84 387.254 402.84 378.474 402.77 367.414C402.77 345.314 402.7 314.054 402.65 277.354L402.89 277.594H326.73L326.99 277.334C326.99 324.914 326.99 368.634 326.93 402.514L326.73 402.304L382.25 402.414L397.52 402.464H401.52H402.9H401.57H397.57L382.35 402.514L326.7 402.624H326.5V402.534C326.5 368.654 326.5 324.934 326.44 277.354V277.094H326.71H402.87H403.11V277.334C403.11 314.094 403.03 345.414 403 367.554C403 378.554 402.95 387.334 402.93 393.334C402.93 396.334 402.93 398.614 402.93 400.174C402.93 400.934 402.93 401.524 402.93 401.924C402.93 402.324 402.84 402.534 402.84 402.534Z"
            fill="black"
          />
        </g>
        <g opacity="0.3">
          <path
            d="M410.25 273.156C409.219 274.17 408.038 275.02 406.75 275.676C405.544 276.478 404.226 277.098 402.84 277.516C403.98 276.642 405.198 275.876 406.48 275.226C407.675 274.43 408.936 273.737 410.25 273.156Z"
            fill="black"
          />
        </g>
        <g opacity="0.3">
          <path
            d="M326.73 277.027C325.602 276.473 324.524 275.821 323.51 275.078C322.39 274.474 321.396 273.663 320.58 272.688C321.703 273.27 322.78 273.939 323.8 274.688C324.916 275.276 325.91 276.07 326.73 277.027Z"
            fill="black"
          />
        </g>
        <g opacity="0.3">
          <path
            d="M326.6 402.703C325.894 403.825 324.985 404.805 323.92 405.593C322.986 406.503 321.983 407.339 320.92 408.093C321.626 406.972 322.535 405.992 323.6 405.203C324.534 404.293 325.537 403.457 326.6 402.703Z"
            fill="black"
          />
        </g>
        <g opacity="0.3">
          <path
            d="M411.25 407.724C411.15 407.834 409.45 406.434 407.17 405.004C404.89 403.574 402.9 402.624 402.96 402.484C406.133 403.479 408.991 405.285 411.25 407.724Z"
            fill="black"
          />
        </g>
        <path
          d="M670.26 407.664H233.28V423.074H670.26V407.664Z"
          fill="#3B3B3B"
        />
        <path d="M681.9 268.922H233.28V273.072H681.9V268.922Z" fill="#3B3B3B" />
        <path
          d="M309.25 269.421H248.15V265.531H309.25V269.421ZM249.15 268.421H308.25V266.531H249.15V268.421Z"
          fill="#3B3B3B"
        />
        <path
          d="M278.52 265.535H274.52V240.935C274.52 238.731 275.395 236.617 276.953 235.059C278.512 233.501 280.626 232.625 282.83 232.625C285.033 232.625 287.147 233.501 288.706 235.059C290.264 236.617 291.14 238.731 291.14 240.935V242.045H287.14V240.935C287.14 239.792 286.685 238.696 285.877 237.887C285.069 237.079 283.973 236.625 282.83 236.625C281.686 236.625 280.59 237.079 279.782 237.887C278.974 238.696 278.52 239.792 278.52 240.935V265.535Z"
          fill="#3B3B3B"
        />
        <path
          d="M291.59 241.234H286.69C286.033 241.234 285.5 241.767 285.5 242.424V242.684C285.5 243.342 286.033 243.874 286.69 243.874H291.59C292.247 243.874 292.78 243.342 292.78 242.684V242.424C292.78 241.767 292.247 241.234 291.59 241.234Z"
          fill="#3B3B3B"
        />
        <path
          d="M264.66 260.047H256.99V262.667H264.66V260.047Z"
          fill="#3B3B3B"
        />
        <path
          d="M295.81 260.047H288.14V262.667H295.81V260.047Z"
          fill="#3B3B3B"
        />
        <path d="M225.94 0H8.08984V423.07H225.94V0Z" fill="#3B3B3B" />
        <path
          d="M232.37 21.0078H0.259766V409.328H232.37V21.0078Z"
          fill="#E0E0E0"
        />
        <path
          d="M232.34 409.33C232.34 407.14 232.24 248.79 232.1 21.01L232.34 21.25L0.34 21.27L0.6 21.01C0.6 168.84 0.600001 304.58 0.540001 409.33L0.34 409.12L232.34 409.33L0.26 409.53H0.0599995V409.33C0.0599995 304.58 0.06 168.84 0 21.01V20.75H0.34H232.42H232.66V20.99C232.47 248.79 232.34 407.14 232.34 409.33Z"
          fill="#3B3B3B"
        />
        <path
          d="M57.0201 148.109H13.3301V206.559H57.0201V148.109Z"
          fill="#3B3B3B"
        />
        <path
          d="M57.0201 211.07H13.3301V275.36H57.0201V211.07Z"
          fill="#3B3B3B"
        />
        <path
          d="M47.6104 211.07H21.6504V220.61H47.6104V211.07Z"
          fill="#696969"
        />
        <path
          d="M71.0697 126.82H70.3997C68.7594 126.82 67.4297 128.15 67.4297 129.79V294.92C67.4297 296.561 68.7594 297.89 70.3997 297.89H71.0697C72.71 297.89 74.0397 296.561 74.0397 294.92V129.79C74.0397 128.15 72.71 126.82 71.0697 126.82Z"
          fill="white"
        />
        <path
          d="M71.0602 297.887C71.3615 297.864 71.6597 297.81 71.9502 297.727C72.3644 297.586 72.7428 297.357 73.0589 297.054C73.375 296.752 73.6212 296.384 73.7802 295.977C73.9715 295.359 74.0361 294.71 73.9702 294.067C73.9702 293.347 73.9702 292.557 73.9702 291.707C73.9702 289.997 73.9702 288.037 73.9702 285.817C73.9702 276.947 73.9702 264.127 73.8802 248.287C73.7902 232.447 73.8802 213.567 73.8302 192.627C73.8302 182.147 73.8302 171.157 73.8302 159.757V131.237C73.8694 130.512 73.8359 129.785 73.7302 129.067C73.543 128.397 73.1064 127.825 72.5102 127.467C71.8846 127.125 71.1675 126.989 70.4602 127.077C69.7651 127.076 69.0962 127.342 68.5918 127.82C68.0874 128.299 67.7861 128.953 67.7502 129.647C67.7502 131.137 67.7502 132.647 67.7502 134.117V143.017C67.7502 148.904 67.7502 154.7 67.7502 160.407C67.7502 171.807 67.7502 182.807 67.7502 193.287C67.7502 214.287 67.7502 233.107 67.6902 248.957C67.6302 264.807 67.6302 277.607 67.6102 286.477C67.6102 288.697 67.6102 290.667 67.6102 292.367C67.6102 294.067 67.3502 295.587 68.0902 296.557C68.3364 296.917 68.6581 297.218 69.0329 297.441C69.4077 297.664 69.8265 297.802 70.2602 297.847H70.9402H71.1602C70.8605 297.865 70.5599 297.865 70.2602 297.847C69.8108 297.815 69.3743 297.683 68.983 297.46C68.5918 297.236 68.2559 296.928 68.0002 296.557C67.5876 296.035 67.356 295.392 67.3402 294.727C67.3402 294.007 67.3402 293.227 67.3402 292.367C67.3402 290.667 67.3402 288.697 67.3402 286.477C67.3402 277.607 67.3402 264.787 67.2502 248.957C67.1602 233.127 67.2502 214.237 67.2002 193.287C67.2002 182.807 67.2002 171.807 67.2002 160.407V134.117C67.2002 132.627 67.2002 131.117 67.2002 129.617C67.2383 128.788 67.5968 128.006 68.2002 127.437C68.8031 126.868 69.6015 126.553 70.4302 126.557C70.8194 126.523 71.2109 126.523 71.6002 126.557C72.0063 126.624 72.3963 126.767 72.7502 126.977C73.4573 127.408 73.9753 128.09 74.2002 128.887C74.2986 129.272 74.3391 129.67 74.3202 130.067V142.327C74.3202 148.214 74.3202 154.01 74.3202 159.717C74.3202 171.117 74.3202 182.107 74.3202 192.587C74.3202 213.527 74.3202 232.397 74.2602 248.247C74.2002 264.097 74.2002 276.907 74.1802 285.777C74.1802 287.997 74.1802 289.957 74.1802 291.667C74.1802 292.517 74.1802 293.307 74.1802 294.027C74.2402 294.685 74.1654 295.349 73.9602 295.977C73.793 296.396 73.5336 296.771 73.2012 297.076C72.8688 297.381 72.4719 297.607 72.0402 297.737C71.7278 297.855 71.3938 297.906 71.0602 297.887Z"
          fill="#3B3B3B"
        />
        <path
          d="M90.4401 17.1797H86.3701V412.99H90.4401V17.1797Z"
          fill="#3B3B3B"
        />
        <path
          d="M90.9501 413.53H85.8701V16.6797H90.9501V413.53ZM86.8701 412.53H89.9501V17.6797H86.8701V412.53Z"
          fill="#3B3B3B"
        />
        <path
          d="M47.0498 154.492H22.3398V184.912H47.0498V154.492Z"
          fill="#696969"
        />
        <path
          d="M29.4501 189.461H23.0801V194.621H29.4501V189.461Z"
          fill="#696969"
        />
        <path
          d="M38.0399 189.461H31.6699V194.621H38.0399V189.461Z"
          fill="#696969"
        />
        <path
          d="M46.6298 189.461H40.2598V194.621H46.6298V189.461Z"
          fill="#696969"
        />
        <path
          d="M29.4501 196.961H23.0801V202.121H29.4501V196.961Z"
          fill="#696969"
        />
        <path
          d="M38.0399 196.961H31.6699V202.121H38.0399V196.961Z"
          fill="#696969"
        />
        <path
          d="M46.6298 196.961H40.2598V202.121H46.6298V196.961Z"
          fill="#AD343E"
        />
        <path
          d="M50.2199 266.562H18.9199V276.163H50.2199V266.562Z"
          fill="#E0E0E0"
        />
        <g clipPath="url(#clip0_200_2468)">
          <path
            fillRule="evenodd"
            clipRule="evenodd"
            d="M184.702 97.4141L187.787 98.6985L188.349 102.748L191.639 100.303L194.696 101.576L186.047 108.275L184.702 97.4141Z"
            fill="black"
          />
          <path
            fillRule="evenodd"
            clipRule="evenodd"
            d="M181.411 96.0469L183.671 113.986L198.055 102.978L194.696 101.579L186.047 108.279L184.702 97.4172L181.411 96.0469Z"
            fill="#757575"
          />
        </g>
        <g clipPath="url(#clip1_200_2468)">
          <path
            d="M159 109.5L167.84 112.65L166.5 124.35L159 128.5L151.5 124.35L150.16 112.65L159 109.5ZM159 111.6L153.47 124H155.53L156.64 121.22H161.34L162.45 124H164.5L159 111.6ZM160.62 119.5H157.39L159 115.63L160.62 119.5Z"
            fill="black"
          />
        </g>
        <g clipPath="url(#clip2_200_2468)">
          <path
            d="M138.828 107.703C139.16 107.541 139.436 107.285 139.622 106.967C139.809 106.648 139.897 106.282 139.875 105.913C139.854 105.545 139.724 105.191 139.502 104.897C139.279 104.602 138.975 104.38 138.627 104.258C138.279 104.135 137.902 104.119 137.545 104.211C137.187 104.302 136.865 104.497 136.618 104.772C136.371 105.046 136.211 105.387 136.158 105.752C136.105 106.118 136.161 106.49 136.319 106.824C136.426 107.046 136.576 107.245 136.76 107.41C136.944 107.575 137.158 107.701 137.391 107.783C137.624 107.865 137.871 107.9 138.117 107.886C138.364 107.872 138.605 107.81 138.828 107.703ZM130.332 100.842C130.732 100.224 132.218 100.145 134.313 100.793C134.099 101.573 133.924 102.364 133.789 103.162C133.103 103.597 132.441 104.068 131.806 104.573C130.41 102.873 129.937 101.469 130.332 100.842ZM133.486 105.69L133.449 106.276C133.224 106.073 133.011 105.857 132.811 105.63C133.027 105.458 133.275 105.281 133.532 105.101L133.486 105.69ZM139.697 103.508L141.083 104.501L141.012 106.205C140.975 106.812 140.893 107.375 140.838 107.925C140.366 108.188 139.854 108.438 139.314 108.701C138.775 108.964 138.263 109.214 137.777 109.45C137.311 109.155 136.817 108.873 136.315 108.528L134.917 107.507L134.987 105.804C135.025 105.196 135.106 104.633 135.161 104.084C135.647 103.847 136.159 103.597 136.698 103.335C137.238 103.072 137.75 102.822 138.235 102.585C138.702 102.881 139.196 103.163 139.697 103.508ZM140.287 110.696C140.02 110.582 139.739 110.463 139.441 110.308L140.502 109.791C140.44 110.121 140.361 110.415 140.287 110.696ZM135.712 101.312C135.98 101.427 136.26 101.546 136.558 101.701L135.498 102.218C135.559 101.887 135.638 101.593 135.712 101.312ZM145.658 111.171C145.267 111.784 143.773 111.867 141.686 111.216C141.901 110.435 142.076 109.644 142.211 108.846C142.901 108.424 143.569 107.965 144.21 107.471C145.607 109.171 146.08 110.576 145.676 111.207M142.531 106.354L142.568 105.768C142.793 105.971 143.006 106.187 143.206 106.414C142.989 106.587 142.742 106.763 142.485 106.944L142.531 106.354ZM146.902 112.011C147.855 110.612 147.031 108.555 145.334 106.512C147.288 104.725 148.385 102.799 147.649 101.289C146.913 99.779 144.72 99.4573 142.109 99.8961C141.535 97.3053 140.423 95.3889 138.743 95.2736C137.062 95.1583 135.694 96.8932 134.77 99.3795C132.243 98.5759 130.033 98.5849 129.08 99.9841C128.127 101.383 128.938 103.391 130.648 105.483C128.693 107.27 127.596 109.196 128.332 110.706C129.068 112.216 131.266 112.547 133.877 112.108C134.451 114.699 135.563 116.615 137.243 116.73C138.924 116.846 140.301 115.106 141.225 112.62C143.753 113.424 145.962 113.415 146.906 112.02M142.566 103.778C142.556 102.964 142.501 102.152 142.403 101.344C144.566 100.99 146.021 101.282 146.341 101.938C146.661 102.594 145.968 103.933 144.383 105.407C143.807 104.831 143.201 104.288 142.566 103.778ZM133.433 108.23C133.444 109.044 133.498 109.857 133.597 110.665C131.433 111.019 129.978 110.727 129.658 110.071C129.338 109.414 130.031 108.075 131.616 106.602C132.192 107.177 132.799 107.721 133.433 108.23ZM140.533 102.255L140.04 101.928C140.319 101.792 140.632 101.751 140.901 101.686C140.957 101.984 140.996 102.284 141.017 102.586L140.533 102.255ZM136.138 99.9031C136.91 97.8581 137.923 96.7189 138.62 96.8019C139.317 96.885 140.164 98.0742 140.66 100.257C139.876 100.458 139.104 100.701 138.345 100.985C137.628 100.587 136.892 100.226 136.138 99.9031ZM135.466 109.753L135.96 110.08C135.681 110.216 135.367 110.258 135.098 110.322C135.042 110.025 135.004 109.724 134.982 109.422L135.466 109.753ZM139.861 112.105C139.062 114.164 138.076 115.29 137.343 115.224C136.611 115.159 135.809 113.947 135.312 111.764C136.096 111.563 136.869 111.32 137.627 111.036C138.353 111.431 139.099 111.787 139.861 112.105Z"
            fill="black"
          />
        </g>
        <g clipPath="url(#clip3_200_2468)">
          <path
            d="M136.101 155.813C136.03 155.851 136.036 155.863 136.104 155.828C136.126 155.819 136.144 155.807 136.16 155.792C136.16 155.779 136.16 155.779 136.101 155.813ZM136.243 155.736C136.21 155.764 136.21 155.764 136.25 155.746C136.271 155.733 136.29 155.721 136.29 155.718C136.29 155.702 136.281 155.705 136.243 155.736ZM136.336 155.68C136.302 155.708 136.302 155.708 136.343 155.69C136.365 155.677 136.383 155.664 136.383 155.661C136.383 155.646 136.373 155.649 136.336 155.68ZM136.43 155.625C136.396 155.653 136.396 155.653 136.435 155.634C136.457 155.622 136.476 155.61 136.476 155.606C136.476 155.591 136.466 155.594 136.43 155.625ZM136.556 155.541C136.492 155.585 136.469 155.613 136.528 155.582C136.568 155.557 136.636 155.504 136.624 155.504C136.599 155.513 136.577 155.529 136.556 155.541H136.556ZM130.878 138.004C130.835 138.007 130.705 138.019 130.591 138.029C127.891 138.273 125.364 139.727 123.763 141.966C122.878 143.193 122.303 144.619 122.086 146.116C122.01 146.638 122 146.792 122 147.501C122 148.209 122.01 148.361 122.086 148.883C122.603 152.452 125.142 155.448 128.583 156.558C129.203 156.756 129.852 156.893 130.591 156.976C130.878 157.007 132.121 157.007 132.408 156.976C133.686 156.834 134.765 156.519 135.833 155.974C135.996 155.891 136.027 155.869 136.005 155.851C135.483 155.161 134.97 154.471 134.456 153.776L132.938 151.725L131.036 148.908C130.402 147.965 129.766 147.025 129.119 146.091C129.113 146.091 129.104 147.343 129.101 148.871C129.094 151.545 129.094 151.654 129.06 151.716C129.026 151.79 128.971 151.852 128.896 151.886C128.838 151.914 128.785 151.92 128.504 151.92H128.183L128.099 151.868C128.047 151.834 128.003 151.787 127.975 151.732L127.935 151.648L127.938 147.925L127.945 144.201L128.003 144.127C128.041 144.081 128.087 144.044 128.139 144.016C128.217 143.979 128.248 143.973 128.569 143.973C128.946 143.973 129.009 143.988 129.108 144.096C129.877 145.243 130.644 146.393 131.399 147.547C132.633 149.419 134.319 151.972 135.147 153.225L136.653 155.505L136.727 155.455C137.451 154.973 138.11 154.398 138.678 153.742C139.875 152.372 140.651 150.686 140.914 148.887C140.991 148.365 141.001 148.21 141.001 147.502C141.001 146.794 140.991 146.642 140.914 146.12C140.397 142.551 137.858 139.555 134.417 138.444C133.773 138.24 133.111 138.101 132.441 138.03C132.261 138.011 131.033 137.99 130.879 138.006L130.878 138.004ZM134.766 143.75C134.855 143.793 134.923 143.874 134.954 143.966C134.97 144.016 134.973 145.049 134.97 147.374L134.963 150.714L134.376 149.811L133.785 148.908V146.484C133.785 144.912 133.792 144.031 133.8 143.988C133.828 143.888 133.896 143.805 133.986 143.753C134.06 143.716 134.088 143.713 134.382 143.713C134.657 143.713 134.704 143.716 134.766 143.75Z"
            fill="black"
          />
        </g>
        <g clipPath="url(#clip4_200_2468)">
          <path
            d="M111.962 152.855C107.271 151.266 102.267 153.735 100.677 158.429C99.087 163.124 101.557 168.124 106.251 169.714C110.946 171.304 115.947 168.83 117.536 164.14C119.125 159.449 116.656 154.445 111.962 152.855ZM102.485 159.121L106.802 167.854C103.208 166.641 101.268 162.714 102.485 159.121ZM108.386 168.232L103.156 157.632C104.809 154.922 108.192 153.616 111.342 154.683C113.453 155.407 115.098 157.083 115.774 159.208L114.549 159.691C114.041 157.874 112.665 156.426 110.875 155.828C108.595 155.039 106.07 155.8 104.597 157.707L109.154 166.939C111.039 166.922 112.854 165.903 113.818 164.267L110.959 163.299L111.381 162.055L115.704 163.519C114.637 166.67 111.543 168.566 108.386 168.232Z"
            fill="#3C3C3C"
          />
        </g>
        <g clipPath="url(#clip5_200_2468)">
          <path
            fillRule="evenodd"
            clipRule="evenodd"
            d="M220.631 127.8H220.625H212.966L213.149 129.4H220.449C220.342 130.802 220.018 133.771 219.899 135.122L215.799 136.161V136.164L215.79 136.168L211.688 134.869L211.407 131.8H213.418L213.56 133.45L215.794 134.2H215.799L218.03 133.48L218.259 131H211.317C211.283 130.679 210.852 126.514 210.776 126.2H220.811C220.754 126.728 220.697 127.27 220.631 127.8ZM207.8 123L209.256 137.518L215.79 139L222.342 137.489L223.8 123H207.8Z"
            fill="black"
          />
        </g>
        <path
          d="M224.016 141.016L222.515 155.46L216.016 157.016L209.516 155.46L208.016 141.016H224.016ZM220.993 143.953H216.01H210.938L211.181 145.697H216.01H216.281L216.01 145.797L211.357 147.52L211.512 149.225L216.01 149.238L218.42 149.244L218.266 151.518L216.01 152.082V152.081L215.991 152.085L213.812 151.596L213.68 150.185H213.673H211.651H211.644L211.909 152.909L216.01 153.987V153.985L216.017 153.987L220.096 152.929L220.625 147.52H216.01H215.998L216.01 147.515L220.794 145.697L220.993 143.953Z"
          fill="black"
        />
        <path
          d="M158.007 71.3046C158.007 76.3607 158.369 80.6092 155.874 83.1235C154.471 84.538 152.257 85.3714 149.532 85.3714C145.064 85.3714 142.583 83.1946 141 80.1826C142.524 79.2092 144.082 78.2684 145.67 77.3581C146.318 79.1696 148.505 81.2064 150.974 79.9526C152.538 79.1573 152.358 76.7464 152.358 74.1294C152.358 68.6959 152.358 62.4278 152.358 57.5256C152.353 57.4441 152.348 57.3626 152.415 57.3527C154.279 57.3527 156.144 57.3527 158.007 57.3527C158.007 61.7195 158.007 66.6599 158.007 71.3046ZM172.19 68.0187C170.764 67.4082 168.992 66.686 168.558 65.3662C168.071 63.887 168.901 62.6683 169.826 62.2536C171.859 61.3405 174.282 62.8439 174.784 64.3865C176.314 63.4758 177.839 62.5596 179.223 61.504C177.596 58.8021 175.211 56.8679 170.864 57.0071C168.47 57.0835 166.672 57.8392 165.329 58.9671C164.019 60.0674 163.007 61.6119 162.85 63.8099C162.379 70.389 167.302 72.0684 171.498 73.8988C172.82 74.4757 174.291 75.0583 174.899 76.2048C176.154 78.5706 173.931 80.1314 172.017 80.2983C168.944 80.566 166.872 78.7681 165.675 76.8967C164.18 77.8233 162.555 78.619 161.12 79.6064C163.115 83.1148 166.387 85.386 171.498 85.3714C176.712 85.3567 180.577 82.8428 180.895 78.1076C181.326 71.6714 176.504 69.8658 172.19 68.0187Z"
          fill="#D3D3D3"
        />
        <g clipPath="url(#clip6_200_2468)">
          <path
            d="M178.943 156.754C179.149 156.821 179.315 157.044 179.444 157.421C179.577 157.814 179.589 158.142 179.479 158.405C179.369 158.668 179.113 158.915 178.712 159.144L178.107 159.49L177.385 157.366L178.067 156.976C178.445 156.76 178.737 156.686 178.943 156.754ZM170.301 161.416L169.619 161.806L170.341 163.93L170.946 163.584C171.347 163.355 171.603 163.108 171.713 162.845C171.823 162.582 171.811 162.254 171.677 161.861C171.549 161.484 171.382 161.261 171.177 161.194C170.971 161.126 170.679 161.2 170.301 161.416ZM183.309 155.697C184.748 158.215 182.035 162.473 177.25 165.209C172.465 167.945 167.419 168.122 165.98 165.605C164.541 163.087 167.253 158.829 172.038 156.093C176.824 153.357 181.869 153.18 183.309 155.697ZM172.876 162.08C172.873 161.836 172.83 161.59 172.746 161.343C172.542 160.741 172.221 160.365 171.784 160.213C171.348 160.062 170.841 160.151 170.266 160.48L168.352 161.574L170.076 166.649L171.071 166.08L170.613 164.731L171.465 164.244C171.841 164.029 172.128 163.813 172.326 163.595C172.523 163.377 172.668 163.118 172.761 162.819C172.84 162.57 172.878 162.324 172.876 162.08ZM176.963 161.101L176.161 158.739C175.998 158.259 175.756 157.982 175.435 157.909C175.115 157.836 174.678 157.958 174.125 158.274L173.245 158.777L172.787 157.428L171.8 157.992L173.523 163.067L174.511 162.503L173.523 159.595L174.312 159.144C174.565 159 174.754 158.947 174.879 158.986C175.004 159.026 175.11 159.173 175.197 159.429L175.96 161.674L176.963 161.101L176.963 161.101ZM179.55 155.773C179.114 155.622 178.607 155.711 178.032 156.04L176.119 157.134L177.842 162.209L178.837 161.64L178.379 160.291L179.231 159.804C179.607 159.589 179.894 159.373 180.092 159.155C180.289 158.937 180.434 158.678 180.527 158.379C180.606 158.13 180.644 157.884 180.642 157.64C180.639 157.396 180.596 157.15 180.512 156.903C180.308 156.301 179.987 155.925 179.55 155.773Z"
            fill="black"
          />
        </g>
        <g clipPath="url(#clip7_200_2468)">
          <path
            d="M159 169.5C161.472 169.5 163.889 170.233 165.945 171.607C168 172.98 169.602 174.932 170.548 177.216C171.495 179.501 171.742 182.014 171.26 184.439C170.777 186.863 169.587 189.091 167.839 190.839C166.091 192.587 163.863 193.777 161.439 194.26C159.014 194.742 156.501 194.495 154.216 193.548C151.932 192.602 149.98 191 148.607 188.945C147.233 186.889 146.5 184.472 146.5 182C146.5 178.685 147.817 175.505 150.161 173.161C152.505 170.817 155.685 169.5 159 169.5ZM156.5 186.162C156.688 186.773 156.688 187.427 156.5 188.037C156.5 188.1 156.5 188.162 156.425 188.25C156.35 188.337 156.425 188.337 156.337 188.4C156.193 188.709 155.999 188.992 155.762 189.237C155.037 190.037 154 190.337 153.587 190.087C153.175 189.837 153.375 188.687 154.2 187.8C154.846 187.163 155.588 186.631 156.4 186.225L156.5 186.162ZM166.837 174.912C166.275 172.687 162.587 171.962 159.112 173.2C156.934 173.913 154.916 175.047 153.175 176.537C151.262 178.337 150.95 179.9 151.075 180.55C151.5 182.85 154.675 184.362 155.975 185.475C155.6 185.662 152.8 187.075 152.125 188.525C151.84 188.978 151.745 189.525 151.862 190.048C151.979 190.57 152.299 191.025 152.75 191.312C153.552 191.506 154.394 191.444 155.158 191.134C155.923 190.825 156.571 190.284 157.012 189.587C157.378 189.025 157.606 188.385 157.68 187.719C157.754 187.053 157.671 186.379 157.437 185.75C158.064 185.604 158.712 185.57 159.35 185.65C161.55 185.912 161.975 187.275 161.85 187.85C161.813 188.054 161.732 188.248 161.614 188.418C161.495 188.589 161.341 188.732 161.162 188.837C161.012 188.925 160.962 188.962 160.975 189.037C160.987 189.112 161.062 189.137 161.187 189.112C161.529 189.02 161.832 188.823 162.056 188.55C162.28 188.276 162.414 187.94 162.437 187.587C162.437 186.237 161.187 184.737 158.925 184.775C158.264 184.76 157.606 184.852 156.975 185.05L156.875 184.937C155.462 183.437 152.862 182.437 152.975 180.35C152.975 179.612 153.262 177.687 157.975 175.35C161.825 173.425 164.912 173.95 165.475 175.137C166.237 176.8 163.825 179.912 159.825 180.362C159.387 180.445 158.936 180.431 158.504 180.321C158.072 180.211 157.67 180.007 157.325 179.725C157.112 179.512 157.087 179.475 157.012 179.512C156.937 179.55 157.012 179.8 157.012 179.925C157.33 180.472 157.844 180.879 158.45 181.062C160.027 181.403 161.67 181.241 163.15 180.6C165.5 179.65 167.4 177 166.837 174.85V174.912Z"
            fill="#3B3B3B"
          />
        </g>
        <g clipPath="url(#clip8_200_2468)">
          <path
            fillRule="evenodd"
            clipRule="evenodd"
            d="M194.652 169.722C194.7 170.073 194.726 170.448 194.726 170.853C194.726 172.787 194.547 172.896 190.53 184.508C193.8 182.601 196 179.058 196 175C196 173.087 195.512 171.289 194.652 169.722ZM185.194 175.963L181.893 185.552C184.12 186.208 186.481 186.141 188.653 185.377C188.623 185.33 188.597 185.279 188.575 185.225L185.194 175.963ZM192.426 174.445C192.426 173.085 191.938 172.143 191.519 171.41C190.962 170.504 190.438 169.738 190.438 168.831C190.438 167.82 191.206 166.879 192.286 166.879C192.335 166.879 192.381 166.885 192.428 166.888C190.471 165.095 187.864 164 185 164C181.158 164 177.776 165.971 175.81 168.958C176.51 168.98 177.451 168.989 179.449 168.832C180.042 168.797 180.112 169.668 179.52 169.737C179.52 169.737 178.924 169.808 178.26 169.843L182.266 181.758L184.673 174.538L182.96 169.842C182.368 169.808 181.807 169.737 181.807 169.737C181.214 169.702 181.283 168.796 181.876 168.831C184.15 169.006 185.313 169.019 187.705 168.831C188.298 168.796 188.368 169.667 187.775 169.737C187.775 169.737 187.178 169.808 186.516 169.842L190.491 181.667C192.061 176.422 192.426 175.545 192.426 174.445ZM174 175C174 179.354 176.53 183.117 180.2 184.9L174.953 170.523C174.342 171.892 174 173.405 174 175Z"
            fill="black"
          />
        </g>
        <path d="M225.94 0H8.08984V423.07H225.94V0Z" fill="#3B3B3B" />
        <path
          d="M232.37 21.0078H0.259766V409.328H232.37V21.0078Z"
          fill="#E0E0E0"
        />
        <path
          d="M232.34 409.33C232.34 407.14 232.24 248.79 232.1 21.01L232.34 21.25L0.34 21.27L0.6 21.01C0.6 168.84 0.600001 304.58 0.540001 409.33L0.34 409.12L232.34 409.33L0.26 409.53H0.0599995V409.33C0.0599995 304.58 0.06 168.84 0 21.01V20.75H0.34H232.42H232.66V20.99C232.47 248.79 232.34 407.14 232.34 409.33Z"
          fill="#3B3B3B"
        />
        <path
          d="M57.0201 148.109H13.3301V206.559H57.0201V148.109Z"
          fill="#3B3B3B"
        />
        <path
          d="M57.0201 211.07H13.3301V275.36H57.0201V211.07Z"
          fill="#3B3B3B"
        />
        <path
          d="M47.6104 211.07H21.6504V220.61H47.6104V211.07Z"
          fill="#696969"
        />
        <path
          d="M71.0697 126.82H70.3997C68.7594 126.82 67.4297 128.15 67.4297 129.79V294.92C67.4297 296.561 68.7594 297.89 70.3997 297.89H71.0697C72.71 297.89 74.0397 296.561 74.0397 294.92V129.79C74.0397 128.15 72.71 126.82 71.0697 126.82Z"
          fill="white"
        />
        <path
          d="M71.0602 297.887C71.3615 297.864 71.6597 297.81 71.9502 297.727C72.3644 297.586 72.7428 297.357 73.0589 297.054C73.375 296.752 73.6212 296.384 73.7802 295.977C73.9715 295.359 74.0361 294.71 73.9702 294.067C73.9702 293.347 73.9702 292.557 73.9702 291.707C73.9702 289.997 73.9702 288.037 73.9702 285.817C73.9702 276.947 73.9702 264.127 73.8802 248.287C73.7902 232.447 73.8802 213.567 73.8302 192.627C73.8302 182.147 73.8302 171.157 73.8302 159.757V131.237C73.8694 130.512 73.8359 129.785 73.7302 129.067C73.543 128.397 73.1064 127.825 72.5102 127.467C71.8846 127.125 71.1675 126.989 70.4602 127.077C69.7651 127.076 69.0962 127.342 68.5918 127.82C68.0874 128.299 67.7861 128.953 67.7502 129.647C67.7502 131.137 67.7502 132.647 67.7502 134.117V143.017C67.7502 148.904 67.7502 154.7 67.7502 160.407C67.7502 171.807 67.7502 182.807 67.7502 193.287C67.7502 214.287 67.7502 233.107 67.6902 248.957C67.6302 264.807 67.6302 277.607 67.6102 286.477C67.6102 288.697 67.6102 290.667 67.6102 292.367C67.6102 294.067 67.3502 295.587 68.0902 296.557C68.3364 296.917 68.6581 297.218 69.0329 297.441C69.4077 297.664 69.8265 297.802 70.2602 297.847H70.9402H71.1602C70.8605 297.865 70.5599 297.865 70.2602 297.847C69.8108 297.815 69.3743 297.683 68.983 297.46C68.5918 297.236 68.2559 296.928 68.0002 296.557C67.5876 296.035 67.356 295.392 67.3402 294.727C67.3402 294.007 67.3402 293.227 67.3402 292.367C67.3402 290.667 67.3402 288.697 67.3402 286.477C67.3402 277.607 67.3402 264.787 67.2502 248.957C67.1602 233.127 67.2502 214.237 67.2002 193.287C67.2002 182.807 67.2002 171.807 67.2002 160.407V134.117C67.2002 132.627 67.2002 131.117 67.2002 129.617C67.2383 128.788 67.5968 128.006 68.2002 127.437C68.8031 126.868 69.6015 126.553 70.4302 126.557C70.8194 126.523 71.2109 126.523 71.6002 126.557C72.0063 126.624 72.3963 126.767 72.7502 126.977C73.4573 127.408 73.9753 128.09 74.2002 128.887C74.2986 129.272 74.3391 129.67 74.3202 130.067V142.327C74.3202 148.214 74.3202 154.01 74.3202 159.717C74.3202 171.117 74.3202 182.107 74.3202 192.587C74.3202 213.527 74.3202 232.397 74.2602 248.247C74.2002 264.097 74.2002 276.907 74.1802 285.777C74.1802 287.997 74.1802 289.957 74.1802 291.667C74.1802 292.517 74.1802 293.307 74.1802 294.027C74.2402 294.685 74.1654 295.349 73.9602 295.977C73.793 296.396 73.5336 296.771 73.2012 297.076C72.8688 297.381 72.4719 297.607 72.0402 297.737C71.7278 297.855 71.3938 297.906 71.0602 297.887Z"
          fill="#3B3B3B"
        />
        <path
          d="M90.4401 17.1797H86.3701V412.99H90.4401V17.1797Z"
          fill="#3B3B3B"
        />
        <path
          d="M90.9501 413.53H85.8701V16.6797H90.9501V413.53ZM86.8701 412.53H89.9501V17.6797H86.8701V412.53Z"
          fill="#3B3B3B"
        />
        <path
          d="M47.0498 154.492H22.3398V184.912H47.0498V154.492Z"
          fill="#696969"
        />
        <path
          d="M29.4501 189.461H23.0801V194.621H29.4501V189.461Z"
          fill="#696969"
        />
        <path
          d="M38.0399 189.461H31.6699V194.621H38.0399V189.461Z"
          fill="#696969"
        />
        <path
          d="M46.6298 189.461H40.2598V194.621H46.6298V189.461Z"
          fill="#696969"
        />
        <path
          d="M29.4501 196.961H23.0801V202.121H29.4501V196.961Z"
          fill="#696969"
        />
        <path
          d="M38.0399 196.961H31.6699V202.121H38.0399V196.961Z"
          fill="#696969"
        />
        <path
          d="M46.6298 196.961H40.2598V202.121H46.6298V196.961Z"
          fill="#AD343E"
        />
        <path
          d="M50.2199 266.562H18.9199V276.163H50.2199V266.562Z"
          fill="#E0E0E0"
        />
        <g clipPath="url(#clip9_200_2468)">
          <path
            fillRule="evenodd"
            clipRule="evenodd"
            d="M184.702 97.4141L187.787 98.6985L188.349 102.748L191.639 100.303L194.696 101.576L186.047 108.275L184.702 97.4141Z"
            fill="black"
          />
          <path
            fillRule="evenodd"
            clipRule="evenodd"
            d="M181.411 96.0469L183.671 113.986L198.055 102.978L194.696 101.579L186.047 108.279L184.702 97.4172L181.411 96.0469Z"
            fill="#757575"
          />
        </g>
        <g clipPath="url(#clip10_200_2468)">
          <path
            d="M159 109.5L167.84 112.65L166.5 124.35L159 128.5L151.5 124.35L150.16 112.65L159 109.5ZM159 111.6L153.47 124H155.53L156.64 121.22H161.34L162.45 124H164.5L159 111.6ZM160.62 119.5H157.39L159 115.63L160.62 119.5Z"
            fill="black"
          />
        </g>
        <g clipPath="url(#clip11_200_2468)">
          <path
            d="M138.828 107.703C139.16 107.541 139.436 107.285 139.622 106.967C139.809 106.648 139.897 106.282 139.875 105.913C139.854 105.545 139.724 105.191 139.502 104.897C139.279 104.602 138.975 104.38 138.627 104.258C138.279 104.135 137.902 104.119 137.545 104.211C137.187 104.302 136.865 104.497 136.618 104.772C136.371 105.046 136.211 105.387 136.158 105.752C136.105 106.118 136.161 106.49 136.319 106.824C136.426 107.046 136.576 107.245 136.76 107.41C136.944 107.575 137.158 107.701 137.391 107.783C137.624 107.865 137.871 107.9 138.117 107.886C138.364 107.872 138.605 107.81 138.828 107.703ZM130.332 100.842C130.732 100.224 132.218 100.145 134.313 100.793C134.099 101.573 133.924 102.364 133.789 103.162C133.103 103.597 132.441 104.068 131.806 104.573C130.41 102.873 129.937 101.469 130.332 100.842ZM133.486 105.69L133.449 106.276C133.224 106.073 133.011 105.857 132.811 105.63C133.027 105.458 133.275 105.281 133.532 105.101L133.486 105.69ZM139.697 103.508L141.083 104.501L141.012 106.205C140.975 106.812 140.893 107.375 140.838 107.925C140.366 108.188 139.854 108.438 139.314 108.701C138.775 108.964 138.263 109.214 137.777 109.45C137.311 109.155 136.817 108.873 136.315 108.528L134.917 107.507L134.987 105.804C135.025 105.196 135.106 104.633 135.161 104.084C135.647 103.847 136.159 103.597 136.698 103.335C137.238 103.072 137.75 102.822 138.235 102.585C138.702 102.881 139.196 103.163 139.697 103.508ZM140.287 110.696C140.02 110.582 139.739 110.463 139.441 110.308L140.502 109.791C140.44 110.121 140.361 110.415 140.287 110.696ZM135.712 101.312C135.98 101.427 136.26 101.546 136.558 101.701L135.498 102.218C135.559 101.887 135.638 101.593 135.712 101.312ZM145.658 111.171C145.267 111.784 143.773 111.867 141.686 111.216C141.901 110.435 142.076 109.644 142.211 108.846C142.901 108.424 143.569 107.965 144.21 107.471C145.607 109.171 146.08 110.576 145.676 111.207M142.531 106.354L142.568 105.768C142.793 105.971 143.006 106.187 143.206 106.414C142.989 106.587 142.742 106.763 142.485 106.944L142.531 106.354ZM146.902 112.011C147.855 110.612 147.031 108.555 145.334 106.512C147.288 104.725 148.385 102.799 147.649 101.289C146.913 99.779 144.72 99.4573 142.109 99.8961C141.535 97.3053 140.423 95.3889 138.743 95.2736C137.062 95.1583 135.694 96.8932 134.77 99.3795C132.243 98.5759 130.033 98.5849 129.08 99.9841C128.127 101.383 128.938 103.391 130.648 105.483C128.693 107.27 127.596 109.196 128.332 110.706C129.068 112.216 131.266 112.547 133.877 112.108C134.451 114.699 135.563 116.615 137.243 116.73C138.924 116.846 140.301 115.106 141.225 112.62C143.753 113.424 145.962 113.415 146.906 112.02M142.566 103.778C142.556 102.964 142.501 102.152 142.403 101.344C144.566 100.99 146.021 101.282 146.341 101.938C146.661 102.594 145.968 103.933 144.383 105.407C143.807 104.831 143.201 104.288 142.566 103.778ZM133.433 108.23C133.444 109.044 133.498 109.857 133.597 110.665C131.433 111.019 129.978 110.727 129.658 110.071C129.338 109.414 130.031 108.075 131.616 106.602C132.192 107.177 132.799 107.721 133.433 108.23ZM140.533 102.255L140.04 101.928C140.319 101.792 140.632 101.751 140.901 101.686C140.957 101.984 140.996 102.284 141.017 102.586L140.533 102.255ZM136.138 99.9031C136.91 97.8581 137.923 96.7189 138.62 96.8019C139.317 96.885 140.164 98.0742 140.66 100.257C139.876 100.458 139.104 100.701 138.345 100.985C137.628 100.587 136.892 100.226 136.138 99.9031ZM135.466 109.753L135.96 110.08C135.681 110.216 135.367 110.258 135.098 110.322C135.042 110.025 135.004 109.724 134.982 109.422L135.466 109.753ZM139.861 112.105C139.062 114.164 138.076 115.29 137.343 115.224C136.611 115.159 135.809 113.947 135.312 111.764C136.096 111.563 136.869 111.32 137.627 111.036C138.353 111.431 139.099 111.787 139.861 112.105Z"
            fill="black"
          />
        </g>
        <g clipPath="url(#clip12_200_2468)">
          <path
            d="M136.101 155.813C136.03 155.851 136.036 155.863 136.104 155.828C136.126 155.819 136.144 155.807 136.16 155.792C136.16 155.779 136.16 155.779 136.101 155.813ZM136.243 155.736C136.21 155.764 136.21 155.764 136.25 155.746C136.271 155.733 136.29 155.721 136.29 155.718C136.29 155.702 136.281 155.705 136.243 155.736ZM136.336 155.68C136.302 155.708 136.302 155.708 136.343 155.69C136.365 155.677 136.383 155.664 136.383 155.661C136.383 155.646 136.373 155.649 136.336 155.68ZM136.43 155.625C136.396 155.653 136.396 155.653 136.435 155.634C136.457 155.622 136.476 155.61 136.476 155.606C136.476 155.591 136.466 155.594 136.43 155.625ZM136.556 155.541C136.492 155.585 136.469 155.613 136.528 155.582C136.568 155.557 136.636 155.504 136.624 155.504C136.599 155.513 136.577 155.529 136.556 155.541H136.556ZM130.878 138.004C130.835 138.007 130.705 138.019 130.591 138.029C127.891 138.273 125.364 139.727 123.763 141.966C122.878 143.193 122.303 144.619 122.086 146.116C122.01 146.638 122 146.792 122 147.501C122 148.209 122.01 148.361 122.086 148.883C122.603 152.452 125.142 155.448 128.583 156.558C129.203 156.756 129.852 156.893 130.591 156.976C130.878 157.007 132.121 157.007 132.408 156.976C133.686 156.834 134.765 156.519 135.833 155.974C135.996 155.891 136.027 155.869 136.005 155.851C135.483 155.161 134.97 154.471 134.456 153.776L132.938 151.725L131.036 148.908C130.402 147.965 129.766 147.025 129.119 146.091C129.113 146.091 129.104 147.343 129.101 148.871C129.094 151.545 129.094 151.654 129.06 151.716C129.026 151.79 128.971 151.852 128.896 151.886C128.838 151.914 128.785 151.92 128.504 151.92H128.183L128.099 151.868C128.047 151.834 128.003 151.787 127.975 151.732L127.935 151.648L127.938 147.925L127.945 144.201L128.003 144.127C128.041 144.081 128.087 144.044 128.139 144.016C128.217 143.979 128.248 143.973 128.569 143.973C128.946 143.973 129.009 143.988 129.108 144.096C129.877 145.243 130.644 146.393 131.399 147.547C132.633 149.419 134.319 151.972 135.147 153.225L136.653 155.505L136.727 155.455C137.451 154.973 138.11 154.398 138.678 153.742C139.875 152.372 140.651 150.686 140.914 148.887C140.991 148.365 141.001 148.21 141.001 147.502C141.001 146.794 140.991 146.642 140.914 146.12C140.397 142.551 137.858 139.555 134.417 138.444C133.773 138.24 133.111 138.101 132.441 138.03C132.261 138.011 131.033 137.99 130.879 138.006L130.878 138.004ZM134.766 143.75C134.855 143.793 134.923 143.874 134.954 143.966C134.97 144.016 134.973 145.049 134.97 147.374L134.963 150.714L134.376 149.811L133.785 148.908V146.484C133.785 144.912 133.792 144.031 133.8 143.988C133.828 143.888 133.896 143.805 133.986 143.753C134.06 143.716 134.088 143.713 134.382 143.713C134.657 143.713 134.704 143.716 134.766 143.75Z"
            fill="black"
          />
        </g>
        <g clipPath="url(#clip13_200_2468)">
          <path
            d="M111.962 152.855C107.271 151.266 102.267 153.735 100.677 158.429C99.087 163.124 101.557 168.124 106.251 169.714C110.946 171.304 115.947 168.83 117.536 164.14C119.125 159.449 116.656 154.445 111.962 152.855ZM102.485 159.121L106.802 167.854C103.208 166.641 101.268 162.714 102.485 159.121ZM108.386 168.232L103.156 157.632C104.809 154.922 108.192 153.616 111.342 154.683C113.453 155.407 115.098 157.083 115.774 159.208L114.549 159.691C114.041 157.874 112.665 156.426 110.875 155.828C108.595 155.039 106.07 155.8 104.597 157.707L109.154 166.939C111.039 166.922 112.854 165.903 113.818 164.267L110.959 163.299L111.381 162.055L115.704 163.519C114.637 166.67 111.543 168.566 108.386 168.232Z"
            fill="#3C3C3C"
          />
        </g>
        <g clipPath="url(#clip14_200_2468)">
          <path
            fillRule="evenodd"
            clipRule="evenodd"
            d="M220.631 127.8H220.625H212.966L213.149 129.4H220.449C220.342 130.802 220.018 133.771 219.899 135.122L215.799 136.161V136.164L215.79 136.168L211.688 134.869L211.407 131.8H213.418L213.56 133.45L215.794 134.2H215.799L218.03 133.48L218.259 131H211.317C211.283 130.679 210.852 126.514 210.776 126.2H220.811C220.754 126.728 220.697 127.27 220.631 127.8ZM207.8 123L209.256 137.518L215.79 139L222.342 137.489L223.8 123H207.8Z"
            fill="black"
          />
        </g>
        <path
          d="M224.016 141.016L222.515 155.46L216.016 157.016L209.516 155.46L208.016 141.016H224.016ZM220.993 143.953H216.01H210.938L211.181 145.697H216.01H216.281L216.01 145.797L211.357 147.52L211.512 149.225L216.01 149.238L218.42 149.244L218.266 151.518L216.01 152.082V152.081L215.991 152.085L213.812 151.596L213.68 150.185H213.673H211.651H211.644L211.909 152.909L216.01 153.987V153.985L216.017 153.987L220.096 152.929L220.625 147.52H216.01H215.998L216.01 147.515L220.794 145.697L220.993 143.953Z"
          fill="black"
        />
        <path
          d="M158.007 71.3046C158.007 76.3607 158.369 80.6092 155.874 83.1235C154.471 84.538 152.257 85.3714 149.532 85.3714C145.064 85.3714 142.583 83.1946 141 80.1826C142.524 79.2092 144.082 78.2684 145.67 77.3581C146.318 79.1696 148.505 81.2064 150.974 79.9526C152.538 79.1573 152.358 76.7464 152.358 74.1294C152.358 68.6959 152.358 62.4278 152.358 57.5256C152.353 57.4441 152.348 57.3626 152.415 57.3527C154.279 57.3527 156.144 57.3527 158.007 57.3527C158.007 61.7195 158.007 66.6599 158.007 71.3046ZM172.19 68.0187C170.764 67.4082 168.992 66.686 168.558 65.3662C168.071 63.887 168.901 62.6683 169.826 62.2536C171.859 61.3405 174.282 62.8439 174.784 64.3865C176.314 63.4758 177.839 62.5596 179.223 61.504C177.596 58.8021 175.211 56.8679 170.864 57.0071C168.47 57.0835 166.672 57.8392 165.329 58.9671C164.019 60.0674 163.007 61.6119 162.85 63.8099C162.379 70.389 167.302 72.0684 171.498 73.8988C172.82 74.4757 174.291 75.0583 174.899 76.2048C176.154 78.5706 173.931 80.1314 172.017 80.2983C168.944 80.566 166.872 78.7681 165.675 76.8967C164.18 77.8233 162.555 78.619 161.12 79.6064C163.115 83.1148 166.387 85.386 171.498 85.3714C176.712 85.3567 180.577 82.8428 180.895 78.1076C181.326 71.6714 176.504 69.8658 172.19 68.0187Z"
          fill="#D3D3D3"
        />
        <g clipPath="url(#clip15_200_2468)">
          <path
            d="M178.943 156.754C179.149 156.821 179.315 157.044 179.444 157.421C179.577 157.814 179.589 158.142 179.479 158.405C179.369 158.668 179.113 158.915 178.712 159.144L178.107 159.49L177.385 157.366L178.067 156.976C178.445 156.76 178.737 156.686 178.943 156.754ZM170.301 161.416L169.619 161.806L170.341 163.93L170.946 163.584C171.347 163.355 171.603 163.108 171.713 162.845C171.823 162.582 171.811 162.254 171.677 161.861C171.549 161.484 171.382 161.261 171.177 161.194C170.971 161.126 170.679 161.2 170.301 161.416ZM183.309 155.697C184.748 158.215 182.035 162.473 177.25 165.209C172.465 167.945 167.419 168.122 165.98 165.605C164.541 163.087 167.253 158.829 172.038 156.093C176.824 153.357 181.869 153.18 183.309 155.697ZM172.876 162.08C172.873 161.836 172.83 161.59 172.746 161.343C172.542 160.741 172.221 160.365 171.784 160.213C171.348 160.062 170.841 160.151 170.266 160.48L168.352 161.574L170.076 166.649L171.071 166.08L170.613 164.731L171.465 164.244C171.841 164.029 172.128 163.813 172.326 163.595C172.523 163.377 172.668 163.118 172.761 162.819C172.84 162.57 172.878 162.324 172.876 162.08ZM176.963 161.101L176.161 158.739C175.998 158.259 175.756 157.982 175.435 157.909C175.115 157.836 174.678 157.958 174.125 158.274L173.245 158.777L172.787 157.428L171.8 157.992L173.523 163.067L174.511 162.503L173.523 159.595L174.312 159.144C174.565 159 174.754 158.947 174.879 158.986C175.004 159.026 175.11 159.173 175.197 159.429L175.96 161.674L176.963 161.101L176.963 161.101ZM179.55 155.773C179.114 155.622 178.607 155.711 178.032 156.04L176.119 157.134L177.842 162.209L178.837 161.64L178.379 160.291L179.231 159.804C179.607 159.589 179.894 159.373 180.092 159.155C180.289 158.937 180.434 158.678 180.527 158.379C180.606 158.13 180.644 157.884 180.642 157.64C180.639 157.396 180.596 157.15 180.512 156.903C180.308 156.301 179.987 155.925 179.55 155.773Z"
            fill="black"
          />
        </g>
        <g clipPath="url(#clip16_200_2468)">
          <path
            d="M159 169.5C161.472 169.5 163.889 170.233 165.945 171.607C168 172.98 169.602 174.932 170.548 177.216C171.495 179.501 171.742 182.014 171.26 184.439C170.777 186.863 169.587 189.091 167.839 190.839C166.091 192.587 163.863 193.777 161.439 194.26C159.014 194.742 156.501 194.495 154.216 193.548C151.932 192.602 149.98 191 148.607 188.945C147.233 186.889 146.5 184.472 146.5 182C146.5 178.685 147.817 175.505 150.161 173.161C152.505 170.817 155.685 169.5 159 169.5ZM156.5 186.162C156.688 186.773 156.688 187.427 156.5 188.037C156.5 188.1 156.5 188.162 156.425 188.25C156.35 188.337 156.425 188.337 156.337 188.4C156.193 188.709 155.999 188.992 155.762 189.237C155.037 190.037 154 190.337 153.587 190.087C153.175 189.837 153.375 188.687 154.2 187.8C154.846 187.163 155.588 186.631 156.4 186.225L156.5 186.162ZM166.837 174.912C166.275 172.687 162.587 171.962 159.112 173.2C156.934 173.913 154.916 175.047 153.175 176.537C151.262 178.337 150.95 179.9 151.075 180.55C151.5 182.85 154.675 184.362 155.975 185.475C155.6 185.662 152.8 187.075 152.125 188.525C151.84 188.978 151.745 189.525 151.862 190.048C151.979 190.57 152.299 191.025 152.75 191.312C153.552 191.506 154.394 191.444 155.158 191.134C155.923 190.825 156.571 190.284 157.012 189.587C157.378 189.025 157.606 188.385 157.68 187.719C157.754 187.053 157.671 186.379 157.437 185.75C158.064 185.604 158.712 185.57 159.35 185.65C161.55 185.912 161.975 187.275 161.85 187.85C161.813 188.054 161.732 188.248 161.614 188.418C161.495 188.589 161.341 188.732 161.162 188.837C161.012 188.925 160.962 188.962 160.975 189.037C160.987 189.112 161.062 189.137 161.187 189.112C161.529 189.02 161.832 188.823 162.056 188.55C162.28 188.276 162.414 187.94 162.437 187.587C162.437 186.237 161.187 184.737 158.925 184.775C158.264 184.76 157.606 184.852 156.975 185.05L156.875 184.937C155.462 183.437 152.862 182.437 152.975 180.35C152.975 179.612 153.262 177.687 157.975 175.35C161.825 173.425 164.912 173.95 165.475 175.137C166.237 176.8 163.825 179.912 159.825 180.362C159.387 180.445 158.936 180.431 158.504 180.321C158.072 180.211 157.67 180.007 157.325 179.725C157.112 179.512 157.087 179.475 157.012 179.512C156.937 179.55 157.012 179.8 157.012 179.925C157.33 180.472 157.844 180.879 158.45 181.062C160.027 181.403 161.67 181.241 163.15 180.6C165.5 179.65 167.4 177 166.837 174.85V174.912Z"
            fill="#3B3B3B"
          />
        </g>
        <g clipPath="url(#clip17_200_2468)">
          <path
            fillRule="evenodd"
            clipRule="evenodd"
            d="M194.652 169.722C194.7 170.073 194.726 170.448 194.726 170.853C194.726 172.787 194.547 172.896 190.53 184.508C193.8 182.601 196 179.058 196 175C196 173.087 195.512 171.289 194.652 169.722ZM185.194 175.963L181.893 185.552C184.12 186.208 186.481 186.141 188.653 185.377C188.623 185.33 188.597 185.279 188.575 185.225L185.194 175.963ZM192.426 174.445C192.426 173.085 191.938 172.143 191.519 171.41C190.962 170.504 190.438 169.738 190.438 168.831C190.438 167.82 191.206 166.879 192.286 166.879C192.335 166.879 192.381 166.885 192.428 166.888C190.471 165.095 187.864 164 185 164C181.158 164 177.776 165.971 175.81 168.958C176.51 168.98 177.451 168.989 179.449 168.832C180.042 168.797 180.112 169.668 179.52 169.737C179.52 169.737 178.924 169.808 178.26 169.843L182.266 181.758L184.673 174.538L182.96 169.842C182.368 169.808 181.807 169.737 181.807 169.737C181.214 169.702 181.283 168.796 181.876 168.831C184.15 169.006 185.313 169.019 187.705 168.831C188.298 168.796 188.368 169.667 187.775 169.737C187.775 169.737 187.178 169.808 186.516 169.842L190.491 181.667C192.061 176.422 192.426 175.545 192.426 174.445ZM174 175C174 179.354 176.53 183.117 180.2 184.9L174.953 170.523C174.342 171.892 174 173.405 174 175Z"
            fill="black"
          />
        </g>
        <path
          d="M504.91 117.72V0H499.37H462.63H457.1V117.72L414 146.81V155.43H462.63H499.37H548V146.81L504.91 117.72Z"
          fill="#E0E0E0"
        />
        <path
          d="M547.54 146.721C547.54 146.861 517.77 146.981 481.06 146.981C444.35 146.981 414.58 146.861 414.58 146.721C414.58 146.581 444.34 146.461 481.06 146.461C517.78 146.461 547.54 146.581 547.54 146.721Z"
          fill="#3B3B3B"
        />
        <path
          d="M482.679 149.75H466.779V152.28H482.679V149.75Z"
          fill="#3B3B3B"
        />
        <path
          d="M487.669 151.04C487.671 151.298 487.597 151.55 487.455 151.765C487.313 151.98 487.111 152.148 486.874 152.248C486.636 152.348 486.375 152.375 486.122 152.326C485.869 152.277 485.636 152.154 485.454 151.973C485.271 151.791 485.146 151.56 485.095 151.307C485.044 151.055 485.069 150.793 485.167 150.555C485.265 150.317 485.432 150.113 485.646 149.97C485.86 149.827 486.112 149.75 486.369 149.75C486.712 149.75 487.041 149.886 487.285 150.127C487.529 150.369 487.667 150.697 487.669 151.04Z"
          fill="#AD343E"
        />
        <path
          d="M491.34 151.04C491.342 151.298 491.268 151.55 491.126 151.765C490.984 151.98 490.782 152.148 490.545 152.248C490.307 152.348 490.046 152.375 489.793 152.326C489.54 152.277 489.307 152.154 489.125 151.973C488.942 151.791 488.817 151.56 488.766 151.307C488.715 151.055 488.74 150.793 488.838 150.555C488.936 150.317 489.103 150.113 489.317 149.97C489.531 149.827 489.783 149.75 490.04 149.75C490.383 149.75 490.712 149.886 490.956 150.127C491.199 150.369 491.338 150.697 491.34 151.04Z"
          fill="#6A6A6A"
        />
        <path
          d="M494.94 151.04C494.942 151.298 494.867 151.55 494.726 151.765C494.584 151.98 494.382 152.148 494.144 152.248C493.907 152.348 493.645 152.375 493.392 152.326C493.14 152.277 492.907 152.154 492.724 151.973C492.541 151.791 492.417 151.56 492.366 151.307C492.315 151.055 492.34 150.793 492.438 150.555C492.536 150.317 492.703 150.113 492.917 149.97C493.131 149.827 493.382 149.75 493.64 149.75C493.983 149.75 494.312 149.886 494.556 150.127C494.799 150.369 494.937 150.697 494.94 151.04Z"
          fill="#6A6A6A"
        />
        <defs>
          <clipPath id="clip0_200_2468">
            <rect
              width="24"
              height="24"
              fill="white"
              transform="translate(180.226 91) rotate(22.6075)"
            />
          </clipPath>
          <clipPath id="clip1_200_2468">
            <rect
              width="24"
              height="24"
              fill="white"
              transform="translate(147 107)"
            />
          </clipPath>
          <clipPath id="clip2_200_2468">
            <rect
              width="24"
              height="24"
              fill="white"
              transform="matrix(0.898883 -0.438188 -0.438188 -0.898883 132.472 122.047)"
            />
          </clipPath>
          <clipPath id="clip3_200_2468">
            <rect
              width="19"
              height="19"
              fill="white"
              transform="translate(122 138)"
            />
          </clipPath>
          <clipPath id="clip4_200_2468">
            <rect
              width="17.7997"
              height="17.7997"
              fill="white"
              transform="translate(103.532 150) rotate(18.7122)"
            />
          </clipPath>
          <clipPath id="clip5_200_2468">
            <rect
              width="16"
              height="16"
              fill="white"
              transform="translate(207 123)"
            />
          </clipPath>
          <clipPath id="clip6_200_2468">
            <rect
              width="20"
              height="20"
              fill="white"
              transform="translate(161 156.93) rotate(-29.7575)"
            />
          </clipPath>
          <clipPath id="clip7_200_2468">
            <rect
              width="30"
              height="30"
              fill="white"
              transform="translate(144 167)"
            />
          </clipPath>
          <clipPath id="clip8_200_2468">
            <rect
              width="22"
              height="22"
              fill="white"
              transform="translate(174 164)"
            />
          </clipPath>
          <clipPath id="clip9_200_2468">
            <rect
              width="24"
              height="24"
              fill="white"
              transform="translate(180.226 91) rotate(22.6075)"
            />
          </clipPath>
          <clipPath id="clip10_200_2468">
            <rect
              width="24"
              height="24"
              fill="white"
              transform="translate(147 107)"
            />
          </clipPath>
          <clipPath id="clip11_200_2468">
            <rect
              width="24"
              height="24"
              fill="white"
              transform="matrix(0.898883 -0.438188 -0.438188 -0.898883 132.472 122.047)"
            />
          </clipPath>
          <clipPath id="clip12_200_2468">
            <rect
              width="19"
              height="19"
              fill="white"
              transform="translate(122 138)"
            />
          </clipPath>
          <clipPath id="clip13_200_2468">
            <rect
              width="17.7997"
              height="17.7997"
              fill="white"
              transform="translate(103.532 150) rotate(18.7122)"
            />
          </clipPath>
          <clipPath id="clip14_200_2468">
            <rect
              width="16"
              height="16"
              fill="white"
              transform="translate(207 123)"
            />
          </clipPath>
          <clipPath id="clip15_200_2468">
            <rect
              width="20"
              height="20"
              fill="white"
              transform="translate(161 156.93) rotate(-29.7575)"
            />
          </clipPath>
          <clipPath id="clip16_200_2468">
            <rect
              width="30"
              height="30"
              fill="white"
              transform="translate(144 167)"
            />
          </clipPath>
          <clipPath id="clip17_200_2468">
            <rect
              width="22"
              height="22"
              fill="white"
              transform="translate(174 164)"
            />
          </clipPath>
        </defs>
      </svg>