<svg width="771" height="772" viewBox="0 0 771 772" fill="none" xmlns="http://www.w3.org/2000/svg">
<path d="M374.848 681.935L361.832 680.413C361.688 679.72 361.103 679.072 360.078 678.469C359.05 677.897 357.644 677.379 355.862 676.913C354.045 676.475 351.928 676.115 349.513 675.832C347.129 675.554 345.246 675.398 343.865 675.365C342.448 675.361 341.433 675.5 340.82 675.783C340.203 676.097 339.858 676.572 339.783 677.208C339.713 677.812 340.12 678.327 341.004 678.752C341.885 679.21 343.494 679.639 345.831 680.041C348.168 680.443 351.467 680.893 355.726 681.391C358.904 681.763 361.636 682.227 363.923 682.784C366.175 683.37 368.01 684.067 369.429 684.878C370.813 685.716 371.798 686.669 372.382 687.736C372.962 688.834 373.17 690.083 373.007 691.482C372.725 693.897 371.682 695.789 369.879 697.157C368.04 698.553 365.424 699.439 362.029 699.815C358.599 700.22 354.389 700.131 349.399 699.547C342.089 698.693 336.635 696.976 333.038 694.397C329.406 691.846 327.822 688.584 328.286 684.611L340.634 686.055C340.67 687.122 341.563 688.032 343.311 688.784C345.056 689.568 347.597 690.155 350.934 690.545C354.24 690.931 356.725 691.028 358.391 690.836C360.025 690.641 360.896 690.082 361.003 689.16C361.059 688.684 360.881 688.276 360.47 687.938C360.058 687.6 359.323 687.273 358.265 686.955C357.171 686.667 355.626 686.373 353.632 686.076C351.637 685.778 349.098 685.449 346.015 685.089C342.614 684.691 339.742 684.178 337.399 683.55C335.052 682.954 333.187 682.236 331.803 681.398C330.387 680.556 329.407 679.571 328.862 678.445C328.313 677.349 328.121 676.103 328.284 674.704C328.567 672.289 329.56 670.407 331.264 669.06C332.968 667.713 335.515 666.867 338.906 666.522C342.297 666.177 346.662 666.317 352.002 666.941C355.021 667.294 357.782 667.794 360.284 668.441C362.754 669.084 364.935 669.854 366.828 670.752C368.717 671.682 370.287 672.719 371.538 673.864C372.786 675.041 373.703 676.292 374.289 677.617C374.84 678.97 375.026 680.409 374.848 681.935Z" fill="white"/>
<path d="M257.089 654.996C258.28 652.194 260.187 650.181 262.812 648.957C265.437 647.733 268.804 647.324 272.913 647.73C276.992 648.125 281.888 649.362 287.601 651.442C291.961 653.029 295.783 654.692 299.066 656.432C302.36 658.141 305.022 659.996 307.053 661.995C309.073 664.024 310.373 666.251 310.955 668.676C311.537 671.102 311.286 673.803 310.202 676.78C309.119 679.757 307.569 682.002 305.554 683.516C303.528 685.06 301.083 685.975 298.221 686.261C295.347 686.578 292.088 686.362 288.444 685.615C284.8 684.867 280.798 683.7 276.438 682.113C270.724 680.034 266.18 677.784 262.804 675.363C259.418 672.973 257.129 670.42 255.937 667.705C254.746 664.99 254.601 662.161 255.501 659.22L267.228 663.488C267.239 664.582 267.594 665.664 268.294 666.736C268.982 667.838 270.212 668.95 271.984 670.072C273.755 671.193 276.279 672.35 279.557 673.543C283.406 674.944 286.621 675.842 289.202 676.236C291.771 676.661 293.799 676.564 295.283 675.947C296.768 675.329 297.817 674.179 298.43 672.495C298.988 670.961 298.886 669.511 298.123 668.144C297.361 666.776 295.859 665.429 293.618 664.103C291.376 662.776 288.331 661.412 284.482 660.012C281.204 658.819 278.547 658.073 276.511 657.774C274.444 657.465 272.809 657.466 271.606 657.777C270.392 658.118 269.462 658.614 268.817 659.265L257.089 654.996Z" fill="white"/>
<path d="M251.275 637.518L234.394 663.184L203.394 642.795C200.961 641.195 198.967 639.481 197.411 637.654C195.811 635.835 194.871 633.915 194.593 631.893C194.287 629.854 194.864 627.725 196.323 625.505C197.291 624.035 198.358 622.994 199.526 622.384C200.694 621.773 201.921 621.508 203.209 621.588C204.496 621.669 205.82 621.985 207.182 622.536C208.543 623.086 209.896 623.766 211.242 624.574L213.8 627.061C210.636 624.942 208.278 623.199 206.725 621.833C205.145 620.449 204.232 619.217 203.986 618.136C203.695 617.063 203.937 615.939 204.71 614.763L208.324 609.269L218.35 615.863L215.527 620.154C215 620.956 214.765 621.663 214.822 622.275C214.835 622.896 215.31 623.63 216.247 624.476C217.157 625.305 218.682 626.422 220.821 627.829L236.501 638.142L241.249 630.924L251.275 637.518ZM232.096 644.84L211.122 631.045C210.32 630.517 209.564 630.211 208.853 630.127C208.116 630.025 207.501 630.348 207.009 631.097C206.552 631.792 206.525 632.445 206.928 633.055C207.287 633.674 207.867 634.247 208.669 634.774L229.643 648.569L232.096 644.84Z" fill="white"/>
<path d="M178.38 578.841C183.167 583.915 186.579 588.417 188.615 592.347C190.628 596.299 191.431 599.809 191.025 602.876C190.574 605.941 189.045 608.704 186.438 611.163C183.831 613.622 180.996 614.977 177.932 615.228C174.824 615.477 171.367 614.471 167.562 612.21C163.734 609.97 159.426 606.314 154.638 601.24C149.851 596.165 146.451 591.652 144.438 587.7C142.402 583.77 141.61 580.272 142.061 577.207C142.467 574.14 143.974 571.377 146.581 568.917C149.188 566.458 152.045 565.103 155.154 564.854C158.217 564.604 161.663 565.598 165.491 567.838C169.297 570.099 173.593 573.766 178.38 578.841ZM171.746 585.099C169.484 582.702 167.39 580.762 165.464 579.28C163.515 577.82 161.717 576.964 160.072 576.712C158.404 576.482 156.871 577.026 155.474 578.344C154.078 579.661 153.457 581.149 153.613 582.806C153.745 584.485 154.495 586.329 155.863 588.338C157.207 590.369 159.01 592.584 161.272 594.981C163.534 597.378 165.673 599.342 167.688 600.872C169.658 602.401 171.511 603.315 173.245 603.615C174.934 603.913 176.477 603.403 177.873 602.085C179.27 600.768 179.88 599.246 179.704 597.521C179.483 595.794 178.678 593.892 177.289 591.814C175.856 589.735 174.008 587.497 171.746 585.099Z" fill="white"/>
<path d="M115.577 547.966L134.283 537.166L120.291 512.931L128.19 508.371L148.182 542.998L121.577 558.358L115.577 547.966Z" fill="white"/>
<path d="M85.3802 481.296L106.073 475.101L98.0469 448.293L106.784 445.677L118.251 483.982L88.8219 492.792L85.3802 481.296Z" fill="white"/>
<path d="M76.4567 324.146C77.2069 319.892 78.2361 316.45 79.5445 313.821C80.8529 311.193 82.355 309.215 84.051 307.89C85.7469 306.564 87.5644 305.747 89.5033 305.439C91.4163 305.094 93.3655 305.097 95.3508 305.447C97.3362 305.797 99.1789 306.496 100.879 307.543C102.547 308.584 103.943 310.065 105.067 311.985C106.196 313.874 106.929 316.262 107.265 319.148C107.606 322.003 107.421 325.447 106.71 329.481L100.709 363.516L70.4554 358.181L76.4567 324.146ZM93.3384 350.031L97.1725 328.286C97.4837 326.521 97.6373 325.005 97.6335 323.737C97.5981 322.464 97.4079 321.423 97.063 320.615C96.7237 319.775 96.2351 319.136 95.5974 318.699C94.9337 318.225 94.1291 317.904 93.1837 317.737C92.2383 317.571 91.3884 317.599 90.634 317.824C89.8536 318.011 89.1603 318.441 88.5543 319.114C87.9538 319.756 87.4348 320.672 86.9975 321.862C86.5287 323.046 86.1387 324.521 85.8275 326.286L81.9934 348.03L93.3384 350.031Z" fill="white"/>
<path d="M126.004 271.706C123.241 278.112 120.458 283.027 117.656 286.454C114.824 289.867 111.92 291.995 108.943 292.837C105.949 293.637 102.807 293.327 99.5162 291.907C96.2253 290.487 93.8582 288.421 92.415 285.707C90.955 282.952 90.5096 279.379 91.0788 274.99C91.6186 270.587 93.27 265.183 96.033 258.778C98.7961 252.373 101.593 247.463 104.425 244.049C107.227 240.623 110.125 238.51 113.119 237.71C116.096 236.869 119.23 237.157 122.52 238.577C125.811 239.997 128.187 242.084 129.647 244.84C131.09 247.553 131.542 251.111 131.002 255.514C130.433 259.903 128.767 265.301 126.004 271.706ZM117.629 268.094C118.935 265.067 119.887 262.376 120.485 260.02C121.053 257.652 121.127 255.663 120.707 254.052C120.257 252.429 119.15 251.238 117.387 250.477C115.624 249.717 114.013 249.736 112.553 250.535C111.064 251.322 109.667 252.741 108.364 254.792C107.032 256.831 105.713 259.364 104.407 262.39C103.102 265.417 102.146 268.158 101.539 270.615C100.916 273.029 100.81 275.092 101.222 276.803C101.617 278.472 102.696 279.687 104.459 280.448C106.222 281.208 107.861 281.166 109.376 280.321C110.874 279.433 112.302 277.941 113.659 275.843C115.001 273.703 116.324 271.12 117.629 268.094Z" fill="white"/>
<path d="M142.332 235.987L107.429 231.426L115.512 220.568L147.077 225.995L144.431 229.71L129.557 201.702L138.213 190.074L169.311 196.291L166.511 199.891L152.259 171.209L160.227 160.505L174.721 192.479L165.033 205.493L136.369 200.67L139.178 196.897L152.02 222.973L142.332 235.987Z" fill="white"/>
<path d="M213.565 146.263L211.781 151.081L196.446 132.806L205.639 125.093L225.385 148.626L216.193 156.339L175.053 163.54L176.806 158.685L191.925 176.702L182.732 184.416L162.986 160.883L172.178 153.17L213.565 146.263Z" fill="white"/>
<path d="M430.866 92.2336L443.617 95.2556C443.68 95.9611 444.185 96.6729 445.133 97.3909C446.089 98.0777 447.424 98.756 449.14 99.4257C450.894 100.072 452.955 100.675 455.321 101.236C457.656 101.789 459.508 102.163 460.877 102.355C462.284 102.524 463.308 102.504 463.95 102.294C464.599 102.054 464.997 101.622 465.145 100.999C465.285 100.407 464.94 99.8489 464.111 99.3235C463.289 98.767 461.741 98.1534 459.466 97.4828C457.192 96.8121 453.968 95.9824 449.796 94.9935C446.682 94.2555 444.022 93.4771 441.815 92.6581C439.647 91.8154 437.905 90.9092 436.589 89.9396C435.312 88.9463 434.445 87.8858 433.989 86.7582C433.54 85.5994 433.478 84.335 433.803 82.965C434.363 80.5985 435.619 78.8406 437.568 77.6913C439.556 76.5181 442.258 75.9417 445.674 75.9619C449.128 75.9583 453.299 76.5358 458.187 77.6944C465.349 79.3918 470.566 81.73 473.84 84.7092C477.151 87.6646 478.346 91.0883 477.423 94.9805L465.327 92.1135C465.414 91.0491 464.634 90.0419 462.984 89.0919C461.342 88.1108 458.887 87.2328 455.617 86.4579C452.379 85.6904 449.921 85.3053 448.245 85.3026C446.599 85.3073 445.67 85.7611 445.456 86.6641C445.345 87.1311 445.474 87.5564 445.844 87.94C446.213 88.3236 446.905 88.7342 447.92 89.1719C448.973 89.5859 450.473 90.0565 452.419 90.5837C454.366 91.1109 456.85 91.7324 459.87 92.4482C463.202 93.2379 465.995 94.0807 468.249 94.9767C470.511 95.8415 472.28 96.7706 473.557 97.764C474.866 98.7647 475.725 99.8563 476.136 101.039C476.553 102.19 476.6 103.451 476.275 104.821C475.714 107.187 474.509 108.941 472.661 110.081C470.812 111.222 468.183 111.766 464.775 111.715C461.367 111.663 457.048 111.018 451.817 109.778C448.859 109.077 446.175 108.26 443.765 107.327C441.386 106.402 439.309 105.383 437.534 104.272C435.765 103.129 434.326 101.917 433.216 100.634C432.113 99.3203 431.348 97.9714 430.919 96.5873C430.53 95.1794 430.512 93.7282 430.866 92.2336Z" fill="white"/>
<path d="M544.698 132.661C543.19 135.306 541.062 137.084 538.313 137.995C535.563 138.906 532.172 138.922 528.138 138.042C524.132 137.176 519.413 135.379 513.979 132.65C509.833 130.567 506.23 128.472 503.172 126.363C500.098 124.282 497.669 122.131 495.884 119.91C494.114 117.66 493.081 115.297 492.784 112.82C492.488 110.344 493.051 107.69 494.473 104.859C495.895 102.028 497.694 99.9779 499.872 98.7081C502.064 97.4097 504.598 96.7845 507.474 96.8326C510.365 96.852 513.577 97.4444 517.109 98.6099C520.642 99.7753 524.482 101.399 528.628 103.482C534.062 106.21 538.314 108.973 541.386 111.769C544.472 114.536 546.449 117.338 547.317 120.173C548.185 123.008 548.001 125.834 546.766 128.651L535.613 123.05C535.729 121.962 535.502 120.846 534.932 119.7C534.376 118.525 533.283 117.278 531.654 115.959C530.025 114.639 527.652 113.197 524.535 111.632C520.875 109.793 517.786 108.529 515.268 107.837C512.765 107.117 510.741 106.978 509.194 107.418C507.648 107.859 506.473 108.881 505.668 110.482C504.936 111.94 504.869 113.393 505.467 114.839C506.066 116.286 507.401 117.798 509.474 119.376C511.546 120.954 514.412 122.662 518.072 124.5C521.189 126.065 523.742 127.115 525.73 127.648C527.747 128.195 529.371 128.384 530.602 128.214C531.848 128.016 532.829 127.632 533.545 127.06L544.698 132.661Z" fill="white"/>
<path d="M548.442 150.697L568.188 127.164L596.612 151.014C598.842 152.886 600.624 154.82 601.957 156.816C603.335 158.808 604.046 160.824 604.088 162.864C604.155 164.925 603.334 166.973 601.627 169.008C600.496 170.356 599.315 171.266 598.084 171.737C596.853 172.208 595.603 172.329 594.334 172.099C593.064 171.869 591.786 171.402 590.497 170.697C589.209 169.992 587.944 169.16 586.702 168.201L584.449 165.434C587.346 167.907 589.486 169.911 590.87 171.448C592.278 173.006 593.042 174.336 593.161 175.438C593.325 176.537 592.955 177.626 592.05 178.704L587.823 183.742L578.63 176.028L581.932 172.094C582.549 171.359 582.864 170.684 582.879 170.069C582.938 169.451 582.552 168.667 581.719 167.717C580.911 166.789 579.526 165.502 577.565 163.856L563.188 151.792L557.635 158.411L548.442 150.697ZM568.341 145.652L587.572 161.788C588.307 162.405 589.023 162.797 589.719 162.963C590.439 163.15 591.087 162.9 591.663 162.214C592.198 161.576 592.301 160.931 591.971 160.279C591.686 159.622 591.176 158.986 590.441 158.368L571.21 142.232L568.341 145.652Z" fill="white"/>
<path d="M614.032 217.442C609.866 211.846 607 206.978 605.434 202.838C603.894 198.679 603.503 195.1 604.263 192.101C605.067 189.109 606.906 186.543 609.781 184.402C612.656 182.262 615.629 181.246 618.701 181.352C621.817 181.466 625.134 182.866 628.651 185.554C632.193 188.223 636.048 192.355 640.213 197.95C644.379 203.546 647.232 208.423 648.773 212.582C650.339 216.722 650.72 220.289 649.916 223.281C649.156 226.28 647.339 228.849 644.464 230.99C641.589 233.13 638.594 234.143 635.477 234.03C632.406 233.923 629.099 232.535 625.556 229.867C622.039 227.179 618.198 223.037 614.032 217.442ZM621.347 211.996C623.316 214.639 625.17 216.809 626.912 218.505C628.679 220.182 630.364 221.24 631.969 221.681C633.6 222.103 635.185 221.741 636.725 220.594C638.265 219.448 639.054 218.042 639.092 216.379C639.156 214.696 638.625 212.777 637.5 210.622C636.4 208.449 634.866 206.04 632.898 203.396C630.93 200.753 629.034 198.554 627.209 196.8C625.43 195.053 623.696 193.93 622.009 193.431C620.365 192.939 618.774 193.266 617.234 194.413C615.694 195.559 614.911 197 614.886 198.734C614.905 200.475 615.484 202.458 616.621 204.683C617.804 206.914 619.379 209.352 621.347 211.996Z" fill="white"/>
<path d="M672.828 255.395L652.995 263.95L664.079 289.646L655.705 293.258L639.868 256.544L668.075 244.376L672.828 255.395Z" fill="white"/>
<path d="M695.077 325.123L673.805 328.874L678.664 356.432L669.683 358.016L662.74 318.64L692.993 313.305L695.077 325.123Z" fill="white"/>
<path d="M685.7 482.244C684.461 486.383 683.039 489.682 681.434 492.141C679.829 494.6 678.108 496.389 676.269 497.509C674.431 498.629 672.531 499.229 670.569 499.31C668.629 499.431 666.694 499.202 664.762 498.624C662.831 498.046 661.082 497.138 659.515 495.9C657.979 494.672 656.764 493.039 655.871 491.001C654.969 488.994 654.518 486.538 654.52 483.632C654.512 480.757 655.095 477.358 656.27 473.434L666.182 440.326L695.611 449.136L685.7 482.244ZM671.937 454.575L665.604 475.727C665.09 477.444 664.762 478.932 664.619 480.192C664.506 481.461 664.574 482.517 664.823 483.36C665.062 484.233 665.473 484.924 666.056 485.433C666.66 485.981 667.422 486.393 668.342 486.668C669.261 486.943 670.109 487.013 670.884 486.878C671.681 486.783 672.42 486.436 673.1 485.838C673.771 485.27 674.392 484.421 674.965 483.29C675.568 482.167 676.127 480.748 676.64 479.031L682.973 457.879L671.937 454.575Z" fill="white"/>
<path d="M630.4 528.578C633.888 522.537 637.222 517.977 640.403 514.9C643.612 511.838 646.744 510.062 649.798 509.571C652.864 509.124 655.949 509.797 659.053 511.589C662.157 513.381 664.268 515.708 665.387 518.571C666.517 521.478 666.544 525.078 665.469 529.372C664.422 533.681 662.155 538.857 658.667 544.898C655.179 550.94 651.83 555.491 648.621 558.553C645.44 561.631 642.317 563.393 639.251 563.84C636.196 564.331 633.117 563.68 630.013 561.888C626.909 560.096 624.792 557.747 623.662 554.84C622.544 551.977 622.508 548.391 623.555 544.081C624.63 539.787 626.912 534.62 630.4 528.578ZM638.298 533.138C636.65 535.993 635.392 538.555 634.525 540.826C633.685 543.112 633.38 545.079 633.611 546.728C633.87 548.392 634.83 549.704 636.493 550.664C638.156 551.624 639.759 551.792 641.301 551.168C642.872 550.559 644.424 549.312 645.956 547.426C647.516 545.555 649.121 543.193 650.769 540.338C652.417 537.484 653.684 534.872 654.572 532.502C655.472 530.176 655.816 528.14 655.606 526.392C655.407 524.689 654.476 523.357 652.813 522.397C651.15 521.437 649.518 521.289 647.915 521.952C646.324 522.66 644.733 523.976 643.141 525.902C641.56 527.872 639.946 530.284 638.298 533.138Z" fill="white"/>
<path d="M610.038 562.161L644.175 570.743L634.886 580.589L604.165 571.534L607.224 568.151L618.746 597.697L608.798 608.241L578.632 598.457L581.831 595.206L592.658 625.349L583.5 635.055L572.816 601.614L583.95 589.813L611.86 597.931L608.631 601.353L598.904 573.962L610.038 562.161Z" fill="white"/>
<path d="M528.862 643.008L531.194 638.429L544.303 658.361L534.277 664.955L517.396 639.289L527.422 632.694L569.12 630.318L566.815 634.937L553.89 615.286L563.916 608.692L580.797 634.358L570.771 640.952L528.862 643.008Z" fill="white"/>
</svg>
