
<svg width="169" height="412" viewBox="0 0 169 412" fill="none" xmlns="http://www.w3.org/2000/svg">
<path d="M168.492 0H0.832031V411.51H168.492V0Z" fill="#B5B5B5"/>
<path d="M157.191 13.6899H12.1211V77.4199H157.191V13.6899Z" fill="#6D6D6D"/>
<path d="M157.191 93.98H12.1211V157.71H157.191V93.98Z" fill="#6D6D6D"/>
<path d="M157.191 174.26H12.1211V237.99H157.191V174.26Z" fill="#6D6D6D"/>
<path d="M157.191 254.54H12.1211V318.27H157.191V254.54Z" fill="#6D6D6D"/>
<path d="M157.191 334.82H12.1211V398.55H157.191V334.82Z" fill="#6D6D6D"/>
<path d="M12.9219 62.5098H94.6119C95.5482 67.3415 95.5482 72.308 94.6119 77.1398H13.2719V76.1398H18.2719C18.8934 76.1398 19.4896 75.8936 19.9301 75.455C20.3705 75.0165 20.6192 74.4213 20.6219 73.7998V65.6998C20.6219 65.0765 20.3743 64.4788 19.9336 64.0381C19.4929 63.5974 18.8951 63.3498 18.2719 63.3498H12.9219V62.5098Z" fill="#838383"/>
<path d="M91.7919 77.4199C91.7219 77.4199 91.6719 74.0599 91.6719 69.9099C91.6719 65.7599 91.6719 62.3999 91.7919 62.3999C91.9119 62.3999 91.9019 65.7699 91.9019 69.9099C91.9019 74.0499 91.8519 77.4199 91.7919 77.4199Z" fill="#343434"/>
<path d="M93.2216 77.4199C93.1616 77.4199 93.1016 74.0599 93.1016 69.9099C93.1016 65.7599 93.1616 62.3999 93.2216 62.3999C93.2816 62.3999 93.3416 65.7699 93.3416 69.9099C93.3416 74.0499 93.2816 77.4199 93.2216 77.4199Z" fill="#343434"/>
<path d="M81.5524 67.5698H39.1024C38.0254 67.5698 37.1523 68.4429 37.1523 69.5198V69.5698C37.1523 70.6468 38.0254 71.5198 39.1024 71.5198H81.5524C82.6293 71.5198 83.5024 70.6468 83.5024 69.5698V69.5198C83.5024 68.4429 82.6293 67.5698 81.5524 67.5698Z" fill="white"/>
<path d="M27.5625 50.5698V61.8798H38.1725V50.5698H27.5625Z" fill="#EBEBEB"/>
<path d="M85.8326 49.5998C87.4926 53.5998 87.2526 58.0198 85.8326 62.6998H26.9827V61.8798H30.7227C31.4663 61.8811 32.2029 61.7356 32.8902 61.4517C33.5775 61.1677 34.202 60.7508 34.7278 60.225C35.2537 59.6991 35.6705 59.0747 35.9545 58.3874C36.2384 57.7001 36.3839 56.9635 36.3826 56.2198C36.3826 55.477 36.2362 54.7415 35.9516 54.0554C35.667 53.3692 35.25 52.7459 34.7243 52.2211C34.1986 51.6963 33.5745 51.2804 32.8879 50.997C32.2012 50.7137 31.4655 50.5685 30.7227 50.5698H26.7227V49.3198L85.8326 49.5998Z" fill="#6C6C6C"/>
<path d="M33.8125 51.4298C33.8125 51.4898 45.6024 51.5398 60.1324 51.5398C74.6624 51.5398 86.4525 51.5398 86.4525 51.4298C86.4525 51.3198 74.7224 51.3198 60.1324 51.3198C45.5424 51.3198 33.8125 51.3198 33.8125 51.4298Z" fill="white"/>
<path d="M33.3125 61.2601C33.3125 61.3201 45.1625 61.3701 59.7725 61.3701C74.3825 61.3701 86.2325 61.3701 86.2325 61.2601C86.2325 61.1501 74.3925 61.1401 59.7725 61.1401C45.1525 61.1401 33.3125 61.1901 33.3125 61.2601Z" fill="white"/>
<path d="M27.5625 56.3698C30.5003 56.5298 33.4446 56.5298 36.3824 56.3698C36.3824 56.3098 34.3825 56.2598 31.9725 56.2598C29.5625 56.2598 27.5625 56.3198 27.5625 56.3698Z" fill="#E0E0E0"/>
<path d="M27.5625 58.9201C30.2468 59.0801 32.9382 59.0801 35.6225 58.9201C32.9378 58.7734 30.2472 58.7734 27.5625 58.9201Z" fill="#E0E0E0"/>
<path d="M27.5039 61.2501C29.4606 61.4102 31.4271 61.4102 33.3839 61.2501C31.4266 61.1035 29.4612 61.1035 27.5039 61.2501Z" fill="#E0E0E0"/>
<path d="M27.4805 54.0802C30.3082 54.2402 33.1427 54.2402 35.9705 54.0802C33.1424 53.9336 30.3086 53.9336 27.4805 54.0802Z" fill="#E0E0E0"/>
<path d="M27.5625 51.7901C29.7462 51.9501 31.9388 51.9501 34.1225 51.7901C31.9383 51.6435 29.7467 51.6435 27.5625 51.7901Z" fill="#E0E0E0"/>
<path d="M21.7227 37.4199V48.7299H43.6127V37.4199H21.7227Z" fill="#EBEBEB"/>
<path d="M92.3624 43.18C92.3624 43.28 92.3624 43.38 92.3624 43.48C92.2577 45.1317 91.5249 46.6808 90.3144 47.8095C89.1039 48.9382 87.5074 49.5609 85.8524 49.55H20.6523V48.73H36.1224C36.866 48.7313 37.6026 48.5858 38.2899 48.3018C38.9772 48.0178 39.6017 47.601 40.1275 47.0751C40.6533 46.5493 41.0702 45.9248 41.3542 45.2375C41.6382 44.5502 41.7837 43.8136 41.7823 43.07C41.7824 42.3272 41.6359 41.5916 41.3513 40.9055C41.0668 40.2193 40.6497 39.596 40.124 39.0713C39.5983 38.5465 38.9742 38.1305 38.2876 37.8472C37.601 37.5638 36.8652 37.4186 36.1224 37.42H20.6523V36.21L85.8624 36.43C86.7366 36.4321 87.6014 36.61 88.4055 36.9532C89.2096 37.2963 89.9365 37.7977 90.5429 38.4274C91.1493 39.0571 91.6229 39.8024 91.9354 40.6188C92.248 41.4353 92.3932 42.3063 92.3624 43.18Z" fill="#838383"/>
<path d="M21.7227 43.2201C21.7227 43.2901 26.2227 43.3401 31.7227 43.3401C37.2227 43.3401 41.7227 43.3401 41.7227 43.2201C41.7227 43.1001 37.2227 43.1101 31.7227 43.1101C26.2227 43.1101 21.7227 43.1601 21.7227 43.2201Z" fill="#E0E0E0"/>
<path d="M21.9805 45.7699C21.9805 45.8399 26.2405 45.8899 31.5005 45.8899C36.7605 45.8899 41.0104 45.8899 41.0104 45.7699C41.0104 45.6499 36.7505 45.6599 31.5005 45.6599C26.2505 45.6599 21.9805 45.7099 21.9805 45.7699Z" fill="#E0E0E0"/>
<path d="M21.7227 48.1002C21.7227 48.1702 25.5526 48.2202 30.2726 48.2202C34.9926 48.2202 38.8226 48.1702 38.8226 48.1002C38.8226 48.0302 34.9926 47.9902 30.2726 47.9902C25.5526 47.9902 21.7227 48.0402 21.7227 48.1002Z" fill="#E0E0E0"/>
<path d="M21.7227 40.93C21.7227 41 26.1327 41.05 31.5627 41.05C36.9927 41.05 41.4127 41.05 41.4127 40.93C41.4127 40.81 37.0027 40.82 31.5627 40.82C26.1227 40.82 21.7227 40.87 21.7227 40.93Z" fill="#E0E0E0"/>
<path d="M21.9805 38.64C21.9805 38.71 25.9105 38.76 30.7505 38.76C35.5905 38.76 39.5104 38.76 39.5104 38.64C39.5104 38.52 35.5905 38.53 30.7505 38.53C25.9105 38.53 21.9805 38.58 21.9805 38.64Z" fill="#E0E0E0"/>
<path d="M42.2203 57.0601L77.3103 57.0601C77.8681 57.0601 78.3203 56.6079 78.3203 56.0501V56.0101C78.3203 55.4522 77.8681 55.0001 77.3103 55.0001L42.2203 55.0001C41.6625 55.0001 41.2103 55.4522 41.2103 56.0101V56.0501C41.2103 56.6079 41.6625 57.0601 42.2203 57.0601Z" fill="white"/>
<path d="M49.6422 44.1299L84.7322 44.1299C85.29 44.1299 85.7422 43.6777 85.7422 43.1199V43.0799C85.7422 42.5221 85.29 42.0699 84.7322 42.0699L49.6422 42.0699C49.0843 42.0699 48.6321 42.5221 48.6321 43.0799V43.1199C48.6321 43.6777 49.0843 44.1299 49.6422 44.1299Z" fill="white"/>
<path d="M109.163 137.05H90.4634C89.7819 137.05 89.107 136.916 88.4773 136.655C87.8476 136.394 87.2755 136.012 86.7936 135.53C86.3117 135.048 85.9293 134.476 85.6685 133.846C85.4077 133.217 85.2734 132.542 85.2734 131.86C85.2721 131.178 85.4054 130.502 85.6657 129.871C85.9259 129.24 86.308 128.667 86.79 128.184C87.2721 127.701 87.8447 127.318 88.475 127.056C89.1054 126.795 89.781 126.66 90.4634 126.66H109.163V137.05Z" fill="#838383"/>
<path d="M103.992 126.66H145.572C145.685 126.66 145.797 126.682 145.901 126.726C146.006 126.769 146.1 126.832 146.18 126.912C146.26 126.992 146.323 127.087 146.367 127.191C146.41 127.295 146.432 127.407 146.432 127.52C146.432 127.748 146.342 127.967 146.18 128.128C146.019 128.29 145.8 128.38 145.572 128.38H103.992V126.66Z" fill="#838383"/>
<path d="M103.992 135.32H145.572C145.8 135.32 146.019 135.41 146.18 135.572C146.342 135.733 146.432 135.952 146.432 136.18C146.432 136.293 146.41 136.405 146.367 136.509C146.323 136.613 146.26 136.708 146.18 136.788C146.1 136.868 146.006 136.931 145.901 136.974C145.797 137.018 145.685 137.04 145.572 137.04H103.992V135.32Z" fill="#838383"/>
<path d="M145.154 135.32H108.724C107.804 135.317 106.923 134.951 106.273 134.301C105.623 133.65 105.257 132.769 105.254 131.85C105.254 131.394 105.344 130.943 105.518 130.522C105.692 130.101 105.948 129.718 106.27 129.396C106.592 129.074 106.975 128.818 107.396 128.644C107.817 128.47 108.268 128.38 108.724 128.38H145.154C144.674 129.474 144.426 130.655 144.426 131.85C144.426 133.044 144.674 134.226 145.154 135.32Z" fill="#F5F5F5"/>
<g opacity="0.3">
<path d="M105.253 137.05H90.4835C89.1017 137.05 87.7765 136.501 86.7994 135.524C85.8224 134.547 85.2734 133.222 85.2734 131.84C85.2734 130.466 85.8192 129.149 86.7906 128.177C87.7621 127.206 89.0796 126.66 90.4534 126.66H105.653C101.893 128.94 102.173 134.4 105.253 137.05Z" fill="black"/>
</g>
<path d="M140.72 132.18C140.72 132.18 133.24 132.24 124.02 132.24C114.8 132.24 107.32 132.24 107.32 132.18C107.32 132.12 114.79 132.12 124.02 132.12C133.25 132.12 140.72 132.14 140.72 132.18Z" fill="#343434"/>
<path d="M144.162 133.72C144.162 133.72 136.692 133.78 127.462 133.78C118.232 133.78 110.762 133.78 110.762 133.72C110.762 133.66 118.242 133.66 127.462 133.66C136.682 133.66 144.162 133.69 144.162 133.72Z" fill="#343434"/>
<path d="M143.154 129.99C143.154 129.99 135.674 130.05 126.454 130.05C117.234 130.05 109.754 130.05 109.754 129.99C109.754 129.93 117.234 129.93 126.454 129.93C135.674 129.93 143.154 129.96 143.154 129.99Z" fill="#343434"/>
<path d="M103.423 136.32C103.423 136.32 99.923 136.38 95.613 136.38C91.303 136.38 87.793 136.38 87.793 136.32C87.793 136.26 91.293 136.26 95.613 136.26C99.933 136.26 103.423 136.32 103.423 136.32Z" fill="#343434"/>
<path d="M103.423 127.52C103.423 127.52 99.923 127.59 95.613 127.59C91.303 127.59 87.793 127.59 87.793 127.52C87.793 127.45 91.293 127.46 95.613 127.46C99.933 127.46 103.423 127.49 103.423 127.52Z" fill="#343434"/>
<path d="M106.411 157.72H83.2213C82.3424 157.721 81.4718 157.549 80.6596 157.213C79.8473 156.878 79.1093 156.385 78.4878 155.763C77.8663 155.142 77.3736 154.404 77.0379 153.592C76.7021 152.779 76.53 151.909 76.5313 151.03C76.5286 150.15 76.6997 149.278 77.0348 148.464C77.3698 147.65 77.8622 146.91 78.4837 146.286C79.1052 145.663 79.8435 145.168 80.6565 144.831C81.4695 144.494 82.3411 144.32 83.2213 144.32H106.411C106.647 144.32 106.874 144.414 107.041 144.581C107.208 144.747 107.301 144.974 107.301 145.21V156.81C107.304 156.928 107.283 157.046 107.239 157.157C107.196 157.267 107.131 157.367 107.048 157.452C106.965 157.537 106.866 157.604 106.757 157.65C106.647 157.696 106.53 157.72 106.411 157.72Z" fill="#838383"/>
<path d="M100.633 144.32H154.173C154.465 144.32 154.744 144.436 154.951 144.642C155.157 144.848 155.273 145.128 155.273 145.42C155.273 145.712 155.157 145.991 154.951 146.198C154.744 146.404 154.465 146.52 154.173 146.52H100.633V144.32Z" fill="#838383"/>
<path d="M100.633 155.5H154.173C154.465 155.5 154.744 155.616 154.951 155.822C155.157 156.028 155.273 156.308 155.273 156.6C155.273 156.892 155.157 157.172 154.951 157.378C154.744 157.584 154.465 157.7 154.173 157.7H100.633V155.48V155.5Z" fill="#838383"/>
<path d="M153.654 155.5H106.724C106.137 155.5 105.556 155.384 105.013 155.16C104.471 154.935 103.978 154.606 103.563 154.191C103.148 153.776 102.819 153.283 102.594 152.741C102.369 152.198 102.254 151.617 102.254 151.03C102.254 150.443 102.369 149.862 102.594 149.319C102.819 148.777 103.148 148.284 103.563 147.869C103.978 147.454 104.471 147.125 105.013 146.9C105.556 146.676 106.137 146.56 106.724 146.56H153.644C153.02 147.968 152.698 149.491 152.7 151.031C152.701 152.571 153.026 154.094 153.654 155.5Z" fill="#F5F5F5"/>
<g opacity="0.4">
<path d="M102.261 157.72H83.1512C81.3955 157.72 79.7117 157.022 78.4702 155.781C77.2287 154.539 76.5312 152.856 76.5312 151.1C76.5312 149.307 77.2435 147.588 78.5112 146.32C79.779 145.052 81.4984 144.34 83.2913 144.34H102.771C97.9312 147.32 98.2912 154.32 102.261 157.72Z" fill="black"/>
</g>
<path d="M147.954 151.45C147.954 151.45 138.324 151.51 126.444 151.51C114.564 151.51 104.934 151.51 104.934 151.45C104.934 151.39 114.564 151.38 126.444 151.38C138.324 151.38 147.954 151.41 147.954 151.45Z" fill="#343434"/>
<path d="M152.383 153.43C152.383 153.43 142.753 153.49 130.873 153.49C118.993 153.49 109.363 153.49 109.363 153.43C109.363 153.37 118.993 153.37 130.873 153.37C142.753 153.37 152.383 153.4 152.383 153.43Z" fill="#343434"/>
<path d="M151.072 149.6C151.072 149.6 141.442 149.66 129.572 149.66C117.702 149.66 108.062 149.66 108.062 149.6C108.062 149.54 117.682 149.54 129.572 149.54C141.462 149.54 151.072 149.57 151.072 149.6Z" fill="#343434"/>
<path d="M99.9135 156.78C99.9135 156.78 95.4034 156.84 89.8434 156.84C84.2834 156.84 79.7734 156.84 79.7734 156.78C79.7734 156.72 84.2834 156.72 89.8434 156.72C95.4034 156.72 99.9135 156.75 99.9135 156.78Z" fill="#343434"/>
<path d="M99.9135 145.45C99.9135 145.45 95.4034 145.51 89.8434 145.51C84.2834 145.51 79.7734 145.51 79.7734 145.45C79.7734 145.39 84.2834 145.39 89.8434 145.39C95.4034 145.39 99.9135 145.42 99.9135 145.45Z" fill="#343434"/>
<path d="M115.293 144.39H94.123C93.6197 144.391 93.121 144.293 92.6557 144.101C92.1904 143.909 91.7677 143.627 91.4118 143.271C91.0559 142.915 90.7738 142.492 90.5818 142.027C90.3898 141.562 90.2917 141.063 90.293 140.56C90.293 139.544 90.6965 138.57 91.4147 137.852C92.133 137.133 93.1072 136.73 94.123 136.73H115.293V144.39Z" fill="#6C6C6C"/>
<path d="M109.883 136.73H153.383C153.501 136.73 153.618 136.753 153.727 136.798C153.836 136.844 153.936 136.91 154.019 136.994C154.103 137.077 154.169 137.176 154.214 137.286C154.26 137.395 154.283 137.512 154.283 137.63C154.283 137.869 154.188 138.098 154.019 138.266C153.85 138.435 153.622 138.53 153.383 138.53H109.883V136.73Z" fill="#6C6C6C"/>
<path d="M109.883 142.59H153.383C153.622 142.59 153.85 142.685 154.019 142.853C154.188 143.022 154.283 143.251 154.283 143.49C154.283 143.729 154.188 143.957 154.019 144.126C153.85 144.295 153.622 144.39 153.383 144.39H109.883V142.59Z" fill="#6C6C6C"/>
<path d="M152.95 142.59H113.23C112.7 142.59 112.191 142.379 111.816 142.004C111.441 141.629 111.23 141.12 111.23 140.59C111.23 140.059 111.441 139.551 111.816 139.176C112.191 138.801 112.7 138.59 113.23 138.59H152.95C152.47 139.146 152.206 139.855 152.206 140.59C152.206 141.324 152.47 142.034 152.95 142.59Z" fill="#F5F5F5"/>
<g opacity="0.3">
<path d="M111.203 144.39H94.093C93.0851 144.39 92.1186 143.99 91.4059 143.277C90.6933 142.564 90.293 141.598 90.293 140.59C90.293 139.566 90.6996 138.584 91.4235 137.861C92.1474 137.137 93.1292 136.73 94.153 136.73H111.613C107.723 138.41 107.973 142.43 111.203 144.39Z" fill="black"/>
</g>
<path d="M148.321 140.24C148.321 140.24 140.491 140.3 130.841 140.3C121.191 140.3 113.371 140.3 113.371 140.24C113.371 140.18 121.191 140.18 130.841 140.18C140.491 140.18 148.321 140.21 148.321 140.24Z" fill="#343434"/>
<path d="M151.913 141.32C151.913 141.32 144.093 141.38 134.443 141.38C124.793 141.38 116.973 141.38 116.973 141.32C116.973 141.26 124.793 141.26 134.443 141.26C144.093 141.26 151.913 141.32 151.913 141.32Z" fill="#343434"/>
<path d="M109.294 143.63C109.294 143.63 105.624 143.69 101.114 143.69C96.6036 143.69 92.9336 143.69 92.9336 143.63C92.9336 143.57 96.5936 143.57 101.114 143.57C105.634 143.57 109.294 143.59 109.294 143.63Z" fill="#343434"/>
<path d="M109.294 137.63C109.294 137.63 105.624 137.7 101.114 137.7C96.6036 137.7 92.9336 137.7 92.9336 137.63C92.9336 137.56 96.5936 137.57 101.114 137.57C105.634 137.57 109.294 137.6 109.294 137.63Z" fill="#343434"/>
<path d="M153.723 136.73C153.723 136.73 140.293 136.79 123.723 136.79C107.153 136.79 93.7227 136.79 93.7227 136.73C93.7227 136.67 107.153 136.67 123.723 136.67C140.293 136.67 153.723 136.7 153.723 136.73Z" fill="#343434"/>
<path d="M113.723 126.32H92.5331C91.5174 126.32 90.5432 125.917 89.825 125.198C89.1067 124.48 88.7031 123.506 88.7031 122.49C88.7058 121.475 89.1101 120.503 89.8278 119.785C90.5455 119.067 91.5182 118.663 92.5331 118.66H113.723V126.32Z" fill="#6C6C6C"/>
<path d="M108.293 118.61H151.793C152.032 118.61 152.261 118.705 152.429 118.873C152.598 119.042 152.693 119.271 152.693 119.51C152.693 119.749 152.598 119.977 152.429 120.146C152.261 120.315 152.032 120.41 151.793 120.41H108.293V118.61Z" fill="#6C6C6C"/>
<path d="M108.293 124.47H151.793C152.032 124.47 152.261 124.565 152.429 124.734C152.598 124.903 152.693 125.132 152.693 125.37C152.693 125.609 152.598 125.838 152.429 126.007C152.261 126.175 152.032 126.27 151.793 126.27H108.293V124.47Z" fill="#6C6C6C"/>
<path d="M151.361 124.47H111.641C111.11 124.47 110.602 124.26 110.226 123.884C109.851 123.509 109.641 123.001 109.641 122.47C109.641 121.94 109.851 121.431 110.226 121.056C110.602 120.681 111.11 120.47 111.641 120.47H151.361C150.885 121.028 150.623 121.737 150.623 122.47C150.623 123.203 150.885 123.913 151.361 124.47Z" fill="#F5F5F5"/>
<g opacity="0.3">
<path d="M109.613 126.32H92.5032C91.4954 126.32 90.5288 125.92 89.8162 125.207C89.1035 124.495 88.7031 123.528 88.7031 122.52C88.7031 122.013 88.803 121.511 88.9969 121.043C89.1909 120.575 89.4753 120.149 89.8337 119.791C90.1922 119.432 90.6177 119.148 91.086 118.954C91.5543 118.76 92.0563 118.66 92.5632 118.66H110.033C106.093 120.32 106.393 124.32 109.613 126.32Z" fill="black"/>
</g>
<path d="M146.723 122.12C146.723 122.12 138.903 122.18 129.253 122.18C119.603 122.18 111.773 122.18 111.773 122.12C111.773 122.06 119.603 122.06 129.253 122.06C138.903 122.06 146.723 122.09 146.723 122.12Z" fill="#343434"/>
<path d="M150.333 123.21C150.333 123.21 142.503 123.27 132.853 123.27C123.203 123.27 115.383 123.27 115.383 123.21C115.383 123.15 123.203 123.15 132.853 123.15C142.503 123.15 150.333 123.18 150.333 123.21Z" fill="#343434"/>
<path d="M107.723 125.51C107.723 125.51 104.063 125.57 99.5433 125.57C95.0233 125.57 91.3633 125.57 91.3633 125.51C91.3633 125.45 95.0233 125.45 99.5433 125.45C104.063 125.45 107.723 125.47 107.723 125.51Z" fill="#343434"/>
<path d="M107.723 119.51C107.723 119.51 104.063 119.57 99.5433 119.57C95.0233 119.57 91.3633 119.57 91.3633 119.51C91.3633 119.45 95.0233 119.45 99.5433 119.45C104.063 119.45 107.723 119.48 107.723 119.51Z" fill="#343434"/>
<path d="M152.172 118.61C152.172 118.61 138.732 118.67 122.172 118.67C105.612 118.67 92.1719 118.67 92.1719 118.61C92.1719 118.55 105.612 118.55 122.172 118.55C138.732 118.55 152.172 118.58 152.172 118.61Z" fill="#343434"/>
<path d="M116.541 118.91H99.3209C97.6009 118.91 96.2109 117.2 96.2109 115.08C96.2109 112.97 97.6009 111.25 99.3209 111.25H116.541V118.91Z" fill="#838383"/>
<path d="M112.133 111.25H147.333C147.572 111.25 147.8 111.345 147.969 111.514C148.138 111.682 148.233 111.911 148.233 112.15C148.233 112.389 148.138 112.618 147.969 112.786C147.8 112.955 147.572 113.05 147.333 113.05H112.133V111.25Z" fill="#838383"/>
<path d="M112.133 117.11H147.333C147.572 117.11 147.8 117.205 147.969 117.373C148.138 117.542 148.233 117.771 148.233 118.01C148.233 118.249 148.138 118.477 147.969 118.646C147.8 118.815 147.572 118.91 147.333 118.91H112.133V117.11Z" fill="#838383"/>
<path d="M147.163 117.11H114.863C114.383 117.054 113.943 116.815 113.635 116.442C113.328 116.069 113.176 115.592 113.213 115.11C113.174 114.627 113.324 114.148 113.632 113.775C113.94 113.402 114.382 113.163 114.863 113.11H147.163C146.768 113.702 146.557 114.398 146.557 115.11C146.557 115.822 146.768 116.518 147.163 117.11Z" fill="#F5F5F5"/>
<g opacity="0.3">
<path d="M113.211 118.91H99.301C97.591 118.91 96.2109 117.21 96.2109 115.11C96.2109 112.98 97.621 111.25 99.351 111.25H113.551C110.351 112.93 110.591 116.96 113.211 118.91Z" fill="black"/>
</g>
<path d="M143.393 114.76C143.393 114.76 137.033 114.82 129.183 114.82C121.333 114.82 114.973 114.82 114.973 114.76C114.973 114.7 121.333 114.7 129.183 114.7C137.033 114.7 143.393 114.73 143.393 114.76Z" fill="#343434"/>
<path d="M146.312 115.85C146.312 115.85 139.952 115.92 132.112 115.92C124.272 115.92 117.902 115.92 117.902 115.85C117.902 115.78 124.262 115.79 132.112 115.79C139.962 115.79 146.312 115.82 146.312 115.85Z" fill="#343434"/>
<path d="M111.652 118.15C111.652 118.15 108.652 118.21 105.002 118.21C101.352 118.21 98.3516 118.21 98.3516 118.15C98.3516 118.09 101.352 118.09 105.002 118.09C108.652 118.09 111.652 118.12 111.652 118.15Z" fill="#343434"/>
<path d="M111.652 112.15C111.652 112.15 108.652 112.22 105.002 112.22C101.352 112.22 98.3516 112.22 98.3516 112.15C98.3516 112.08 101.352 112.09 105.002 112.09C108.652 112.09 111.652 112.12 111.652 112.15Z" fill="#343434"/>
<path d="M147.813 111.25C147.813 111.25 136.893 111.31 123.413 111.31C109.933 111.31 99.0234 111.31 99.0234 111.25C99.0234 111.19 109.943 111.19 123.413 111.19C136.883 111.19 147.813 111.22 147.813 111.25Z" fill="#343434"/>
<path d="M120.703 130.04V134.2L122.143 133.27L123.753 134.2V130.04H120.703Z" fill="#838383"/>
<path d="M109.163 376.32H90.4634C89.781 376.32 89.1054 376.186 88.475 375.924C87.8447 375.663 87.2721 375.28 86.79 374.797C86.308 374.314 85.9259 373.74 85.6657 373.109C85.4054 372.479 85.2721 371.803 85.2734 371.12C85.2734 370.439 85.4077 369.764 85.6685 369.134C85.9293 368.504 86.3117 367.932 86.7936 367.45C87.2755 366.968 87.8476 366.586 88.4773 366.325C89.107 366.064 89.7819 365.93 90.4634 365.93H109.163V376.32Z" fill="#838383"/>
<path d="M103.992 365.93H145.572C145.685 365.93 145.797 365.952 145.901 365.996C146.006 366.039 146.1 366.102 146.18 366.182C146.26 366.262 146.323 366.357 146.367 366.461C146.41 366.565 146.432 366.677 146.432 366.79C146.432 367.018 146.342 367.237 146.18 367.398C146.019 367.56 145.8 367.65 145.572 367.65H103.992V365.93Z" fill="#838383"/>
<path d="M103.992 374.59H145.572C145.8 374.59 146.019 374.68 146.18 374.842C146.342 375.003 146.432 375.222 146.432 375.45C146.432 375.678 146.342 375.897 146.18 376.058C146.019 376.219 145.8 376.31 145.572 376.31H103.992V374.59Z" fill="#838383"/>
<path d="M145.154 374.59H108.724C108.268 374.59 107.817 374.5 107.396 374.326C106.975 374.151 106.592 373.896 106.27 373.574C105.948 373.251 105.692 372.869 105.518 372.448C105.344 372.027 105.254 371.576 105.254 371.12C105.257 370.2 105.623 369.319 106.273 368.669C106.923 368.019 107.804 367.653 108.724 367.65H145.154C144.674 368.744 144.426 369.925 144.426 371.12C144.426 372.314 144.674 373.496 145.154 374.59Z" fill="#F5F5F5"/>
<g opacity="0.3">
<path d="M105.253 376.32H90.4835C89.1017 376.32 87.7765 375.771 86.7994 374.794C85.8224 373.817 85.2734 372.492 85.2734 371.11C85.2734 369.736 85.8192 368.419 86.7906 367.447C87.7621 366.476 89.0796 365.93 90.4534 365.93H105.653C101.893 368.21 102.173 373.66 105.253 376.32Z" fill="black"/>
</g>
<path d="M140.72 371.45C140.72 371.45 133.24 371.51 124.02 371.51C114.8 371.51 107.32 371.51 107.32 371.45C107.32 371.39 114.79 371.38 124.02 371.38C133.25 371.38 140.72 371.41 140.72 371.45Z" fill="#343434"/>
<path d="M144.162 372.99C144.162 372.99 136.692 373.05 127.462 373.05C118.232 373.05 110.762 373.05 110.762 372.99C110.762 372.93 118.242 372.93 127.462 372.93C136.682 372.93 144.162 372.95 144.162 372.99Z" fill="#343434"/>
<path d="M143.154 369.26C143.154 369.26 135.674 369.32 126.454 369.32C117.234 369.32 109.754 369.32 109.754 369.26C109.754 369.2 117.234 369.2 126.454 369.2C135.674 369.2 143.154 369.22 143.154 369.26Z" fill="#343434"/>
<path d="M103.423 375.59C103.423 375.59 99.923 375.65 95.613 375.65C91.303 375.65 87.793 375.65 87.793 375.59C87.793 375.53 91.293 375.53 95.613 375.53C99.933 375.53 103.423 375.55 103.423 375.59Z" fill="#343434"/>
<path d="M103.423 366.79C103.423 366.79 99.923 366.85 95.613 366.85C91.303 366.85 87.793 366.85 87.793 366.79C87.793 366.73 91.293 366.73 95.613 366.73C99.933 366.73 103.423 366.76 103.423 366.79Z" fill="#343434"/>
<path d="M106.411 396.99H83.2213C81.447 396.99 79.7453 396.285 78.4907 395.03C77.2361 393.776 76.5313 392.074 76.5313 390.3C76.5299 389.421 76.7021 388.55 77.0378 387.738C77.3736 386.926 77.8663 386.188 78.4878 385.566C79.1093 384.945 79.8473 384.452 80.6596 384.116C81.4718 383.781 82.3423 383.609 83.2213 383.61H106.411C106.647 383.61 106.874 383.704 107.041 383.871C107.208 384.037 107.301 384.264 107.301 384.5V396.1C107.301 396.336 107.208 396.562 107.041 396.729C106.874 396.896 106.647 396.99 106.411 396.99Z" fill="#838383"/>
<path d="M100.633 383.61H154.173C154.465 383.61 154.744 383.726 154.951 383.932C155.157 384.138 155.273 384.418 155.273 384.71C155.273 385.002 155.157 385.281 154.951 385.488C154.744 385.694 154.465 385.81 154.173 385.81H100.633V383.59V383.61Z" fill="#838383"/>
<path d="M100.633 394.77H154.173C154.317 394.77 154.46 394.798 154.594 394.854C154.727 394.909 154.849 394.99 154.951 395.092C155.053 395.194 155.134 395.316 155.189 395.449C155.244 395.583 155.273 395.726 155.273 395.87C155.273 396.162 155.157 396.442 154.951 396.648C154.744 396.854 154.465 396.97 154.173 396.97H100.633V394.75V394.77Z" fill="#838383"/>
<path d="M153.654 394.77H106.724C106.137 394.77 105.556 394.654 105.013 394.43C104.471 394.205 103.978 393.876 103.563 393.461C103.148 393.046 102.819 392.553 102.594 392.011C102.369 391.468 102.254 390.887 102.254 390.3C102.254 389.713 102.369 389.132 102.594 388.589C102.819 388.047 103.148 387.554 103.563 387.139C103.978 386.724 104.471 386.395 105.013 386.17C105.556 385.946 106.137 385.83 106.724 385.83H153.644C153.02 387.238 152.698 388.761 152.7 390.301C152.701 391.841 153.026 393.364 153.654 394.77Z" fill="#F5F5F5"/>
<g opacity="0.4">
<path d="M102.261 396.99H83.1512C81.3955 396.99 79.7117 396.292 78.4702 395.051C77.2287 393.809 76.5312 392.126 76.5312 390.37C76.5312 388.577 77.2435 386.858 78.5112 385.59C79.779 384.322 81.4984 383.61 83.2913 383.61H102.771C97.9312 386.54 98.2912 393.57 102.261 396.99Z" fill="black"/>
</g>
<path d="M147.954 390.71C147.954 390.71 138.324 390.78 126.444 390.78C114.564 390.78 104.934 390.78 104.934 390.71C104.934 390.64 114.564 390.65 126.444 390.65C138.324 390.65 147.954 390.68 147.954 390.71Z" fill="#343434"/>
<path d="M152.383 392.7C152.383 392.7 142.753 392.76 130.873 392.76C118.993 392.76 109.363 392.76 109.363 392.7C109.363 392.64 118.993 392.64 130.873 392.64C142.753 392.64 152.383 392.66 152.383 392.7Z" fill="#343434"/>
<path d="M151.072 388.87C151.072 388.87 141.442 388.93 129.572 388.93C117.702 388.93 108.062 388.93 108.062 388.87C108.062 388.81 117.682 388.81 129.572 388.81C141.462 388.81 151.072 388.84 151.072 388.87Z" fill="#343434"/>
<path d="M99.9135 396.05C99.9135 396.05 95.4034 396.11 89.8434 396.11C84.2834 396.11 79.7734 396.11 79.7734 396.05C79.7734 395.99 84.2834 395.99 89.8434 395.99C95.4034 395.99 99.9135 396.02 99.9135 396.05Z" fill="#343434"/>
<path d="M99.9135 384.72C99.9135 384.72 95.4034 384.78 89.8434 384.78C84.2834 384.78 79.7734 384.78 79.7734 384.72C79.7734 384.66 84.2834 384.66 89.8434 384.66C95.4034 384.66 99.9135 384.69 99.9135 384.72Z" fill="#343434"/>
<path d="M115.293 383.66H94.123C93.1072 383.66 92.133 383.257 91.4147 382.538C90.6965 381.82 90.293 380.846 90.293 379.83C90.2917 379.327 90.3898 378.828 90.5818 378.363C90.7738 377.898 91.0559 377.475 91.4118 377.119C91.7677 376.763 92.1904 376.481 92.6557 376.289C93.121 376.097 93.6197 375.999 94.123 376H115.293V383.66Z" fill="#6C6C6C"/>
<path d="M109.883 376H153.383C153.622 376 153.85 376.095 154.019 376.264C154.188 376.432 154.283 376.661 154.283 376.9C154.283 377.139 154.188 377.368 154.019 377.536C153.85 377.705 153.622 377.8 153.383 377.8H109.883V376Z" fill="#6C6C6C"/>
<path d="M109.883 381.85H153.383C153.622 381.85 153.85 381.945 154.019 382.114C154.188 382.282 154.283 382.511 154.283 382.75C154.283 382.989 154.188 383.218 154.019 383.387C153.85 383.555 153.622 383.65 153.383 383.65H109.883V381.85Z" fill="#6C6C6C"/>
<path d="M152.95 381.85H113.23C112.7 381.85 112.191 381.639 111.816 381.264C111.441 380.889 111.23 380.381 111.23 379.85C111.23 379.32 111.441 378.811 111.816 378.436C112.191 378.061 112.7 377.85 113.23 377.85H152.95C152.47 378.406 152.206 379.116 152.206 379.85C152.206 380.584 152.47 381.294 152.95 381.85Z" fill="#F5F5F5"/>
<g opacity="0.3">
<path d="M111.203 383.66H94.093C93.0851 383.66 92.1186 383.26 91.4059 382.547C90.6933 381.834 90.293 380.868 90.293 379.86C90.293 378.836 90.6996 377.854 91.4235 377.131C92.1474 376.407 93.1292 376 94.153 376H111.613C107.723 377.68 107.973 381.7 111.203 383.66Z" fill="black"/>
</g>
<path d="M148.321 379.51C148.321 379.51 140.491 379.57 130.841 379.57C121.191 379.57 113.371 379.57 113.371 379.51C113.371 379.45 121.191 379.45 130.841 379.45C140.491 379.45 148.321 379.47 148.321 379.51Z" fill="#343434"/>
<path d="M151.913 380.6C151.913 380.6 144.093 380.66 134.443 380.66C124.793 380.66 116.973 380.66 116.973 380.6C116.973 380.54 124.793 380.54 134.443 380.54C144.093 380.54 151.913 380.57 151.913 380.6Z" fill="#343434"/>
<path d="M109.294 382.9C109.294 382.9 105.624 382.96 101.114 382.96C96.6036 382.96 92.9336 382.96 92.9336 382.9C92.9336 382.84 96.5936 382.83 101.114 382.83C105.634 382.83 109.294 382.86 109.294 382.9Z" fill="#343434"/>
<path d="M109.294 376.9C109.294 376.9 105.624 376.96 101.114 376.96C96.6036 376.96 92.9336 376.96 92.9336 376.9C92.9336 376.84 96.5936 376.84 101.114 376.84C105.634 376.84 109.294 376.87 109.294 376.9Z" fill="#343434"/>
<path d="M153.723 376C153.723 376 140.293 376.06 123.723 376.06C107.153 376.06 93.7227 376.06 93.7227 376C93.7227 375.94 107.153 375.94 123.723 375.94C140.293 375.94 153.723 375.96 153.723 376Z" fill="#343434"/>
<path d="M113.723 365.54H92.5331C91.5182 365.537 90.5455 365.133 89.8278 364.415C89.1101 363.697 88.7058 362.725 88.7031 361.71C88.7031 360.694 89.1067 359.72 89.825 359.002C90.5432 358.283 91.5174 357.88 92.5331 357.88H113.723V365.54Z" fill="#6C6C6C"/>
<path d="M108.293 357.88H151.793C152.032 357.88 152.261 357.975 152.429 358.143C152.598 358.312 152.693 358.541 152.693 358.78C152.693 359.019 152.598 359.248 152.429 359.416C152.261 359.585 152.032 359.68 151.793 359.68H108.293V357.88Z" fill="#6C6C6C"/>
<path d="M108.293 363.73H151.793C152.032 363.73 152.261 363.825 152.429 363.994C152.598 364.162 152.693 364.391 152.693 364.63C152.693 364.869 152.598 365.098 152.429 365.266C152.261 365.435 152.032 365.53 151.793 365.53H108.293V363.73Z" fill="#6C6C6C"/>
<path d="M151.361 363.73H111.641C111.11 363.73 110.602 363.519 110.226 363.144C109.851 362.769 109.641 362.26 109.641 361.73C109.641 361.2 109.851 360.691 110.226 360.316C110.602 359.941 111.11 359.73 111.641 359.73H151.361C150.881 360.286 150.617 360.996 150.617 361.73C150.617 362.464 150.881 363.174 151.361 363.73Z" fill="#F5F5F5"/>
<g opacity="0.3">
<path d="M109.613 365.54H92.5032C91.4954 365.54 90.5288 365.14 89.8162 364.427C89.1035 363.714 88.7031 362.748 88.7031 361.74C88.7031 360.716 89.1098 359.734 89.8337 359.01C90.5576 358.287 91.5394 357.88 92.5632 357.88H110.033C106.093 359.56 106.393 363.58 109.613 365.54Z" fill="black"/>
</g>
<path d="M146.723 361.39C146.723 361.39 138.903 361.45 129.253 361.45C119.603 361.45 111.773 361.45 111.773 361.39C111.773 361.33 119.603 361.33 129.253 361.33C138.903 361.33 146.723 361.32 146.723 361.39Z" fill="#343434"/>
<path d="M150.333 362.48C150.333 362.48 142.503 362.54 132.853 362.54C123.203 362.54 115.383 362.54 115.383 362.48C115.383 362.42 123.203 362.42 132.853 362.42C142.503 362.42 150.333 362.44 150.333 362.48Z" fill="#343434"/>
<path d="M107.723 364.78C107.723 364.78 104.063 364.84 99.5433 364.84C95.0233 364.84 91.3633 364.84 91.3633 364.78C91.3633 364.72 95.0233 364.71 99.5433 364.71C104.063 364.71 107.723 364.74 107.723 364.78Z" fill="#343434"/>
<path d="M107.723 358.78C107.723 358.78 104.063 358.84 99.5433 358.84C95.0233 358.84 91.3633 358.84 91.3633 358.78C91.3633 358.72 95.0233 358.72 99.5433 358.72C104.063 358.72 107.723 358.75 107.723 358.78Z" fill="#343434"/>
<path d="M152.172 357.88C152.172 357.88 138.732 357.94 122.172 357.94C105.612 357.94 92.1719 357.94 92.1719 357.88C92.1719 357.82 105.612 357.82 122.172 357.82C138.732 357.82 152.172 357.84 152.172 357.88Z" fill="#343434"/>
<path d="M116.541 358.18H99.3209C97.6009 358.18 96.2109 356.46 96.2109 354.35C96.2109 352.23 97.6009 350.52 99.3209 350.52H116.541V358.18Z" fill="#838383"/>
<path d="M112.133 350.52H147.333C147.572 350.52 147.8 350.615 147.969 350.784C148.138 350.952 148.233 351.181 148.233 351.42C148.233 351.659 148.138 351.888 147.969 352.056C147.8 352.225 147.572 352.32 147.333 352.32H112.133V350.52Z" fill="#838383"/>
<path d="M112.133 356.37H147.333C147.572 356.37 147.8 356.465 147.969 356.634C148.138 356.803 148.233 357.031 148.233 357.27C148.233 357.509 148.138 357.738 147.969 357.907C147.8 358.075 147.572 358.17 147.333 358.17H112.133V356.37Z" fill="#838383"/>
<path d="M147.163 356.37H114.863C114.382 356.317 113.94 356.078 113.632 355.705C113.324 355.332 113.174 354.853 113.213 354.37C113.176 353.888 113.328 353.411 113.635 353.038C113.943 352.665 114.383 352.426 114.863 352.37H147.163C146.768 352.962 146.557 353.658 146.557 354.37C146.557 355.082 146.768 355.778 147.163 356.37Z" fill="#F5F5F5"/>
<g opacity="0.3">
<path d="M113.211 358.18H99.301C97.591 358.18 96.2109 356.48 96.2109 354.38C96.2109 352.25 97.621 350.52 99.351 350.52H113.551C110.351 352.2 110.591 356.22 113.211 358.18Z" fill="black"/>
</g>
<path d="M143.393 354.03C143.393 354.03 137.033 354.09 129.183 354.09C121.333 354.09 114.973 354.09 114.973 354.03C114.973 353.97 121.333 353.97 129.183 353.97C137.033 353.97 143.393 354 143.393 354.03Z" fill="#343434"/>
<path d="M146.312 355.12C146.312 355.12 139.952 355.18 132.112 355.18C124.272 355.18 117.902 355.18 117.902 355.12C117.902 355.06 124.262 355.06 132.112 355.06C139.962 355.06 146.312 355.09 146.312 355.12Z" fill="#343434"/>
<path d="M111.652 357.42C111.652 357.42 108.652 357.48 105.002 357.48C101.352 357.48 98.3516 357.48 98.3516 357.42C98.3516 357.36 101.352 357.35 105.002 357.35C108.652 357.35 111.652 357.38 111.652 357.42Z" fill="#343434"/>
<path d="M111.652 351.42C111.652 351.42 108.652 351.48 105.002 351.48C101.352 351.48 98.3516 351.48 98.3516 351.42C98.3516 351.36 101.352 351.36 105.002 351.36C108.652 351.36 111.652 351.39 111.652 351.42Z" fill="#343434"/>
<path d="M147.813 350.52C147.813 350.52 136.893 350.58 123.413 350.58C109.933 350.58 99.0234 350.58 99.0234 350.52C99.0234 350.46 109.943 350.46 123.413 350.46C136.883 350.46 147.813 350.48 147.813 350.52Z" fill="#343434"/>
<path d="M120.703 369.3V373.46L122.143 372.54L123.753 373.46V369.3H120.703Z" fill="#838383"/>
<path d="M14.5508 184.61L14.5508 237.74H30.3108L30.3108 184.61H14.5508Z" fill="#838383"/>
<g opacity="0.4">
<path d="M30.3224 188.8H14.5625V195.08H30.3224V188.8Z" fill="black"/>
</g>
<g opacity="0.4">
<path d="M30.3224 226.76H14.5625V233.04H30.3224V226.76Z" fill="black"/>
</g>
<path d="M119.094 190.92V237.57C119.094 237.664 119.17 237.74 119.264 237.74H132.874C132.968 237.74 133.044 237.664 133.044 237.57V190.92C133.044 190.826 132.968 190.75 132.874 190.75H119.264C119.17 190.75 119.094 190.826 119.094 190.92Z" fill="#838383"/>
<g opacity="0.4">
<path d="M132.904 194.45H119.234C119.156 194.45 119.094 194.513 119.094 194.59V199.86C119.094 199.938 119.156 200 119.234 200H132.904C132.981 200 133.044 199.938 133.044 199.86V194.59C133.044 194.513 132.981 194.45 132.904 194.45Z" fill="black"/>
</g>
<g opacity="0.4">
<path d="M132.904 228.02H119.234C119.156 228.02 119.094 228.083 119.094 228.16V233.43C119.094 233.507 119.156 233.57 119.234 233.57H132.904C132.981 233.57 133.044 233.507 133.044 233.43V228.16C133.044 228.083 132.981 228.02 132.904 228.02Z" fill="black"/>
</g>
<path d="M127.403 204.93V223.56C127.403 223.894 127.27 224.215 127.034 224.451C126.798 224.687 126.477 224.82 126.143 224.82C125.809 224.82 125.488 224.687 125.252 224.451C125.016 224.215 124.883 223.894 124.883 223.56V204.93C124.885 204.598 125.019 204.28 125.255 204.046C125.491 203.812 125.81 203.68 126.143 203.68C126.475 203.68 126.794 203.812 127.03 204.046C127.266 204.28 127.4 204.598 127.403 204.93Z" fill="white"/>
<path d="M140.91 184.79V237.58C140.91 237.674 140.986 237.75 141.08 237.75H156.51C156.604 237.75 156.68 237.674 156.68 237.58V184.79C156.68 184.696 156.604 184.62 156.51 184.62H141.08C140.986 184.62 140.91 184.696 140.91 184.79Z" fill="#343434"/>
<g opacity="0.4">
<path d="M156.54 188.8H141.05C140.973 188.8 140.91 188.862 140.91 188.94V194.94C140.91 195.017 140.973 195.08 141.05 195.08H156.54C156.617 195.08 156.68 195.017 156.68 194.94V188.94C156.68 188.862 156.617 188.8 156.54 188.8Z" fill="black"/>
</g>
<g opacity="0.4">
<path d="M156.54 226.76H141.05C140.973 226.76 140.91 226.823 140.91 226.9V232.9C140.91 232.978 140.973 233.04 141.05 233.04H156.54C156.617 233.04 156.68 232.978 156.68 232.9V226.9C156.68 226.823 156.617 226.76 156.54 226.76Z" fill="black"/>
</g>
<path d="M150.301 200.65V221.71C150.301 221.896 150.264 222.081 150.193 222.253C150.122 222.426 150.017 222.582 149.885 222.714C149.753 222.846 149.597 222.951 149.424 223.022C149.252 223.093 149.067 223.13 148.881 223.13C148.694 223.13 148.51 223.093 148.338 223.022C148.165 222.951 148.009 222.846 147.877 222.714C147.745 222.582 147.64 222.426 147.569 222.253C147.498 222.081 147.461 221.896 147.461 221.71V200.65C147.464 200.274 147.614 199.915 147.88 199.649C148.145 199.383 148.505 199.233 148.881 199.23C149.257 199.233 149.616 199.383 149.882 199.649C150.148 199.915 150.298 200.274 150.301 200.65Z" fill="white"/>
<path d="M22.4414 265.13L22.4414 318.26H38.2014V265.13H22.4414Z" fill="#838383"/>
<g opacity="0.4">
<path d="M38.2014 269.31H22.4414V275.59H38.2014V269.31Z" fill="black"/>
</g>
<g opacity="0.4">
<path d="M38.2014 307.27H22.4414V313.55H38.2014V307.27Z" fill="black"/>
</g>
<path d="M28.9922 281.02V302.38C28.9922 303.081 29.5608 303.65 30.2622 303.65H30.5622C31.2636 303.65 31.8322 303.081 31.8322 302.38V281.02C31.8322 280.318 31.2636 279.75 30.5622 279.75H30.2622C29.5608 279.75 28.9922 280.318 28.9922 281.02Z" fill="white"/>
<path d="M31.1406 176.38L31.1406 237.33H39.0206V176.38H31.1406Z" fill="#6C6C6C"/>
<g opacity="0.4">
<path d="M39.0636 182.96H31.1836V189.24H39.0636V182.96Z" fill="black"/>
</g>
<g opacity="0.4">
<path d="M39.0206 226.34H31.1406V232.62H39.0206V226.34Z" fill="black"/>
</g>
<path d="M35.8301 194.8V217.32C35.8301 217.508 35.7553 217.689 35.6222 217.822C35.489 217.955 35.3085 218.03 35.1202 218.03C35.0269 218.03 34.9346 218.011 34.8484 217.976C34.7623 217.94 34.684 217.888 34.6181 217.822C34.5522 217.756 34.4999 217.678 34.4642 217.592C34.4285 217.505 34.4102 217.413 34.4102 217.32V194.8C34.4102 194.707 34.4285 194.614 34.4642 194.528C34.4999 194.442 34.5522 194.364 34.6181 194.298C34.684 194.232 34.7623 194.18 34.8484 194.144C34.9346 194.108 35.0269 194.09 35.1202 194.09C35.3085 194.09 35.489 194.165 35.6222 194.298C35.7553 194.431 35.8301 194.612 35.8301 194.8Z" fill="white"/>
<path d="M132.992 177.1V237.71C132.992 237.804 133.068 237.88 133.162 237.88H140.702C140.796 237.88 140.872 237.804 140.872 237.71V177.1C140.872 177.006 140.796 176.93 140.702 176.93H133.162C133.068 176.93 132.992 177.006 132.992 177.1Z" fill="#6C6C6C"/>
<g opacity="0.4">
<path d="M140.783 183.51H133.183C133.106 183.51 133.043 183.573 133.043 183.65V189.65C133.043 189.728 133.106 189.79 133.183 189.79H140.783C140.86 189.79 140.923 189.728 140.923 189.65V183.65C140.923 183.573 140.86 183.51 140.783 183.51Z" fill="black"/>
</g>
<g opacity="0.4">
<path d="M140.732 226.89H133.132C133.055 226.89 132.992 226.953 132.992 227.03V233.03C132.992 233.107 133.055 233.17 133.132 233.17H140.732C140.809 233.17 140.872 233.107 140.872 233.03V227.03C140.872 226.953 140.809 226.89 140.732 226.89Z" fill="black"/>
</g>
<path d="M137.721 195.32V217.81C137.721 217.998 137.646 218.179 137.513 218.312C137.38 218.445 137.199 218.52 137.011 218.52C136.822 218.52 136.642 218.445 136.509 218.312C136.376 218.179 136.301 217.998 136.301 217.81V195.32C136.301 195.227 136.319 195.136 136.355 195.05C136.391 194.964 136.443 194.887 136.509 194.822C136.575 194.757 136.654 194.705 136.74 194.671C136.826 194.636 136.918 194.619 137.011 194.62C137.104 194.619 137.196 194.636 137.282 194.671C137.368 194.705 137.446 194.757 137.512 194.822C137.578 194.887 137.631 194.964 137.667 195.05C137.702 195.136 137.721 195.227 137.721 195.32Z" fill="white"/>
<path d="M119.051 30.22V76.8701C119.051 76.9639 119.127 77.04 119.221 77.04H132.831C132.925 77.04 133.001 76.9639 133.001 76.8701V30.22C133.001 30.1261 132.925 30.05 132.831 30.05H119.221C119.127 30.05 119.051 30.1261 119.051 30.22Z" fill="#838383"/>
<g opacity="0.4">
<path d="M132.861 33.7402H119.191C119.113 33.7402 119.051 33.8029 119.051 33.8802V39.1502C119.051 39.2276 119.113 39.2902 119.191 39.2902H132.861C132.938 39.2902 133.001 39.2276 133.001 39.1502V33.8802C133.001 33.8029 132.938 33.7402 132.861 33.7402Z" fill="black"/>
</g>
<g opacity="0.4">
<path d="M132.861 67.3198H119.191C119.113 67.3198 119.051 67.3825 119.051 67.4598V72.7298C119.051 72.8071 119.113 72.8698 119.191 72.8698H132.861C132.938 72.8698 133.001 72.8071 133.001 72.7298V67.4598C133.001 67.3825 132.938 67.3198 132.861 67.3198Z" fill="black"/>
</g>
<path d="M127.354 44.2298V62.8598C127.354 63.1913 127.222 63.5092 126.988 63.7436C126.753 63.9781 126.435 64.1098 126.104 64.1098C125.939 64.1111 125.775 64.0797 125.622 64.0175C125.47 63.9553 125.331 63.8634 125.213 63.7472C125.096 63.631 125.003 63.4928 124.94 63.3404C124.876 63.1881 124.844 63.0248 124.844 62.8598V44.2298C124.842 44.0639 124.874 43.8995 124.937 43.746C125 43.5925 125.093 43.4531 125.21 43.3358C125.327 43.2186 125.467 43.1258 125.62 43.063C125.774 43.0001 125.938 42.9684 126.104 42.9698C126.269 42.9698 126.432 43.0024 126.584 43.0659C126.737 43.1293 126.875 43.2223 126.991 43.3394C127.107 43.4565 127.199 43.5955 127.262 43.7483C127.324 43.9012 127.355 44.0648 127.354 44.2298Z" fill="white"/>
<path d="M140.863 24.08V76.87C140.863 76.9639 140.939 77.04 141.033 77.04H156.453C156.547 77.04 156.623 76.9639 156.623 76.87V24.08C156.623 23.9861 156.547 23.91 156.453 23.91H141.033C140.939 23.91 140.863 23.9861 140.863 24.08Z" fill="#343434"/>
<g opacity="0.4">
<path d="M156.491 28.0898H141.011C140.934 28.0898 140.871 28.1525 140.871 28.2299V34.2299C140.871 34.3072 140.934 34.3699 141.011 34.3699H156.491C156.568 34.3699 156.631 34.3072 156.631 34.2299V28.2299C156.631 28.1525 156.568 28.0898 156.491 28.0898Z" fill="black"/>
</g>
<g opacity="0.4">
<path d="M156.491 66.0498H141.011C140.934 66.0498 140.871 66.1125 140.871 66.1898V72.1898C140.871 72.2671 140.934 72.3298 141.011 72.3298H156.491C156.568 72.3298 156.631 72.2671 156.631 72.1898V66.1898C156.631 66.1125 156.568 66.0498 156.491 66.0498Z" fill="black"/>
</g>
<path d="M150.262 39.9498V61.0098C150.259 61.3856 150.109 61.7453 149.843 62.011C149.577 62.2768 149.218 62.4272 148.842 62.4298C148.465 62.4298 148.104 62.2802 147.838 62.0139C147.572 61.7476 147.422 61.3864 147.422 61.0098V39.9498C147.421 39.763 147.456 39.5777 147.527 39.4048C147.598 39.232 147.703 39.0749 147.835 38.9428C147.967 38.8106 148.124 38.7061 148.297 38.6352C148.47 38.5643 148.655 38.5285 148.842 38.5298C149.219 38.5298 149.58 38.6794 149.846 38.9457C150.112 39.212 150.262 39.5732 150.262 39.9498Z" fill="white"/>
<path d="M132.953 16.39V76.9999C132.953 77.0938 133.029 77.1699 133.123 77.1699H140.663C140.757 77.1699 140.833 77.0938 140.833 76.9999V16.39C140.833 16.2961 140.757 16.2199 140.663 16.2199H133.123C133.029 16.2199 132.953 16.2961 132.953 16.39Z" fill="#6C6C6C"/>
<g opacity="0.4">
<path d="M140.732 22.8101H133.132C133.055 22.8101 132.992 22.8727 132.992 22.9501V28.9501C132.992 29.0274 133.055 29.0901 133.132 29.0901H140.732C140.809 29.0901 140.872 29.0274 140.872 28.9501V22.9501C140.872 22.8727 140.809 22.8101 140.732 22.8101Z" fill="black"/>
</g>
<g opacity="0.4">
<path d="M140.693 66.1802H133.093C133.016 66.1802 132.953 66.2429 132.953 66.3202V72.3202C132.953 72.3975 133.016 72.4602 133.093 72.4602H140.693C140.77 72.4602 140.833 72.3975 140.833 72.3202V66.3202C140.833 66.2429 140.77 66.1802 140.693 66.1802Z" fill="black"/>
</g>
<path d="M137.64 34.6499V57.1299C137.642 57.2227 137.625 57.3148 137.59 57.4009C137.556 57.487 137.504 57.5653 137.439 57.6314C137.374 57.6975 137.296 57.7499 137.211 57.7857C137.125 57.8215 137.033 57.8399 136.94 57.8399C136.752 57.8399 136.572 57.7651 136.438 57.632C136.305 57.4988 136.23 57.3182 136.23 57.1299V34.6499C136.23 34.4616 136.305 34.281 136.438 34.1479C136.572 34.0147 136.752 33.9399 136.94 33.9399C137.033 33.9399 137.125 33.9584 137.211 33.9942C137.296 34.03 137.374 34.0824 137.439 34.1485C137.504 34.2145 137.556 34.2929 137.59 34.379C137.625 34.4651 137.642 34.5572 137.64 34.6499Z" fill="white"/>
<path d="M38.0508 257.05L38.0508 318H45.9308V257.05H38.0508Z" fill="#6C6C6C"/>
<g opacity="0.4">
<path d="M45.9816 263.64H38.1016V269.92H45.9816V263.64Z" fill="black"/>
</g>
<g opacity="0.4">
<path d="M45.9424 307.01H38.0625V313.29H45.9424V307.01Z" fill="black"/>
</g>
<path d="M42.7208 275.48V297.96C42.7208 298.148 42.646 298.329 42.5128 298.462C42.3797 298.595 42.199 298.67 42.0107 298.67C41.9175 298.67 41.8252 298.652 41.7391 298.616C41.6529 298.58 41.5747 298.528 41.5087 298.462C41.4428 298.396 41.3905 298.318 41.3548 298.232C41.3191 298.146 41.3008 298.053 41.3008 297.96V275.48C41.3008 275.387 41.3191 275.294 41.3548 275.208C41.3905 275.122 41.4428 275.044 41.5087 274.978C41.5747 274.912 41.6529 274.86 41.7391 274.824C41.8252 274.788 41.9175 274.77 42.0107 274.77C42.199 274.77 42.3797 274.845 42.5128 274.978C42.646 275.111 42.7208 275.292 42.7208 275.48Z" fill="white"/>
<path d="M132.871 265.13V318.26H148.631V265.13H132.871Z" fill="#838383"/>
<g opacity="0.4">
<path d="M148.631 269.31H132.871V275.59H148.631V269.31Z" fill="black"/>
</g>
<g opacity="0.4">
<path d="M148.631 307.27H132.871V313.55H148.631V307.27Z" fill="black"/>
</g>
<path d="M116.57 273.22V318.32H132.33V273.22H116.57Z" fill="#343434"/>
<g opacity="0.4">
<path d="M132.33 276.76H116.57V282.09H132.33V276.76Z" fill="black"/>
</g>
<g opacity="0.4">
<path d="M132.33 308.98H116.57V314.31H132.33V308.98Z" fill="black"/>
</g>
<path d="M45.4922 269.31V318.31H68.4422V269.31H45.4922Z" fill="#343434"/>
<g opacity="0.4">
<path d="M68.4421 273.17H45.4922V278.96H68.4421V273.17Z" fill="black"/>
</g>
<g opacity="0.4">
<path d="M68.4421 308.18H45.4922V313.97H68.4421V308.18Z" fill="black"/>
</g>
<path d="M148.691 257.36V318.31H156.571V257.36H148.691Z" fill="#6C6C6C"/>
<g opacity="0.4">
<path d="M156.622 263.95H148.742V270.23H156.622V263.95Z" fill="black"/>
</g>
<g opacity="0.4">
<path d="M156.571 307.32H148.691V313.6H156.571V307.32Z" fill="black"/>
</g>
<path d="M153.393 275.79V298.32C153.393 298.508 153.318 298.689 153.185 298.822C153.052 298.955 152.871 299.03 152.683 299.03C152.494 299.03 152.314 298.955 152.181 298.822C152.047 298.689 151.973 298.508 151.973 298.32V275.79C151.973 275.602 152.047 275.421 152.181 275.288C152.314 275.155 152.494 275.08 152.683 275.08C152.871 275.08 153.052 275.155 153.185 275.288C153.318 275.421 153.393 275.602 153.393 275.79Z" fill="white"/>
<path d="M84.7305 265.13V318.26H100.49V265.13H84.7305Z" fill="#6C6C6C"/>
<g opacity="0.4">
<path d="M100.49 269.31H84.7305V275.59H100.49V269.31Z" fill="black"/>
</g>
<g opacity="0.4">
<path d="M100.49 307.27H84.7305V313.55H100.49V307.27Z" fill="black"/>
</g>
<path d="M68.4336 273.22V318.32H84.1936V273.22H68.4336Z" fill="#838383"/>
<g opacity="0.4">
<path d="M84.1935 276.76H68.4336V282.09H84.1935V276.76Z" fill="black"/>
</g>
<g opacity="0.4">
<path d="M84.1935 308.98H68.4336V314.31H84.1935V308.98Z" fill="black"/>
</g>
<path d="M103.293 257.36V318.31H108.463V257.36H103.293Z" fill="#838383"/>
<g opacity="0.4">
<path d="M108.49 263.95H103.32V270.23H108.49V263.95Z" fill="black"/>
</g>
<g opacity="0.4">
<path d="M108.463 307.32H103.293V313.6H108.463V307.32Z" fill="black"/>
</g>
<path d="M106.364 275.55V298.55C106.364 298.672 106.315 298.789 106.229 298.875C106.143 298.962 106.026 299.01 105.904 299.01C105.781 299.01 105.663 298.962 105.575 298.876C105.487 298.79 105.436 298.673 105.434 298.55V275.55C105.434 275.425 105.483 275.306 105.571 275.218C105.659 275.13 105.779 275.08 105.904 275.08C105.965 275.08 106.025 275.092 106.082 275.116C106.138 275.14 106.19 275.175 106.232 275.218C106.275 275.262 106.309 275.314 106.331 275.371C106.354 275.428 106.365 275.489 106.364 275.55Z" fill="white"/>
<path d="M108.641 257.37V318.32H116.521V257.37H108.641Z" fill="#6C6C6C"/>
<g opacity="0.4">
<path d="M116.564 263.95H108.684V270.23H116.564V263.95Z" fill="black"/>
</g>
<g opacity="0.4">
<path d="M116.521 307.32H108.641V313.6H116.521V307.32Z" fill="black"/>
</g>
<path d="M113.33 275.79V298.32C113.33 298.508 113.255 298.689 113.122 298.822C112.989 298.955 112.808 299.03 112.62 299.03C112.432 299.03 112.251 298.955 112.118 298.822C111.985 298.689 111.91 298.508 111.91 298.32V275.79C111.91 275.602 111.985 275.421 112.118 275.288C112.251 275.155 112.432 275.08 112.62 275.08C112.808 275.08 112.989 275.155 113.122 275.288C113.255 275.421 113.33 275.602 113.33 275.79Z" fill="white"/>
<path d="M77.7131 142.85H65.9531V156.83H77.7131V142.85Z" fill="#F5F5F5"/>
<path d="M66.3622 141.94H13.2422V157.71H66.3622V141.94Z" fill="#838383"/>
<path d="M78.0714 143.26H64.9414V141.94H78.0714C78.2465 141.94 78.4144 142.009 78.5381 142.133C78.6619 142.257 78.7314 142.425 78.7314 142.6C78.7289 142.774 78.6585 142.941 78.5353 143.064C78.4121 143.187 78.2456 143.257 78.0714 143.26Z" fill="#838383"/>
<path d="M78.0714 157.7H64.9414V156.37H78.0714C78.2474 156.373 78.4153 156.444 78.5388 156.57C78.6623 156.695 78.7315 156.864 78.7314 157.04C78.7289 157.214 78.6585 157.381 78.5353 157.504C78.4121 157.627 78.2456 157.698 78.0714 157.7Z" fill="#838383"/>
<g opacity="0.4">
<path d="M62.1901 141.94H55.9102V157.71H62.1901V141.94Z" fill="black"/>
</g>
<path d="M77.7233 145.16C77.7233 145.16 75.1833 145.23 72.0433 145.23C68.9033 145.23 66.3633 145.23 66.3633 145.16C66.3633 145.09 68.9033 145.09 72.0433 145.09C75.1833 145.09 77.7233 145.12 77.7233 145.16Z" fill="#E0E0E0"/>
<path d="M77.7233 147.25C77.7233 147.25 75.1833 147.32 72.0433 147.32C68.9033 147.32 66.3633 147.32 66.3633 147.25C66.3633 147.18 68.9033 147.18 72.0433 147.18C75.1833 147.18 77.7233 147.22 77.7233 147.25Z" fill="#E0E0E0"/>
<path d="M77.7233 149.83C77.7233 149.83 75.1833 149.9 72.0433 149.9C68.9033 149.9 66.3633 149.9 66.3633 149.83C66.3633 149.76 68.9033 149.76 72.0433 149.76C75.1833 149.76 77.7233 149.8 77.7233 149.83Z" fill="#E0E0E0"/>
<path d="M77.7233 152.41C77.7233 152.41 75.1833 152.48 72.0433 152.48C68.9033 152.48 66.3633 152.48 66.3633 152.41C66.3633 152.34 68.9033 152.34 72.0433 152.34C75.1833 152.34 77.7233 152.38 77.7233 152.41Z" fill="#E0E0E0"/>
<path d="M77.7233 155C77.7233 155 75.1833 155.06 72.0433 155.06C68.9033 155.06 66.3633 155.06 66.3633 155C66.3633 154.94 68.9033 154.93 72.0433 154.93C75.1833 154.93 77.7233 154.96 77.7233 155Z" fill="#E0E0E0"/>
<path d="M50.4816 148.48H29.1216C28.4202 148.48 27.8516 149.049 27.8516 149.75V150.05C27.8516 150.751 28.4202 151.32 29.1216 151.32H50.4816C51.183 151.32 51.7516 150.751 51.7516 150.05V149.75C51.7516 149.049 51.183 148.48 50.4816 148.48Z" fill="white"/>
<path d="M114.272 191.61H101.262V204.76H114.272V191.61Z" fill="#F5F5F5"/>
<path d="M101.712 190.75H42.9023V205.59H101.712V190.75Z" fill="#838383"/>
<path d="M114.721 192H100.141V190.75H114.721C114.902 190.736 115.082 190.795 115.22 190.913C115.359 191.031 115.445 191.199 115.461 191.38C115.443 191.56 115.355 191.725 115.217 191.841C115.079 191.957 114.901 192.014 114.721 192Z" fill="#838383"/>
<path d="M114.721 205.59H100.141V204.32H114.721C114.902 204.306 115.082 204.364 115.22 204.482C115.359 204.6 115.445 204.768 115.461 204.95C115.454 205.041 115.43 205.129 115.389 205.21C115.349 205.292 115.292 205.364 115.224 205.424C115.155 205.483 115.075 205.528 114.989 205.557C114.902 205.586 114.811 205.597 114.721 205.59Z" fill="#838383"/>
<g opacity="0.4">
<path d="M97.0906 190.75H90.1406V205.59H97.0906V190.75Z" fill="black"/>
</g>
<g opacity="0.4">
<path d="M55.071 190.75H48.1211V205.59H55.071V190.75Z" fill="black"/>
</g>
<path d="M114.283 193.79C114.283 193.79 111.463 193.85 107.993 193.85C104.523 193.85 101.703 193.85 101.703 193.79C101.703 193.73 104.513 193.72 107.993 193.72C111.473 193.72 114.283 193.75 114.283 193.79Z" fill="#E0E0E0"/>
<path d="M114.283 195.76C114.283 195.76 111.463 195.82 107.993 195.82C104.523 195.82 101.703 195.82 101.703 195.76C101.703 195.7 104.513 195.69 107.993 195.69C111.473 195.69 114.283 195.72 114.283 195.76Z" fill="#E0E0E0"/>
<path d="M114.283 198.19C114.283 198.19 111.463 198.25 107.993 198.25C104.523 198.25 101.703 198.25 101.703 198.19C101.703 198.13 104.513 198.12 107.993 198.12C111.473 198.12 114.283 198.15 114.283 198.19Z" fill="#E0E0E0"/>
<path d="M114.283 200.61C114.283 200.61 111.463 200.68 107.993 200.68C104.523 200.68 101.703 200.68 101.703 200.61C101.703 200.54 104.513 200.55 107.993 200.55C111.473 200.55 114.283 200.58 114.283 200.61Z" fill="#E0E0E0"/>
<path d="M114.283 203.04C114.283 203.04 111.463 203.11 107.993 203.11C104.523 203.11 101.703 203.11 101.703 203.04C101.703 202.97 104.513 202.98 107.993 202.98C111.473 202.98 114.283 203.01 114.283 203.04Z" fill="#E0E0E0"/>
<path d="M114.144 205.88H100.934V213.89H114.144V205.88Z" fill="#FAFAFA"/>
<path d="M101.082 205.59H44.8516V214.19H101.082V205.59Z" fill="#6C6C6C"/>
<path d="M100.723 206.17H114.923C115.007 206.176 115.09 206.149 115.156 206.095C115.221 206.041 115.263 205.964 115.273 205.88C115.263 205.796 115.221 205.719 115.156 205.665C115.09 205.611 115.007 205.584 114.923 205.59H100.723V206.17Z" fill="#6C6C6C"/>
<path d="M100.723 214.19H114.923C114.962 214.191 115.002 214.184 115.039 214.17C115.076 214.155 115.11 214.133 115.138 214.105C115.166 214.077 115.188 214.043 115.203 214.006C115.217 213.969 115.224 213.93 115.223 213.89C115.223 213.851 115.215 213.812 115.2 213.776C115.184 213.741 115.162 213.708 115.134 213.681C115.106 213.654 115.073 213.633 115.037 213.619C115 213.605 114.962 213.598 114.923 213.6H100.723V214.19Z" fill="#6C6C6C"/>
<path d="M114.152 207.4C114.152 207.4 111.222 207.47 107.612 207.47C104.002 207.47 101.082 207.47 101.082 207.4C101.082 207.33 104.002 207.34 107.612 207.34C111.222 207.34 114.152 207.37 114.152 207.4Z" fill="#E0E0E0"/>
<path d="M114.152 208.92C114.152 208.92 111.222 208.98 107.612 208.98C104.002 208.98 101.082 208.98 101.082 208.92C101.082 208.86 104.002 208.85 107.612 208.85C111.222 208.85 114.152 208.88 114.152 208.92Z" fill="#E0E0E0"/>
<path d="M114.152 210.44C114.152 210.44 111.222 210.5 107.612 210.5C104.002 210.5 101.082 210.5 101.082 210.44C101.082 210.38 104.002 210.37 107.612 210.37C111.222 210.37 114.152 210.4 114.152 210.44Z" fill="#E0E0E0"/>
<path d="M114.152 211.95C114.152 211.95 111.222 212.02 107.612 212.02C104.002 212.02 101.082 212.02 101.082 211.95C101.082 211.88 104.002 211.89 107.612 211.89C111.222 211.89 114.152 211.92 114.152 211.95Z" fill="#E0E0E0"/>
<path d="M92.3932 208.67H53.6133V210.91H92.3932V208.67Z" fill="#343434"/>
<path d="M116.15 214.95H102.66V236.68H116.15V214.95Z" fill="#EBEBEB"/>
<path d="M102.673 214.19H39.3633V237.75H102.673V214.19Z" fill="#838383"/>
<path d="M117.214 237.74H100.934V236.21H117.214C117.433 236.196 117.65 236.269 117.816 236.413C117.982 236.557 118.086 236.761 118.104 236.98C118.086 237.199 117.982 237.401 117.815 237.544C117.649 237.686 117.432 237.757 117.214 237.74Z" fill="#838383"/>
<path d="M117.344 215.71H100.934V214.19H117.344C117.545 214.19 117.738 214.27 117.881 214.413C118.024 214.555 118.104 214.748 118.104 214.95C118.104 215.152 118.024 215.345 117.881 215.487C117.738 215.63 117.545 215.71 117.344 215.71Z" fill="#838383"/>
<g opacity="0.4">
<path d="M89.0505 214.19L75.7305 237.74H86.9805L99.6105 214.19H89.0505Z" fill="white"/>
</g>
<g opacity="0.4">
<path d="M68.0405 214.19L54.7305 237.74H65.9705L78.6005 214.19H68.0405Z" fill="white"/>
</g>
<path d="M116.15 217.86C116.15 217.86 113.15 217.93 109.41 217.93C105.67 217.93 102.66 217.93 102.66 217.86C102.66 217.79 105.66 217.8 109.41 217.8C113.16 217.8 116.15 217.83 116.15 217.86Z" fill="#E0E0E0"/>
<path d="M116.15 220.65C116.15 220.65 113.15 220.71 109.41 220.71C105.67 220.71 102.66 220.71 102.66 220.65C102.66 220.59 105.66 220.58 109.41 220.58C113.16 220.58 116.15 220.61 116.15 220.65Z" fill="#E0E0E0"/>
<path d="M116.15 223.43C116.15 223.43 113.15 223.5 109.41 223.5C105.67 223.5 102.66 223.5 102.66 223.43C102.66 223.36 105.66 223.37 109.41 223.37C113.16 223.37 116.15 223.4 116.15 223.43Z" fill="#E0E0E0"/>
<path d="M116.15 226.22C116.15 226.22 113.15 226.29 109.41 226.29C105.67 226.29 102.66 226.29 102.66 226.22C102.66 226.15 105.66 226.16 109.41 226.16C113.16 226.16 116.15 226.18 116.15 226.22Z" fill="#E0E0E0"/>
<path d="M116.15 229.01C116.15 229.01 113.15 229.07 109.41 229.07C105.67 229.07 102.66 229.07 102.66 229.01C102.66 228.95 105.66 228.94 109.41 228.94C113.16 228.94 116.15 228.97 116.15 229.01Z" fill="#E0E0E0"/>
<path d="M116.15 231.79C116.15 231.79 113.15 231.86 109.41 231.86C105.67 231.86 102.66 231.86 102.66 231.79C102.66 231.72 105.66 231.73 109.41 231.73C113.16 231.73 116.15 231.76 116.15 231.79Z" fill="#E0E0E0"/>
<path d="M116.15 234.58C116.15 234.58 113.15 234.65 109.41 234.65C105.67 234.65 102.66 234.65 102.66 234.58C102.66 234.51 105.66 234.51 109.41 234.51C113.16 234.51 116.15 234.54 116.15 234.58Z" fill="#E0E0E0"/>
<path d="M56.8229 303.65C56.418 303.647 56.0303 303.485 55.744 303.199C55.4576 302.912 55.2956 302.525 55.293 302.12V285.12C55.293 284.714 55.4542 284.325 55.7411 284.038C56.028 283.751 56.4172 283.59 56.8229 283.59C57.0242 283.589 57.2238 283.627 57.41 283.704C57.5963 283.78 57.7654 283.893 57.9078 284.035C58.0501 284.177 58.1628 284.347 58.2392 284.533C58.3156 284.719 58.3543 284.919 58.353 285.12V302.12C58.353 302.526 58.1918 302.915 57.9048 303.202C57.6179 303.489 57.2287 303.65 56.8229 303.65Z" fill="white"/>
<path d="M45.9407 141.78H29.5508L37.7408 127.59L45.9407 113.39L54.1407 127.59L62.3307 141.78H45.9407Z" fill="#E0E0E0"/>
<path d="M23.2618 372.97V384.05H19.4219V386.55H23.2618V398.63H94.9719V387.93H89.6619V384.93H94.9719V380.32H97.3318V378.25H94.5319V372.98L23.2618 372.97Z" fill="#F5F5F5"/>
<path d="M75.9336 373.04V398.37H94.9736V387.68H89.6636V384.88L94.9736 384.98V380.41H97.3835L97.3336 378.05L94.5336 377.98V372.97L75.9336 373.04Z" fill="#E0E0E0"/>
<path d="M77.2812 386.22C77.2812 386.36 64.2812 386.47 48.2812 386.47C32.2812 386.47 19.2812 386.36 19.2812 386.22C19.2812 386.08 32.2812 385.96 48.2812 385.96C64.2812 385.96 77.2812 386.08 77.2812 386.22Z" fill="#E0E0E0"/>
<path d="M77.2812 383.88C77.2812 384.02 64.2812 384.14 48.2812 384.14C32.2812 384.14 19.2812 384.02 19.2812 383.88C19.2812 383.74 32.2812 383.63 48.2812 383.63C64.2812 383.63 77.2812 383.74 77.2812 383.88Z" fill="#E0E0E0"/>
<path d="M81.0117 378.81C81.0117 378.95 68.0117 379.06 52.0117 379.06C36.0117 379.06 23.0117 378.95 23.0117 378.81C23.0117 378.67 36.0117 378.55 52.0117 378.55C68.0117 378.55 81.0117 378.67 81.0117 378.81Z" fill="#E0E0E0"/>
<path d="M81.3711 392.48C81.3711 392.62 68.3711 392.73 52.3711 392.73C36.3711 392.73 23.3711 392.62 23.3711 392.48C23.3711 392.34 36.3711 392.22 52.3711 392.22C68.3711 392.22 81.3711 392.32 81.3711 392.48Z" fill="#E0E0E0"/>
<path d="M24.8127 347.11V358.19H20.9727V360.69H24.8127V372.77H96.5226V362.07H91.2126V359.02H96.5226V354.45H98.8826V352.37H96.0826V347.11H24.8127Z" fill="#F5F5F5"/>
<path d="M77.4805 347.18V372.51H96.5204V361.82H91.2104V359.02L96.5204 359.12V354.55H98.9305L98.8804 352.19L96.0804 352.12V347.11L77.4805 347.18Z" fill="#E0E0E0"/>
<path d="M78.832 360.32C78.832 360.46 65.832 360.57 49.832 360.57C33.832 360.57 20.832 360.46 20.832 360.32C20.832 360.18 33.832 360.06 49.832 360.06C65.832 360.06 78.832 360.22 78.832 360.32Z" fill="#E0E0E0"/>
<path d="M78.832 358.02C78.832 358.16 65.832 358.28 49.832 358.28C33.832 358.28 20.832 358.16 20.832 358.02C20.832 357.88 33.832 357.77 49.832 357.77C65.832 357.77 78.832 357.88 78.832 358.02Z" fill="#E0E0E0"/>
<path d="M82.5625 352.95C82.5625 353.09 69.5625 353.2 53.5625 353.2C37.5625 353.2 24.5625 353.09 24.5625 352.95C24.5625 352.81 37.5625 352.69 53.5625 352.69C69.5625 352.69 82.5625 352.81 82.5625 352.95Z" fill="#E0E0E0"/>
<path d="M82.9102 366.62C82.9102 366.76 69.9102 366.87 53.9102 366.87C37.9102 366.87 24.9102 366.76 24.9102 366.62C24.9102 366.48 37.9102 366.36 53.9102 366.36C69.9102 366.36 82.9102 366.47 82.9102 366.62Z" fill="#E0E0E0"/>
</svg>
