
<svg width="5293" height="612" viewBox="0 0 5293 612" fill="none" xmlns="http://www.w3.org/2000/svg">
<path d="M0 174.96C1.19818 177.748 2.16482 181.576 2.45885 185.165C2.90725 190.67 3.70481 197.779 4.23039 200.961C4.75597 204.146 6.61206 210.252 8.3542 214.533C10.0963 218.813 10.9233 225.057 10.1882 228.413C9.45314 231.769 11.085 234.237 13.8122 233.907C16.5393 233.573 19.4539 238.681 20.2882 245.251C21.1225 251.822 23.8644 256.922 26.3857 256.585C28.907 256.247 32.5163 250.319 34.4091 243.414C36.3019 236.509 39.0952 229.519 40.6095 227.878C42.1238 226.237 47.0488 216.727 51.5512 206.741C51.5512 206.741 51.5512 206.741 51.6247 204.439C51.6982 202.138 51.6982 202.138 51.6982 202.138C51.9003 195.812 52.6685 187.89 53.4036 184.534C54.1387 181.182 55.8036 177.262 57.1047 175.825C58.4058 174.389 60.0413 171.334 60.7433 169.036C61.4453 166.738 62.7354 163.842 63.6102 162.602C64.4849 161.362 66.7306 160.746 68.594 161.229C70.4611 161.711 73.0155 167.324 74.2725 173.698C75.5295 180.072 76.7755 189.271 77.0364 194.134C77.2974 199.001 79.5504 208.745 82.0386 215.795C84.5306 222.844 86.28 232.229 85.9272 236.65C85.5744 241.071 86.0044 249.034 86.8791 254.339C87.7539 259.647 89.7349 267.139 91.2859 270.992C92.8333 274.842 98.7948 280.911 104.536 284.478C104.536 284.478 104.536 284.478 104.609 282.177C104.683 279.875 104.683 279.875 104.683 279.875C111.795 279.686 118.638 274.385 119.884 268.093C121.134 261.8 123.196 250.812 124.471 243.674C125.746 236.539 128.047 228.84 129.584 226.568C131.12 224.296 133.564 217.465 135.012 211.392C136.46 205.319 136.883 197.557 135.946 194.149C135.009 190.741 136.537 180.425 139.342 171.23C144.072 166.01 144.072 166.01 144.072 166.01C146.321 161.017 149.137 153.337 150.324 148.941C151.511 144.546 152.731 138.54 153.033 135.596C153.338 132.652 155.822 129.794 158.557 129.252C161.291 128.71 165.095 132.805 167.007 138.358C168.918 143.912 172.928 152.16 175.919 156.693C178.907 161.225 181.377 169.596 181.403 175.298C181.429 181 181.734 187.4 182.087 189.523C182.436 191.647 185.347 196.926 188.552 201.25C191.757 205.579 195.432 208.289 196.718 207.275C198.005 206.262 200.497 203.233 202.257 200.549C204.018 197.861 206.256 192.063 207.234 187.66C208.211 183.257 209.072 177.759 209.149 175.439C209.226 173.119 208.744 166.712 208.086 161.203C207.429 155.69 207.609 149.996 208.494 148.548C209.377 147.1 211.865 144.245 214.019 142.204C216.176 140.162 218.859 136.45 219.984 133.955C221.108 131.457 221.924 127.34 221.799 124.801C221.671 122.262 222.108 113.987 222.77 106.407C222.77 106.407 222.77 106.407 222.082 104.083C221.399 101.755 221.399 101.755 221.399 101.755C222.45 95.0326 225.082 87.6937 227.243 85.4404C229.404 83.1908 232.425 79.6604 233.954 77.6002C235.483 75.5399 237.523 70.595 238.489 66.6155C239.452 62.636 242.172 63.2412 244.528 67.9668C246.884 72.6888 249.35 81.0599 250.012 86.5726C250.67 92.0852 253.761 97.0224 256.881 97.5459C260.002 98.0693 263.273 102.669 264.155 107.766C265.037 112.862 265.801 121.007 265.853 125.863C265.904 130.722 267.404 137.333 269.179 140.559C270.958 143.785 273.178 149.213 274.111 152.62C275.049 156.028 275.718 161.752 275.604 165.338C275.49 168.924 277.03 174.155 279.029 176.969C281.028 179.779 284.461 184.727 286.656 187.968C288.85 191.209 290.838 198.526 291.073 204.235C291.309 209.944 292.639 216.378 294.036 218.534C295.429 220.691 298.086 223.197 299.938 224.103C301.791 225.009 305.264 223.394 307.657 220.517C310.049 217.64 312.953 212.38 314.114 208.827C315.276 205.278 318.466 201.755 321.208 200.998C323.95 200.244 327.43 203.641 328.945 208.545C330.459 213.449 331.94 220.58 332.234 224.392C332.528 228.205 333.502 235.143 334.399 239.82C335.292 244.494 337.133 251.12 338.486 254.543C339.839 257.966 342.992 261.006 345.491 261.299C347.991 261.593 351.993 259.477 354.386 256.6C356.779 253.723 359.987 249.684 361.516 247.62C363.045 245.559 367.849 239.843 372.186 234.917C372.186 234.917 372.186 234.917 372.259 232.615C372.333 230.313 372.333 230.313 372.333 230.313C372.454 226.516 374.027 220.175 375.828 216.225C377.629 212.272 380.904 206.162 383.105 202.646C385.307 199.131 388.89 194.063 391.07 191.391C393.246 188.718 395.973 190.763 397.131 195.942C398.289 201.117 401.89 207.858 405.136 210.921C408.381 213.983 413.203 220.016 415.853 224.325C418.503 228.635 420.242 234.794 419.72 238.016C419.198 241.235 418.246 246.042 417.603 248.696C416.96 251.35 420.385 258.255 425.218 264.043C422.293 276.23 421.999 278.294 421.638 280.814C421.278 283.335 424.296 285.277 428.342 285.128C432.389 284.98 439.615 283.606 444.404 282.073C449.193 280.54 454.632 274.5 456.492 268.649C458.352 262.799 460.054 256.061 460.267 253.674C460.484 251.287 460.248 247.943 459.745 246.235C459.241 244.531 462.505 242.334 466.996 241.354C466.996 241.354 466.996 241.353 470.051 240.941C473.105 240.529 473.105 240.529 473.105 240.529C475.431 237.508 476.225 234.081 474.869 232.912C473.513 231.739 470.132 230.477 467.357 230.105C464.582 229.734 459.929 229.003 457.021 228.487C454.11 227.971 451.556 225.929 451.339 223.951C451.126 221.972 451.788 219.117 452.809 217.603C453.835 216.088 455.952 214.083 457.514 213.152C459.076 212.216 461.774 209.889 463.508 207.973C465.243 206.058 466.835 202.657 467.044 200.412C467.257 198.166 469.415 191.328 471.841 185.214C471.841 185.214 471.841 185.214 473.359 185.262C474.876 185.31 474.877 185.31 474.877 185.31C478.938 180.376 482.54 174.738 482.882 172.778C483.223 170.818 482.911 166.318 482.191 162.773C481.466 159.232 479.077 155.583 476.876 154.666C474.674 153.749 473.517 150.831 474.296 148.184C475.079 145.534 477.585 142.048 479.868 140.433C482.15 138.818 485.778 135.945 487.928 134.044C490.078 132.144 493.265 128.795 495.007 126.601C496.749 124.407 498.55 118.015 499.009 112.402C499.009 112.402 499.009 112.402 500.071 110.903C501.134 109.403 505.316 105.445 507.389 103.975C509.462 102.509 509.462 102.509 509.462 102.509C510.899 101.15 512.134 98.1954 512.208 95.9458C512.281 93.6962 514.391 95.3779 516.901 99.6841C519.411 103.99 522.238 111.797 523.182 117.035C524.127 122.273 524.02 129.181 522.943 132.381C521.863 135.581 522.315 139.282 523.947 140.604C525.575 141.925 528.703 143.986 530.893 145.181C533.084 146.38 536.88 148.923 539.325 150.831C541.772 152.739 544.305 155.471 544.955 156.901C545.606 158.33 544.849 160.609 543.272 161.964C541.695 163.319 538.674 165.064 536.561 165.839C534.444 166.615 533.716 167.974 534.944 168.858C536.171 169.741 539.266 172.722 541.824 175.48C544.382 178.238 547.355 181.561 548.429 182.864C549.502 184.167 548.958 186.914 547.219 188.967C545.481 191.023 543 193.703 541.706 194.928C540.413 196.153 539.891 198.206 540.545 199.498C541.199 200.786 542.706 203.6 543.889 205.75C545.073 207.899 546.01 210.694 545.97 211.96C545.929 213.226 548.976 217.703 552.744 221.909C556.511 226.115 560.197 228.424 560.94 227.039C561.682 225.655 563.909 220.201 565.89 214.919C567.871 209.636 569.919 206.247 570.441 207.39C570.962 208.534 573.234 212.294 575.491 215.747C577.747 219.199 580.945 222.644 582.591 223.401C584.238 224.159 587.226 223.45 589.229 221.827C589.229 221.827 589.229 221.827 590.325 219.303C591.42 216.779 599.197 195.537 599.197 195.537C602.674 197.698 602.674 197.698 602.674 197.698C604.504 201.417 606.915 208.062 608.025 212.461C609.139 216.86 611.484 221.89 613.241 223.635C614.997 225.384 619.246 227.941 622.686 229.319C626.127 230.699 629.912 230.016 631.096 227.804C632.283 225.591 634.065 219.774 635.058 214.882C636.05 209.989 638.039 204.985 639.468 203.767C640.902 202.55 644.93 204.87 648.425 208.924C651.917 212.981 659.113 216.211 664.41 216.103C664.41 216.103 664.41 216.103 664.362 217.636C664.31 219.169 664.31 219.169 664.31 219.169C666.633 224.875 668.493 230.926 668.438 232.611C668.383 234.296 670.404 238.855 672.925 242.738C675.447 246.621 678.843 250.994 680.467 252.453C682.092 253.916 686.3 254.283 689.818 253.273C693.335 252.264 696.742 249.149 697.389 246.357C698.036 243.562 699.877 239.479 701.483 237.281C703.086 235.083 706.111 229.652 708.206 225.216C710.301 220.78 713.234 214.659 714.726 211.611C716.218 208.563 718.1 210.353 718.905 215.587C719.713 220.821 720.562 229.831 720.794 235.611C721.025 241.391 722.635 251.577 724.374 258.248C726.109 264.919 727.384 271.411 727.204 272.67C727.024 273.932 730.791 273.824 735.573 272.432C740.354 271.04 744.684 271.185 745.191 272.748C745.698 274.314 747.94 275.539 750.171 275.469C752.402 275.402 754.722 270.639 755.328 264.889C755.931 259.139 757.375 253.196 758.54 251.688C759.705 250.178 762.671 246.476 765.141 243.458C767.607 240.444 771.051 236.179 772.793 233.985C772.793 233.985 772.793 233.985 772.845 232.452C772.893 230.918 772.893 230.918 772.893 230.918C775.201 228.461 778.63 224.66 780.512 222.466C782.394 220.276 784.915 219.897 786.113 221.627C787.311 223.357 788.767 227.778 789.344 231.457C789.921 235.136 790.759 241.038 791.204 244.568C791.648 248.102 793.729 254.272 795.831 258.285C795.831 258.285 795.831 258.285 795.783 259.818C795.735 261.351 795.735 261.351 795.735 261.351C797.261 265.906 799.922 271.864 801.645 274.596C803.369 277.329 805.413 281.193 806.181 283.19C806.953 285.187 809.029 284.449 810.793 281.549C812.558 278.65 816.053 270.992 818.563 264.529C821.07 258.066 824.672 252.483 826.565 252.123C828.457 251.763 830.519 256.841 831.144 263.404C831.769 269.967 834.048 278.854 836.209 283.149C838.37 287.441 843.556 291.067 847.731 291.205C851.906 291.342 857.952 289.468 861.168 287.04C864.381 284.612 870.93 283.097 875.719 283.68C880.508 284.259 887.098 281.368 890.37 277.251C893.637 273.134 897.073 267.376 898.003 264.451C898.933 261.526 898.963 255.308 898.07 250.634C897.176 245.96 897.448 237.504 898.672 231.843C899.9 226.182 902.763 216.949 905.034 211.322C907.306 205.694 910.117 198.013 911.286 194.253C912.451 190.492 913.734 182.585 914.131 176.69C914.532 170.792 915.322 162.179 915.888 157.554C916.454 152.928 917.196 145.868 917.534 141.87C917.872 137.868 920.166 130.343 922.632 125.146C925.098 119.949 929.31 111.277 931.994 105.876C931.994 105.876 931.993 105.876 933.585 103.626C935.176 101.377 938.609 89.2045 940.226 86.1865C941.844 83.1684 941.844 83.1685 941.844 83.1685C945.026 75.2503 949.749 66.5933 952.344 63.9354C954.939 61.2774 959.048 50.5268 961.474 40.0509C961.474 40.0509 961.474 40.051 961.599 36.2163C961.724 32.3816 961.724 32.3815 961.724 32.3815C965.109 18.1377 970.387 8.28928 973.448 10.5018C976.514 12.7142 979.763 23.3572 980.67 34.1561C981.578 44.9549 983.184 58.8236 984.239 64.9822C985.294 71.1407 987.724 80.7221 989.635 86.2719C991.546 91.8254 994.023 110.561 995.137 127.912C995.137 127.912 995.137 127.912 995.038 130.978C994.938 134.044 994.938 134.044 994.938 134.044C994.784 151.774 996.894 171.363 999.617 177.574C1002.34 183.784 1007.1 195.344 1010.19 203.255C1013.28 211.17 1015.73 220.056 1015.64 223.011C1015.54 225.963 1018.16 224.496 1021.45 219.748C1024.73 215 1029.32 205.304 1031.64 198.203C1033.96 191.101 1035.86 179.935 1035.86 173.39C1035.86 166.845 1037.68 158.096 1039.91 153.946C1042.13 149.795 1046.17 141.12 1048.89 134.664C1051.61 128.209 1055.59 126.783 1057.73 131.501C1059.88 136.216 1061.98 150.623 1062.4 163.516C1062.83 176.408 1064.9 202.215 1067.02 220.866C1069.14 239.516 1073.63 248.644 1077.01 241.153C1080.39 233.662 1084.32 223.082 1085.75 217.64C1087.18 212.198 1089.31 198.967 1090.49 188.239C1091.67 177.511 1094.08 166.534 1095.84 163.846C1097.59 161.158 1100.56 154.001 1102.43 147.939C1104.3 141.877 1108.68 143.923 1112.17 152.483C1115.65 161.043 1119.98 175.521 1121.77 184.66C1123.57 193.796 1126.28 205.285 1127.79 210.193C1129.31 215.097 1133.31 218.167 1136.69 217.013C1140.08 215.858 1142.99 210.252 1143.18 204.558C1143.36 198.863 1144.97 191.317 1146.76 187.786C1148.54 184.256 1151.59 180.035 1153.52 178.413C1155.45 176.787 1157.88 181.011 1158.92 187.805C1159.96 194.594 1161.76 202.256 1162.93 204.825C1164.11 207.398 1168.58 201.154 1172.88 190.949C1177.18 180.744 1182.2 163.119 1184.02 151.778C1185.85 140.437 1188.76 135.177 1190.48 140.092C1192.2 145.007 1194.09 155.601 1194.66 163.646C1195.24 171.686 1196.21 183.985 1196.82 190.971C1197.43 197.958 1198.72 205.776 1199.69 208.341C1200.65 210.906 1203.63 213.768 1206.33 214.7C1209.01 215.632 1212.35 212.977 1213.73 208.801C1215.12 204.625 1216.43 195.857 1216.64 189.319C1216.85 182.782 1219.45 171.122 1222.42 163.404C1225.38 155.69 1229.34 144.416 1231.2 138.358C1233.07 132.296 1236.17 131.706 1238.09 137.048C1240.01 142.389 1243.43 153.04 1245.69 160.713C1247.95 168.386 1249.69 178.12 1249.56 182.337C1249.42 186.554 1251.58 193.707 1254.37 198.232C1257.15 202.758 1261.13 201.332 1263.21 195.07C1265.29 188.803 1270.37 179.816 1274.49 175.094C1278.62 170.372 1283.92 164.848 1286.29 162.814C1288.65 160.78 1292.15 163.657 1294.07 169.21C1295.98 174.764 1297.27 182.578 1296.93 186.58C1296.59 190.582 1299.54 200.003 1303.48 207.524C1307.42 215.041 1310.7 224.478 1310.78 228.494C1310.86 232.507 1314.28 237.975 1318.37 240.644C1318.37 240.644 1318.37 240.644 1318.47 237.578C1318.57 234.512 1318.57 234.512 1318.57 234.512C1321.92 221.53 1325.65 206.451 1326.87 201.005C1328.09 195.556 1330.74 187.523 1332.77 183.157C1334.79 178.788 1337.63 180.785 1339.08 187.586C1340.54 194.39 1342.93 205.007 1344.41 211.177C1345.88 217.347 1348.19 225.369 1349.53 229.003C1350.88 232.637 1354.38 235.514 1357.31 235.399C1360.24 235.284 1363.79 231.256 1365.2 226.445C1366.61 221.638 1368.06 213.738 1368.43 208.894C1368.79 204.049 1371.09 196.35 1373.54 191.788C1375.99 187.222 1379.07 181.969 1380.38 180.113C1381.69 178.257 1386.5 183.079 1391.05 190.826C1395.61 198.578 1398.56 208.003 1397.6 211.771C1396.64 215.539 1395.31 225.168 1394.63 233.172C1394.63 233.172 1394.63 233.172 1394.53 236.238C1394.43 239.304 1394.43 239.304 1394.43 239.304C1400.02 247.512 1407.04 252.75 1410.02 250.95C1413 249.149 1420.78 236.101 1427.29 221.957C1433.81 207.814 1438.54 193.804 1437.8 190.823C1437.06 187.842 1438.36 179.077 1440.71 171.341C1443.04 163.605 1447.84 152.88 1451.35 147.509C1454.87 142.133 1459.94 133.491 1462.61 128.302C1465.29 123.112 1469.9 112.896 1472.85 105.605C1475.8 98.3107 1479.96 96.7217 1482.08 102.071C1484.21 107.417 1487.17 121.853 1488.65 134.148C1490.14 146.443 1491.2 161.333 1491.01 167.239C1491.01 167.239 1491.01 167.239 1493.21 169.615C1495.42 171.991 1495.42 171.991 1495.42 171.991C1498.34 172.087 1504.22 159.495 1508.48 144.012C1508.48 144.012 1508.48 144.012 1510.14 139.461C1511.81 134.909 1511.81 134.909 1511.81 134.909C1515.56 122.366 1519.55 109.885 1520.68 107.179C1521.81 104.473 1524.52 110.78 1526.69 121.196C1528.86 131.613 1532.22 144.331 1534.14 149.465C1536.07 154.595 1536.95 164.47 1536.1 171.412C1535.25 178.35 1537.13 183.766 1540.27 183.447C1543.41 183.127 1547.98 179.304 1550.42 174.949C1552.86 170.595 1555.74 171.553 1556.82 177.08C1557.89 182.604 1559.38 189.39 1560.13 192.159C1560.88 194.929 1564 199.005 1567.06 201.217C1570.12 203.429 1573.94 207.182 1575.53 209.555C1577.13 211.927 1582.17 220.042 1586.73 227.581C1591.3 235.121 1598.89 238.306 1603.61 234.66C1608.32 231.015 1615.02 219.663 1618.48 209.428C1621.95 199.197 1625.46 185.492 1626.3 178.977C1627.14 172.458 1630.73 161.867 1634.28 155.438C1637.83 149.008 1643.36 147.29 1646.56 151.618C1646.56 151.618 1646.56 151.618 1648.84 151.692C1651.12 151.767 1651.12 151.767 1651.12 151.767C1658.34 148.203 1665.69 143.087 1667.45 140.403C1669.21 137.716 1671.84 130.547 1673.28 124.471C1674.73 118.394 1676.89 104.647 1678.07 93.9191C1679.25 83.1908 1683.13 68.8094 1686.7 61.9567C1690.26 55.1076 1696.29 59.2765 1700.08 71.2261C1703.88 83.1721 1711.06 99.3016 1716.03 107.064C1721.01 114.826 1724.71 127.388 1724.26 134.972C1723.8 142.556 1723.08 154.28 1722.66 161.025C1722.23 167.77 1726.09 175.495 1731.23 178.198C1736.37 180.9 1742.41 179.196 1744.65 174.415C1746.9 169.633 1752.17 159.959 1756.36 152.917C1760.56 145.875 1765.46 131.698 1767.26 121.415C1769.05 111.129 1772.59 102.09 1775.13 101.329C1777.66 100.568 1783.53 109.57 1788.17 121.334C1792.81 133.098 1796.91 149.127 1797.28 156.949C1797.66 164.774 1796.47 175.269 1794.63 180.276C1792.8 185.284 1795.78 188.317 1801.26 187.018C1806.73 185.718 1812.74 179.526 1814.62 173.253C1816.49 166.979 1818.73 155.998 1819.58 148.849C1820.44 141.699 1822.5 131.056 1824.15 125.198C1825.8 119.34 1828.23 118.212 1829.55 122.689C1830.87 127.166 1836.27 139.954 1841.56 151.106C1846.84 162.257 1851.64 177.789 1852.23 185.618C1852.81 193.447 1855.93 202.88 1859.16 206.574C1862.38 210.267 1868.1 207.865 1871.87 201.232C1875.64 194.598 1879.95 182.823 1881.45 175.061C1882.96 167.298 1885.2 156.143 1886.43 150.274C1887.67 144.401 1891.59 134.167 1895.15 127.529C1898.7 120.892 1903.74 123.821 1906.34 134.041C1908.94 144.26 1913.79 158.066 1917.13 164.718C1920.47 171.374 1924.88 183.265 1926.92 191.142C1928.97 199.019 1933.28 208.489 1936.51 212.187C1939.74 215.88 1944.22 214.818 1946.47 209.826C1948.72 204.833 1951.81 193.878 1953.33 185.484C1954.86 177.087 1959.15 166.003 1962.87 160.847C1966.59 155.69 1971.46 142.549 1973.69 131.643C1975.92 120.736 1980.66 117.091 1984.21 123.542C1987.76 129.991 1993.9 141.25 1997.85 148.555C2001.79 155.865 2006.74 172.265 2008.84 185.002C2008.84 185.002 2008.84 185.002 2011.07 186.609C2013.29 188.217 2013.29 188.217 2013.29 188.217C2018.75 200.642 2026.11 205.72 2029.65 199.502C2033.19 193.284 2039.07 180.867 2042.7 171.909C2046.33 162.951 2050.54 149.268 2052.04 141.506C2053.55 133.744 2056.45 123.301 2058.49 118.301C2060.53 113.301 2062.71 104.042 2063.33 97.7314C2063.95 91.4169 2066.69 91.3352 2069.42 97.5495C2072.15 103.76 2075.95 118.568 2077.86 130.455C2079.78 142.341 2083.44 155.935 2086.01 160.665C2088.58 165.394 2092.49 176.579 2094.71 185.518C2096.93 194.457 2101.94 203.604 2105.84 205.846C2109.74 208.085 2114.62 205.308 2116.68 199.676C2118.74 194.045 2121.66 183.257 2123.15 175.707C2124.65 168.156 2128.76 157.405 2132.28 151.822C2135.81 146.239 2139.58 135.306 2140.67 127.529C2141.76 119.752 2144.8 110.008 2147.44 105.872C2150.09 101.737 2153.73 105.312 2155.55 113.817C2157.37 122.321 2159.69 135.18 2160.71 142.393C2161.73 149.606 2162.75 160.694 2162.96 167.035C2163.18 173.375 2165.54 184.853 2168.22 192.541C2170.9 200.229 2173.79 211.552 2174.64 217.703C2175.48 223.854 2179.06 224.144 2182.6 218.349C2186.13 212.554 2190.4 201.982 2192.09 194.862C2193.79 187.738 2197.35 172.826 2200 161.723C2202.66 150.619 2207.73 136.45 2211.28 130.232C2214.82 124.014 2218.24 113.245 2218.89 106.299C2219.53 99.3536 2222.19 85.7929 2224.8 76.1671C2227.41 66.5413 2231.28 68.223 2233.42 79.9054C2235.55 91.5877 2238.78 108.278 2240.59 116.99C2242.4 125.707 2245 140.474 2246.37 149.81C2247.74 159.146 2251.25 161.678 2254.17 155.442C2257.09 149.205 2260.65 139.646 2262.08 134.204C2263.51 128.762 2266.59 117.982 2268.93 110.245C2271.27 102.509 2275.87 92.2968 2279.16 87.5489C2282.45 82.801 2285.29 84.7944 2285.48 91.9775C2285.67 99.1607 2287.82 111.842 2290.27 120.157C2292.73 128.472 2295.81 138.937 2297.13 143.414C2298.45 147.891 2301.9 152.149 2304.81 152.88C2307.71 153.608 2311.5 147.342 2313.24 138.952C2314.97 130.562 2318.27 118.409 2320.57 111.938C2322.86 105.468 2325.08 95.1775 2325.48 89.0672C2325.89 82.9569 2327.67 75.5881 2329.43 72.6889C2331.2 69.7897 2333.87 71.7794 2335.37 77.1065C2336.87 82.4335 2341.47 93.8113 2345.58 102.394C2349.69 110.973 2354.44 122.878 2356.13 128.843C2357.82 134.809 2358.76 148.143 2358.22 158.471C2357.68 168.798 2361.19 181.869 2366.02 187.515C2370.86 193.165 2380.57 194.346 2387.6 190.143C2394.64 185.941 2399.21 176.765 2397.76 169.749C2396.31 162.732 2397.4 150.33 2400.17 142.189C2402.94 134.044 2408.09 122.815 2411.61 117.228C2415.14 111.641 2422.14 101.336 2427.17 94.3237C2432.2 87.3114 2442.02 74.5041 2448.99 65.8658C2455.96 57.2275 2464.9 44.9104 2468.87 38.4957C2472.84 32.081 2476.94 21.5046 2477.99 14.9934C2479.04 8.48217 2481.65 1.83375 2483.79 0.21522C2485.93 -1.40331 2488.59 6.28466 2489.7 17.2988C2490.81 28.313 2490 47.9803 2487.91 61.0028C2485.82 74.0253 2486.93 92.7163 2490.37 102.543C2493.82 112.369 2496.95 126.635 2497.34 134.248C2497.72 141.862 2499.89 148.671 2502.17 149.38C2504.44 150.089 2507.42 142.757 2508.77 133.09C2510.13 123.424 2513.31 109.707 2515.83 102.613C2518.36 95.519 2524.36 84.4861 2529.16 78.1011C2533.97 71.7124 2540.45 61.5633 2543.57 55.5421C2546.69 49.5209 2551.63 39.6649 2554.54 33.6363C2557.45 27.6114 2561.82 30.1691 2564.24 39.3308C2566.66 48.4889 2571.47 63.8462 2574.92 73.4609C2578.38 83.0755 2581.46 104.079 2581.78 120.135C2581.78 120.135 2581.78 120.135 2581.71 122.436C2581.63 124.738 2581.63 124.738 2581.63 124.738C2580.93 133.584 2583.61 146.105 2587.58 152.572C2591.55 159.035 2597.6 162.346 2601.03 159.922C2604.45 157.502 2610.45 146.295 2614.37 135.024C2618.28 123.754 2624.01 110.639 2627.09 105.883C2630.17 101.128 2635.7 94.0562 2639.38 90.1658C2641.36 88.0684 2643.97 85.0988 2646.51 82.0993L2678.63 612H0V174.96Z" fill="#616666"/>
<path d="M5293 174.96C5291.8 177.748 5290.84 181.576 5290.54 185.165C5290.09 190.67 5289.3 197.779 5288.77 200.961C5288.24 204.146 5286.39 210.252 5284.65 214.533C5282.9 218.813 5282.08 225.057 5282.81 228.413C5283.55 231.769 5281.91 234.237 5279.19 233.907C5276.46 233.573 5273.55 238.681 5272.71 245.251C5271.88 251.822 5269.14 256.922 5266.61 256.585C5264.09 256.247 5260.48 250.319 5258.59 243.414C5256.7 236.509 5253.9 229.519 5252.39 227.878C5250.88 226.237 5245.95 216.727 5241.45 206.741C5241.45 206.741 5241.45 206.741 5241.38 204.439C5241.3 202.138 5241.3 202.138 5241.3 202.138C5241.1 195.812 5240.33 187.89 5239.6 184.534C5238.86 181.182 5237.2 177.262 5235.9 175.825C5234.59 174.389 5232.96 171.334 5232.26 169.036C5231.55 166.738 5230.26 163.842 5229.39 162.602C5228.52 161.362 5226.27 160.746 5224.41 161.229C5222.54 161.711 5219.98 167.324 5218.73 173.698C5217.47 180.072 5216.22 189.271 5215.96 194.134C5215.7 199.001 5213.45 208.745 5210.96 215.795C5208.47 222.844 5206.72 232.229 5207.07 236.65C5207.43 241.071 5207 249.034 5206.12 254.339C5205.25 259.647 5203.26 267.139 5201.71 270.992C5200.17 274.842 5194.21 280.911 5188.46 284.478C5188.46 284.478 5188.46 284.478 5188.39 282.177C5188.32 279.875 5188.32 279.875 5188.32 279.875C5181.21 279.686 5174.36 274.385 5173.12 268.093C5171.87 261.8 5169.8 250.812 5168.53 243.674C5167.25 236.539 5164.95 228.84 5163.42 226.568C5161.88 224.296 5159.44 217.465 5157.99 211.392C5156.54 205.319 5156.12 197.557 5157.05 194.149C5157.99 190.741 5156.46 180.425 5153.66 171.23C5148.93 166.01 5148.93 166.01 5148.93 166.01C5146.68 161.017 5143.86 153.337 5142.68 148.941C5141.49 144.546 5140.27 138.54 5139.97 135.596C5139.66 132.652 5137.18 129.794 5134.44 129.252C5131.71 128.71 5127.9 132.805 5125.99 138.358C5124.08 143.912 5120.07 152.16 5117.08 156.693C5114.09 161.225 5111.62 169.596 5111.6 175.298C5111.57 181 5111.27 187.4 5110.91 189.523C5110.56 191.647 5107.65 196.926 5104.45 201.25C5101.24 205.579 5097.57 208.289 5096.28 207.275C5095 206.262 5092.5 203.233 5090.74 200.549C5088.98 197.861 5086.74 192.063 5085.77 187.66C5084.79 183.257 5083.93 177.759 5083.85 175.439C5083.77 173.119 5084.26 166.712 5084.91 161.203C5085.57 155.69 5085.39 149.996 5084.51 148.548C5083.62 147.1 5081.14 144.245 5078.98 142.204C5076.82 140.162 5074.14 136.45 5073.02 133.955C5071.89 131.457 5071.08 127.34 5071.2 124.801C5071.33 122.262 5070.89 113.987 5070.23 106.407C5070.23 106.407 5070.23 106.407 5070.92 104.083C5071.6 101.755 5071.6 101.755 5071.6 101.755C5070.55 95.0326 5067.92 87.6937 5065.76 85.4404C5063.6 83.1908 5060.57 79.6604 5059.05 77.6002C5057.52 75.5399 5055.48 70.595 5054.51 66.6155C5053.55 62.636 5050.83 63.2412 5048.47 67.9668C5046.12 72.6888 5043.65 81.0599 5042.99 86.5726C5042.33 92.0852 5039.24 97.0224 5036.12 97.5459C5033 98.0693 5029.73 102.669 5028.84 107.766C5027.96 112.862 5027.2 121.007 5027.15 125.863C5027.1 130.722 5025.6 137.333 5023.82 140.559C5022.04 143.785 5019.82 149.213 5018.89 152.62C5017.95 156.028 5017.28 161.752 5017.4 165.338C5017.51 168.924 5015.97 174.155 5013.97 176.969C5011.97 179.779 5008.54 184.727 5006.34 187.968C5004.15 191.209 5002.16 198.526 5001.93 204.235C5001.69 209.944 5000.36 216.378 4998.96 218.534C4997.57 220.691 4994.91 223.197 4993.06 224.103C4991.21 225.009 4987.74 223.394 4985.34 220.517C4982.95 217.64 4980.05 212.38 4978.89 208.827C4977.72 205.278 4974.53 201.755 4971.79 200.998C4969.05 200.244 4965.57 203.641 4964.06 208.545C4962.54 213.449 4961.06 220.58 4960.77 224.392C4960.47 228.205 4959.5 235.143 4958.6 239.82C4957.71 244.494 4955.87 251.12 4954.51 254.543C4953.16 257.966 4950.01 261.006 4947.51 261.299C4945.01 261.593 4941.01 259.477 4938.61 256.6C4936.22 253.723 4933.01 249.684 4931.48 247.62C4929.95 245.559 4925.15 239.843 4920.81 234.917C4920.81 234.917 4920.81 234.917 4920.74 232.615C4920.67 230.313 4920.67 230.313 4920.67 230.313C4920.55 226.516 4918.97 220.175 4917.17 216.225C4915.37 212.272 4912.1 206.162 4909.89 202.646C4907.69 199.131 4904.11 194.063 4901.93 191.391C4899.75 188.718 4897.03 190.763 4895.87 195.942C4894.71 201.117 4891.11 207.858 4887.86 210.921C4884.62 213.983 4879.8 220.016 4877.15 224.325C4874.5 228.635 4872.76 234.794 4873.28 238.016C4873.8 241.235 4874.75 246.042 4875.4 248.696C4876.04 251.35 4872.62 258.255 4867.78 264.043C4870.71 276.23 4871 278.294 4871.36 280.814C4871.72 283.335 4868.7 285.277 4864.66 285.128C4860.61 284.98 4853.39 283.606 4848.6 282.073C4843.81 280.54 4838.37 274.5 4836.51 268.649C4834.65 262.799 4832.95 256.061 4832.73 253.674C4832.52 251.287 4832.75 247.943 4833.26 246.235C4833.76 244.531 4830.49 242.334 4826 241.354C4826 241.354 4826 241.353 4822.95 240.941C4819.89 240.529 4819.9 240.529 4819.9 240.529C4817.57 237.508 4816.77 234.081 4818.13 232.912C4819.49 231.739 4822.87 230.477 4825.64 230.105C4828.42 229.734 4833.07 229.003 4835.98 228.487C4838.89 227.971 4841.44 225.929 4841.66 223.951C4841.87 221.972 4841.21 219.117 4840.19 217.603C4839.17 216.088 4837.05 214.083 4835.49 213.152C4833.92 212.216 4831.23 209.889 4829.49 207.973C4827.76 206.058 4826.17 202.657 4825.96 200.412C4825.74 198.166 4823.59 191.328 4821.16 185.214C4821.16 185.214 4821.16 185.214 4819.64 185.262C4818.12 185.31 4818.12 185.31 4818.12 185.31C4814.06 180.376 4810.46 174.738 4810.12 172.778C4809.78 170.818 4810.09 166.318 4810.81 162.773C4811.53 159.232 4813.92 155.583 4816.12 154.666C4818.33 153.749 4819.48 150.831 4818.7 148.184C4817.92 145.534 4815.41 142.048 4813.13 140.433C4810.85 138.818 4807.22 135.945 4805.07 134.044C4802.92 132.144 4799.74 128.795 4797.99 126.601C4796.25 124.407 4794.45 118.015 4793.99 112.402C4793.99 112.402 4793.99 112.402 4792.93 110.903C4791.87 109.403 4787.68 105.445 4785.61 103.975C4783.54 102.509 4783.54 102.509 4783.54 102.509C4782.1 101.15 4780.87 98.1954 4780.79 95.9458C4780.72 93.6962 4778.61 95.3779 4776.1 99.6841C4773.59 103.99 4770.76 111.797 4769.82 117.035C4768.87 122.273 4768.98 129.181 4770.06 132.381C4771.14 135.581 4770.69 139.282 4769.05 140.604C4767.42 141.925 4764.3 143.986 4762.11 145.181C4759.92 146.38 4756.12 148.923 4753.68 150.831C4751.23 152.739 4748.7 155.471 4748.04 156.901C4747.39 158.33 4748.15 160.609 4749.73 161.964C4751.3 163.319 4754.33 165.064 4756.44 165.839C4758.56 166.615 4759.28 167.974 4758.06 168.858C4756.83 169.741 4753.73 172.722 4751.18 175.48C4748.62 178.238 4745.64 181.561 4744.57 182.864C4743.5 184.167 4744.04 186.914 4745.78 188.967C4747.52 191.023 4750 193.703 4751.29 194.928C4752.59 196.153 4753.11 198.206 4752.46 199.498C4751.8 200.786 4750.29 203.6 4749.11 205.75C4747.93 207.899 4746.99 210.694 4747.03 211.96C4747.07 213.226 4744.02 217.703 4740.26 221.909C4736.49 226.115 4732.8 228.424 4732.06 227.039C4731.32 225.655 4729.09 220.201 4727.11 214.919C4725.13 209.636 4723.08 206.247 4722.56 207.39C4722.04 208.534 4719.77 212.294 4717.51 215.747C4715.25 219.199 4712.06 222.644 4710.41 223.401C4708.76 224.159 4705.77 223.45 4703.77 221.827C4703.77 221.827 4703.77 221.827 4702.68 219.303C4701.58 216.779 4693.8 195.537 4693.8 195.537C4690.33 197.698 4690.33 197.698 4690.33 197.698C4688.5 201.417 4686.08 208.062 4684.97 212.461C4683.86 216.86 4681.52 221.89 4679.76 223.635C4678 225.384 4673.75 227.941 4670.31 229.319C4666.87 230.699 4663.09 230.016 4661.9 227.804C4660.72 225.591 4658.93 219.774 4657.94 214.882C4656.95 209.989 4654.96 204.985 4653.53 203.767C4652.1 202.55 4648.07 204.87 4644.57 208.924C4641.08 212.981 4633.89 216.211 4628.59 216.103C4628.59 216.103 4628.59 216.103 4628.64 217.636C4628.69 219.169 4628.69 219.169 4628.69 219.169C4626.37 224.875 4624.51 230.926 4624.56 232.611C4624.62 234.296 4622.6 238.855 4620.07 242.738C4617.55 246.621 4614.16 250.994 4612.53 252.453C4610.91 253.916 4606.7 254.283 4603.18 253.273C4599.66 252.264 4596.26 249.149 4595.61 246.357C4594.96 243.562 4593.12 239.479 4591.52 237.281C4589.91 235.083 4586.89 229.652 4584.79 225.216C4582.7 220.78 4579.77 214.659 4578.27 211.611C4576.78 208.563 4574.9 210.353 4574.1 215.587C4573.29 220.821 4572.44 229.831 4572.21 235.611C4571.97 241.391 4570.36 251.577 4568.63 258.248C4566.89 264.919 4565.62 271.411 4565.8 272.67C4565.98 273.932 4562.21 273.824 4557.43 272.432C4552.65 271.04 4548.32 271.185 4547.81 272.748C4547.3 274.314 4545.06 275.539 4542.83 275.469C4540.6 275.402 4538.28 270.639 4537.67 264.889C4537.07 259.139 4535.62 253.196 4534.46 251.688C4533.29 250.178 4530.33 246.476 4527.86 243.458C4525.39 240.444 4521.95 236.179 4520.21 233.985C4520.21 233.985 4520.21 233.985 4520.15 232.452C4520.11 230.918 4520.11 230.918 4520.11 230.918C4517.8 228.461 4514.37 224.66 4512.49 222.466C4510.61 220.276 4508.08 219.897 4506.89 221.627C4505.69 223.357 4504.23 227.778 4503.66 231.457C4503.08 235.136 4502.24 241.038 4501.8 244.568C4501.35 248.102 4499.27 254.272 4497.17 258.285C4497.17 258.285 4497.17 258.285 4497.22 259.818C4497.26 261.351 4497.26 261.351 4497.26 261.351C4495.74 265.906 4493.08 271.864 4491.35 274.596C4489.63 277.329 4487.59 281.193 4486.82 283.19C4486.05 285.187 4483.97 284.449 4482.21 281.549C4480.44 278.65 4476.95 270.992 4474.44 264.529C4471.93 258.066 4468.33 252.483 4466.44 252.123C4464.54 251.763 4462.48 256.841 4461.86 263.404C4461.23 269.967 4458.95 278.854 4456.79 283.149C4454.63 287.441 4449.44 291.067 4445.27 291.205C4441.09 291.342 4435.05 289.468 4431.83 287.04C4428.62 284.612 4422.07 283.097 4417.28 283.68C4412.49 284.259 4405.9 281.368 4402.63 277.251C4399.36 273.134 4395.93 267.376 4395 264.451C4394.07 261.526 4394.04 255.308 4394.93 250.634C4395.82 245.96 4395.55 237.504 4394.33 231.843C4393.1 226.182 4390.24 216.949 4387.97 211.322C4385.69 205.694 4382.88 198.013 4381.71 194.253C4380.55 190.492 4379.27 182.585 4378.87 176.69C4378.47 170.792 4377.68 162.179 4377.11 157.554C4376.55 152.928 4375.8 145.868 4375.47 141.87C4375.13 137.868 4372.83 130.343 4370.37 125.146C4367.9 119.949 4363.69 111.277 4361.01 105.876C4361.01 105.876 4361.01 105.876 4359.41 103.626C4357.82 101.377 4354.39 89.2045 4352.77 86.1865C4351.16 83.1684 4351.16 83.1685 4351.16 83.1685C4347.97 75.2503 4343.25 66.5933 4340.66 63.9354C4338.06 61.2774 4333.95 50.5268 4331.53 40.0509C4331.53 40.0509 4331.53 40.051 4331.4 36.2163C4331.28 32.3816 4331.28 32.3815 4331.28 32.3815C4327.89 18.1377 4322.61 8.28928 4319.55 10.5018C4316.49 12.7142 4313.24 23.3572 4312.33 34.1561C4311.42 44.9549 4309.82 58.8236 4308.76 64.9822C4307.71 71.1407 4305.28 80.7221 4303.37 86.2719C4301.45 91.8254 4298.98 110.561 4297.86 127.912C4297.86 127.912 4297.86 127.912 4297.96 130.978C4298.06 134.044 4298.06 134.044 4298.06 134.044C4298.22 151.774 4296.11 171.363 4293.38 177.574C4290.66 183.784 4285.9 195.344 4282.81 203.255C4279.72 211.17 4277.27 220.056 4277.36 223.011C4277.46 225.963 4274.84 224.496 4271.55 219.748C4268.26 215 4263.68 205.304 4261.36 198.203C4259.04 191.101 4257.14 179.935 4257.14 173.39C4257.14 166.845 4255.32 158.096 4253.09 153.946C4250.87 149.795 4246.83 141.12 4244.11 134.664C4241.39 128.209 4237.41 126.783 4235.27 131.501C4233.12 136.216 4231.02 150.623 4230.6 163.516C4230.17 176.408 4228.1 202.215 4225.98 220.866C4223.86 239.516 4219.37 248.644 4215.99 241.153C4212.61 233.662 4208.68 223.082 4207.25 217.64C4205.82 212.198 4203.69 198.967 4202.51 188.239C4201.33 177.511 4198.92 166.534 4197.16 163.846C4195.41 161.158 4192.44 154.001 4190.57 147.939C4188.7 141.877 4184.32 143.923 4180.83 152.483C4177.35 161.043 4173.02 175.521 4171.23 184.66C4169.43 193.796 4166.72 205.285 4165.21 210.193C4163.69 215.097 4159.69 218.167 4156.3 217.013C4152.92 215.858 4150.01 210.252 4149.82 204.558C4149.64 198.863 4148.03 191.317 4146.24 187.786C4144.46 184.256 4141.41 180.035 4139.48 178.413C4137.55 176.787 4135.12 181.011 4134.08 187.805C4133.04 194.594 4131.24 202.256 4130.07 204.825C4128.89 207.398 4124.42 201.154 4120.12 190.949C4115.82 180.744 4110.8 163.119 4108.98 151.778C4107.15 140.437 4104.24 135.177 4102.52 140.092C4100.8 145.007 4098.91 155.601 4098.34 163.646C4097.76 171.686 4096.79 183.985 4096.18 190.971C4095.57 197.958 4094.28 205.776 4093.31 208.341C4092.35 210.906 4089.37 213.768 4086.67 214.7C4083.99 215.632 4080.65 212.977 4079.26 208.801C4077.88 204.625 4076.57 195.857 4076.36 189.319C4076.15 182.782 4073.55 171.122 4070.58 163.404C4067.62 155.69 4063.66 144.416 4061.8 138.358C4059.93 132.296 4056.83 131.706 4054.91 137.048C4052.99 142.389 4049.57 153.04 4047.31 160.713C4045.05 168.386 4043.31 178.12 4043.44 182.337C4043.58 186.554 4041.42 193.707 4038.63 198.232C4035.85 202.758 4031.87 201.332 4029.79 195.07C4027.71 188.803 4022.63 179.816 4018.51 175.094C4014.38 170.372 4009.08 164.848 4006.71 162.814C4004.35 160.78 4000.85 163.657 3998.93 169.21C3997.02 174.764 3995.73 182.578 3996.07 186.58C3996.41 190.582 3993.46 200.003 3989.52 207.524C3985.58 215.041 3982.3 224.478 3982.22 228.494C3982.14 232.507 3978.72 237.975 3974.63 240.644C3974.63 240.644 3974.63 240.644 3974.53 237.578C3974.43 234.512 3974.43 234.512 3974.43 234.512C3971.08 221.53 3967.35 206.451 3966.13 201.005C3964.91 195.556 3962.25 187.523 3960.23 183.157C3958.21 178.788 3955.37 180.785 3953.92 187.586C3952.46 194.39 3950.07 205.007 3948.59 211.177C3947.12 217.347 3944.81 225.369 3943.47 229.003C3942.12 232.637 3938.62 235.514 3935.69 235.399C3932.76 235.284 3929.21 231.256 3927.8 226.445C3926.39 221.638 3924.94 213.738 3924.57 208.894C3924.21 204.049 3921.91 196.35 3919.46 191.788C3917.01 187.222 3913.93 181.969 3912.62 180.113C3911.31 178.257 3906.5 183.079 3901.95 190.826C3897.39 198.578 3894.44 208.003 3895.4 211.771C3896.35 215.539 3897.69 225.168 3898.37 233.172C3898.37 233.172 3898.37 233.172 3898.47 236.238C3898.57 239.304 3898.57 239.304 3898.57 239.304C3892.98 247.512 3885.96 252.75 3882.98 250.95C3880 249.149 3872.22 236.101 3865.71 221.957C3859.19 207.814 3854.46 193.804 3855.2 190.823C3855.94 187.842 3854.64 179.077 3852.29 171.341C3849.96 163.605 3845.16 152.88 3841.65 147.509C3838.13 142.133 3833.06 133.491 3830.39 128.302C3827.71 123.112 3823.1 112.896 3820.15 105.605C3817.2 98.3107 3813.04 96.7217 3810.92 102.071C3808.79 107.417 3805.83 121.853 3804.35 134.148C3802.86 146.443 3801.8 161.333 3801.99 167.239C3801.99 167.239 3801.99 167.239 3799.79 169.615C3797.58 171.991 3797.58 171.991 3797.58 171.991C3794.66 172.087 3788.78 159.495 3784.52 144.012C3784.52 144.012 3784.52 144.012 3782.85 139.461C3781.19 134.909 3781.19 134.909 3781.19 134.909C3777.44 122.366 3773.45 109.885 3772.32 107.179C3771.19 104.473 3768.48 110.78 3766.31 121.196C3764.14 131.613 3760.78 144.331 3758.86 149.465C3756.93 154.595 3756.05 164.47 3756.9 171.412C3757.75 178.35 3755.87 183.766 3752.73 183.447C3749.59 183.127 3745.02 179.304 3742.58 174.949C3740.14 170.595 3737.26 171.553 3736.18 177.08C3735.11 182.604 3733.62 189.39 3732.87 192.159C3732.12 194.929 3729 199.005 3725.94 201.217C3722.88 203.429 3719.06 207.182 3717.47 209.555C3715.87 211.927 3710.83 220.042 3706.27 227.581C3701.7 235.121 3694.11 238.306 3689.39 234.66C3684.68 231.015 3677.98 219.663 3674.52 209.428C3671.05 199.197 3667.54 185.492 3666.7 178.977C3665.86 172.458 3662.27 161.867 3658.72 155.438C3655.17 149.008 3649.64 147.29 3646.44 151.618C3646.44 151.618 3646.44 151.618 3644.16 151.692C3641.88 151.767 3641.88 151.767 3641.88 151.767C3634.66 148.203 3627.31 143.087 3625.55 140.403C3623.79 137.716 3621.16 130.547 3619.71 124.471C3618.27 118.394 3616.11 104.647 3614.93 93.9191C3613.75 83.1908 3609.87 68.8094 3606.3 61.9567C3602.74 55.1076 3596.71 59.2765 3592.92 71.2261C3589.12 83.1721 3581.94 99.3016 3576.97 107.064C3571.99 114.826 3568.29 127.388 3568.74 134.972C3569.2 142.556 3569.92 154.28 3570.34 161.025C3570.77 167.77 3566.91 175.495 3561.77 178.198C3556.63 180.9 3550.59 179.196 3548.35 174.415C3546.1 169.633 3540.83 159.959 3536.64 152.917C3532.44 145.875 3527.54 131.698 3525.74 121.415C3523.95 111.129 3520.41 102.09 3517.87 101.329C3515.34 100.568 3509.47 109.57 3504.83 121.334C3500.19 133.098 3496.09 149.127 3495.72 156.949C3495.34 164.774 3496.53 175.269 3498.37 180.276C3500.2 185.284 3497.22 188.317 3491.74 187.018C3486.27 185.718 3480.26 179.526 3478.38 173.253C3476.51 166.979 3474.27 155.998 3473.42 148.849C3472.56 141.699 3470.5 131.056 3468.85 125.198C3467.2 119.34 3464.77 118.212 3463.45 122.689C3462.13 127.166 3456.73 139.954 3451.44 151.106C3446.16 162.257 3441.36 177.789 3440.77 185.618C3440.19 193.447 3437.07 202.88 3433.84 206.574C3430.62 210.267 3424.9 207.865 3421.13 201.232C3417.36 194.598 3413.05 182.823 3411.55 175.061C3410.04 167.298 3407.8 156.143 3406.57 150.274C3405.33 144.401 3401.41 134.167 3397.85 127.529C3394.3 120.892 3389.26 123.821 3386.66 134.041C3384.06 144.26 3379.21 158.066 3375.87 164.718C3372.53 171.374 3368.12 183.265 3366.08 191.142C3364.03 199.019 3359.72 208.489 3356.49 212.187C3353.26 215.88 3348.78 214.818 3346.53 209.826C3344.28 204.833 3341.19 193.878 3339.67 185.484C3338.14 177.087 3333.85 166.003 3330.13 160.847C3326.41 155.69 3321.54 142.549 3319.31 131.643C3317.08 120.736 3312.34 117.091 3308.79 123.542C3305.24 129.991 3299.1 141.25 3295.15 148.555C3291.21 155.865 3286.26 172.265 3284.16 185.002C3284.16 185.002 3284.16 185.002 3281.93 186.609C3279.71 188.217 3279.71 188.217 3279.71 188.217C3274.25 200.642 3266.89 205.72 3263.35 199.502C3259.81 193.284 3253.93 180.867 3250.3 171.909C3246.67 162.951 3242.46 149.268 3240.96 141.506C3239.45 133.744 3236.55 123.301 3234.51 118.301C3232.47 113.301 3230.29 104.042 3229.67 97.7314C3229.05 91.4169 3226.31 91.3352 3223.58 97.5495C3220.85 103.76 3217.05 118.568 3215.14 130.455C3213.22 142.341 3209.55 155.935 3206.99 160.665C3204.42 165.394 3200.51 176.579 3198.29 185.518C3196.07 194.457 3191.06 203.604 3187.16 205.846C3183.26 208.085 3178.38 205.308 3176.32 199.676C3174.26 194.045 3171.34 183.257 3169.85 175.707C3168.35 168.156 3164.24 157.405 3160.72 151.822C3157.19 146.239 3153.42 135.306 3152.33 127.529C3151.24 119.752 3148.2 110.008 3145.55 105.872C3142.91 101.737 3139.27 105.312 3137.45 113.817C3135.63 122.321 3133.31 135.18 3132.29 142.393C3131.27 149.606 3130.25 160.694 3130.04 167.035C3129.82 173.375 3127.46 184.853 3124.78 192.541C3122.1 200.229 3119.21 211.552 3118.36 217.703C3117.52 223.854 3113.94 224.144 3110.4 218.349C3106.87 212.554 3102.6 201.982 3100.91 194.862C3099.21 187.738 3095.65 172.826 3093 161.723C3090.34 150.619 3085.27 136.45 3081.72 130.232C3078.18 124.014 3074.76 113.245 3074.11 106.299C3073.47 99.3536 3070.81 85.7929 3068.2 76.1671C3065.59 66.5413 3061.72 68.223 3059.58 79.9054C3057.45 91.5877 3054.22 108.278 3052.41 116.99C3050.6 125.707 3048 140.474 3046.63 149.81C3045.26 159.146 3041.75 161.678 3038.83 155.442C3035.91 149.205 3032.35 139.646 3030.92 134.204C3029.49 128.762 3026.41 117.982 3024.07 110.245C3021.73 102.509 3017.13 92.2968 3013.84 87.5489C3010.55 82.801 3007.71 84.7944 3007.52 91.9775C3007.33 99.1607 3005.18 111.842 3002.73 120.157C3000.27 128.472 2997.19 138.937 2995.87 143.414C2994.55 147.891 2991.1 152.149 2988.19 152.88C2985.29 153.608 2981.5 147.342 2979.76 138.952C2978.03 130.562 2974.73 118.409 2972.43 111.938C2970.14 105.468 2967.92 95.1775 2967.52 89.0672C2967.11 82.9569 2965.33 75.5881 2963.57 72.6889C2961.8 69.7897 2959.13 71.7794 2957.63 77.1065C2956.13 82.4335 2951.53 93.8113 2947.42 102.394C2943.31 110.973 2938.56 122.878 2936.87 128.843C2935.18 134.809 2934.24 148.143 2934.78 158.471C2935.32 168.798 2931.81 181.869 2926.98 187.515C2922.14 193.165 2912.43 194.346 2905.4 190.143C2898.36 185.941 2893.79 176.765 2895.24 169.749C2896.69 162.732 2895.6 150.33 2892.83 142.189C2890.06 134.044 2884.91 122.815 2881.39 117.228C2877.86 111.641 2870.86 101.336 2865.83 94.3237C2860.8 87.3114 2850.98 74.5041 2844.01 65.8658C2837.04 57.2275 2828.1 44.9104 2824.13 38.4957C2820.16 32.081 2816.06 21.5046 2815.01 14.9934C2813.96 8.48217 2811.35 1.83375 2809.21 0.21522C2807.07 -1.40331 2804.41 6.28466 2803.3 17.2988C2802.19 28.313 2803 47.9803 2805.09 61.0028C2807.18 74.0253 2806.07 92.7163 2802.63 102.543C2799.18 112.369 2796.05 126.635 2795.66 134.248C2795.28 141.862 2793.11 148.671 2790.83 149.38C2788.56 150.089 2785.58 142.757 2784.23 133.09C2782.87 123.424 2779.69 109.707 2777.17 102.613C2774.64 95.519 2768.64 84.4861 2763.84 78.1011C2759.03 71.7124 2752.55 61.5633 2749.43 55.5421C2746.31 49.5209 2741.37 39.6649 2738.46 33.6363C2735.55 27.6114 2731.18 30.1691 2728.76 39.3308C2726.34 48.4889 2721.53 63.8462 2718.08 73.4609C2714.62 83.0755 2711.54 104.079 2711.22 120.135C2711.22 120.135 2711.22 120.135 2711.29 122.436C2711.37 124.738 2711.37 124.738 2711.37 124.738C2712.07 133.584 2709.39 146.105 2705.42 152.572C2701.45 159.035 2695.4 162.346 2691.97 159.922C2688.55 157.502 2682.55 146.295 2678.63 135.024C2674.72 123.754 2668.99 110.639 2665.91 105.883C2662.83 101.128 2657.3 94.0562 2653.62 90.1658C2651.64 88.0684 2649.03 85.0988 2646.49 82.0993L2616.31 612H5293V174.96Z" fill="#616666"/>
</svg>
