<svg width="5307" height="348" viewBox="0 0 5307 348" fill="none" xmlns="http://www.w3.org/2000/svg">
<path d="M2675 347.673V89.9148C2672.82 84.803 2667.45 14.6861 2653.52 14.6861C2644.5 14.6861 2623.08 43.1206 2624.76 52.6236C2626.45 62.1265 2624.9 76.2957 2621.31 84.1083C2617.72 91.921 2616.51 104.533 2618.62 112.138C2620.73 119.739 2619 128.205 2614.78 130.951C2610.56 133.696 2603.82 128.685 2599.81 119.817C2595.79 110.949 2593.03 97.9911 2593.66 91.0218C2594.3 84.0525 2591.36 67.6396 2587.13 54.548C2582.91 41.4526 2576.69 21.7557 2573.31 10.7779C2569.93 -0.203646 2565.27 -3.31305 2562.94 3.86805C2560.62 11.0491 2555.95 25.2143 2552.58 35.3526C2549.2 45.4871 2543.5 60.8672 2539.9 69.5231C2536.32 78.1828 2532.51 90.9662 2531.46 97.9355C2530.4 104.905 2526.95 114.408 2523.78 119.052C2520.61 123.695 2520.09 130.434 2522.63 134.027C2525.16 137.616 2528.27 145.22 2529.54 150.923C2530.8 156.625 2528.56 164.401 2524.54 168.201C2520.53 172.001 2513.1 172.001 2508.03 168.201C2502.97 164.401 2499.17 154.207 2499.59 145.547C2500.01 136.887 2498.11 122.202 2495.36 112.911C2492.62 103.619 2487.78 89.1049 2484.61 80.657C2481.44 72.2091 2476.26 71.3474 2473.09 78.7365C2469.92 86.1293 2465.95 100.295 2464.26 110.221C2462.57 120.148 2458.94 133.967 2456.2 140.937C2453.45 147.906 2450.86 161.209 2450.44 170.501C2450.02 179.792 2445.87 190.677 2441.23 194.689C2436.58 198.701 2428.29 193.864 2422.8 183.938C2417.31 174.011 2411.6 159.501 2410.12 151.684C2408.65 143.868 2405.88 131.43 2403.98 124.041C2402.08 116.652 2396.2 101.101 2390.93 89.4838C2385.65 77.8707 2378.22 77.3506 2374.42 88.3321C2370.62 99.3137 2364.74 113.134 2361.36 119.048C2357.98 124.962 2354.87 138.957 2354.45 150.146C2354.03 161.339 2348.67 176.199 2342.55 183.165C2336.43 190.134 2329.86 192.036 2327.96 187.389C2326.06 182.741 2321.57 170.475 2317.98 160.128C2314.39 149.782 2308.34 130.947 2304.54 118.279C2300.74 105.607 2294.69 102.672 2291.1 111.752C2287.52 120.831 2284.06 135.346 2283.42 144.005C2282.79 152.665 2279.85 161.131 2276.9 162.818C2273.94 164.508 2269.62 160.017 2267.3 152.836C2264.98 145.655 2260.48 135.29 2257.32 129.799C2254.15 124.308 2250 124.999 2248.1 131.333C2246.2 137.667 2241.36 150.454 2237.35 159.746C2233.34 169.037 2228.5 182.34 2226.6 189.31C2224.69 196.279 2217.44 207.68 2210.47 214.65C2203.5 221.619 2192.79 233.195 2186.66 240.376C2180.54 247.557 2167.93 250.321 2158.63 246.521C2149.34 242.72 2134.66 242.546 2126 246.138C2117.34 249.727 2107.32 246.617 2103.73 239.228C2100.14 231.835 2099.62 220.95 2102.58 215.04C2105.54 209.126 2102.6 199.106 2096.05 192.768C2089.51 186.434 2083.63 172.611 2083 162.053C2082.37 151.495 2073.9 129.379 2064.18 112.907C2064.18 112.907 2064.18 112.907 2064.18 110.604C2064.18 108.3 2064.18 108.3 2064.18 108.3C2067.56 96.4754 2066.01 77.815 2060.73 66.8335C2055.45 55.8519 2048.02 55.8519 2044.22 66.8335C2040.42 77.815 2034.72 90.4274 2031.55 94.8631C2028.38 99.2988 2025.62 109.838 2025.4 118.286C2025.19 126.734 2021.22 138.136 2016.57 143.626C2011.93 149.117 2009.51 158.62 2011.2 164.742C2012.89 170.865 2009.78 174.84 2004.29 173.573C1998.8 172.306 1992.4 168.506 1990.08 165.125C1987.76 161.748 1983.61 164.683 1980.87 171.652C1978.12 178.622 1975.36 191.409 1974.72 200.065C1974.09 208.724 1968.56 213.041 1962.44 209.664C1956.32 206.287 1948.71 199.548 1945.55 194.689C1942.38 189.833 1939.1 176.181 1938.25 164.356C1937.41 152.531 1934.99 135.598 1932.87 126.727C1930.76 117.859 1927.3 106.108 1925.19 100.618C1923.08 95.1269 1917.73 94.7815 1913.29 99.8488C1908.86 104.916 1903.67 116.492 1901.77 125.575C1899.87 134.655 1894.34 150.035 1889.49 159.749C1884.63 169.464 1877.03 182.593 1872.59 188.931C1868.16 195.265 1863.15 209.434 1861.46 220.415C1859.77 231.397 1852.17 237.099 1844.57 233.087C1836.97 229.075 1829.54 217.499 1828.06 207.361C1826.58 197.226 1822.09 181.846 1818.08 173.19C1814.06 164.531 1810.43 146.91 1810.01 134.027C1809.59 121.143 1806.31 99.7224 1802.71 86.4152C1799.13 73.1118 1794.63 65.5072 1792.73 69.5231C1790.83 73.5353 1784.61 84.9403 1778.91 94.8631C1773.21 104.79 1768.02 121.894 1767.39 132.875C1766.76 143.857 1763.47 157.68 1760.09 163.591C1756.71 169.505 1752.05 183.325 1749.72 194.306C1747.4 205.288 1741.7 209.088 1737.05 202.754C1732.4 196.42 1726.88 180.349 1724.77 167.046C1722.65 153.742 1718.51 140.093 1715.55 136.713C1712.6 133.332 1707.76 136.271 1704.8 143.24C1701.85 150.209 1697.53 163.858 1695.2 173.573C1692.88 183.288 1690.12 198.839 1689.06 208.13C1688 217.421 1685.24 232.107 1682.91 240.766C1680.59 249.426 1674.02 255.816 1668.32 254.972C1662.62 254.129 1653.64 244.797 1648.36 234.239C1643.08 223.681 1635.31 205.366 1631.08 193.541C1626.86 181.716 1622.54 163.401 1621.48 152.843C1620.43 142.285 1615.94 122.068 1611.5 107.921C1607.06 93.7709 1601.37 88.5885 1598.83 96.4011C1596.29 104.214 1593.19 119.245 1591.92 129.806C1590.65 140.364 1586.33 160.236 1582.32 173.959C1578.31 187.686 1574.51 207.9 1573.87 218.881C1573.24 229.863 1568.57 238.329 1563.5 237.694C1558.44 237.059 1551.18 231.36 1547.38 225.022C1543.58 218.688 1540.12 201.235 1539.7 186.241C1539.27 171.247 1536.16 163.126 1532.79 168.194C1529.41 173.261 1524.74 184.491 1522.42 193.151C1520.1 201.811 1516.12 213.903 1513.59 220.029C1511.06 226.151 1508.81 237.902 1508.6 246.138C1508.39 254.374 1505.79 267.332 1502.84 274.933C1499.88 282.534 1492.97 286.164 1487.48 282.995C1481.99 279.826 1477.85 272.916 1478.27 267.637C1478.69 262.358 1479.21 251.298 1479.42 243.062C1479.63 234.826 1476.69 223.075 1472.89 216.953C1469.09 210.831 1464.26 202.019 1462.14 197.371C1460.03 192.727 1457.26 194.109 1456 200.444C1454.73 206.778 1450.24 222.158 1446.02 234.614C1441.79 247.074 1435.92 261.76 1432.96 267.25C1430 272.741 1422.75 280.517 1416.83 284.529C1410.92 288.541 1402.97 287.159 1399.17 281.457C1395.37 275.754 1386.39 265.389 1379.21 258.42C1372.03 251.45 1364.25 238.838 1361.93 230.39C1359.61 221.942 1354.77 208.639 1351.18 200.826C1347.59 193.013 1342.92 179.19 1340.81 170.11C1338.7 161.031 1334.21 159.82 1330.83 167.421C1327.45 175.022 1323.3 191.264 1321.61 203.512C1319.92 215.76 1315.61 231.311 1312.02 238.069C1308.43 244.827 1301.86 255.886 1297.43 262.644C1292.99 269.401 1283.32 269.918 1275.92 263.795C1268.53 257.669 1262.31 244.195 1262.1 233.845C1261.89 223.499 1260.34 209.155 1258.65 201.978C1256.96 194.797 1253.67 183.221 1251.35 176.251C1249.03 169.282 1244.88 168.591 1242.14 174.717C1239.39 180.843 1231.44 193.801 1224.48 203.516C1217.51 213.23 1210.77 231.371 1209.5 243.831C1208.23 256.291 1204.26 271.493 1200.67 277.619C1197.08 283.741 1187.23 284.436 1178.78 279.153C1170.34 273.874 1160.49 263.16 1156.9 255.348C1153.31 247.535 1149.68 234.577 1148.84 226.553C1147.99 218.528 1143.33 202.632 1138.47 191.23C1133.61 179.825 1127.91 165.831 1125.8 160.128C1123.69 154.426 1117.81 158.401 1112.74 168.959C1107.68 179.517 1103.18 195.413 1102.76 204.281C1102.34 213.149 1098.71 226.801 1094.7 234.614C1090.69 242.427 1083.09 252.966 1077.8 258.037C1072.52 263.104 1065.61 273.298 1062.45 280.691C1059.28 288.084 1045.63 298.623 1032.11 304.111C1018.6 309.601 1002.18 309.947 995.635 304.88C989.089 299.812 976.302 296.357 967.223 297.201C958.143 298.044 949.502 292.516 948.023 284.915C946.545 277.314 943.09 263.491 940.344 254.2C937.599 244.908 933.108 232.987 930.362 227.708C927.617 222.429 921.569 225.538 916.925 234.618C912.278 243.697 908.477 257.695 908.477 265.72C908.477 273.744 904.502 284.113 899.647 288.756C894.787 293.404 886.496 295.648 881.217 293.749C875.938 291.847 866.435 284.076 860.101 276.471C853.766 268.87 848.064 254.872 847.429 245.373C846.793 235.87 842.647 219.282 838.212 208.513C833.776 197.743 828.077 183.403 825.54 176.645C823.006 169.888 817.133 170.753 812.485 178.566C807.838 186.378 801.103 200.202 797.51 209.281C793.922 218.361 785.28 229.766 778.311 234.622C771.342 239.477 762.875 237.233 759.498 229.628C756.118 222.028 752.837 208.895 752.202 200.447C751.567 191.999 747.421 181.289 742.989 176.641C738.557 171.994 731.814 175.107 728.014 183.551C724.213 191.999 718.511 205.477 715.342 213.502C712.173 221.526 705.954 220.319 701.518 210.816C697.083 201.313 689.307 181.096 684.24 165.894C679.173 150.689 674.507 130.475 673.875 120.972C673.24 111.469 669.268 99.8932 665.044 95.2495C660.82 90.602 654.772 92.5042 651.607 99.4735C648.438 106.443 643.776 120.957 641.242 131.727C638.709 142.497 633.181 157.357 628.957 164.746C624.733 172.135 620.067 185.268 618.592 193.927C617.113 202.587 614.866 217.789 613.599 227.715C612.332 237.642 607.495 250.254 602.848 255.745C598.2 261.236 586.624 262.332 577.122 258.175C567.619 254.021 558.116 243.251 556.005 234.242C553.895 225.234 548.824 208.185 544.742 196.357C540.659 184.532 535.592 181.077 533.478 188.678C531.368 196.279 526.066 206.763 521.705 211.971C517.34 217.18 514.345 228.93 515.048 238.08C515.75 247.23 509.3 257.253 500.715 260.352C492.126 263.45 483.489 254.463 481.516 240.387C479.543 226.307 473.44 216.058 467.949 217.607C462.458 219.156 455.433 213.974 452.335 206.087C449.236 198.203 448.891 186.683 451.566 180.49C454.24 174.297 451.016 168.535 444.399 167.692C437.783 166.849 433.983 160.972 435.952 154.638C437.924 148.303 434.926 138.395 429.298 132.622C423.666 126.849 416.986 114.987 414.453 106.257C411.919 97.5305 405.931 83.2463 401.142 74.5161C396.353 65.7858 390.595 63.2522 388.344 68.8842C386.092 74.5161 381.367 83.1536 377.849 88.0834C374.331 93.0095 373.064 101.881 375.033 107.791C377.002 113.706 374.297 121.422 369.018 124.94C363.739 128.458 360.63 138.076 362.108 146.312C363.587 154.549 363.067 169.754 360.957 180.1C358.847 190.446 355.388 194.596 353.278 189.317C351.168 184.038 345.982 176.088 341.758 171.656C337.534 167.22 331.315 158.063 327.934 151.305C324.554 144.548 319.546 144.202 316.8 150.54C314.055 156.874 310.08 166.377 307.97 171.656C305.86 176.935 301.194 186.783 297.601 193.541C294.013 200.299 290.728 216.541 290.305 229.632C289.881 242.724 285.736 253.783 281.092 254.207C276.444 254.63 267.461 244.262 261.127 231.17C261.127 231.17 261.127 231.17 261.127 228.867C261.127 226.564 261.127 226.564 261.127 226.564C259.437 216.006 253.047 200.455 246.921 192.007C240.795 183.559 232.158 183.388 227.722 191.624C223.286 199.86 218.97 211.782 218.122 218.116C217.279 224.45 216.759 236.026 216.971 243.842C217.183 251.655 213.208 260.641 208.14 263.806C203.073 266.972 198.062 264.037 197.006 257.279C195.951 250.522 191.111 241.019 186.255 236.163C181.4 231.308 175.006 220.768 172.049 212.74C169.092 204.716 164.946 203.159 162.832 209.285C160.722 215.408 156.572 224.049 153.619 228.484C150.662 232.92 148.072 243.46 147.861 251.904C147.649 260.352 143.503 266.225 138.648 264.958C133.792 263.691 125.842 260.237 120.986 257.279C116.127 254.322 115.44 245.51 119.452 237.698C123.464 229.885 123.293 220.382 119.069 216.582C114.846 212.781 107.936 205.176 103.712 199.686C99.4877 194.195 96.3782 181.582 96.8017 171.656C97.2253 161.729 93.4211 150.328 88.3538 146.316C83.2866 142.304 75.682 129.862 71.458 118.673C67.2341 107.479 61.3607 105.926 58.4035 115.218C55.4464 124.509 50.9549 135.394 48.4213 139.406C45.8877 143.418 43.4692 150.848 43.0457 155.915C42.6222 160.983 38.9964 168.067 34.9842 171.656C30.972 175.245 26.9969 182.158 26.1536 187.014C25.3103 191.869 25.8267 200.51 27.3052 206.213C28.7838 211.915 27.4018 220.553 24.2329 225.412C21.064 230.268 14.6705 236.145 10.0268 238.467C5.37932 240.788 5.55392 247.873 10.4094 254.207C15.2649 260.541 14.2284 269.528 8.10613 274.175C5.72853 275.981 2.88655 277.808 0 279.45V347.684H2675V347.673Z" fill="#3D4040"/>
<path d="M2632 347.673V89.9148C2634.19 84.803 2639.55 14.6861 2653.48 14.6861C2662.5 14.6861 2683.93 43.1206 2682.24 52.6236C2680.55 62.1265 2682.11 76.2957 2685.7 84.1083C2689.28 91.921 2690.5 104.533 2688.38 112.138C2686.27 119.739 2688 128.205 2692.22 130.951C2696.45 133.696 2703.19 128.685 2707.2 119.817C2711.21 110.949 2713.97 97.9911 2713.34 91.0218C2712.71 84.0525 2715.65 67.6396 2719.87 54.548C2724.09 41.4526 2730.31 21.7557 2733.69 10.7779C2737.07 -0.203646 2741.74 -3.31305 2744.06 3.86805C2746.38 11.0491 2751.05 25.2143 2754.43 35.3526C2757.8 45.4871 2763.51 60.8672 2767.1 69.5231C2770.69 78.1828 2774.49 90.9662 2775.55 97.9355C2776.6 104.905 2780.06 114.408 2783.23 119.052C2786.39 123.695 2786.91 130.434 2784.38 134.027C2781.84 137.616 2778.73 145.22 2777.47 150.923C2776.2 156.625 2778.45 164.401 2782.46 168.201C2786.47 172.001 2793.9 172.001 2798.97 168.201C2804.04 164.401 2807.84 154.207 2807.42 145.547C2806.99 136.887 2808.9 122.202 2811.64 112.911C2814.39 103.619 2819.22 89.1049 2822.39 80.657C2825.56 72.2091 2830.74 71.3474 2833.91 78.7365C2837.08 86.1293 2841.05 100.295 2842.74 110.221C2844.43 120.148 2848.06 133.967 2850.81 140.937C2853.55 147.906 2856.14 161.209 2856.56 170.501C2856.99 179.792 2861.13 190.677 2865.78 194.689C2870.42 198.701 2878.72 193.864 2884.21 183.938C2889.7 174.011 2895.4 159.501 2896.88 151.684C2898.36 143.868 2901.12 131.43 2903.02 124.041C2904.93 116.652 2910.8 101.101 2916.08 89.4838C2921.36 77.8707 2928.79 77.3506 2932.59 88.3321C2936.39 99.3137 2942.26 113.134 2945.64 119.048C2949.02 124.962 2952.13 138.957 2952.55 150.146C2952.98 161.339 2958.33 176.199 2964.46 183.165C2970.58 190.134 2977.15 192.036 2979.04 187.389C2980.95 182.741 2985.44 170.475 2989.03 160.128C2992.61 149.782 2998.66 130.947 3002.46 118.279C3006.26 105.607 3012.31 102.672 3015.9 111.752C3019.49 120.831 3022.94 135.346 3023.58 144.005C3024.21 152.665 3027.15 161.131 3030.11 162.818C3033.06 164.508 3037.38 160.017 3039.71 152.836C3042.03 145.655 3046.52 135.29 3049.69 129.799C3052.86 124.308 3057 124.999 3058.91 131.333C3060.81 137.667 3065.64 150.454 3069.66 159.746C3073.67 169.037 3078.51 182.34 3080.41 189.31C3082.31 196.279 3089.56 207.68 3096.53 214.65C3103.5 221.619 3114.21 233.195 3120.34 240.376C3126.46 247.557 3139.08 250.321 3148.37 246.521C3157.66 242.72 3172.35 242.546 3181.01 246.138C3189.67 249.727 3199.68 246.617 3203.27 239.228C3206.86 231.835 3207.38 220.95 3204.43 215.04C3201.47 209.126 3204.41 199.106 3210.95 192.768C3217.5 186.434 3223.37 172.611 3224.01 162.053C3224.64 151.495 3233.11 129.379 3242.82 112.907C3242.82 112.907 3242.82 112.907 3242.82 110.604C3242.82 108.3 3242.82 108.3 3242.82 108.3C3239.44 96.4754 3241 77.815 3246.27 66.8335C3251.55 55.8519 3258.98 55.8519 3262.78 66.8335C3266.58 77.815 3272.29 90.4274 3275.46 94.8631C3278.62 99.2988 3281.39 109.838 3281.6 118.286C3281.81 126.734 3285.79 138.136 3290.43 143.626C3295.08 149.117 3297.5 158.62 3295.81 164.742C3294.12 170.865 3297.23 174.84 3302.72 173.573C3308.21 172.306 3314.6 168.506 3316.92 165.125C3319.24 161.748 3323.39 164.683 3326.14 171.652C3328.88 178.622 3331.65 191.409 3332.28 200.065C3332.92 208.724 3338.44 213.041 3344.57 209.664C3350.69 206.287 3358.29 199.548 3361.46 194.689C3364.63 189.833 3367.91 176.181 3368.75 164.356C3369.6 152.531 3372.02 135.598 3374.13 126.727C3376.24 117.859 3379.7 106.108 3381.81 100.618C3383.92 95.1269 3389.28 94.7815 3393.71 99.8488C3398.15 104.916 3403.33 116.492 3405.23 125.575C3407.13 134.655 3412.66 150.035 3417.52 159.749C3422.37 169.464 3429.98 182.593 3434.41 188.931C3438.85 195.265 3443.85 209.434 3445.54 220.415C3447.23 231.397 3454.83 237.099 3462.44 233.087C3470.04 229.075 3477.47 217.499 3478.95 207.361C3480.42 197.226 3484.92 181.846 3488.93 173.19C3492.94 164.531 3496.57 146.91 3496.99 134.027C3497.42 121.143 3500.7 99.7224 3504.29 86.4152C3507.88 73.1118 3512.37 65.5072 3514.27 69.5231C3516.17 73.5353 3522.39 84.9403 3528.09 94.8631C3533.8 104.79 3538.98 121.894 3539.61 132.875C3540.25 143.857 3543.53 157.68 3546.91 163.591C3550.29 169.505 3554.95 183.325 3557.28 194.306C3559.6 205.288 3565.3 209.088 3569.95 202.754C3574.6 196.42 3580.13 180.349 3582.24 167.046C3584.35 153.742 3588.5 140.093 3591.45 136.713C3594.41 133.332 3599.24 136.271 3602.2 143.24C3605.16 150.209 3609.48 163.858 3611.8 173.573C3614.12 183.288 3616.89 198.839 3617.95 208.13C3619 217.421 3621.76 232.107 3624.09 240.766C3626.41 249.426 3632.98 255.816 3638.68 254.972C3644.38 254.129 3653.36 244.797 3658.64 234.239C3663.92 223.681 3671.7 205.366 3675.92 193.541C3680.15 181.716 3684.47 163.401 3685.52 152.843C3686.58 142.285 3691.07 122.068 3695.5 107.921C3699.94 93.7709 3705.64 88.5885 3708.18 96.4011C3710.71 104.214 3713.82 119.245 3715.09 129.806C3716.35 140.364 3720.67 160.236 3724.69 173.959C3728.7 187.686 3732.5 207.9 3733.13 218.881C3733.77 229.863 3738.43 238.329 3743.5 237.694C3748.57 237.059 3755.83 231.36 3759.63 225.022C3763.43 218.688 3766.88 201.235 3767.31 186.241C3767.73 171.247 3770.84 163.126 3774.22 168.194C3777.6 173.261 3782.26 184.491 3784.58 193.151C3786.9 201.811 3790.88 213.903 3793.41 220.029C3795.95 226.151 3798.19 237.902 3798.41 246.138C3798.62 254.374 3801.21 267.332 3804.16 274.933C3807.12 282.534 3814.03 286.163 3819.52 282.995C3825.01 279.826 3829.16 272.916 3828.73 267.637C3828.31 262.358 3827.8 251.298 3827.58 243.062C3827.37 234.826 3830.31 223.075 3834.11 216.953C3837.91 210.831 3842.75 202.019 3844.86 197.371C3846.97 192.727 3849.74 194.109 3851.01 200.444C3852.27 206.778 3856.76 222.158 3860.99 234.614C3865.21 247.074 3871.09 261.76 3874.04 267.25C3877 272.741 3884.26 280.517 3890.17 284.529C3896.08 288.541 3904.03 287.159 3907.83 281.457C3911.63 275.754 3920.62 265.389 3927.8 258.42C3934.98 251.45 3942.75 238.838 3945.07 230.39C3947.4 221.942 3952.23 208.639 3955.83 200.826C3959.41 193.013 3964.08 179.19 3966.19 170.11C3968.3 161.031 3972.8 159.82 3976.18 167.421C3979.56 175.022 3983.7 191.264 3985.39 203.512C3987.08 215.76 3991.4 231.311 3994.99 238.069C3998.58 244.827 4005.15 255.886 4009.58 262.644C4014.01 269.401 4023.69 269.918 4031.08 263.795C4038.47 257.669 4044.69 244.195 4044.9 233.845C4045.11 223.499 4046.67 209.155 4048.36 201.978C4050.05 194.797 4053.33 183.221 4055.65 176.251C4057.98 169.282 4062.12 168.591 4064.87 174.717C4067.61 180.843 4075.56 193.801 4082.53 203.516C4089.5 213.23 4096.24 231.371 4097.5 243.831C4098.77 256.291 4102.75 271.493 4106.33 277.619C4109.92 283.741 4119.77 284.436 4128.22 279.153C4136.67 273.874 4146.52 263.16 4150.1 255.348C4153.69 247.535 4157.32 234.577 4158.17 226.553C4159.01 218.528 4163.68 202.632 4168.53 191.23C4173.39 179.825 4179.09 165.831 4181.21 160.128C4183.32 154.426 4189.19 158.401 4194.26 168.959C4199.33 179.517 4203.82 195.413 4204.24 204.281C4204.67 213.149 4208.29 226.801 4212.3 234.614C4216.32 242.427 4223.92 252.966 4229.2 258.037C4234.48 263.104 4241.39 273.298 4244.56 280.691C4247.73 288.084 4261.38 298.623 4274.89 304.111C4288.41 309.601 4304.82 309.947 4311.37 304.88C4317.91 299.812 4330.7 296.357 4339.78 297.201C4348.86 298.044 4357.5 292.516 4358.98 284.915C4360.46 277.314 4363.91 263.491 4366.66 254.2C4369.4 244.908 4373.9 232.987 4376.64 227.708C4379.39 222.429 4385.44 225.538 4390.08 234.618C4394.73 243.697 4398.53 257.695 4398.53 265.72C4398.53 273.744 4402.5 284.113 4407.36 288.756C4412.22 293.404 4420.51 295.648 4425.79 293.749C4431.07 291.847 4440.57 284.076 4446.9 276.471C4453.24 268.87 4458.94 254.872 4459.58 245.373C4460.21 235.87 4464.36 219.282 4468.79 208.513C4473.23 197.743 4478.93 183.403 4481.46 176.645C4484 169.888 4489.87 170.753 4494.52 178.566C4499.17 186.378 4505.9 200.202 4509.49 209.281C4513.08 218.361 4521.72 229.766 4528.69 234.622C4535.66 239.477 4544.13 237.233 4547.51 229.628C4550.89 222.028 4554.17 208.895 4554.8 200.447C4555.44 191.999 4559.58 181.289 4564.02 176.641C4568.45 171.994 4575.19 175.107 4578.99 183.551C4582.79 191.999 4588.49 205.477 4591.66 213.502C4594.83 221.526 4601.05 220.319 4605.49 210.816C4609.92 201.313 4617.7 181.096 4622.76 165.894C4627.83 150.689 4632.5 130.475 4633.13 120.972C4633.76 111.469 4637.74 99.8932 4641.96 95.2495C4646.18 90.602 4652.23 92.5042 4655.4 99.4735C4658.57 106.443 4663.23 120.957 4665.76 131.727C4668.3 142.497 4673.82 157.357 4678.05 164.746C4682.27 172.135 4686.94 185.268 4688.41 193.927C4689.89 202.587 4692.14 217.789 4693.4 227.715C4694.67 237.642 4699.51 250.254 4704.16 255.745C4708.8 261.236 4720.38 262.332 4729.88 258.175C4739.39 254.021 4748.89 243.251 4751 234.242C4753.11 225.234 4758.18 208.185 4762.26 196.357C4766.35 184.532 4771.41 181.077 4773.53 188.678C4775.64 196.279 4780.94 206.763 4785.3 211.971C4789.66 217.18 4792.66 228.93 4791.96 238.08C4791.25 247.23 4797.7 257.253 4806.29 260.352C4814.88 263.45 4823.52 254.463 4825.49 240.387C4827.46 226.307 4833.56 216.058 4839.06 217.607C4844.55 219.156 4851.57 213.974 4854.67 206.087C4857.77 198.203 4858.11 186.683 4855.44 180.49C4852.76 174.297 4855.99 168.535 4862.6 167.692C4869.22 166.849 4873.02 160.972 4871.05 154.638C4869.08 148.303 4872.08 138.395 4877.71 132.622C4883.34 126.849 4890.02 114.987 4892.55 106.257C4895.08 97.5305 4901.07 83.2463 4905.86 74.5161C4910.65 65.7858 4916.41 63.2522 4918.66 68.8842C4920.91 74.5161 4925.64 83.1536 4929.15 88.0834C4932.67 93.0095 4933.94 101.881 4931.97 107.791C4930 113.706 4932.71 121.422 4937.99 124.94C4943.26 128.458 4946.37 138.076 4944.9 146.312C4943.42 154.549 4943.94 169.754 4946.05 180.1C4948.16 190.446 4951.62 194.596 4953.73 189.317C4955.84 184.038 4961.02 176.088 4965.25 171.656C4969.47 167.22 4975.69 158.063 4979.07 151.305C4982.45 144.548 4987.46 144.202 4990.2 150.54C4992.95 156.874 4996.92 166.377 4999.03 171.656C5001.14 176.935 5005.81 186.783 5009.4 193.541C5012.99 200.299 5016.28 216.541 5016.7 229.632C5017.12 242.724 5021.27 253.783 5025.91 254.207C5030.56 254.63 5039.54 244.262 5045.88 231.17C5045.88 231.17 5045.88 231.17 5045.88 228.867C5045.88 226.564 5045.88 226.564 5045.88 226.564C5047.57 216.006 5053.96 200.455 5060.08 192.007C5066.21 183.559 5074.85 183.388 5079.28 191.624C5083.72 199.86 5088.03 211.782 5088.88 218.116C5089.72 224.45 5090.24 236.026 5090.03 243.842C5089.82 251.655 5093.8 260.641 5098.86 263.806C5103.93 266.972 5108.94 264.037 5110 257.279C5111.05 250.522 5115.89 241.019 5120.75 236.163C5125.6 231.308 5132 220.768 5134.95 212.74C5137.91 204.716 5142.06 203.159 5144.17 209.285C5146.28 215.408 5150.43 224.049 5153.38 228.484C5156.34 232.92 5158.93 243.46 5159.14 251.904C5159.35 260.352 5163.5 266.225 5168.36 264.958C5173.21 263.691 5181.16 260.237 5186.02 257.279C5190.88 254.322 5191.56 245.51 5187.55 237.698C5183.54 229.885 5183.71 220.382 5187.93 216.581C5192.16 212.781 5199.07 205.176 5203.29 199.686C5207.52 194.195 5210.63 181.582 5210.2 171.656C5209.78 161.729 5213.58 150.328 5218.65 146.316C5223.72 142.304 5231.32 129.862 5235.55 118.673C5239.77 107.479 5245.64 105.926 5248.6 115.218C5251.56 124.509 5256.05 135.394 5258.58 139.406C5261.12 143.418 5263.53 150.848 5263.96 155.915C5264.38 160.983 5268.01 168.067 5272.02 171.656C5276.03 175.245 5280.01 182.158 5280.85 187.014C5281.69 191.869 5281.18 200.51 5279.7 206.213C5278.22 211.915 5279.6 220.553 5282.77 225.412C5285.94 230.268 5292.33 236.145 5296.98 238.467C5301.62 240.788 5301.45 247.873 5296.59 254.207C5291.74 260.541 5292.78 269.528 5298.9 274.175C5301.28 275.981 5304.12 277.808 5307 279.45V347.684H2632V347.673Z" fill="#3D4040"/>
</svg>
