
<svg width="5293" height="479" viewBox="0 0 5293 479" fill="none" xmlns="http://www.w3.org/2000/svg">
<path d="M2666.94 150.969V478.88H113.349C113.106 479.039 112.877 479.041 112.663 478.88H113.349C123.869 472.018 161.122 172.783 167.048 168.974C173.112 165.078 179.586 154.118 181.434 144.622C183.286 135.122 187.208 120.008 190.156 111.031C193.105 102.054 198.468 87.7987 202.075 79.3493C205.683 70.9045 211.727 73.6674 215.505 85.4947C219.287 97.322 224.883 97.5149 227.943 85.9216C231.002 74.3284 236.524 58.4485 240.213 50.6279C243.902 42.8073 250.31 31.3332 254.454 25.1281C258.599 18.923 264.073 18.822 266.618 24.9032C269.162 30.9843 273.099 41.6782 275.366 48.6681C277.633 55.658 279.077 66.9849 278.577 73.8463C278.081 80.7077 280.51 94.9676 283.985 105.537C287.459 116.112 290.955 130.059 291.763 136.531C292.57 143.002 295.811 145.159 298.963 141.313C302.115 137.467 304.233 125.337 303.663 114.349C303.096 103.366 307.07 87.6564 312.5 79.4457C317.93 71.235 322.171 57.737 321.926 49.4483C321.682 41.1641 325.274 23.3978 329.915 9.97336C334.556 -3.45112 342.649 -3.30432 347.905 10.2991C353.16 23.9026 357.535 41.2237 357.623 48.7919C357.712 56.3647 359.435 70.7853 361.446 80.841C363.461 90.8967 366.764 108.387 368.79 119.705C370.816 131.028 372.379 152.089 372.261 166.51C372.142 180.93 377.261 190.866 383.635 188.585C390.009 186.304 393.958 178.268 392.413 170.727C390.869 163.187 392.646 152.681 396.365 147.385C400.084 142.089 403.373 128.462 403.673 117.098C403.973 105.735 403.254 85.5453 402.076 72.2263C400.899 58.9074 402.921 48.8424 406.569 49.8567C410.217 50.871 415.425 58.4437 418.143 66.6866C420.858 74.9294 423.636 88.1522 424.314 96.0692C424.988 103.991 428.496 108.644 432.107 106.414C435.718 104.183 440.255 95.5458 442.192 87.2203C444.129 78.8902 447.837 80.4462 450.433 90.6717C453.029 100.897 456.307 116.029 457.715 124.295C459.122 132.561 462 144.159 464.107 150.07C466.215 155.981 469.767 164.467 472.004 168.933C474.241 173.399 478.4 172.88 481.249 167.781C484.097 162.682 487.197 153.039 488.134 146.352C489.071 139.665 491.404 135.64 493.316 137.407C495.23 139.174 497.234 147.541 497.771 156.004C498.308 164.467 502.164 178.259 506.338 186.653C510.512 195.048 514.672 194.382 515.579 185.171C516.486 175.96 521.924 162.879 527.661 156.105C533.398 149.331 539.998 134.162 542.331 122.404C544.661 110.641 549.535 90.3457 553.161 77.3022C556.787 64.2587 563.788 42.7428 568.721 29.4927C573.654 16.2427 578.462 10.1064 579.403 15.8571C580.343 21.6078 584.281 32.1501 588.147 39.2915C592.014 46.4283 597.285 59.0174 599.855 67.2603C602.425 75.5031 603.3 88.7624 601.796 96.7207C600.292 104.679 603.062 117.461 607.955 125.121C612.848 132.781 618.678 132.675 620.911 124.882C623.148 117.089 626.596 106.997 628.578 102.453C630.56 97.9095 633.919 100.204 636.045 107.557C638.171 114.909 638.315 127.145 636.371 134.754C634.426 142.359 633.045 156.252 633.304 165.619C633.56 174.987 640.023 187.7 647.66 193.868C655.297 200.036 665.164 199.118 669.586 191.826C674.009 184.537 681.598 182.33 686.453 186.929C691.309 191.527 695.88 185.543 696.609 173.633C697.339 161.723 700.802 142.929 704.306 131.868C707.806 120.807 713.669 113.326 717.328 115.24C720.988 117.158 726.877 107.02 730.414 92.7141C733.951 78.4084 737.795 71.5515 738.958 77.4812C740.121 83.4063 742.414 95.9772 744.055 105.409C745.696 114.845 752.129 130.431 758.355 140.051C764.578 149.671 767.585 162.228 765.037 167.951C762.485 173.674 764.033 183.601 768.474 190.008C772.915 196.415 780.074 197.834 784.382 193.157C788.689 188.48 795.445 185.924 799.389 187.47C803.334 189.022 805.604 184.776 804.434 178.039C803.26 171.301 806.89 161.277 812.497 155.765C818.105 150.253 822.423 138.004 822.09 128.549C821.76 119.09 823.008 104.248 824.868 95.5596C826.727 86.8762 831.731 87.2249 835.987 96.3398C840.242 105.455 845.405 119.297 847.465 127.099C849.524 134.901 854.661 146.531 858.884 152.943C863.106 159.355 865.732 169.924 864.721 176.432C863.709 182.94 868.076 189.719 874.425 191.495C880.777 193.271 890.562 190.655 896.177 185.685C901.788 180.719 904.196 172.931 901.522 168.382C898.847 163.834 901.844 145.861 908.181 128.439C914.518 111.017 920.278 100.291 920.985 104.606C921.692 108.92 925.067 122.353 928.485 134.456C931.904 146.563 937.285 163.719 940.448 172.582C943.608 181.444 948.112 199.724 950.456 213.199C952.801 226.674 956.571 243.417 958.838 250.407C961.104 257.392 968.079 258.37 974.338 252.578C980.594 246.781 988.261 231.154 991.376 217.849C994.491 204.543 998.854 181.453 1001.08 166.542C1003.3 151.63 1008.67 153.081 1013.02 169.764C1017.36 186.447 1023.49 206.246 1026.64 213.759C1029.78 221.268 1033.87 234.908 1035.73 244.069C1037.58 253.23 1042.91 265.52 1047.56 271.381C1052.21 277.247 1057.74 276.921 1059.85 270.665C1061.96 264.405 1067.19 254.354 1071.49 248.328C1075.78 242.297 1080.79 228.932 1082.63 218.624C1084.47 208.316 1088.76 193.854 1092.17 186.493C1095.57 179.126 1101.72 185.428 1105.82 200.495C1109.93 215.563 1116.13 241.109 1119.6 257.268C1123.06 273.428 1129.43 283.043 1133.74 278.637C1138.05 274.231 1142.01 261.991 1142.53 251.435C1143.06 240.879 1146.01 228.808 1149.09 224.604C1152.17 220.4 1155.94 222.099 1157.47 228.382C1159 234.665 1161.07 248.782 1162.08 259.76C1163.08 270.734 1165.56 288.537 1167.58 299.313C1169.6 310.09 1174.77 314.863 1179.08 309.915C1183.38 304.972 1186.46 293.411 1185.91 284.228C1185.36 275.044 1185.15 257.057 1185.43 244.252C1185.71 231.447 1189.74 210.138 1194.38 196.893C1199.02 183.647 1203.93 176.185 1205.29 180.306C1206.65 184.427 1212.01 194.653 1217.2 203.029C1222.39 211.405 1226.35 223.866 1226 230.722C1225.64 237.579 1225.43 249.085 1225.51 256.295C1225.6 263.505 1229.16 272.731 1233.43 276.797C1237.69 280.863 1238.76 289.987 1235.79 297.074C1232.82 304.155 1232.24 315.817 1234.51 322.986C1236.78 330.155 1242.77 333.584 1247.83 330.605C1252.88 327.631 1261.79 316.405 1267.63 305.661C1273.46 294.917 1278.57 274.176 1278.98 259.568C1279.38 244.959 1283.58 238.098 1288.31 244.321C1293.04 250.545 1296.87 261.977 1296.82 269.729C1296.76 277.481 1299.45 292.915 1302.78 304.031C1306.12 315.147 1310.94 330.247 1313.5 337.59C1316.07 344.934 1321.34 348.523 1325.24 345.567C1329.12 342.607 1335.44 333.496 1339.27 325.313C1343.1 317.13 1349.23 302.269 1352.9 292.287C1356.56 282.304 1360.71 281.051 1362.12 289.496C1363.53 297.946 1367.98 312.022 1372.01 320.779C1376.05 329.536 1380.28 344.796 1381.41 354.691C1382.55 364.582 1387.07 374.087 1391.46 375.808C1395.84 377.529 1403.23 368.836 1407.89 356.495C1412.54 344.149 1415.92 328.012 1415.39 320.632C1414.86 313.247 1417.45 300.814 1421.14 292.994C1424.83 285.177 1431.23 282.846 1435.36 287.817C1439.49 292.787 1444.79 288.262 1447.14 277.765C1449.49 267.269 1453.83 251.995 1456.78 243.83C1459.74 235.661 1465 237.483 1468.47 247.874C1471.94 258.264 1475.16 258.797 1475.62 249.053C1476.09 239.309 1478.79 225.986 1481.62 219.446C1484.45 212.906 1490.2 196.425 1494.4 182.83C1498.6 169.236 1501.44 147.945 1500.71 135.521C1499.98 123.097 1503.19 102.981 1507.84 90.8185C1512.5 78.6516 1518.6 81.0473 1521.4 96.1378C1524.2 111.228 1529.07 130.752 1532.23 139.528C1535.39 148.298 1537.99 166.097 1538 179.076C1538.01 192.055 1541.29 207.775 1545.29 214.012C1549.3 220.244 1555.22 218.367 1558.47 209.835C1561.71 201.299 1564.38 185.914 1564.4 175.638C1564.43 165.362 1566.63 160.603 1569.3 165.059C1571.97 169.516 1577.31 177.828 1581.16 183.523C1585.02 189.224 1591.02 193.978 1594.52 194.093C1598.01 194.208 1601.72 186.47 1602.77 176.896C1603.82 167.327 1606.96 151.635 1609.76 142.029C1612.55 132.423 1616.56 129.545 1618.67 135.636C1620.78 141.726 1625.24 155.949 1628.57 167.244C1631.91 178.534 1635.82 196.603 1637.25 207.394C1638.7 218.184 1644.51 226.927 1650.18 226.821C1655.85 226.72 1658.62 218.849 1656.32 209.34C1654.02 199.825 1657 189.302 1662.92 185.947C1668.84 182.592 1676.56 171.242 1680.07 160.722C1683.58 150.203 1685.55 135.861 1684.45 128.852C1683.35 121.84 1684.69 104.266 1687.42 89.7952C1690.16 75.3243 1695.15 55.1759 1698.52 45.0192C1701.89 34.8625 1708.94 37.2399 1714.19 50.3018C1719.43 63.3637 1721.89 79.8357 1719.65 86.9082C1717.41 93.9808 1720.25 102.632 1725.96 106.129C1731.68 109.627 1734.26 116.217 1731.69 120.77C1729.13 125.323 1725.79 134.823 1724.28 141.882C1722.76 148.941 1726.57 158.602 1732.73 163.357C1738.9 168.107 1744.83 176.405 1745.92 181.793C1747 187.181 1743.05 195.071 1737.13 199.325C1731.22 203.58 1728.2 209.385 1730.41 212.231C1732.63 215.077 1737.25 222.952 1740.67 229.74C1744.1 236.524 1751.11 245.39 1756.25 249.443C1761.39 253.496 1766.63 243.518 1767.89 227.271C1769.15 211.024 1772.49 192.376 1775.32 185.836C1778.15 179.296 1781.74 180.701 1783.29 188.966C1784.85 197.232 1789.84 205.989 1794.37 208.426C1798.91 210.868 1806.15 219.583 1810.47 227.794C1814.79 236.005 1820.86 235.743 1823.96 227.216C1827.06 218.684 1835.27 209.096 1842.21 205.902C1849.16 202.708 1853.69 193.63 1852.29 185.722C1850.88 177.818 1853.89 170.829 1858.97 170.195C1864.06 169.562 1869.41 159.286 1870.87 147.362C1872.32 135.438 1875.66 113.62 1878.29 98.8825C1880.91 84.1408 1885.29 79.23 1888.01 87.9685C1890.73 96.7025 1893.96 112.573 1895.18 123.23C1896.39 133.887 1900.46 145.646 1904.22 149.363C1907.97 153.081 1910.41 162.659 1909.63 170.65C1908.86 178.64 1908.39 191.482 1908.59 199.183C1908.79 206.889 1912.39 217.105 1916.59 221.896C1920.8 226.688 1928.66 227.537 1934.07 223.788C1939.48 220.038 1947.87 227.069 1952.71 239.42C1957.55 251.77 1964.89 260.596 1969.01 259.031C1973.14 257.466 1978.99 261.229 1982.01 267.393C1985.03 273.552 1992.3 276.847 1998.16 274.713C2004.03 272.579 2012.27 267.778 2016.48 264.052C2020.69 260.325 2029.7 259.825 2036.5 262.946C2043.31 266.067 2051.2 262.161 2054.06 254.267C2056.91 246.373 2062.3 234.88 2066.05 228.726C2069.8 222.571 2073.24 212.332 2073.71 205.971C2074.18 199.61 2075.81 186.415 2077.33 176.653C2078.85 166.895 2083.22 159.18 2087.04 159.515C2090.86 159.85 2095.98 154.999 2098.41 148.734L2099.41 146.17C2102.03 139.419 2106.22 128.636 2109.38 120.508C2112.98 111.251 2118.93 108.709 2122.6 114.859C2126.28 121.013 2132.2 116.736 2135.78 105.358C2139.35 93.9808 2143.54 71.0789 2145.09 54.4692C2146.63 37.855 2150.61 32.4715 2153.93 42.5043C2157.26 52.537 2161.97 68.0818 2164.4 77.0498C2166.83 86.0178 2169.87 101.297 2171.16 111.008C2172.44 120.72 2175.31 142.199 2177.55 158.74C2179.79 175.285 2184.1 197.324 2187.13 207.724C2190.16 218.124 2197.57 220.639 2203.59 213.319C2209.62 205.998 2213.72 191.468 2212.73 181.031C2211.73 170.594 2213.68 154.926 2217.07 146.21C2220.45 137.495 2226.44 120.573 2230.37 108.603C2234.3 96.6335 2241.18 95.0271 2245.66 105.042C2250.15 115.056 2253.22 132.992 2252.49 144.902C2251.76 156.812 2254.54 170.035 2258.66 174.284C2262.78 178.534 2268.62 188.457 2271.62 196.333C2274.62 204.209 2277.65 218.606 2278.35 228.326C2279.05 238.047 2280.93 255.12 2282.51 266.268C2284.1 277.417 2288.21 282.649 2291.65 277.898C2295.08 273.148 2297.8 261.596 2297.69 252.224C2297.57 242.857 2302.18 230.089 2307.93 223.852C2313.67 217.614 2319.19 201.881 2320.2 188.884C2321.21 175.886 2324.8 157.533 2328.17 148.096C2331.55 138.66 2336.34 140.638 2338.81 152.489C2341.28 164.339 2346.21 178.7 2349.77 184.405C2353.33 190.105 2353.93 200.716 2351.11 207.976C2348.29 215.237 2346.13 233.568 2346.31 248.704C2346.49 263.845 2350.98 280.574 2356.28 285.884C2361.58 291.194 2369.16 288.399 2373.13 279.675C2377.1 270.95 2385.59 264.598 2392.01 265.562C2398.42 266.521 2404.08 262.877 2404.6 257.461C2405.12 252.045 2403.55 240.567 2401.12 231.962C2398.69 223.352 2398.08 212.157 2399.77 207.077C2401.45 201.996 2407.53 192.739 2413.27 186.506C2419.01 180.274 2418.85 167.005 2412.92 157.018L2400.1 146.765C2407.52 134.369 2418.05 119.132 2423.5 112.904C2428.95 106.676 2434.93 88.8679 2436.78 73.3323C2438.63 57.7966 2440.68 50.3845 2441.34 56.8604C2442 63.3362 2443.55 73.3368 2444.78 79.083C2446.01 84.8291 2448.09 99.2451 2449.4 111.118C2450.7 122.992 2451.94 146.568 2452.14 163.508C2452.34 180.448 2458.2 192.432 2465.16 190.142C2472.11 187.851 2476.07 180.994 2473.96 174.904C2471.86 168.818 2469.1 157.661 2467.85 150.111C2466.59 142.566 2469.58 133.662 2474.49 130.326C2479.39 126.989 2480.44 114.877 2476.81 103.408L2473.6 100.847C2470.4 98.2857 2470.4 98.2858 2470.4 98.2858C2475.48 85.2147 2482.59 62.9601 2486.2 48.8334C2489.82 34.7067 2495.25 31.6544 2498.29 42.0544C2501.33 52.4543 2506.5 66.8106 2509.78 73.9611C2513.07 81.1117 2514.88 92.8794 2513.8 100.108C2512.72 107.341 2513.3 115.588 2515.08 118.439C2516.86 121.293 2520.5 127.42 2523.18 132.056C2525.85 136.691 2528.8 144.31 2529.73 148.977C2530.66 153.65 2529.82 163.398 2527.87 170.645C2525.92 177.892 2526.55 190.563 2529.27 198.806C2531.99 207.049 2538.42 207.816 2543.57 200.509C2548.72 193.203 2554.5 178.938 2556.42 168.809C2558.33 158.68 2561.86 155.077 2564.25 160.8C2566.65 166.524 2571.2 168.506 2574.36 165.202C2577.52 161.897 2580.5 152.108 2580.97 143.447C2581.45 134.782 2583.42 120.293 2585.35 111.247C2587.27 102.201 2592.42 94.4352 2596.78 93.9946C2601.14 93.554 2605.7 97.3035 2606.93 102.329C2608.15 107.355 2609.98 121.183 2611 133.061C2612.01 144.939 2614.51 154.627 2616.55 154.591C2618.59 154.554 2622.02 143.282 2624.18 129.541C2626.34 115.8 2628.5 97.1798 2628.97 88.1568C2629.45 79.1337 2633.01 58.421 2636.89 42.128C2640.76 25.8305 2645.19 18.0831 2646.73 24.9032C2648.27 31.7233 2649.65 47.6262 2649.8 60.2429C2649.95 72.8596 2650.6 87.5967 2651.25 92.9895C2651.9 98.3868 2654.91 111.307 2657.95 121.706C2660.28 129.706 2663.89 141.414 2666.94 150.969Z" fill="#494D4D"/>
<path d="M2626.06 150.969V478.88H5179.65C5179.89 479.039 5180.12 479.041 5180.34 478.88H5179.65C5169.13 472.018 5131.88 172.783 5125.95 168.974C5119.89 165.078 5113.41 154.118 5111.57 144.622C5109.71 135.122 5105.79 120.008 5102.84 111.031C5099.9 102.054 5094.53 87.7987 5090.92 79.3493C5087.32 70.9045 5081.27 73.6674 5077.49 85.4947C5073.71 97.322 5068.12 97.5149 5065.06 85.9216C5062 74.3284 5056.48 58.4485 5052.79 50.6279C5049.1 42.8073 5042.69 31.3332 5038.55 25.1281C5034.4 18.923 5028.93 18.822 5026.38 24.9032C5023.84 30.9843 5019.9 41.6782 5017.63 48.6681C5015.37 55.658 5013.92 66.9849 5014.42 73.8463C5014.92 80.7077 5012.49 94.9676 5009.02 105.537C5005.54 116.112 5002.04 130.059 5001.24 136.531C5000.43 143.002 4997.19 145.159 4994.04 141.313C4990.89 137.467 4988.77 125.337 4989.34 114.349C4989.9 103.366 4985.93 87.6564 4980.5 79.4457C4975.07 71.235 4970.83 57.737 4971.07 49.4483C4971.32 41.1641 4967.73 23.3978 4963.08 9.97336C4958.44 -3.45112 4950.35 -3.30432 4945.1 10.2991C4939.84 23.9026 4935.47 41.2237 4935.38 48.7919C4935.29 56.3647 4933.57 70.7853 4931.55 80.841C4929.54 90.8967 4926.24 108.387 4924.21 119.705C4922.18 131.028 4920.62 152.089 4920.74 166.51C4920.86 180.93 4915.74 190.866 4909.36 188.585C4902.99 186.304 4899.04 178.268 4900.59 170.727C4902.13 163.187 4900.35 152.681 4896.63 147.385C4892.92 142.089 4889.63 128.462 4889.33 117.098C4889.03 105.735 4889.75 85.5453 4890.92 72.2263C4892.1 58.9074 4890.08 48.8424 4886.43 49.8567C4882.78 50.871 4877.57 58.4437 4874.86 66.6866C4872.14 74.9294 4869.36 88.1522 4868.69 96.0692C4868.01 103.991 4864.5 108.644 4860.89 106.414C4857.28 104.183 4852.74 95.5458 4850.81 87.2203C4848.87 78.8902 4845.16 80.4462 4842.57 90.6717C4839.97 100.897 4836.69 116.029 4835.29 124.295C4833.88 132.561 4831 144.159 4828.89 150.07C4826.79 155.981 4823.23 164.467 4821 168.933C4818.76 173.399 4814.6 172.88 4811.75 167.781C4808.9 162.682 4805.8 153.039 4804.87 146.352C4803.93 139.665 4801.6 135.64 4799.68 137.407C4797.77 139.174 4795.77 147.541 4795.23 156.004C4794.69 164.467 4790.84 178.259 4786.66 186.653C4782.49 195.048 4778.33 194.382 4777.42 185.171C4776.51 175.96 4771.08 162.879 4765.34 156.105C4759.6 149.331 4753 134.162 4750.67 122.404C4748.34 110.641 4743.46 90.3457 4739.84 77.3022C4736.21 64.2587 4729.21 42.7428 4724.28 29.4927C4719.35 16.2427 4714.54 10.1064 4713.6 15.8571C4712.66 21.6078 4708.72 32.1501 4704.85 39.2915C4700.99 46.4283 4695.72 59.0174 4693.15 67.2603C4690.57 75.5031 4689.7 88.7624 4691.2 96.7207C4692.71 104.679 4689.94 117.461 4685.04 125.121C4680.15 132.781 4674.32 132.675 4672.09 124.882C4669.85 117.089 4666.4 106.997 4664.42 102.453C4662.44 97.9095 4659.08 100.204 4656.96 107.557C4654.83 114.909 4654.68 127.145 4656.63 134.754C4658.57 142.359 4659.96 156.252 4659.7 165.619C4659.44 174.987 4652.98 187.7 4645.34 193.868C4637.7 200.036 4627.84 199.118 4623.41 191.826C4618.99 184.537 4611.4 182.33 4606.55 186.929C4601.69 191.527 4597.12 185.543 4596.39 173.633C4595.66 161.723 4592.2 142.929 4588.69 131.868C4585.19 120.807 4579.33 113.326 4575.67 115.24C4572.01 117.158 4566.12 107.02 4562.59 92.7141C4559.05 78.4084 4555.2 71.5515 4554.04 77.4812C4552.88 83.4063 4550.59 95.9772 4548.95 105.409C4547.3 114.845 4540.87 130.431 4534.64 140.051C4528.42 149.671 4525.41 162.228 4527.96 167.951C4530.52 173.674 4528.97 183.601 4524.53 190.008C4520.08 196.415 4512.93 197.834 4508.62 193.157C4504.31 188.48 4497.56 185.924 4493.61 187.47C4489.67 189.022 4487.4 184.776 4488.57 178.039C4489.74 171.301 4486.11 161.277 4480.5 155.765C4474.9 150.253 4470.58 138.004 4470.91 128.549C4471.24 119.09 4469.99 104.248 4468.13 95.5596C4466.27 86.8762 4461.27 87.2249 4457.01 96.3398C4452.76 105.455 4447.59 119.297 4445.54 127.099C4443.48 134.901 4438.34 146.531 4434.12 152.943C4429.89 159.355 4427.27 169.924 4428.28 176.432C4429.29 182.94 4424.92 189.719 4418.58 191.495C4412.22 193.271 4402.44 190.655 4396.82 185.685C4391.21 180.719 4388.8 172.931 4391.48 168.382C4394.15 163.834 4391.16 145.861 4384.82 128.439C4378.48 111.017 4372.72 100.291 4372.01 104.606C4371.31 108.92 4367.93 122.353 4364.51 134.456C4361.1 146.563 4355.71 163.719 4352.55 172.582C4349.39 181.444 4344.89 199.724 4342.54 213.199C4340.2 226.674 4336.43 243.417 4334.16 250.407C4331.9 257.392 4324.92 258.37 4318.66 252.578C4312.41 246.781 4304.74 231.154 4301.62 217.849C4298.51 204.543 4294.15 181.453 4291.92 166.542C4289.7 151.63 4284.33 153.081 4279.98 169.764C4275.64 186.447 4269.51 206.246 4266.36 213.759C4263.22 221.268 4259.13 234.908 4257.27 244.069C4255.42 253.23 4250.09 265.52 4245.44 271.381C4240.79 277.247 4235.26 276.921 4233.15 270.665C4231.04 264.405 4225.81 254.354 4221.51 248.328C4217.22 242.297 4212.21 228.932 4210.37 218.624C4208.53 208.316 4204.24 193.854 4200.83 186.493C4197.43 179.126 4191.28 185.428 4187.18 200.495C4183.07 215.563 4176.87 241.109 4173.4 257.268C4169.94 273.428 4163.57 283.043 4159.26 278.637C4154.95 274.231 4150.99 261.991 4150.46 251.435C4149.94 240.879 4146.99 228.808 4143.91 224.604C4140.83 220.4 4137.06 222.099 4135.53 228.382C4134 234.665 4131.93 248.782 4130.92 259.76C4129.92 270.734 4127.44 288.537 4125.42 299.313C4123.4 310.09 4118.23 314.863 4113.92 309.915C4109.62 304.972 4106.54 293.411 4107.09 284.228C4107.64 275.044 4107.85 257.057 4107.57 244.252C4107.29 231.447 4103.26 210.138 4098.62 196.893C4093.98 183.647 4089.07 176.185 4087.71 180.306C4086.35 184.427 4080.99 194.653 4075.8 203.029C4070.61 211.405 4066.65 223.866 4067 230.722C4067.36 237.579 4067.57 249.085 4067.49 256.295C4067.4 263.505 4063.84 272.731 4059.57 276.797C4055.31 280.863 4054.24 289.987 4057.21 297.074C4060.18 304.155 4060.76 315.817 4058.49 322.986C4056.22 330.155 4050.23 333.584 4045.17 330.605C4040.12 327.631 4031.21 316.405 4025.37 305.661C4019.54 294.917 4014.43 274.176 4014.02 259.568C4013.62 244.959 4009.42 238.098 4004.69 244.321C3999.96 250.545 3996.13 261.977 3996.18 269.729C3996.24 277.481 3993.55 292.915 3990.22 304.031C3986.88 315.147 3982.06 330.247 3979.5 337.59C3976.93 344.934 3971.66 348.523 3967.76 345.567C3963.88 342.607 3957.56 333.496 3953.73 325.313C3949.9 317.13 3943.77 302.269 3940.1 292.287C3936.44 282.304 3932.29 281.051 3930.88 289.496C3929.47 297.946 3925.02 312.022 3920.99 320.779C3916.95 329.536 3912.72 344.796 3911.59 354.691C3910.45 364.582 3905.93 374.087 3901.54 375.808C3897.16 377.529 3889.77 368.836 3885.11 356.495C3880.46 344.149 3877.08 328.012 3877.61 320.632C3878.14 313.247 3875.55 300.814 3871.86 292.994C3868.17 285.177 3861.77 282.846 3857.64 287.817C3853.51 292.787 3848.21 288.262 3845.86 277.765C3843.51 267.269 3839.17 251.995 3836.22 243.83C3833.26 235.661 3828 237.483 3824.53 247.874C3821.06 258.264 3817.84 258.797 3817.38 249.053C3816.91 239.309 3814.21 225.986 3811.38 219.446C3808.55 212.906 3802.8 196.425 3798.6 182.83C3794.4 169.236 3791.56 147.945 3792.29 135.521C3793.02 123.097 3789.81 102.981 3785.16 90.8185C3780.5 78.6516 3774.4 81.0473 3771.6 96.1378C3768.8 111.228 3763.93 130.752 3760.77 139.528C3757.61 148.298 3755.01 166.097 3755 179.076C3754.99 192.055 3751.71 207.775 3747.71 214.012C3743.7 220.244 3737.78 218.367 3734.53 209.835C3731.29 201.299 3728.62 185.914 3728.6 175.638C3728.57 165.362 3726.37 160.603 3723.7 165.059C3721.02 169.516 3715.69 177.828 3711.84 183.523C3707.98 189.224 3701.98 193.978 3698.48 194.093C3694.99 194.208 3691.28 186.47 3690.23 176.896C3689.18 167.327 3686.04 151.635 3683.24 142.029C3680.45 132.423 3676.43 129.545 3674.33 135.636C3672.22 141.726 3667.76 155.949 3664.43 167.244C3661.09 178.534 3657.18 196.603 3655.75 207.394C3654.3 218.184 3648.49 226.927 3642.82 226.821C3637.15 226.72 3634.38 218.849 3636.68 209.34C3638.98 199.825 3636 189.302 3630.08 185.947C3624.16 182.592 3616.44 171.242 3612.93 160.722C3609.42 150.203 3607.45 135.861 3608.55 128.852C3609.65 121.84 3608.31 104.266 3605.58 89.7952C3602.84 75.3243 3597.85 55.1759 3594.48 45.0192C3591.11 34.8625 3584.06 37.2399 3578.81 50.3018C3573.57 63.3637 3571.11 79.8357 3573.35 86.9082C3575.59 93.9808 3572.75 102.632 3567.04 106.129C3561.32 109.627 3558.74 116.217 3561.31 120.77C3563.87 125.323 3567.21 134.823 3568.72 141.882C3570.24 148.941 3566.43 158.602 3560.27 163.357C3554.1 168.107 3548.17 176.405 3547.08 181.793C3546 187.181 3549.95 195.071 3555.87 199.325C3561.78 203.58 3564.8 209.385 3562.59 212.231C3560.37 215.077 3555.75 222.952 3552.33 229.74C3548.9 236.524 3541.89 245.39 3536.75 249.443C3531.61 253.496 3526.37 243.518 3525.11 227.271C3523.85 211.024 3520.51 192.376 3517.68 185.836C3514.85 179.296 3511.26 180.701 3509.7 188.966C3508.15 197.232 3503.16 205.989 3498.63 208.426C3494.09 210.868 3486.85 219.583 3482.53 227.794C3478.21 236.005 3472.14 235.743 3469.04 227.216C3465.94 218.684 3457.73 209.096 3450.79 205.902C3443.84 202.708 3439.31 193.63 3440.71 185.722C3442.12 177.818 3439.11 170.829 3434.03 170.195C3428.94 169.562 3423.59 159.286 3422.13 147.362C3420.68 135.438 3417.34 113.62 3414.71 98.8825C3412.09 84.1408 3407.71 79.23 3404.99 87.9685C3402.27 96.7025 3399.04 112.573 3397.82 123.23C3396.61 133.887 3392.54 145.646 3388.78 149.363C3385.03 153.081 3382.59 162.659 3383.37 170.65C3384.14 178.64 3384.61 191.482 3384.41 199.183C3384.21 206.889 3380.61 217.105 3376.41 221.896C3372.2 226.688 3364.34 227.537 3358.93 223.788C3353.52 220.038 3345.13 227.069 3340.29 239.42C3335.45 251.77 3328.11 260.596 3323.99 259.031C3319.86 257.466 3314.01 261.229 3310.99 267.393C3307.97 273.552 3300.7 276.847 3294.84 274.713C3288.97 272.579 3280.73 267.778 3276.52 264.052C3272.31 260.325 3263.3 259.825 3256.5 262.946C3249.69 266.067 3241.8 262.161 3238.94 254.267C3236.09 246.373 3230.7 234.88 3226.95 228.726C3223.2 222.571 3219.76 212.332 3219.29 205.971C3218.82 199.61 3217.19 186.415 3215.67 176.653C3214.15 166.895 3209.78 159.18 3205.96 159.515C3202.14 159.85 3197.02 154.999 3194.59 148.734L3193.59 146.17C3190.97 139.419 3186.78 128.636 3183.62 120.508C3180.02 111.251 3174.07 108.709 3170.4 114.859C3166.72 121.013 3160.8 116.736 3157.22 105.358C3153.65 93.9808 3149.46 71.0789 3147.91 54.4692C3146.37 37.855 3142.39 32.4715 3139.07 42.5043C3135.74 52.537 3131.03 68.0818 3128.6 77.0498C3126.17 86.0178 3123.13 101.297 3121.84 111.008C3120.56 120.72 3117.69 142.199 3115.45 158.74C3113.21 175.285 3108.9 197.324 3105.87 207.724C3102.84 218.124 3095.43 220.639 3089.41 213.319C3083.38 205.998 3079.28 191.468 3080.27 181.031C3081.27 170.594 3079.32 154.926 3075.93 146.21C3072.55 137.495 3066.56 120.573 3062.63 108.603C3058.7 96.6335 3051.82 95.0271 3047.34 105.042C3042.85 115.056 3039.78 132.992 3040.51 144.902C3041.24 156.812 3038.46 170.035 3034.34 174.284C3030.22 178.534 3024.38 188.457 3021.38 196.333C3018.37 204.209 3015.35 218.606 3014.65 228.326C3013.95 238.047 3012.07 255.12 3010.49 266.268C3008.9 277.417 3004.79 282.649 3001.35 277.898C2997.92 273.148 2995.2 261.596 2995.31 252.224C2995.43 242.857 2990.82 230.089 2985.07 223.852C2979.33 217.614 2973.81 201.881 2972.8 188.884C2971.79 175.886 2968.2 157.533 2964.83 148.096C2961.45 138.66 2956.66 140.638 2954.19 152.489C2951.72 164.339 2946.79 178.7 2943.23 184.405C2939.67 190.105 2939.07 200.716 2941.89 207.976C2944.71 215.237 2946.87 233.568 2946.69 248.704C2946.51 263.845 2942.02 280.574 2936.72 285.884C2931.42 291.194 2923.84 288.399 2919.87 279.675C2915.9 270.95 2907.41 264.598 2900.99 265.562C2894.58 266.521 2888.92 262.877 2888.4 257.461C2887.88 252.045 2889.45 240.567 2891.88 231.962C2894.31 223.352 2894.92 212.157 2893.23 207.077C2891.55 201.996 2885.47 192.739 2879.73 186.506C2873.99 180.274 2874.15 167.005 2880.08 157.018L2892.9 146.765C2885.48 134.369 2874.95 119.132 2869.5 112.904C2864.05 106.676 2858.07 88.8679 2856.22 73.3323C2854.37 57.7966 2852.32 50.3845 2851.66 56.8604C2851 63.3362 2849.45 73.3368 2848.22 79.083C2846.99 84.8291 2844.91 99.2451 2843.6 111.118C2842.3 122.992 2841.06 146.568 2840.86 163.508C2840.66 180.448 2834.8 192.432 2827.84 190.142C2820.89 187.851 2816.93 180.994 2819.04 174.904C2821.14 168.818 2823.9 157.661 2825.15 150.111C2826.41 142.566 2823.42 133.662 2818.51 130.326C2813.61 126.989 2812.56 114.877 2816.19 103.408L2819.4 100.847C2822.6 98.2857 2822.6 98.2858 2822.6 98.2858C2817.52 85.2147 2810.41 62.9601 2806.8 48.8334C2803.18 34.7067 2797.75 31.6544 2794.71 42.0544C2791.67 52.4543 2786.5 66.8106 2783.22 73.9611C2779.93 81.1117 2778.12 92.8794 2779.2 100.108C2780.28 107.341 2779.7 115.588 2777.92 118.439C2776.14 121.293 2772.5 127.42 2769.82 132.056C2767.15 136.691 2764.2 144.31 2763.27 148.977C2762.34 153.65 2763.18 163.398 2765.13 170.645C2767.08 177.892 2766.45 190.563 2763.73 198.806C2761.01 207.049 2754.58 207.816 2749.43 200.509C2744.28 193.203 2738.5 178.938 2736.58 168.809C2734.67 158.68 2731.14 155.077 2728.75 160.8C2726.35 166.524 2721.8 168.506 2718.64 165.202C2715.48 161.897 2712.5 152.108 2712.03 143.447C2711.55 134.782 2709.58 120.293 2707.65 111.247C2705.73 102.201 2700.58 94.4352 2696.22 93.9946C2691.86 93.554 2687.3 97.3035 2686.07 102.329C2684.85 107.355 2683.01 121.183 2682 133.061C2680.99 144.939 2678.49 154.627 2676.45 154.591C2674.41 154.554 2670.98 143.282 2668.82 129.541C2666.66 115.8 2664.5 97.1798 2664.03 88.1568C2663.55 79.1337 2659.99 58.421 2656.11 42.128C2652.24 25.8305 2644.74 17.2705 2643.2 24.0906C2641.66 30.9107 2643.35 47.6262 2643.2 60.2429C2643.05 72.8596 2642.4 87.5967 2641.75 92.9895C2641.1 98.3868 2638.09 111.307 2635.05 121.706C2632.72 129.706 2629.11 141.414 2626.06 150.969Z" fill="#494D4D"/>
</svg>
