<?xml version="1.0" encoding="UTF-8"?>
<svg viewBox="0 0 329 333" xmlns="http://www.w3.org/2000/svg">
<path d="m44.35 309.18s1.26-9.27 7.19-10.28 4.13-5.5 5.68-7.23 5.57 3.38 2.12 8.34-0.63 3.4-2.12 8-13.42 8.85-12.87 1.17z" fill="#393939"/>
<path d="m44.35 309.18s1.26-9.27 7.19-10.28 4.13-5.5 5.68-7.23 5.57 3.38 2.12 8.34-0.63 3.4-2.12 8-13.42 8.85-12.87 1.17z" fill="#fff" opacity=".2"/>
<path d="m45.359 315.09h-0.13c-0.1139-0.035-0.2095-0.113-0.2657-0.218s-0.0686-0.228-0.0343-0.342c0-0.1 2.86-10.11-1.86-24.61-1.4438-4.158-3.3137-8.156-5.58-11.93-4-7.13-7.49-13.29-4.1-25.59 1-3.8 2.17-7.36 3.26-10.81 4-12.69 7.15-22.72 2.26-31.35-0.0302-0.052-0.0497-0.109-0.0575-0.168-0.0078-0.06-0.0036-0.12 0.0122-0.178 0.0158-0.057 0.043-0.111 0.08-0.159 0.037-0.047 0.083-0.086 0.1353-0.115 0.1036-0.058 0.2257-0.072 0.34-0.04 0.1142 0.031 0.2112 0.107 0.27 0.21 5.09 9 1.88 19.17-2.18 32.07-1.09 3.44-2.2 7-3.25 10.78-3.29 11.94-0.07 17.67 4 24.91 2.2989 3.824 4.1957 7.875 5.66 12.09 4.81 14.79 1.9 25 1.86 25.14-0.0278 0.09-0.0835 0.168-0.1591 0.224-0.0755 0.056-0.167 0.086-0.2609 0.086z" fill="#393939"/>
<path d="m48.01 313.34s3.83-5.77-1.7-8.74-6.63-0.58-10.05-2.71-6-7.31-6.6-4 3.37 5.2 2 6.71 9.27 11.34 16.35 8.74z" fill="#393939"/>
<path d="m41.688 214.49s1.87-11.79-6.55-10.66 2.55 10.1 6.55 10.66z" fill="#393939"/>
<path d="m35.8 224.29s-4.15-9.78-9.75-6.66 3.85 7.79 9.75 6.66z" fill="#393939"/>
<path d="m46.029 223.53s-2.22-8 4.07-9.17 4.59 6.4-4.07 9.17z" fill="#393939"/>
<path d="m44.527 240.78s7.24-8.93 11.2-3.81-5.28 7.83-11.2 3.81z" fill="#393939"/>
<path d="m29.331 241.88s-3.63-12.28-9.83-7.23 4.08 9.45 9.83 7.23z" fill="#393939"/>
<path d="m26.239 260.81s3-13.49-6.17-10.53-0.96 8.54 6.17 10.53z" fill="#393939"/>
<path d="m41.371 262.99s6.41-10.63 12.94-8.66 3.1 12.09-12.94 8.66z" fill="#393939"/>
<path d="m37.55 284.84s-9.19-13.89-14.37-7.86 5.88 11.98 14.37 7.86z" fill="#393939"/>
<path d="m47.22 282.42s-3.68-11.34 3.15-11.5 6.24 7.2-3.15 11.5z" fill="#393939"/>
<g fill="#fff" opacity=".2">
<path d="m41.688 214.49s1.87-11.79-6.55-10.66 2.55 10.1 6.55 10.66z"/>
<path d="m35.8 224.29s-4.15-9.78-9.75-6.66 3.85 7.79 9.75 6.66z"/>
<path d="m46.029 223.53s-2.22-8 4.07-9.17 4.59 6.4-4.07 9.17z"/>
<path d="m44.527 240.78s7.24-8.93 11.2-3.81-5.28 7.83-11.2 3.81z"/>
<path d="m29.331 241.88s-3.63-12.28-9.83-7.23 4.08 9.45 9.83 7.23z"/>
<path d="m26.239 260.81s3-13.49-6.17-10.53-0.96 8.54 6.17 10.53z"/>
<path d="m41.371 262.99s6.41-10.63 12.94-8.66 3.1 12.09-12.94 8.66z"/>
<path d="m37.55 284.84s-9.19-13.89-14.37-7.86 5.88 11.98 14.37 7.86z"/>
<path d="m47.22 282.42s-3.68-11.34 3.15-11.5 6.24 7.2-3.15 11.5z"/>
</g>
<path d="m40.479 230.48h-0.05c-0.0611-8e-3 -0.12-0.028-0.1733-0.059-0.0532-0.03-0.0997-0.072-0.1367-0.121 0-0.05-4.24-5.67-6.88-6.72-0.0552-0.022-0.1055-0.054-0.1482-0.095s-0.0768-0.09-0.1005-0.145c-0.0237-0.054-0.0364-0.112-0.0375-0.172-0.0011-0.059 0.0095-0.118 0.0312-0.173 0.0216-0.055 0.054-0.106 0.0951-0.148 0.0411-0.043 0.0902-0.077 0.1446-0.101 0.0543-0.023 0.1127-0.036 0.172-0.037 0.0592-1e-3 0.1181 9e-3 0.1733 0.031 2.49 1 6 5.33 7 6.65 2.7902-2.549 5.0736-5.603 6.73-9 0.0247-0.054 0.0599-0.103 0.1036-0.143 0.0436-0.04 0.0948-0.072 0.1505-0.092 0.0558-0.02 0.1151-0.03 0.1745-0.027 0.0593 2e-3 0.1176 0.017 0.1714 0.042 0.1073 0.052 0.1901 0.144 0.2312 0.256 0.041 0.111 0.037 0.235-0.0112 0.344-0.12 0.25-2.83 6.08-7.34 9.67-0.0931 0.045-0.1983 0.059-0.3 0.04z" fill="#393939"/>
<path d="m35.338 247.28c-0.0631-2e-3 -0.1252-0.018-0.182-0.045-0.0569-0.028-0.1073-0.067-0.148-0.115 0-0.06-5.13-6.11-10.74-8.29-0.058-0.019-0.1115-0.05-0.1574-0.09s-0.0831-0.089-0.1094-0.144-0.0412-0.115-0.0437-0.176 0.0074-0.121 0.0291-0.178 0.0548-0.109 0.0972-0.153 0.0933-0.079 0.1495-0.102c0.0563-0.024 0.1167-0.036 0.1777-0.035 0.061 0 0.1212 0.013 0.177 0.038 5.07 2 9.56 6.78 10.79 8.18 6.37-6.4 15.12-7.6 15.49-7.65 0.1191-0.015 0.2391 0.018 0.3343 0.091 0.0953 0.073 0.1583 0.18 0.1757 0.299 0.0085 0.059 5e-3 0.119-0.0101 0.177s-0.0416 0.112-0.0779 0.159c-0.0363 0.048-0.0817 0.088-0.1336 0.117-0.0518 0.03-0.1091 0.049-0.1684 0.057-0.09 0-9.13 1.26-15.3 7.72-0.0455 0.046-0.1001 0.082-0.1603 0.106-0.0603 0.024-0.1248 0.036-0.1897 0.034z" fill="#393939"/>
<path d="m33.801 268.64c-0.0806 0-0.1599-0.02-0.23-0.06-5.72-3.24-11.23-12.69-11.46-13.09-0.0295-0.051-0.0487-0.108-0.0564-0.167-0.0077-0.058-0.0038-0.118 0.0116-0.175 0.0153-0.057 0.0417-0.111 0.0777-0.157 0.036-0.047 0.0809-0.087 0.1321-0.116 0.0512-0.03 0.1078-0.049 0.1664-0.057 0.0586-7e-3 0.1182-3e-3 0.1753 0.012s0.1106 0.042 0.1575 0.078 0.0863 0.081 0.1158 0.132c0 0.09 5.45 9.34 10.87 12.6 1.56-1.25 10-7.73 17-9 0.0586-0.013 0.1192-0.014 0.1782-3e-3 0.0589 0.011 0.1149 0.035 0.1646 0.068 0.0496 0.034 0.0918 0.078 0.124 0.128 0.0322 0.051 0.0538 0.107 0.0632 0.167 0.0101 0.058 0.0084 0.118-0.0048 0.176s-0.0377 0.112-0.072 0.161c-0.0344 0.048-0.078 0.089-0.1283 0.12-0.0503 0.032-0.1064 0.053-0.1649 0.063-7.41 1.36-16.74 9-16.84 9-0.0755 0.073-0.1751 0.115-0.28 0.12z" fill="#393939"/>
<path d="m43.231 288.92c-0.0595 2e-3 -0.1188-8e-3 -0.1739-0.031-0.0552-0.022-0.105-0.056-0.146-0.099-3.4566-2.996-7.7432-4.869-12.29-5.37-0.0594-8e-3 -0.1166-0.027-0.1684-0.056-0.0519-0.03-0.0973-0.07-0.1336-0.117-0.0363-0.048-0.0628-0.102-0.0779-0.16s-0.0186-0.118-0.0101-0.177c0.0197-0.118 0.0833-0.223 0.178-0.296 0.0947-0.072 0.2133-0.106 0.332-0.094 4.604 0.529 8.951 2.4 12.5 5.38 3.24-3.06 6.51-13.12 6.55-13.23 0.0132-0.062 0.0394-0.12 0.0766-0.171 0.0373-0.051 0.0848-0.094 0.1396-0.125 0.0547-0.031 0.1155-0.051 0.1783-0.057 0.0628-7e-3 0.1262 0 0.1862 0.02 0.0599 0.02 0.1151 0.052 0.1618 0.094 0.0467 0.043 0.0839 0.095 0.1093 0.152 0.0254 0.058 0.0384 0.121 0.0381 0.184-4e-4 0.063-0.014 0.125-0.0399 0.183-0.14 0.45-3.59 11-7.13 13.91-0.0835 0.052-0.1826 0.073-0.2801 0.06z" fill="#393939"/>
<path d="m47.43 311.97s3.28-5.23 7-6 5.31-5 6.68-2.44-2.42 11.11-13.68 8.44z" fill="#393939"/>
<path d="m64.471 332.49h-35.86l-2.4-22.13h40.66l-2.4 22.13z" fill="#A6A6A6"/>
<path d="m67.708 314.55h-42.34l-0.54-4.68h43.42l-0.54 4.68z" fill="#A6A6A6"/>
<path d="m67.708 314.55h-42.34l-0.54-4.68h43.42l-0.54 4.68z" fill="#fff" opacity=".3"/>
<path d="m129.47 239.88c1.34 1.7 8.46 0.66 9.75-1.22l-1.24-1s-7 3.56-10 0.25l1.49 1.97z" fill="#A6A6A6"/>
<path d="m131.82 249.2h25.55v-29.78h-25.55v29.78z" fill="#A6A6A6"/>
<path d="m131.82 249.2h25.55v-29.78h-25.55v29.78z" fill="#fff" opacity=".6"/>
<path d="m130.89 220.89h27.43v-2.01h-27.43v2.01z" fill="#A6A6A6"/>
<path d="m130.89 220.89h27.43v-2.01h-27.43v2.01z" fill="#fff" opacity=".7"/>
<path d="m155.52 218.88c-0.379-1e-3 -0.754 0.073-1.105 0.217s-0.669 0.356-0.938 0.623c-0.268 0.268-0.481 0.586-0.627 0.936-0.145 0.35-0.22 0.725-0.22 1.104v17.28c0 0.266-0.105 0.52-0.293 0.708-0.187 0.187-0.442 0.292-0.707 0.292s-0.519-0.105-0.707-0.292c-0.187-0.188-0.293-0.442-0.293-0.708v-17.4c0-0.379-0.15-0.743-0.419-1.011-0.268-0.268-0.632-0.419-1.011-0.419-0.38 0-0.745 0.151-1.015 0.419-0.269 0.268-0.422 0.631-0.425 1.011v8c0 0.266-0.105 0.52-0.293 0.708-0.187 0.187-0.442 0.292-0.707 0.292h-0.08c-0.265 0-0.519-0.105-0.707-0.292-0.187-0.188-0.293-0.442-0.293-0.708v-7.4c0-0.891-0.354-1.745-0.984-2.375-0.63-0.631-1.485-0.985-2.376-0.985h13.2z" fill="#393939"/>
<path d="m131.83 242.72h11.42v-15.76h-11.42v15.76z" opacity=".2"/>
<path d="m136.69 219.42c0.091 0.069 0.167 0.156 0.223 0.256 0.055 0.1 0.089 0.21 0.1 0.324 0.01 0.114-3e-3 0.229-0.04 0.338-0.037 0.108-0.096 0.207-0.173 0.292-2.12 2.33-8.86 10.5-7.28 19.21l-1.48-2s-1.33-9.25 7.54-18.38c0.147-0.143 0.342-0.226 0.547-0.233 0.205-8e-3 0.405 0.061 0.563 0.193z" fill="#A6A6A6"/>
<path d="m136.69 219.42c0.091 0.069 0.167 0.156 0.223 0.256 0.055 0.1 0.089 0.21 0.1 0.324 0.01 0.114-3e-3 0.229-0.04 0.338-0.037 0.108-0.096 0.207-0.173 0.292-2.12 2.33-8.86 10.5-7.28 19.21l-1.48-2s-1.33-9.25 7.54-18.38c0.147-0.143 0.342-0.226 0.547-0.233 0.205-8e-3 0.405 0.061 0.563 0.193z" fill="#fff" opacity=".2"/>
<path d="m122.94 249.21v83.28h5.029v-73.61h53.351v73.61h5.04v-83.28h-63.42z" fill="#393939"/>
<path d="m122.94 249.21v83.28h5.029v-73.61h53.351v73.61h5.04v-83.28h-63.42z" fill="#fff" opacity=".5"/>
<path d="m108.93 249.21v83.28h5.04v-73.61h53.34v73.61h5.04v-83.28h-63.42z" fill="#393939"/>
<path d="m108.93 249.21v83.28h5.04v-73.61h53.34v73.61h5.04v-83.28h-63.42z" fill="#fff" opacity=".7"/>
<path d="m116.85 249.31h27.08v-3.62h-27.08v3.62z" fill="#A6A6A6"/>
<path d="m116.4 248.64h27.97v-2.28h-27.97v2.28z" fill="#A6A6A6"/>
<path d="m116.4 248.64h27.97v-2.28h-27.97v2.28z" fill="#fff" opacity=".2"/>
<path d="m170.57 244.3 1.123 0.192 3.578-20.998-1.124-0.191-3.577 20.997z" fill="#393939"/>
<path d="m169.32 246.85 1.139-0.049-0.914-21.281-1.139 0.049 0.914 21.281z" fill="#393939"/>
<path d="m162.57 249.21h10.48l1-13.82h-12.48l1 13.82z" fill="#A6A6A6"/>
<path d="m199.27 324.16c-1.34 1.7-8.46 0.659-9.75-1.22l1.24-1s7 3.559 10 0.25l-1.49 1.97z" fill="#393939"/>
<path d="m196.92 302.71h-25.55v29.78h25.55v-29.78z" fill="#A6A6A6"/>
<path d="m196.92 302.71h-25.55v29.78h25.55v-29.78z" fill="#fff" opacity=".6"/>
<path d="m197.45 303.16h-26.67v2.43h26.67v-2.43z" fill="#A6A6A6"/>
<path d="m197.45 303.16h-26.67v2.43h26.67v-2.43z" fill="#fff" opacity=".7"/>
<path d="m188.3 310.24h-16.82v15.76h16.82v-15.76z" opacity=".2"/>
<path d="m192.1 303.74c-0.091 0.069-0.167 0.156-0.223 0.256s-0.09 0.211-0.1 0.325 3e-3 0.229 0.04 0.337c0.037 0.109 0.096 0.208 0.173 0.292 2.13 2.33 8.86 10.5 7.28 19.21l1.48-2s1.33-9.25-7.54-18.38c-0.143-0.146-0.335-0.235-0.54-0.25-0.204-0.015-0.407 0.046-0.57 0.17v0.04z" fill="#393939"/>
<path d="m192.1 303.74c-0.091 0.069-0.167 0.156-0.223 0.256s-0.09 0.211-0.1 0.325 3e-3 0.229 0.04 0.337c0.037 0.109 0.096 0.208 0.173 0.292 2.13 2.33 8.86 10.5 7.28 19.21l1.48-2s1.33-9.25-7.54-18.38c-0.143-0.146-0.335-0.235-0.54-0.25-0.204-0.015-0.407 0.046-0.57 0.17v0.04z" fill="#fff" opacity=".2"/>
<path d="m285.5 332.21h8.88l-28.87-213.13h-8.88l28.87 213.13z" fill="#D3D3D3"/>
<path d="m266.94 150.67h28.22c0.345-0.011 0.68-0.118 0.968-0.309s0.517-0.458 0.662-0.771l1.81-3.55h-35.08l1.8 3.55c0.141 0.314 0.367 0.582 0.654 0.773s0.621 0.297 0.966 0.307z" fill="#B7B7B7"/>
<path d="m263.93 147.73h34.24c0.977 0 1.77-0.792 1.77-1.77v-0.27c0-0.978-0.793-1.77-1.77-1.77h-34.24c-0.978 0-1.77 0.792-1.77 1.77v0.27c0 0.978 0.792 1.77 1.77 1.77z" fill="#D3D3D3"/>
<path d="m272.09 181.14h28.22c0.345-0.011 0.68-0.118 0.968-0.308 0.288-0.191 0.517-0.458 0.662-0.772l1.79-3.54h-35.06l1.79 3.54c0.145 0.314 0.374 0.581 0.662 0.772 0.287 0.19 0.623 0.297 0.968 0.308z" fill="#B7B7B7"/>
<path d="m269.08 178.19h34.24c0.977 0 1.77-0.792 1.77-1.77v-0.27c0-0.978-0.793-1.77-1.77-1.77h-34.24c-0.978 0-1.77 0.792-1.77 1.77v0.27c0 0.978 0.792 1.77 1.77 1.77z" fill="#D3D3D3"/>
<path d="m277.24 221.46h28.22c0.345-9e-3 0.679-0.115 0.966-0.306 0.286-0.191 0.513-0.459 0.654-0.774l1.8-3.54h-35.06l1.79 3.54c0.145 0.314 0.374 0.581 0.662 0.772s0.623 0.297 0.968 0.308z" fill="#B7B7B7"/>
<path d="m274.23 218.52h34.24c0.978 0 1.77-0.792 1.77-1.77v-0.27c0-0.977-0.792-1.77-1.77-1.77h-34.24c-0.977 0-1.77 0.793-1.77 1.77v0.27c0 0.978 0.793 1.77 1.77 1.77z" fill="#D3D3D3"/>
<path d="m282.38 261.79h28.22c0.344-9e-3 0.679-0.115 0.965-0.306 0.287-0.191 0.514-0.459 0.655-0.774l1.79-3.54h-35.04l1.79 3.54c0.143 0.313 0.37 0.58 0.656 0.771s0.62 0.298 0.964 0.309z" fill="#B7B7B7"/>
<path d="m279.37 258.85h34.24c0.977 0 1.77-0.792 1.77-1.77v-0.27c0-0.977-0.793-1.77-1.77-1.77h-34.24c-0.978 0-1.77 0.793-1.77 1.77v0.27c0 0.978 0.792 1.77 1.77 1.77z" fill="#D3D3D3"/>
<path d="m287.53 302.14h28.22c0.346-0.011 0.681-0.117 0.969-0.308s0.517-0.458 0.661-0.772l1.79-3.55h-35.06l1.8 3.55c0.141 0.315 0.368 0.583 0.655 0.774 0.286 0.191 0.621 0.297 0.965 0.306z" fill="#B7B7B7"/>
<path d="m284.52 299.18h34.24c0.978 0 1.77-0.792 1.77-1.77v-0.27c0-0.977-0.792-1.77-1.77-1.77h-34.24c-0.977 0-1.77 0.793-1.77 1.77v0.27c0 0.978 0.793 1.77 1.77 1.77z" fill="#D3D3D3"/>
<path d="m319.77 332.21h8.88l-28.87-213.13h-8.87l28.86 213.13z" fill="#D3D3D3"/>
<path d="m226.56 332.21h-8.869l28.86-213.13h8.879l-28.87 213.13z" fill="#D3D3D3"/>
<path d="m274.25 181.14h-28.22c-0.346-0.011-0.681-0.117-0.969-0.308s-0.517-0.458-0.661-0.772l-1.8-3.55h35.06l-1.8 3.54c-0.139 0.315-0.364 0.584-0.649 0.777-0.284 0.193-0.618 0.301-0.961 0.313z" fill="#B7B7B7"/>
<path d="m277.26 174.39h-34.24c-0.978 0-1.77 0.793-1.77 1.77v0.27c0 0.978 0.792 1.77 1.77 1.77h34.24c0.978 0 1.77-0.792 1.77-1.77v-0.27c0-0.977-0.792-1.77-1.77-1.77z" fill="#D3D3D3"/>
<path d="m269.1 221.46h-28.22c-0.345-0.011-0.681-0.117-0.968-0.308-0.288-0.191-0.517-0.458-0.662-0.772l-1.79-3.54h35.06l-1.79 3.54c-0.145 0.314-0.374 0.581-0.662 0.772s-0.623 0.297-0.968 0.308z" fill="#B7B7B7"/>
<path d="m272.11 214.72h-34.24c-0.978 0-1.77 0.793-1.77 1.77v0.27c0 0.978 0.792 1.77 1.77 1.77h34.24c0.977 0 1.77-0.792 1.77-1.77v-0.27c0-0.977-0.793-1.77-1.77-1.77z" fill="#D3D3D3"/>
<path d="m263.95 261.79h-28.22c-0.345-9e-3 -0.679-0.115-0.966-0.306s-0.513-0.459-0.654-0.774l-1.8-3.54h35.06l-1.77 3.54c-0.147 0.317-0.379 0.586-0.671 0.777-0.291 0.191-0.631 0.296-0.979 0.303z" fill="#B7B7B7"/>
<path d="m266.96 255.05h-34.24c-0.977 0-1.77 0.793-1.77 1.77v0.27c0 0.978 0.793 1.77 1.77 1.77h34.24c0.978 0 1.77-0.792 1.77-1.77v-0.27c0-0.977-0.792-1.77-1.77-1.77z" fill="#D3D3D3"/>
<path d="m258.81 302.14h-28.209c-0.345-0.01-0.679-0.117-0.965-0.308s-0.513-0.458-0.655-0.772l-1.79-3.55h35.05l-1.79 3.55c-0.144 0.317-0.374 0.586-0.664 0.777-0.291 0.192-0.629 0.297-0.977 0.303z" fill="#B7B7B7"/>
<path d="m261.82 295.38h-34.24c-0.978 0-1.77 0.793-1.77 1.77v0.27c0 0.978 0.792 1.77 1.77 1.77h34.24c0.977 0 1.77-0.792 1.77-1.77v-0.27c0-0.977-0.793-1.77-1.77-1.77z" fill="#D3D3D3"/>
<path d="m260.84 332.21h-8.88l28.87-213.13h8.88l-28.87 213.13z" fill="#D3D3D3"/>
<path d="m301.21 120.14h-56.27c-0.343-0.01-0.677-0.115-0.963-0.304s-0.514-0.454-0.657-0.766l-1.8-3.55h63.08l-1.77 3.62c-0.155 0.298-0.387 0.548-0.672 0.724-0.285 0.177-0.613 0.272-0.948 0.276z" fill="#B7B7B7"/>
<path d="m304.22 113.42h-62.28c-0.978 0-1.77 0.793-1.77 1.77v0.27c0 0.978 0.792 1.77 1.77 1.77h62.28c0.978 0 1.77-0.792 1.77-1.77v-0.27c0-0.977-0.792-1.77-1.77-1.77z" fill="#D3D3D3"/>
<path d="m1.2 23v-3.8h20.26v3.8l-10.1 9h-6.54l11.86-10.42 0.54 1.42h-16.02zm19.966 0v-3.8h8.68v9.8h-4.8v-6h-3.88zm18.386 6.3c-2.12 0-3.8866-0.1733-5.3-0.52-1.4-0.3467-2.4533-0.9-3.16-1.66-0.6933-0.76-1.04-1.76-1.04-3s0.3467-2.24 1.04-3c0.7067-0.7733 1.76-1.3333 3.16-1.68 1.4134-0.36 3.18-0.54 5.3-0.54 2.1067 0 3.8534 0.18 5.24 0.54 1.4 0.3467 2.4467 0.9067 3.14 1.68 0.6934 0.76 1.04 1.76 1.04 3s-0.3466 2.24-1.04 3c-0.6933 0.76-1.74 1.3133-3.14 1.66-1.3866 0.3467-3.1333 0.52-5.24 0.52zm0-3c0.9867 0 1.8134-0.08 2.48-0.24 0.6667-0.1733 1.1734-0.42 1.52-0.74 0.3467-0.32 0.52-0.72 0.52-1.2s-0.1733-0.88-0.52-1.2c-0.3333-0.3333-0.8333-0.5867-1.5-0.76-0.6666-0.1733-1.4933-0.26-2.48-0.26-1 0-1.8466 0.0867-2.54 0.26-0.68 0.16-1.2 0.4067-1.56 0.74-0.3466 0.3333-0.52 0.74-0.52 1.22s0.1734 0.88 0.52 1.2c0.3467 0.32 0.86 0.5667 1.54 0.74 0.6934 0.16 1.54 0.24 2.54 0.24zm18.928 3c-2.12 0-3.8867-0.1733-5.3-0.52-1.4-0.3467-2.4534-0.9-3.16-1.66-0.6934-0.76-1.04-1.76-1.04-3s0.3466-2.24 1.04-3c0.7066-0.7733 1.76-1.3333 3.16-1.68 1.4133-0.36 3.18-0.54 5.3-0.54 2.1066 0 3.8533 0.18 5.24 0.54 1.4 0.3467 2.4466 0.9067 3.14 1.68 0.6933 0.76 1.04 1.76 1.04 3s-0.3467 2.24-1.04 3c-0.6934 0.76-1.74 1.3133-3.14 1.66-1.3867 0.3467-3.1334 0.52-5.24 0.52zm0-3c0.9866 0 1.8133-0.08 2.48-0.24 0.6666-0.1733 1.1733-0.42 1.52-0.74 0.3466-0.32 0.52-0.72 0.52-1.2s-0.1734-0.88-0.52-1.2c-0.3334-0.3333-0.8334-0.5867-1.5-0.76-0.6667-0.1733-1.4934-0.26-2.48-0.26-1 0-1.8467 0.0867-2.54 0.26-0.68 0.16-1.2 0.4067-1.56 0.74-0.3467 0.3333-0.52 0.74-0.52 1.22s0.1733 0.88 0.52 1.2c0.3466 0.32 0.86 0.5667 1.54 0.74 0.6933 0.16 1.54 0.24 2.54 0.24zm18.928 3c-2.12 0-3.8867-0.1733-5.3-0.52-1.4-0.3467-2.4533-0.9-3.16-1.66-0.6933-0.76-1.04-1.76-1.04-3s0.3467-2.24 1.04-3c0.7067-0.7733 1.76-1.3333 3.16-1.68 1.4133-0.36 3.18-0.54 5.3-0.54 2.1067 0 3.8533 0.18 5.24 0.54 1.4 0.3467 2.4467 0.9067 3.14 1.68 0.6933 0.76 1.04 1.76 1.04 3s-0.3467 2.24-1.04 3-1.74 1.3133-3.14 1.66c-1.3867 0.3467-3.1333 0.52-5.24 0.52zm0-3c0.9867 0 1.8133-0.08 2.48-0.24 0.6667-0.1733 1.1733-0.42 1.52-0.74s0.52-0.72 0.52-1.2-0.1733-0.88-0.52-1.2c-0.3333-0.3333-0.8333-0.5867-1.5-0.76s-1.4933-0.26-2.48-0.26c-1 0-1.8467 0.0867-2.54 0.26-0.68 0.16-1.2 0.4067-1.56 0.74-0.3467 0.3333-0.52 0.74-0.52 1.22s0.1733 0.88 0.52 1.2 0.86 0.5667 1.54 0.74c0.6933 0.16 1.54 0.24 2.54 0.24zm-76.289 33.18h8.736c0.1493 0.448 0.5867 0.832 1.312 1.152 0.7253 0.2987 1.696 0.5333 2.912 0.704 1.2373 0.1493 2.6667 0.224 4.288 0.224 1.6 0 2.8587-0.0427 3.776-0.128 0.9387-0.1067 1.6-0.2773 1.984-0.512 0.384-0.256 0.576-0.5973 0.576-1.024 0-0.4053-0.3093-0.7147-0.928-0.928-0.6187-0.2347-1.7173-0.3947-3.296-0.48s-3.7973-0.128-6.656-0.128c-2.1333 0-3.9787-0.096-5.536-0.288-1.536-0.2133-2.8053-0.5333-3.808-0.96-0.98133-0.448-1.7067-1.0027-2.176-1.664-0.46933-0.6827-0.704-1.4933-0.704-2.432 0-1.6213 0.544-2.9547 1.632-4 1.1093-1.0667 2.7733-1.856 4.992-2.368 2.24-0.5333 5.0347-0.8 8.384-0.8 4.9067 0 8.6507 0.7147 11.232 2.144 2.6027 1.408 3.904 3.4453 3.904 6.112h-8.288c-0.1067-0.704-0.768-1.2373-1.984-1.6-1.216-0.384-2.944-0.576-5.184-0.576-2.2187 0-3.872 0.128-4.96 0.384-1.0667 0.256-1.6 0.6933-1.6 1.312 0 0.32 0.14933 0.576 0.448 0.768 0.2987 0.192 0.8107 0.352 1.536 0.48 0.7467 0.1067 1.792 0.1813 3.136 0.224s3.0507 0.064 5.12 0.064c2.2827 0 4.224 0.1173 5.824 0.352 1.6 0.2133 2.8907 0.544 3.872 0.992 1.0027 0.448 1.728 1.024 2.176 1.728 0.448 0.6827 0.672 1.4933 0.672 2.432 0 1.6213-0.512 2.944-1.536 3.968s-2.6453 1.7813-4.864 2.272-5.12 0.736-8.704 0.736c-2.0267 0-3.8933-0.1173-5.6-0.352-1.6853-0.2347-3.1893-0.576-4.512-1.024-1.3227-0.4693-2.4427-1.0347-3.36-1.696-0.91733-0.6827-1.6213-1.44-2.112-2.272-0.46933-0.8533-0.704-1.792-0.704-2.816zm35.34 4.416v-4.8h21.888v4.8h-21.888zm-7.168 3.104 13.728-20.48h8.896l13.856 20.48h-8.8l-11.872-18.336h4.768l-11.776 18.336h-8.8zm35.205 0v-20.48h24.736c1.9413 0 3.68 0.224 5.216 0.672 1.5573 0.4267 2.784 1.152 3.68 2.176 0.9173 1.024 1.376 2.4213 1.376 4.192 0 1.1733-0.2133 2.144-0.64 2.912s-1.0133 1.3653-1.76 1.792-1.6 0.736-2.56 0.928-1.9627 0.3093-3.008 0.352l-2.336-0.448c2.5387 0.0213 4.4907 0.128 5.856 0.32 1.3867 0.192 2.3467 0.544 2.88 1.056 0.5547 0.4907 0.832 1.2053 0.832 2.144v4.384h-8v-3.424c0-0.64-0.128-1.12-0.384-1.44-0.2347-0.3413-0.768-0.576-1.6-0.704-0.8107-0.128-2.0693-0.192-3.776-0.192h-12.512v5.76h-8zm8-11.104h16.736c0.64 0 1.1733-0.1067 1.6-0.32 0.448-0.2133 0.672-0.6187 0.672-1.216 0-0.5547-0.224-0.928-0.672-1.12-0.4267-0.2133-0.96-0.32-1.6-0.32h-16.736v2.976zm32.846 8v-4.8h21.888v4.8h-21.888zm-7.168 3.104 13.728-20.48h8.896l13.856 20.48h-8.8l-11.872-18.336h4.768l-11.776 18.336h-8.8zm53.572-10.528v-9.952h8v10.912c0 1.216-0.278 2.4107-0.832 3.584-0.534 1.152-1.387 2.208-2.56 3.168-1.152 0.96-2.646 1.728-4.48 2.304-1.814 0.5547-3.99 0.832-6.528 0.832-1.771 0-3.52-0.16-5.248-0.48-1.707-0.3413-3.254-0.8853-4.64-1.632-1.387-0.7467-2.496-1.7387-3.328-2.976-0.832-1.2587-1.259-2.8053-1.28-4.64h7.68c0.298 1.3227 0.981 2.2613 2.048 2.816 1.088 0.5547 2.677 0.832 4.768 0.832 1.77 0 3.114-0.2027 4.032-0.608 0.917-0.4053 1.536-0.9707 1.856-1.696 0.341-0.7253 0.512-1.5467 0.512-2.464zm16.637 1.888v2.56h24.32v6.08h-32.32v-20.48h32.256v6.08h-24.256v2.56h19.84v3.2h-19.84zm35.445 8.64-12.416-20.48h9.024l10.592 19.68h-3.264l10.592-19.68h8.896l-12.288 20.48h-11.136zm39.258 0.64c-4.65 0-8.394-0.4053-11.232-1.216-2.837-0.832-4.906-2.048-6.208-3.648-1.28-1.6213-1.92-3.6267-1.92-6.016s0.64-4.384 1.92-5.984c1.302-1.6213 3.371-2.8373 6.208-3.648 2.838-0.832 6.582-1.248 11.232-1.248 4.651 0 8.395 0.416 11.232 1.248 2.838 0.8107 4.896 2.0267 6.176 3.648 1.302 1.6 1.952 3.5947 1.952 5.984s-0.65 4.3947-1.952 6.016c-1.28 1.6-3.338 2.816-6.176 3.648-2.837 0.8107-6.581 1.216-11.232 1.216zm0-6.08c2.198 0 4.096-0.128 5.696-0.384 1.6-0.2773 2.838-0.7573 3.712-1.44 0.875-0.704 1.312-1.696 1.312-2.976s-0.437-2.2613-1.312-2.944c-0.874-0.704-2.112-1.184-3.712-1.44-1.6-0.2773-3.498-0.416-5.696-0.416-2.197 0-4.128 0.1387-5.792 0.416-1.642 0.256-2.933 0.736-3.872 1.44-0.917 0.6827-1.376 1.664-1.376 2.944s0.459 2.272 1.376 2.976c0.939 0.6827 2.23 1.1627 3.872 1.44 1.664 0.256 3.595 0.384 5.792 0.384z" fill="#393939"/>
</svg>
