
<svg width="313" height="294" viewBox="0 0 313 294" fill="none" xmlns="http://www.w3.org/2000/svg">
<path d="M58.3581 21.5374L56.2081 32.4174H48.9481L51.1481 21.2174L43.0781 1.04736H50.3381L55.9381 15.0474L67.1881 1.04736H74.6881L58.3581 21.5374Z" fill="#A6A6A6"/>
<path d="M71.0898 19.3376C71.0898 8.62758 78.9298 0.517578 90.4998 0.517578C100.04 0.517578 105.78 6.07758 105.78 14.1476C105.78 24.8576 97.9298 32.9676 86.3698 32.9676C76.8298 32.9676 71.0898 27.4176 71.0898 19.3376ZM98.4299 14.5476C98.4299 9.88758 95.3798 6.70757 89.8698 6.70757C82.7898 6.70757 78.4398 12.3076 78.4398 18.9376C78.4398 23.5976 81.4898 26.7776 86.9998 26.7776C94.0798 26.7776 98.4299 21.1776 98.4299 14.5476Z" fill="#A6A6A6"/>
<path d="M110.078 21.9876C110.093 20.8589 110.214 19.734 110.438 18.6276L113.928 1.05762H121.238L117.738 18.4876C117.576 19.3619 117.489 20.2485 117.478 21.1376C117.478 24.9476 119.628 26.7776 123.528 26.7776C127.918 26.7776 130.468 24.3576 131.678 18.4876L135.178 1.05762H142.298L138.758 18.9376C136.878 28.2176 131.548 32.9376 122.758 32.9376C114.828 32.9676 110.078 28.7576 110.078 21.9876Z" fill="#A6A6A6"/>
<path d="M156.906 19.3376C156.906 8.62758 164.756 0.517578 176.406 0.517578C181.966 0.517578 186.486 2.51758 188.726 6.07758L183.486 10.4176C181.876 8.04758 179.366 6.74758 175.916 6.74758C168.826 6.74758 164.256 12.1676 164.256 18.9376C164.256 23.6876 167.396 26.8176 173.046 26.8176C174.614 26.8467 176.17 26.5375 177.607 25.9111C179.045 25.2846 180.33 24.3557 181.376 23.1876L185.676 27.5876C182.366 31.4376 177.796 33.0076 172.416 33.0076C162.826 32.9676 156.906 27.4176 156.906 19.3376Z" fill="#A6A6A6"/>
<path d="M210.467 25.7074H195.857L191.777 32.4174H184.027L204.327 1.04736H211.497L219.207 32.4174H211.947L210.467 25.7074ZM209.257 20.1974L206.607 8.09736L199.217 20.1974H209.257Z" fill="#A6A6A6"/>
<path d="M257.53 1.05737L251.25 32.4174H245.25L233.55 12.7874L229.69 32.4174H222.52L228.79 1.04736H234.79L246.49 20.7174L250.39 1.04736L257.53 1.05737Z" fill="#A6A6A6"/>
<path d="M77.6897 38.6978H90.8197C100.5 38.6978 106.28 43.7578 106.28 51.7778C106.28 62.8478 98.3497 70.0677 86.7397 70.0677H71.4297L77.6897 38.6978ZM86.9697 64.1078C94.4997 64.1078 98.9697 58.9978 98.9697 52.1878C98.9697 47.5278 95.9697 44.6578 90.0597 44.6578H83.8297L79.9297 64.1078H86.9697Z" fill="#A6A6A6"/>
<path d="M143.69 48.2174C143.69 48.2174 143.54 51.0774 142.88 51.0074C142.22 50.9374 142.28 48.8974 142.28 48.8974C142.28 48.8974 141.89 52.3974 141.39 52.5774C140.89 52.7574 140.48 49.7774 140.48 49.7774C140.48 49.7774 140.31 52.7274 140.04 52.7774C139.77 52.8274 139.53 50.2074 139.53 50.2074C139.53 50.2074 139.05 53.8774 138.72 53.8774C138.39 53.8774 138.39 50.7674 138.15 50.8774C137.91 50.9874 137.41 55.3374 137.21 55.3374C137.21 55.3374 137.15 55.1974 137.14 54.8674C137.141 53.7573 137 52.6516 136.72 51.5774C136.73 51.7706 136.73 51.9642 136.72 52.1574C136.72 58.7874 132.37 64.3874 125.29 64.3874C119.78 64.3874 116.73 61.2074 116.73 56.5474C116.668 54.3634 117.191 52.2027 118.247 50.2895C119.302 48.3763 120.85 46.7804 122.73 45.6674C123.983 45.0425 125.337 44.643 126.73 44.4874C126.447 44.5229 126.162 44.5229 125.88 44.4874C126.445 44.36 127.021 44.2797 127.6 44.2474L129.09 39.4174C127.298 39.2757 125.495 39.4004 123.74 39.7874C121.67 40.3274 124.74 39.1474 126.42 38.8974C126.42 38.8974 123.89 38.5574 119.59 40.1774C113.29 43.2274 109.43 49.4674 109.43 56.9774C109.43 65.0474 115.17 70.6074 124.71 70.6074C136.28 70.6074 144.12 62.4874 144.12 51.7774C144.118 50.5779 143.973 49.3829 143.69 48.2174Z" fill="#A6A6A6"/>
<path d="M28.3505 270.178C28.3505 270.178 29.6105 260.908 35.5405 259.898C41.4705 258.888 39.6705 254.398 41.2205 252.668C42.7705 250.938 46.7905 256.048 43.3405 261.008C39.8905 265.968 42.7105 264.408 41.2205 269.008C39.7305 273.608 27.8005 277.858 28.3505 270.178Z" fill="#393939"/>
<path opacity="0.2" d="M28.3505 270.178C28.3505 270.178 29.6105 260.908 35.5405 259.898C41.4705 258.888 39.6705 254.398 41.2205 252.668C42.7705 250.938 46.7905 256.048 43.3405 261.008C39.8905 265.968 42.7105 264.408 41.2205 269.008C39.7305 273.608 27.8005 277.858 28.3505 270.178Z" fill="white"/>
<path d="M29.359 276.088H29.229C29.1151 276.053 29.0195 275.975 28.9633 275.87C28.9071 275.765 28.8947 275.642 28.929 275.528C28.929 275.428 31.789 265.418 27.069 250.918C25.6252 246.76 23.7553 242.762 21.489 238.988C17.489 231.858 13.999 225.698 17.389 213.398C18.389 209.598 19.559 206.038 20.649 202.588C24.649 189.898 27.799 179.868 22.909 171.238C22.8788 171.186 22.8593 171.129 22.8515 171.07C22.8437 171.01 22.8479 170.95 22.8637 170.892C22.8795 170.835 22.9067 170.781 22.9437 170.733C22.9807 170.686 23.0267 170.647 23.079 170.618C23.1826 170.56 23.3047 170.546 23.419 170.578C23.5332 170.609 23.6302 170.685 23.689 170.788C28.779 179.788 25.569 189.958 21.509 202.858C20.419 206.298 19.309 209.858 18.259 213.638C14.969 225.578 18.189 231.308 22.259 238.548C24.5579 242.372 26.4547 246.423 27.919 250.638C32.729 265.428 29.819 275.638 29.779 275.778C29.7512 275.868 29.6955 275.946 29.6199 276.002C29.5444 276.058 29.4529 276.088 29.359 276.088Z" fill="#393939"/>
<path d="M32.0099 274.338C32.0099 274.338 35.8399 268.568 30.3099 265.598C24.7799 262.628 23.6799 265.018 20.2599 262.888C16.8399 260.758 14.2599 255.578 13.6599 258.888C13.0599 262.198 17.0299 264.088 15.6599 265.598C14.2899 267.108 24.9299 276.938 32.0099 274.338Z" fill="#393939"/>
<path d="M25.6885 175.488C25.6885 175.488 27.5585 163.698 19.1385 164.828C10.7185 165.958 21.6885 174.928 25.6885 175.488Z" fill="#393939"/>
<path d="M19.7996 185.288C19.7996 185.288 15.6496 175.508 10.0496 178.628C4.44965 181.748 13.8996 186.418 19.7996 185.288Z" fill="#393939"/>
<path d="M30.0286 184.528C30.0286 184.528 27.8086 176.528 34.0986 175.358C40.3886 174.188 38.6886 181.758 30.0286 184.528Z" fill="#393939"/>
<path d="M28.5273 201.778C28.5273 201.778 35.7673 192.848 39.7273 197.968C43.6873 203.088 34.4473 205.798 28.5273 201.778Z" fill="#393939"/>
<path d="M13.331 202.878C13.331 202.878 9.70102 190.598 3.50102 195.648C-2.69898 200.698 7.58102 205.098 13.331 202.878Z" fill="#393939"/>
<path d="M10.2392 221.808C10.2392 221.808 13.2392 208.318 4.06922 211.278C-5.10078 214.238 3.10922 219.818 10.2392 221.808Z" fill="#393939"/>
<path d="M25.3711 223.988C25.3711 223.988 31.7811 213.358 38.3111 215.328C44.8411 217.298 41.4111 227.418 25.3711 223.988Z" fill="#393939"/>
<path d="M21.5501 245.838C21.5501 245.838 12.3601 231.948 7.18012 237.978C2.00012 244.008 13.0601 249.958 21.5501 245.838Z" fill="#393939"/>
<path d="M31.2205 243.418C31.2205 243.418 27.5405 232.078 34.3705 231.918C41.2005 231.758 40.6105 239.118 31.2205 243.418Z" fill="#393939"/>
<g opacity="0.2">
<path d="M25.6885 175.488C25.6885 175.488 27.5585 163.698 19.1385 164.828C10.7185 165.958 21.6885 174.928 25.6885 175.488Z" fill="white"/>
<path d="M19.7996 185.288C19.7996 185.288 15.6496 175.508 10.0496 178.628C4.44965 181.748 13.8996 186.418 19.7996 185.288Z" fill="white"/>
<path d="M30.0286 184.528C30.0286 184.528 27.8086 176.528 34.0986 175.358C40.3886 174.188 38.6886 181.758 30.0286 184.528Z" fill="white"/>
<path d="M28.5273 201.778C28.5273 201.778 35.7673 192.848 39.7273 197.968C43.6873 203.088 34.4473 205.798 28.5273 201.778Z" fill="white"/>
<path d="M13.331 202.878C13.331 202.878 9.70102 190.598 3.50102 195.648C-2.69898 200.698 7.58102 205.098 13.331 202.878Z" fill="white"/>
<path d="M10.2392 221.808C10.2392 221.808 13.2392 208.318 4.06922 211.278C-5.10078 214.238 3.10922 219.818 10.2392 221.808Z" fill="white"/>
<path d="M25.3711 223.988C25.3711 223.988 31.7811 213.358 38.3111 215.328C44.8411 217.298 41.4111 227.418 25.3711 223.988Z" fill="white"/>
<path d="M21.5501 245.838C21.5501 245.838 12.3601 231.948 7.18012 237.978C2.00012 244.008 13.0601 249.958 21.5501 245.838Z" fill="white"/>
<path d="M31.2205 243.418C31.2205 243.418 27.5405 232.078 34.3705 231.918C41.2005 231.758 40.6105 239.118 31.2205 243.418Z" fill="white"/>
</g>
<path d="M24.4794 191.478H24.4294C24.3683 191.47 24.3094 191.45 24.2561 191.419C24.2029 191.389 24.1564 191.347 24.1194 191.298C24.1194 191.248 19.8794 185.628 17.2394 184.578C17.1842 184.556 17.1339 184.524 17.0912 184.483C17.0485 184.442 17.0144 184.393 16.9907 184.338C16.967 184.284 16.9543 184.226 16.9532 184.166C16.9521 184.107 16.9627 184.048 16.9844 183.993C17.006 183.938 17.0384 183.887 17.0795 183.845C17.1206 183.802 17.1697 183.768 17.2241 183.744C17.2784 183.721 17.3368 183.708 17.3961 183.707C17.4553 183.706 17.5142 183.716 17.5694 183.738C20.0594 184.738 23.5694 189.068 24.5694 190.388C27.3596 187.839 29.643 184.785 31.2994 181.388C31.3241 181.334 31.3593 181.285 31.403 181.245C31.4466 181.205 31.4978 181.173 31.5535 181.153C31.6093 181.133 31.6686 181.123 31.728 181.126C31.7873 181.128 31.8456 181.143 31.8994 181.168C32.0067 181.22 32.0895 181.312 32.1306 181.424C32.1716 181.535 32.1676 181.659 32.1194 181.768C31.9994 182.018 29.2894 187.848 24.7794 191.438C24.6863 191.483 24.5811 191.497 24.4794 191.478Z" fill="#393939"/>
<path d="M19.3379 208.278C19.2748 208.276 19.2127 208.26 19.1559 208.233C19.099 208.205 19.0486 208.166 19.0079 208.118C19.0079 208.058 13.8779 202.008 8.26793 199.828C8.20994 199.809 8.15638 199.778 8.11051 199.738C8.06464 199.698 8.02742 199.649 8.00111 199.594C7.97479 199.539 7.95992 199.479 7.95741 199.418C7.9549 199.357 7.9648 199.297 7.98651 199.24C8.00822 199.183 8.04128 199.131 8.08369 199.087C8.1261 199.043 8.17697 199.008 8.23321 198.985C8.28946 198.961 8.34991 198.949 8.41088 198.95C8.47186 198.95 8.53209 198.963 8.58793 198.988C13.6579 200.988 18.1479 205.768 19.3779 207.168C25.7479 200.768 34.4979 199.568 34.8679 199.518C34.987 199.503 35.107 199.536 35.2022 199.609C35.2975 199.682 35.3605 199.789 35.3779 199.908C35.3864 199.967 35.3829 200.027 35.3678 200.085C35.3527 200.143 35.3262 200.197 35.2899 200.244C35.2536 200.292 35.2082 200.332 35.1563 200.361C35.1045 200.391 35.0472 200.41 34.9879 200.418C34.8979 200.418 25.8579 201.678 19.6879 208.138C19.6424 208.184 19.5878 208.22 19.5276 208.244C19.4673 208.268 19.4028 208.28 19.3379 208.278Z" fill="#393939"/>
<path d="M17.801 229.638C17.7204 229.638 17.6411 229.618 17.571 229.578C11.851 226.338 6.34103 216.888 6.11103 216.488C6.08148 216.437 6.06231 216.38 6.05462 216.321C6.04692 216.263 6.05084 216.203 6.06616 216.146C6.08148 216.089 6.1079 216.035 6.14391 215.989C6.17992 215.942 6.22481 215.902 6.27603 215.873C6.32724 215.843 6.38378 215.824 6.4424 215.816C6.50103 215.809 6.56059 215.813 6.6177 215.828C6.67481 215.843 6.72834 215.87 6.77523 215.906C6.82213 215.942 6.86148 215.987 6.89103 216.038C6.89103 216.128 12.341 225.378 17.761 228.638C19.321 227.388 27.761 220.908 34.761 219.638C34.8196 219.625 34.8802 219.624 34.9392 219.635C34.9981 219.646 35.0541 219.67 35.1038 219.703C35.1534 219.737 35.1956 219.781 35.2278 219.831C35.26 219.882 35.2816 219.938 35.291 219.998C35.3011 220.056 35.2994 220.116 35.2862 220.174C35.273 220.232 35.2485 220.286 35.2142 220.335C35.1798 220.383 35.1362 220.424 35.0859 220.455C35.0356 220.487 34.9795 220.508 34.921 220.518C27.511 221.878 18.181 229.518 18.081 229.518C18.0055 229.591 17.9059 229.633 17.801 229.638Z" fill="#393939"/>
<path d="M27.231 249.918C27.1715 249.92 27.1122 249.91 27.0571 249.887C27.0019 249.865 26.9521 249.831 26.9111 249.788C23.4545 246.792 19.1679 244.919 14.6211 244.418C14.5617 244.41 14.5045 244.391 14.4527 244.362C14.4008 244.332 14.3554 244.292 14.3191 244.245C14.2828 244.197 14.2563 244.143 14.2412 244.085C14.2261 244.027 14.2226 243.967 14.2311 243.908C14.2508 243.79 14.3144 243.685 14.4091 243.612C14.5038 243.54 14.6224 243.506 14.7411 243.518C19.3451 244.047 23.6921 245.918 27.2411 248.898C30.4811 245.838 33.7511 235.778 33.7911 235.668C33.8043 235.606 33.8305 235.548 33.8677 235.497C33.905 235.446 33.9525 235.403 34.0073 235.372C34.062 235.341 34.1228 235.321 34.1856 235.315C34.2484 235.308 34.3118 235.315 34.3718 235.335C34.4317 235.355 34.4869 235.387 34.5336 235.429C34.5803 235.472 34.6175 235.524 34.6429 235.581C34.6683 235.639 34.6813 235.702 34.681 235.765C34.6806 235.828 34.667 235.89 34.6411 235.948C34.5011 236.398 31.0511 246.948 27.5111 249.858C27.4276 249.91 27.3285 249.931 27.231 249.918Z" fill="#393939"/>
<path d="M31.4297 272.968C31.4297 272.968 34.7097 267.738 38.4297 266.968C42.1497 266.198 43.7397 261.968 45.1097 264.528C46.4797 267.088 42.6897 275.638 31.4297 272.968Z" fill="#393939"/>
<path d="M48.4709 293.488H12.6109L10.2109 271.358H50.8709L48.4709 293.488Z" fill="#A6A6A6"/>
<path d="M51.7081 275.548H9.36813L8.82812 270.868H52.2481L51.7081 275.548Z" fill="#A6A6A6"/>
<path opacity="0.3" d="M51.7081 275.548H9.36813L8.82812 270.868H52.2481L51.7081 275.548Z" fill="white"/>
<path d="M113.474 200.877C114.814 202.577 121.934 201.537 123.224 199.657L121.984 198.657C121.984 198.657 114.984 202.217 111.984 198.907L113.474 200.877Z" fill="#A6A6A6"/>
<path d="M115.825 210.197H141.375V180.417H115.825V210.197Z" fill="#A6A6A6"/>
<path opacity="0.6" d="M115.825 210.197H141.375V180.417H115.825V210.197Z" fill="white"/>
<path d="M114.886 181.888H142.316V179.878H114.886V181.888Z" fill="#A6A6A6"/>
<path opacity="0.7" d="M114.886 181.888H142.316V179.878H114.886V181.888Z" fill="white"/>
<path d="M139.524 179.877C139.145 179.876 138.77 179.95 138.419 180.094C138.068 180.238 137.75 180.45 137.481 180.717C137.213 180.985 137 181.303 136.854 181.653C136.709 182.003 136.634 182.378 136.634 182.757V200.037C136.634 200.303 136.529 200.557 136.341 200.745C136.154 200.932 135.899 201.037 135.634 201.037C135.369 201.037 135.115 200.932 134.927 200.745C134.74 200.557 134.634 200.303 134.634 200.037V182.637C134.634 182.258 134.484 181.894 134.215 181.626C133.947 181.358 133.583 181.207 133.204 181.207C132.824 181.207 132.459 181.358 132.189 181.626C131.92 181.894 131.767 182.257 131.764 182.637V190.637C131.764 190.903 131.659 191.157 131.471 191.345C131.284 191.532 131.029 191.637 130.764 191.637H130.684C130.419 191.637 130.165 191.532 129.977 191.345C129.79 191.157 129.684 190.903 129.684 190.637V183.237C129.684 182.346 129.33 181.492 128.7 180.862C128.07 180.231 127.215 179.877 126.324 179.877H139.484H139.524Z" fill="#A6A6A6"/>
<path opacity="0.2" d="M115.826 203.717H127.246V187.957H115.826V203.717Z" fill="black"/>
<path d="M120.686 180.418C120.777 180.487 120.853 180.574 120.909 180.674C120.964 180.774 120.998 180.884 121.009 180.998C121.019 181.112 121.006 181.227 120.969 181.336C120.932 181.444 120.873 181.543 120.796 181.628C118.676 183.958 111.936 192.128 113.516 200.838L112.036 198.838C112.036 198.838 110.706 189.588 119.576 180.458C119.723 180.315 119.918 180.232 120.123 180.225C120.328 180.217 120.528 180.286 120.686 180.418Z" fill="#A6A6A6"/>
<path opacity="0.2" d="M120.686 180.418C120.777 180.487 120.853 180.574 120.909 180.674C120.964 180.774 120.998 180.884 121.009 180.998C121.019 181.112 121.006 181.227 120.969 181.336C120.932 181.444 120.873 181.543 120.796 181.628C118.676 183.958 111.936 192.128 113.516 200.838L112.036 198.838C112.036 198.838 110.706 189.588 119.576 180.458C119.723 180.315 119.918 180.232 120.123 180.225C120.328 180.217 120.528 180.286 120.686 180.418Z" fill="white"/>
<path d="M106.938 210.208V293.488H111.967V219.878H165.318V293.488H170.358V210.208H106.938Z" fill="#393939"/>
<path opacity="0.5" d="M106.938 210.208V293.488H111.967V219.878H165.318V293.488H170.358V210.208H106.938Z" fill="white"/>
<path d="M92.9258 210.208V293.488H97.9658V219.878H151.306V293.488H156.346V210.208H92.9258Z" fill="#393939"/>
<path opacity="0.7" d="M92.9258 210.208V293.488H97.9658V219.878H151.306V293.488H156.346V210.208H92.9258Z" fill="white"/>
<path d="M100.846 210.308H127.926V206.688H100.846V210.308Z" fill="#A6A6A6"/>
<path d="M100.405 209.638H128.375V207.358H100.405V209.638Z" fill="#A6A6A6"/>
<path opacity="0.2" d="M100.405 209.638H128.375V207.358H100.405V209.638Z" fill="white"/>
<path d="M154.572 205.304L155.695 205.496L159.273 184.498L158.149 184.307L154.572 205.304Z" fill="#393939"/>
<path d="M153.318 207.852L154.457 207.803L153.543 186.522L152.404 186.571L153.318 207.852Z" fill="#393939"/>
<path d="M146.566 210.208H157.046L158.046 196.388H145.566L146.566 210.208Z" fill="#A6A6A6"/>
<path d="M183.266 285.158C181.926 286.858 174.806 285.817 173.516 283.938L174.756 282.938C174.756 282.938 181.756 286.497 184.756 283.188L183.266 285.158Z" fill="#393939"/>
<path d="M180.917 263.708H155.367V293.488H180.917V263.708Z" fill="#A6A6A6"/>
<path opacity="0.6" d="M180.917 263.708H155.367V293.488H180.917V263.708Z" fill="white"/>
<path d="M181.447 264.157H154.777V266.587H181.447V264.157Z" fill="#A6A6A6"/>
<path opacity="0.7" d="M181.447 264.157H154.777V266.587H181.447V264.157Z" fill="white"/>
<path opacity="0.2" d="M172.304 271.237H155.484V286.997H172.304V271.237Z" fill="black"/>
<path d="M176.096 264.737C176.005 264.806 175.929 264.893 175.873 264.993C175.817 265.093 175.783 265.204 175.773 265.318C175.763 265.432 175.776 265.547 175.813 265.655C175.85 265.764 175.909 265.863 175.986 265.947C178.116 268.277 184.846 276.447 183.266 285.157L184.746 283.157C184.746 283.157 186.076 273.907 177.206 264.777C177.063 264.631 176.871 264.542 176.666 264.527C176.462 264.512 176.259 264.573 176.096 264.697V264.737Z" fill="#393939"/>
<path opacity="0.2" d="M176.096 264.737C176.005 264.806 175.929 264.893 175.873 264.993C175.817 265.093 175.783 265.204 175.773 265.318C175.763 265.432 175.776 265.547 175.813 265.655C175.85 265.764 175.909 265.863 175.986 265.947C178.116 268.277 184.846 276.447 183.266 285.157L184.746 283.157C184.746 283.157 186.076 273.907 177.206 264.777C177.063 264.631 176.871 264.542 176.666 264.527C176.462 264.512 176.259 264.573 176.096 264.697V264.737Z" fill="white"/>
<path d="M181.685 260.157H154.605V263.777H181.685V260.157Z" fill="#393939"/>
<path d="M182.126 260.828H154.156V263.108H182.126V260.828Z" fill="#393939"/>
<path opacity="0.2" d="M182.126 260.828H154.156V263.108H182.126V260.828Z" fill="white"/>
<path d="M269.499 293.208H278.379L249.509 80.0776H240.629L269.499 293.208Z" fill="#D3D3D3"/>
<path d="M250.94 111.668H279.16C279.505 111.657 279.84 111.55 280.128 111.359C280.416 111.168 280.645 110.901 280.79 110.588L282.6 107.038H247.52L249.32 110.588C249.461 110.902 249.687 111.17 249.974 111.361C250.261 111.552 250.595 111.658 250.94 111.668Z" fill="#B7B7B7"/>
<path d="M247.928 108.727H282.168C283.145 108.727 283.938 107.935 283.938 106.957V106.687C283.938 105.709 283.145 104.917 282.168 104.917H247.928C246.95 104.917 246.158 105.709 246.158 106.687V106.957C246.158 107.935 246.95 108.727 247.928 108.727Z" fill="#D3D3D3"/>
<path d="M256.088 142.137H284.308C284.653 142.126 284.988 142.019 285.276 141.829C285.564 141.638 285.793 141.371 285.938 141.057L287.728 137.517H252.668L254.458 141.057C254.603 141.371 254.832 141.638 255.12 141.829C255.407 142.019 255.743 142.126 256.088 142.137Z" fill="#B7B7B7"/>
<path d="M253.08 139.187H287.32C288.297 139.187 289.09 138.395 289.09 137.417V137.147C289.09 136.169 288.297 135.377 287.32 135.377H253.08C252.102 135.377 251.31 136.169 251.31 137.147V137.417C251.31 138.395 252.102 139.187 253.08 139.187Z" fill="#D3D3D3"/>
<path d="M261.24 182.457H289.46C289.805 182.448 290.139 182.342 290.426 182.151C290.712 181.96 290.939 181.692 291.08 181.377L292.88 177.837H257.82L259.61 181.377C259.755 181.691 259.984 181.958 260.272 182.149C260.56 182.34 260.895 182.446 261.24 182.457Z" fill="#B7B7B7"/>
<path d="M258.228 179.517H292.468C293.446 179.517 294.238 178.725 294.238 177.747V177.477C294.238 176.5 293.446 175.707 292.468 175.707H258.228C257.251 175.707 256.458 176.5 256.458 177.477V177.747C256.458 178.725 257.251 179.517 258.228 179.517Z" fill="#D3D3D3"/>
<path d="M266.379 222.787H294.599C294.943 222.778 295.278 222.672 295.564 222.481C295.851 222.29 296.078 222.022 296.219 221.707L298.009 218.167H262.969L264.759 221.707C264.902 222.02 265.129 222.287 265.415 222.478C265.701 222.669 266.035 222.776 266.379 222.787Z" fill="#B7B7B7"/>
<path d="M263.369 219.847H297.609C298.586 219.847 299.379 219.055 299.379 218.077V217.807C299.379 216.83 298.586 216.037 297.609 216.037H263.369C262.391 216.037 261.599 216.83 261.599 217.807V218.077C261.599 219.055 262.391 219.847 263.369 219.847Z" fill="#D3D3D3"/>
<path d="M271.529 263.137H299.749C300.095 263.126 300.43 263.02 300.718 262.829C301.006 262.638 301.235 262.371 301.379 262.057L303.169 258.507H268.109L269.909 262.057C270.05 262.372 270.277 262.64 270.564 262.831C270.85 263.022 271.185 263.128 271.529 263.137Z" fill="#B7B7B7"/>
<path d="M268.517 260.177H302.757C303.735 260.177 304.527 259.385 304.527 258.407V258.137C304.527 257.16 303.735 256.367 302.757 256.367H268.517C267.54 256.367 266.747 257.16 266.747 258.137V258.407C266.747 259.385 267.54 260.177 268.517 260.177Z" fill="#D3D3D3"/>
<path d="M303.77 293.208H312.65L283.78 80.0776H274.91L303.77 293.208Z" fill="#D3D3D3"/>
<path d="M210.557 293.208H201.688L230.548 80.0776H239.427L210.557 293.208Z" fill="#D3D3D3"/>
<path d="M258.248 142.137H230.028C229.682 142.126 229.347 142.02 229.059 141.829C228.771 141.638 228.542 141.371 228.398 141.057L226.598 137.507H261.658L259.858 141.047C259.719 141.362 259.494 141.631 259.209 141.824C258.925 142.017 258.591 142.125 258.248 142.137Z" fill="#B7B7B7"/>
<path d="M261.26 135.387H227.02C226.042 135.387 225.25 136.18 225.25 137.157V137.427C225.25 138.405 226.042 139.197 227.02 139.197H261.26C262.238 139.197 263.03 138.405 263.03 137.427V137.157C263.03 136.18 262.238 135.387 261.26 135.387Z" fill="#D3D3D3"/>
<path d="M253.101 182.457H224.881C224.536 182.446 224.2 182.34 223.913 182.149C223.625 181.958 223.396 181.691 223.251 181.377L221.461 177.837H256.521L254.731 181.377C254.586 181.691 254.357 181.958 254.069 182.149C253.781 182.34 253.446 182.446 253.101 182.457Z" fill="#B7B7B7"/>
<path d="M256.108 175.717H221.868C220.89 175.717 220.098 176.51 220.098 177.487V177.757C220.098 178.735 220.89 179.527 221.868 179.527H256.108C257.085 179.527 257.878 178.735 257.878 177.757V177.487C257.878 176.51 257.085 175.717 256.108 175.717Z" fill="#D3D3D3"/>
<path d="M247.949 222.787H219.729C219.384 222.778 219.05 222.672 218.763 222.481C218.476 222.29 218.25 222.022 218.109 221.707L216.309 218.167H251.369L249.599 221.707C249.452 222.024 249.22 222.293 248.928 222.484C248.637 222.675 248.297 222.78 247.949 222.787Z" fill="#B7B7B7"/>
<path d="M250.959 216.047H216.719C215.742 216.047 214.949 216.84 214.949 217.817V218.087C214.949 219.065 215.742 219.857 216.719 219.857H250.959C251.937 219.857 252.729 219.065 252.729 218.087V217.817C252.729 216.84 251.937 216.047 250.959 216.047Z" fill="#D3D3D3"/>
<path d="M242.807 263.137H214.598C214.253 263.127 213.919 263.02 213.633 262.829C213.347 262.638 213.12 262.371 212.978 262.057L211.188 258.507H246.238L244.448 262.057C244.304 262.374 244.074 262.643 243.784 262.834C243.493 263.026 243.155 263.131 242.807 263.137Z" fill="#B7B7B7"/>
<path d="M245.819 256.377H211.579C210.601 256.377 209.809 257.17 209.809 258.147V258.417C209.809 259.395 210.601 260.187 211.579 260.187H245.819C246.796 260.187 247.589 259.395 247.589 258.417V258.147C247.589 257.17 246.796 256.377 245.819 256.377Z" fill="#D3D3D3"/>
<path d="M244.841 293.208H235.961L264.831 80.0776H273.711L244.841 293.208Z" fill="#D3D3D3"/>
<path d="M285.21 81.1371H228.94C228.597 81.1275 228.263 81.0222 227.977 80.8331C227.691 80.6441 227.463 80.3787 227.32 80.0671L225.52 76.5171H288.6L286.83 80.1371C286.675 80.4349 286.443 80.6853 286.158 80.8615C285.873 81.0376 285.545 81.1329 285.21 81.1371Z" fill="#B7B7B7"/>
<path d="M288.218 74.4175H225.938C224.96 74.4175 224.168 75.2099 224.168 76.1875V76.4575C224.168 77.435 224.96 78.2275 225.938 78.2275H288.218C289.196 78.2275 289.988 77.435 289.988 76.4575V76.1875C289.988 75.2099 289.196 74.4175 288.218 74.4175Z" fill="#D3D3D3"/>
</svg>
