
<svg width="1305" height="648" viewBox="0 0 1305 648" fill="none" xmlns="http://www.w3.org/2000/svg">
<path d="M78.3236 225.784L74.793 225.333L92.9755 87.0905L158.939 50.8823L160.645 54.001L96.2708 89.3462L78.3236 225.784Z" fill="#333333"/>
<path d="M89.6055 88.2093C89.6055 89.2024 89.9 90.1732 90.4517 90.9989C91.0035 91.8247 91.7877 92.4683 92.7052 92.8483C93.6227 93.2284 94.6323 93.3278 95.6064 93.1341C96.5804 92.9403 97.4751 92.4621 98.1774 91.7599C98.8796 91.0576 99.3578 90.1629 99.5516 89.1889C99.7453 88.2149 99.6459 87.2052 99.2658 86.2877C98.8858 85.3702 98.2422 84.586 97.4164 84.0342C96.5907 83.4825 95.6199 83.188 94.6268 83.188C93.295 83.188 92.0178 83.717 91.0762 84.6587C90.1345 85.6004 89.6055 86.8775 89.6055 88.2093Z" fill="#E0E0E0"/>
<path d="M156.674 54.5505C157.002 55.4879 157.601 56.3069 158.394 56.9041C159.188 57.5013 160.141 57.8497 161.132 57.9053C162.124 57.961 163.11 57.7214 163.965 57.2168C164.82 56.7122 165.507 55.9652 165.938 55.0704C166.369 54.1757 166.524 53.1732 166.386 52.1898C166.247 51.2065 165.819 50.2864 165.158 49.5459C164.496 48.8054 163.629 48.2778 162.668 48.0298C161.706 47.7817 160.692 47.8244 159.755 48.1525C158.498 48.5923 157.467 49.5136 156.89 50.7134C156.312 51.9133 156.234 53.2935 156.674 54.5505Z" fill="#E0E0E0"/>
<path d="M194.792 46.0733L181.221 78.731L166.483 69.6329L157.518 64.0841L167.699 39.6156L177.971 42.0681L194.792 46.0733Z" fill="#E0E0E0"/>
<path opacity="0.1" d="M194.798 46.0715L181.227 78.7292L166.489 69.6311L177.977 42.0663L194.798 46.0715Z" fill="black"/>
<path d="M231.374 47.0498L207.7 103.982L170.398 80.1089L188.131 37.433L231.374 47.0498Z" fill="#E0E0E0"/>
<path d="M108.883 237.848H48L51.7267 218.724H105.137L108.883 237.848Z" fill="#E0E0E0"/>
<path d="M66 257H34V648H66V257Z" fill="#B5B5B5"/>
<path d="M1064 257H1033V648H1064V257Z" fill="#B5B5B5"/>
<path d="M1092.03 237.797H22.2145C9.94579 237.797 0 241.953 0 247.079V249.627C0 254.753 9.94579 258.909 22.2145 258.909H1092.03C1104.3 258.909 1114.24 254.753 1114.24 249.627V247.079C1114.24 241.953 1104.3 237.797 1092.03 237.797Z" fill="#B5B5B5"/>
<path d="M364 392L370.076 428.057L411.335 648H418L387.997 428.057L383.546 392H364Z" fill="#C7C7C7"/>
<path d="M236 648H242.665L283.924 428.057L290 392H270.43L266.003 428.057L236 648Z" fill="#939393"/>
<path d="M114 648H120.521L161.034 428.057L167 392H147.807L143.46 428.057L114 648Z" fill="#C7C7C7"/>
<path d="M124 409H423V377.589H311.067L273.453 113H135.412L124 409Z" fill="#A5A5A5"/>
<path d="M124 409H140.349L151 113H135.445L124 409Z" fill="#DBDBDB"/>
<path d="M834.7 0H512.6C503.488 0 496.102 7.38661 496.102 16.4985V218.319C496.102 227.431 503.488 234.817 512.6 234.817H834.7C843.812 234.817 851.198 227.431 851.198 218.319V16.4985C851.198 7.38661 843.812 0 834.7 0Z" fill="black"/>
<path d="M481.254 217.457H865.973V217.853C865.973 223.199 863.849 228.326 860.069 232.106C856.29 235.886 851.163 238.009 845.817 238.009H501.41C496.064 238.009 490.937 235.886 487.157 232.106C483.377 228.326 481.254 223.199 481.254 217.853V217.457Z" fill="black"/>
<path d="M841 9H506V205H841V9Z" fill="white"/>
<path d="M763.271 9H559.644V205H763.271V9Z" fill="#A6A6A6"/>
<path d="M763.2 9H559.994V21.0845H763.2V9Z" fill="#3C3C3C"/>
<path d="M569.615 15.0777C569.615 15.5754 569.465 16.062 569.185 16.4758C568.905 16.8897 568.506 17.2122 568.04 17.4027C567.574 17.5932 567.062 17.643 566.567 17.5459C566.072 17.4488 565.618 17.2091 565.261 16.8572C564.905 16.5052 564.662 16.0568 564.564 15.5686C564.465 15.0804 564.516 14.5744 564.709 14.1146C564.902 13.6547 565.229 13.2617 565.648 12.9852C566.067 12.7086 566.56 12.561 567.065 12.561C567.741 12.561 568.389 12.8262 568.868 13.2981C569.346 13.7701 569.615 14.4102 569.615 15.0777Z" fill="#C7C7C7"/>
<path d="M580.045 15.0777C580.045 15.5754 579.895 16.062 579.615 16.4758C579.335 16.8897 578.937 17.2122 578.471 17.4027C578.005 17.5932 577.492 17.643 576.997 17.5459C576.503 17.4488 576.048 17.2091 575.692 16.8572C575.335 16.5052 575.092 16.0568 574.994 15.5686C574.895 15.0804 574.946 14.5744 575.139 14.1146C575.332 13.6547 575.659 13.2617 576.078 12.9852C576.497 12.7086 576.991 12.561 577.495 12.561C577.83 12.561 578.161 12.6261 578.471 12.7526C578.78 12.8791 579.061 13.0644 579.298 13.2981C579.535 13.5318 579.723 13.8093 579.851 14.1146C579.979 14.4199 580.045 14.7472 580.045 15.0777Z" fill="white"/>
<path d="M590.441 15.0777C590.441 15.5754 590.291 16.062 590.011 16.4758C589.731 16.8897 589.333 17.2122 588.867 17.4027C588.401 17.5932 587.888 17.643 587.393 17.5459C586.899 17.4488 586.444 17.2091 586.088 16.8572C585.731 16.5052 585.488 16.0568 585.39 15.5686C585.291 15.0804 585.342 14.5744 585.535 14.1146C585.728 13.6547 586.055 13.2617 586.474 12.9852C586.894 12.7086 587.387 12.561 587.891 12.561C588.567 12.561 589.216 12.8262 589.694 13.2981C590.172 13.7701 590.441 14.4102 590.441 15.0777Z" fill="#AD343E"/>
<path d="M735.836 41.5498H587.347V188.095H735.836V41.5498Z" fill="white"/>
<path d="M661.501 164.116V162.929C671.715 162.932 681.701 159.945 690.194 154.346C698.688 148.747 705.308 140.788 709.218 131.475C713.128 122.163 714.151 111.915 712.159 102.029C710.167 92.142 705.249 83.0604 698.027 75.9326C690.804 68.8048 681.602 63.9509 671.584 61.985C661.567 60.019 651.183 61.0292 641.747 64.8878C632.311 68.7464 624.247 75.2802 618.573 83.6626C612.9 92.045 609.874 101.899 609.876 111.98H608.673C608.671 101.674 611.765 91.5992 617.565 83.0294C623.365 74.4596 631.61 67.7798 641.257 63.835C650.904 59.8901 661.52 58.8573 671.762 60.8673C682.003 62.8772 691.411 67.8396 698.795 75.1268C706.179 82.414 711.207 91.6986 713.244 101.806C715.28 111.914 714.234 122.391 710.237 131.912C706.239 141.432 699.471 149.569 690.788 155.293C682.104 161.017 671.896 164.071 661.453 164.069L661.501 164.116Z" fill="#C1C1C1"/>
<path d="M612.127 112.027C612.127 112.582 611.96 113.124 611.648 113.585C611.335 114.046 610.891 114.405 610.372 114.617C609.852 114.828 609.281 114.883 608.73 114.774C608.179 114.665 607.673 114.397 607.277 114.004C606.88 113.611 606.611 113.111 606.503 112.566C606.394 112.022 606.452 111.458 606.669 110.947C606.886 110.435 607.251 109.998 607.72 109.692C608.188 109.386 608.738 109.223 609.3 109.226C609.672 109.226 610.041 109.298 610.385 109.439C610.728 109.58 611.04 109.787 611.303 110.047C611.566 110.307 611.774 110.616 611.915 110.956C612.056 111.296 612.128 111.66 612.127 112.027Z" fill="white"/>
<path d="M609.309 115.386C608.632 115.389 607.97 115.193 607.406 114.823C606.843 114.453 606.403 113.927 606.143 113.311C605.883 112.694 605.814 112.015 605.946 111.36C606.077 110.705 606.403 110.103 606.881 109.631C607.36 109.159 607.969 108.837 608.633 108.708C609.297 108.578 609.985 108.646 610.609 108.902C611.234 109.159 611.768 109.593 612.142 110.149C612.516 110.705 612.715 111.359 612.713 112.027C612.71 112.917 612.35 113.769 611.712 114.399C611.074 115.028 610.211 115.383 609.309 115.386ZM609.309 109.795C608.861 109.793 608.423 109.922 608.049 110.165C607.676 110.409 607.384 110.757 607.211 111.164C607.038 111.572 606.991 112.021 607.077 112.455C607.163 112.888 607.378 113.287 607.693 113.601C608.009 113.914 608.412 114.128 608.851 114.215C609.29 114.302 609.745 114.258 610.159 114.09C610.573 113.921 610.927 113.635 611.176 113.268C611.425 112.901 611.558 112.469 611.558 112.027C611.558 111.437 611.321 110.871 610.9 110.453C610.478 110.035 609.906 109.798 609.309 109.795Z" fill="#C1C1C1"/>
<path d="M645.648 101.273C645.65 102.475 645.291 103.651 644.616 104.652C643.941 105.654 642.98 106.434 641.855 106.896C640.73 107.358 639.491 107.48 638.296 107.247C637.1 107.014 636.002 106.436 635.139 105.586C634.277 104.737 633.689 103.654 633.45 102.475C633.212 101.295 633.333 100.073 633.799 98.9613C634.265 97.85 635.054 96.9 636.067 96.2317C637.08 95.5633 638.271 95.2065 639.49 95.2065C641.121 95.2065 642.685 95.8453 643.84 96.9825C644.995 98.1198 645.645 99.6627 645.648 101.273Z" fill="#C1C1C1"/>
<path d="M683.516 107.35C686.917 107.35 689.674 104.629 689.674 101.272C689.674 97.9155 686.917 95.1943 683.516 95.1943C680.114 95.1943 677.357 97.9155 677.357 101.272C677.357 104.629 680.114 107.35 683.516 107.35Z" fill="#C1C1C1"/>
<path d="M713.715 114.829C715.282 114.829 716.553 113.574 716.553 112.027C716.553 110.48 715.282 109.226 713.715 109.226C712.147 109.226 710.876 110.48 710.876 112.027C710.876 113.574 712.147 114.829 713.715 114.829Z" fill="white"/>
<path d="M713.718 115.386C713.041 115.389 712.379 115.193 711.816 114.823C711.252 114.453 710.812 113.927 710.552 113.311C710.292 112.694 710.224 112.015 710.355 111.36C710.487 110.705 710.812 110.103 711.291 109.631C711.769 109.159 712.379 108.837 713.043 108.708C713.706 108.578 714.394 108.646 715.019 108.902C715.644 109.159 716.177 109.593 716.551 110.149C716.926 110.705 717.124 111.359 717.122 112.027C717.119 112.917 716.759 113.769 716.122 114.399C715.484 115.028 714.62 115.383 713.718 115.386ZM713.718 109.795C713.27 109.793 712.832 109.922 712.459 110.165C712.085 110.409 711.793 110.757 711.62 111.164C711.447 111.572 711.401 112.021 711.487 112.455C711.573 112.888 711.787 113.287 712.103 113.601C712.419 113.914 712.821 114.128 713.26 114.215C713.699 114.302 714.155 114.258 714.569 114.09C714.983 113.921 715.336 113.635 715.585 113.268C715.834 112.901 715.967 112.469 715.967 112.027C715.967 111.437 715.731 110.871 715.309 110.453C714.888 110.035 714.316 109.798 713.718 109.795Z" fill="#C1C1C1"/>
<path d="M664.342 60.4957C664.345 61.0503 664.18 61.5931 663.87 62.0554C663.559 62.5176 663.117 62.8785 662.598 63.0924C662.08 63.3063 661.509 63.3635 660.957 63.2567C660.406 63.1499 659.899 62.8841 659.5 62.4927C659.102 62.1014 658.831 61.6023 658.72 61.0585C658.61 60.5147 658.665 59.9508 658.88 59.4382C659.094 58.9256 659.458 58.4874 659.925 58.179C660.392 57.8707 660.942 57.7061 661.503 57.7061C662.254 57.706 662.974 57.9996 663.506 58.5224C664.038 59.0452 664.339 59.7548 664.342 60.4957Z" fill="white"/>
<path d="M661.504 63.8671C660.828 63.8671 660.167 63.6694 659.606 63.299C659.044 62.9285 658.606 62.402 658.348 61.786C658.089 61.17 658.021 60.4921 658.153 59.8381C658.285 59.1841 658.61 58.5834 659.088 58.1119C659.566 57.6405 660.174 57.3194 660.837 57.1893C661.5 57.0592 662.187 57.126 662.811 57.3811C663.435 57.6363 663.968 58.0684 664.344 58.6228C664.719 59.1772 664.92 59.8291 664.92 60.4958C664.92 60.9386 664.831 61.377 664.66 61.786C664.488 62.195 664.236 62.5667 663.919 62.8797C663.602 63.1928 663.225 63.4411 662.811 63.6105C662.396 63.78 661.952 63.8671 661.504 63.8671ZM661.504 58.276C661.056 58.276 660.618 58.4072 660.246 58.6529C659.874 58.8987 659.584 59.2479 659.413 59.6564C659.242 60.0649 659.198 60.5142 659.287 60.9475C659.375 61.3807 659.591 61.7783 659.909 62.09C660.226 62.4016 660.63 62.6132 661.07 62.698C661.509 62.7827 661.964 62.7368 662.377 62.5661C662.79 62.3954 663.143 62.1075 663.39 61.7389C663.637 61.3704 663.767 60.9377 663.765 60.4958C663.765 60.2033 663.706 59.9137 663.592 59.6436C663.479 59.3735 663.312 59.1282 663.102 58.922C662.892 58.7157 662.642 58.5524 662.368 58.4415C662.094 58.3307 661.8 58.2744 661.504 58.276Z" fill="#C1C1C1"/>
<path d="M664.342 163.523C664.342 164.077 664.176 164.619 663.864 165.08C663.552 165.54 663.108 165.899 662.59 166.111C662.071 166.324 661.5 166.379 660.95 166.271C660.399 166.163 659.893 165.896 659.496 165.504C659.099 165.112 658.829 164.613 658.719 164.07C658.61 163.526 658.666 162.963 658.881 162.451C659.096 161.939 659.46 161.502 659.926 161.194C660.393 160.886 660.942 160.722 661.503 160.722C661.876 160.722 662.245 160.794 662.59 160.935C662.934 161.076 663.247 161.282 663.511 161.542C663.774 161.802 663.983 162.111 664.126 162.451C664.269 162.791 664.342 163.155 664.342 163.523Z" fill="#C1C1C1"/>
<path d="M673.063 99.895C673.063 102.921 671.846 105.822 669.678 107.962C667.51 110.101 664.57 111.303 661.504 111.303C658.439 111.303 655.499 110.101 653.331 107.962C651.163 105.822 649.945 102.921 649.945 99.895H673.063Z" fill="#C1C1C1"/>
<path d="M541.411 51.0467H506V182.481H541.411V51.0467Z" fill="#6B6B6B"/>
<path d="M507.876 52.5031L507.672 52.7046L509.858 54.8618L510.062 54.6604L507.876 52.5031Z" fill="#EBEBEB"/>
<path d="M509.871 52.5229L507.685 54.6802L507.889 54.8816L510.075 52.7244L509.871 52.5229Z" fill="#EBEBEB"/>
<path d="M537.2 53.5036L536.996 53.7051L538.297 54.9891L538.501 54.7876L537.2 53.5036Z" fill="#EBEBEB"/>
<path d="M538.288 52.4149L536.987 53.6992L537.191 53.9007L538.493 52.6164L538.288 52.4149Z" fill="#EBEBEB"/>
<path d="M538.628 53.489L538.424 53.6904L539.725 54.9747L539.929 54.7733L538.628 53.489Z" fill="#EBEBEB"/>
<path d="M539.73 52.4047L538.428 53.689L538.632 53.8904L539.934 52.6061L539.73 52.4047Z" fill="#EBEBEB"/>
<path d="M515.776 72.9128L514.261 69.3515L511.542 71.4289V59.7124L519.806 67.9508L516.342 68.4612L517.857 72.0225L515.776 72.9128ZM514.501 68.3781L516.089 72.1768L517.099 71.7613L515.488 67.9983L518.555 67.5472L512.084 61.1013V70.2062L514.501 68.3781Z" fill="#EBEBEB"/>
<path d="M534.627 68.2236L536.179 71.9154L534.627 72.5446L533.075 68.829L530.525 70.7877V60.4126L537.887 67.7488L534.627 68.2236Z" fill="#EBEBEB"/>
<path d="M518.77 82.5012L511.585 91.6035L512.268 92.1288L519.453 83.0264L518.77 82.5012Z" fill="#EBEBEB"/>
<path d="M514.831 83.632L513.074 83.9525L512.678 85.7806L512.281 83.9525L510.524 83.632L512.281 83.2047L512.678 81.4834L513.074 83.2047L514.831 83.632Z" fill="#EBEBEB"/>
<path d="M518.725 80.7358L517.691 80.9258L517.462 82.006L517.234 80.9258L516.199 80.7358L517.222 80.4866L517.462 79.4775L517.703 80.4866L518.725 80.7358Z" fill="#EBEBEB"/>
<path d="M519.94 86.5049L519.351 86.6117L519.218 87.2171L519.086 86.6117L518.509 86.5049L519.086 86.3624L519.218 85.7808L519.363 86.3624L519.94 86.5049Z" fill="#EBEBEB"/>
<path d="M535.85 115.084L528.665 124.187L529.348 124.712L536.533 115.609L535.85 115.084Z" fill="#EBEBEB"/>
<path d="M534.627 88.903L536.179 92.5948L534.627 93.224L533.075 89.5084L530.525 91.4671V81.0801L537.887 88.4281L534.627 88.903Z" fill="#EBEBEB"/>
<path d="M529.805 87.4904C529.216 87.5587 528.619 87.4729 528.075 87.2416C527.53 87.0103 527.056 86.6417 526.702 86.1727C526.088 84.9856 526.545 82.5046 530.31 80.4747C533.305 78.8603 536.324 79.525 537.022 80.6884C537.186 80.9907 537.282 81.3244 537.302 81.6666C537.323 82.0088 537.268 82.3514 537.142 82.6708C536.778 83.6018 536.222 84.4483 535.51 85.1571C534.798 85.866 533.945 86.4219 533.005 86.79C531.998 87.236 530.909 87.4743 529.805 87.4904ZM534.003 80.083C532.811 80.0948 531.641 80.4009 530.599 80.9733C527.219 82.7895 526.726 84.9738 527.219 85.9234C527.712 86.8731 530.058 87.4548 532.776 86.2677C533.64 85.9305 534.424 85.4228 535.082 84.7757C535.74 84.1287 536.257 83.3558 536.601 82.5046C536.7 82.2634 536.745 82.0043 536.735 81.7445C536.724 81.4846 536.658 81.2298 536.541 80.997C536.219 80.6606 535.822 80.4028 535.381 80.2442C534.941 80.0855 534.469 80.0303 534.003 80.083Z" fill="#EBEBEB"/>
<path d="M528.167 88.226C527.951 88.2309 527.737 88.1837 527.545 88.0885C527.352 87.9933 527.185 87.8531 527.06 87.6799C526.902 87.5019 526.802 87.2813 526.772 87.0465C526.742 86.8117 526.783 86.5735 526.892 86.3623C527.041 86.0975 527.259 85.8766 527.523 85.7222C527.787 85.5679 528.088 85.4856 528.395 85.4838C528.638 85.4748 528.879 85.5321 529.091 85.6494C529.303 85.7667 529.479 85.9394 529.598 86.1486C529.767 86.4596 529.807 86.8237 529.708 87.163C529.609 87.5023 529.38 87.7901 529.069 87.9648C528.798 88.1329 528.486 88.2233 528.167 88.226ZM527.529 87.3357C527.673 87.5073 527.878 87.6179 528.102 87.6444C528.326 87.6709 528.551 87.6114 528.732 87.4781C528.824 87.4307 528.906 87.3655 528.973 87.2864C529.04 87.2073 529.089 87.1158 529.12 87.0174C529.15 86.9189 529.16 86.8155 529.149 86.7132C529.138 86.6109 529.107 86.5118 529.057 86.4216C528.993 86.3018 528.896 86.2031 528.776 86.1376C528.656 86.0722 528.52 86.043 528.383 86.0536C528.182 86.0585 527.985 86.1132 527.81 86.2128C527.636 86.3123 527.489 86.4535 527.385 86.6234C527.332 86.7407 527.315 86.8708 527.336 86.9975C527.357 87.1242 527.416 87.2418 527.505 87.3357H527.529Z" fill="#EBEBEB"/>
<path d="M529.801 89.757L529.452 89.2941C529.621 89.1754 529.825 88.9854 529.801 88.7836C529.777 88.5818 529.116 88.107 528.815 87.9883L529.019 87.4541C529.152 87.4541 530.222 87.9527 530.366 88.7124C530.383 88.9215 530.338 89.1309 530.238 89.3159C530.138 89.5009 529.986 89.6539 529.801 89.757Z" fill="#EBEBEB"/>
<path d="M511.812 102.412C513.456 101.008 515.401 99.9897 517.501 99.4321L519.341 101.248C518.787 103.326 517.758 105.251 516.334 106.875C515.387 106.68 514.406 106.711 513.473 106.965C512.54 107.219 511.682 107.688 510.97 108.335L510.777 108.145L514.53 104.453C514.7 104.558 514.904 104.597 515.102 104.562C515.299 104.528 515.477 104.424 515.602 104.269C515.726 104.113 515.789 103.918 515.777 103.721C515.766 103.523 515.681 103.336 515.539 103.196C515.397 103.056 515.208 102.973 515.008 102.961C514.808 102.95 514.61 103.012 514.453 103.135C514.295 103.257 514.189 103.433 514.155 103.628C514.12 103.823 514.16 104.024 514.265 104.192L510.512 107.884L510.332 107.694C510.991 106.996 511.469 106.151 511.727 105.232C511.984 104.312 512.013 103.345 511.812 102.412Z" fill="#EBEBEB"/>
<path d="M516.843 99.2192L519.565 101.905L520.713 100.772L517.991 98.086L516.843 99.2192Z" fill="#EBEBEB"/>
<path d="M539.028 96.3096H524.859V109.379H539.028V96.3096Z" fill="#3C3C3C"/>
<path d="M529.996 102.412C531.644 101.007 533.593 99.9881 535.697 99.4321L537.538 101.248C536.974 103.325 535.942 105.248 534.518 106.875C533.571 106.68 532.59 106.711 531.657 106.965C530.724 107.219 529.866 107.688 529.154 108.335L528.973 108.145L532.714 104.453C532.885 104.558 533.088 104.597 533.286 104.562C533.483 104.528 533.661 104.424 533.786 104.269C533.911 104.113 533.973 103.918 533.961 103.721C533.95 103.523 533.865 103.336 533.723 103.196C533.581 103.056 533.392 102.973 533.192 102.961C532.992 102.95 532.794 103.012 532.637 103.135C532.48 103.257 532.374 103.433 532.339 103.628C532.305 103.823 532.344 104.024 532.45 104.192L528.721 107.884L528.528 107.694C529.185 106.995 529.661 106.15 529.916 105.23C530.172 104.311 530.199 103.344 529.996 102.412Z" fill="#EBEBEB"/>
<path d="M535.027 99.2177L537.748 101.904L538.897 100.771L536.175 98.0846L535.027 99.2177Z" fill="#EBEBEB"/>
<path d="M528.723 108.169C528.337 108.19 527.951 108.112 527.604 107.944C527.256 107.775 526.958 107.522 526.738 107.207C526.329 106.566 526.077 105.343 527.171 103.088C527.355 102.8 527.467 102.474 527.496 102.135C527.525 101.796 527.472 101.455 527.34 101.141C527.126 100.863 526.857 100.631 526.549 100.459C526.24 100.288 525.9 100.18 525.548 100.144L525.608 99.5742C526.053 99.6179 526.484 99.7562 526.87 99.9795C527.256 100.203 527.589 100.506 527.845 100.868C528.028 101.26 528.109 101.691 528.082 102.122C528.055 102.553 527.919 102.971 527.689 103.337C526.714 105.355 526.907 106.388 527.232 106.899C527.398 107.132 527.623 107.319 527.884 107.442C528.146 107.564 528.434 107.618 528.723 107.599V108.169Z" fill="#EBEBEB"/>
<path d="M518.978 116.954H518.184C518.107 116.957 518.031 116.933 517.971 116.885C517.911 116.836 517.871 116.768 517.859 116.692C517.859 116.609 517.859 116.431 517.787 116.134H515.754V123.103L516.163 123.174H516.452C516.555 123.188 516.649 123.24 516.716 123.319C516.782 123.398 516.817 123.499 516.813 123.601V124.408H512.856V123.601C512.845 123.499 512.876 123.397 512.941 123.317C513.007 123.237 513.101 123.186 513.204 123.174H513.493L513.89 123.103V116.099H511.881C511.881 116.396 511.881 116.586 511.881 116.669C511.869 116.744 511.83 116.813 511.77 116.861C511.71 116.909 511.634 116.934 511.556 116.93H510.678V114.556H518.978V116.954Z" fill="#EBEBEB"/>
<path d="M520.374 143.437H510.234V133.43H520.374V143.437ZM511.112 142.582H519.532V134.273H511.112V142.582Z" fill="#EBEBEB"/>
<path d="M536.361 173.257H527.605V165.529H536.361V173.257ZM528.483 172.402H535.495V166.384H528.483V172.402Z" fill="#EBEBEB"/>
<path d="M531.552 175.548H525.454V170.123H531.552V175.548ZM526.332 174.681H530.686V170.978H526.32L526.332 174.681Z" fill="#EBEBEB"/>
<path d="M534.426 167.12L532.223 169.294L532.631 169.697L534.834 167.523L534.426 167.12Z" fill="#EBEBEB"/>
<path d="M535.049 168.616H534.472V167.476H533.365V166.906H535.049V168.616Z" fill="#EBEBEB"/>
<path d="M536.842 143.438H526.702V133.431H531.429C531.562 132.478 532.057 131.611 532.813 131.003C533.568 130.396 534.529 130.095 535.502 130.16C536.474 130.224 537.385 130.651 538.051 131.352C538.718 132.054 539.089 132.979 539.091 133.941C539.088 134.668 538.875 135.38 538.477 135.992C538.078 136.604 537.511 137.091 536.842 137.396V143.438ZM527.568 142.583H535.988V136.814L536.265 136.707C536.923 136.47 537.475 136.013 537.826 135.415C538.176 134.816 538.302 134.115 538.182 133.435C538.061 132.754 537.702 132.137 537.167 131.691C536.632 131.245 535.955 131 535.254 130.997C534.476 130.994 533.727 131.294 533.171 131.831C532.615 132.369 532.296 133.102 532.283 133.87V134.285H527.52L527.568 142.583Z" fill="#EBEBEB"/>
<path d="M533.108 136.232C531.592 135.983 531.376 137.562 531.352 138.179C531.291 138.486 531.148 138.77 530.936 139.002C530.724 139.234 530.452 139.405 530.149 139.497C530.149 139.497 532.495 140.138 533.661 138.95C533.89 138.773 534.064 138.536 534.164 138.266C534.264 137.997 534.287 137.705 534.23 137.424C534.172 137.142 534.037 136.882 533.839 136.672C533.641 136.461 533.388 136.309 533.108 136.232Z" fill="#EBEBEB"/>
<path d="M538.343 131.412L534.554 136.695C534.441 136.463 534.272 136.262 534.063 136.109C533.853 135.956 533.609 135.856 533.352 135.816H533.087L536.238 131.436L538.343 131.412Z" fill="#EBEBEB"/>
<path d="M518.746 154.288L516.084 151.661L510.657 157.016L513.32 159.644L518.746 154.288Z" fill="#EBEBEB"/>
<path d="M520.337 152.712L517.675 150.084L516.526 151.218L519.189 153.845L520.337 152.712Z" fill="#EBEBEB"/>
<path d="M510.418 159.878L510.634 157.088L511.211 157.124L511.043 159.261L513.208 159.106L513.256 159.676L510.418 159.878Z" fill="#EBEBEB"/>
<path d="M534.943 155.427C534.538 155.43 534.141 155.313 533.804 155.093C533.466 154.873 533.202 154.558 533.045 154.19C532.889 153.821 532.846 153.415 532.924 153.023C533.001 152.631 533.195 152.27 533.481 151.986C533.766 151.703 534.13 151.51 534.527 151.431C534.924 151.352 535.336 151.391 535.711 151.544C536.085 151.696 536.405 151.955 536.63 152.287C536.855 152.619 536.976 153.009 536.976 153.409C536.976 153.942 536.762 154.454 536.381 154.832C536 155.21 535.483 155.424 534.943 155.427ZM534.943 152.258C534.705 152.258 534.472 152.327 534.275 152.458C534.077 152.588 533.923 152.774 533.832 152.99C533.741 153.207 533.717 153.446 533.763 153.676C533.81 153.907 533.924 154.118 534.092 154.284C534.261 154.45 534.475 154.563 534.708 154.609C534.942 154.655 535.183 154.631 535.403 154.541C535.623 154.452 535.811 154.299 535.943 154.104C536.075 153.909 536.146 153.68 536.146 153.445C536.146 153.13 536.019 152.828 535.793 152.605C535.568 152.383 535.262 152.258 534.943 152.258Z" fill="#EBEBEB"/>
<path d="M525.548 158.584L533.558 154.228L534.93 154.999C534.93 154.999 529.096 158.56 528.062 158.893C527.212 159.065 526.329 158.956 525.548 158.584Z" fill="#EBEBEB"/>
<path d="M534.901 159.902C534.496 159.902 534.1 159.784 533.764 159.561C533.427 159.339 533.165 159.023 533.011 158.654C532.856 158.284 532.816 157.878 532.896 157.486C532.976 157.094 533.172 156.735 533.459 156.453C533.746 156.171 534.112 155.98 534.509 155.904C534.907 155.827 535.318 155.869 535.692 156.023C536.065 156.178 536.384 156.438 536.607 156.772C536.83 157.105 536.948 157.496 536.946 157.896C536.942 158.429 536.726 158.94 536.343 159.315C535.959 159.691 535.441 159.902 534.901 159.902ZM534.901 156.733C534.663 156.733 534.43 156.802 534.233 156.933C534.035 157.063 533.881 157.249 533.79 157.466C533.699 157.682 533.675 157.921 533.721 158.151C533.768 158.382 533.882 158.593 534.05 158.759C534.219 158.925 534.433 159.038 534.666 159.084C534.9 159.13 535.141 159.106 535.361 159.017C535.581 158.927 535.769 158.775 535.901 158.579C536.033 158.384 536.104 158.155 536.104 157.92C536.101 157.607 535.972 157.308 535.747 157.088C535.522 156.868 535.218 156.745 534.901 156.745V156.733Z" fill="#EBEBEB"/>
<path d="M525.509 152.78L533.532 157.136L534.903 156.365C534.903 156.365 529.07 152.803 528.035 152.471C527.181 152.3 526.295 152.408 525.509 152.78Z" fill="#EBEBEB"/>
<path d="M510.294 174.243V166.823L515.105 170.539L510.294 174.243ZM511.16 168.592V172.486L513.686 170.539L511.16 168.592Z" fill="#EBEBEB"/>
<path d="M520.312 166.941V174.135L515.669 170.538L520.312 166.941Z" fill="#EBEBEB"/>
<path d="M515.551 174.479H515.263V173.292H515.551V174.479ZM515.551 172.2H515.263V171.013H515.551V172.2ZM515.551 169.909H515.263V168.722H515.551V169.909ZM515.551 167.63H515.263V166.443H515.551V167.63Z" fill="#EBEBEB"/>
<path d="M841 18.4849H768.061V61.1962H841V18.4849Z" fill="#6B6B6B"/>
<path d="M771.922 22.3076L769.733 20.1471L769.937 19.9453L772.126 22.1058L771.922 22.3076Z" fill="#EBEBEB"/>
<path d="M769.937 22.3076L769.733 22.1058L771.922 19.9453L772.126 20.1471L769.937 22.3076Z" fill="#EBEBEB"/>
<path d="M836.598 20.926L836.394 21.1274L837.695 22.4119L837.899 22.2105L836.598 20.926Z" fill="#EBEBEB"/>
<path d="M837.699 19.8339L836.398 21.1182L836.602 21.3196L837.904 20.0353L837.699 19.8339Z" fill="#EBEBEB"/>
<path d="M838.035 20.9245L837.831 21.126L839.132 22.4105L839.336 22.209L838.035 20.9245Z" fill="#EBEBEB"/>
<path d="M839.123 19.8286L837.822 21.1133L838.026 21.3147L839.327 20.0299L839.123 19.8286Z" fill="#EBEBEB"/>
<path d="M781.23 25.2749H780.941V53.3376H781.23V25.2749Z" fill="#EBEBEB"/>
<path d="M791.72 25.2749H791.431V53.3376H791.72V25.2749Z" fill="#EBEBEB"/>
<path d="M775.756 27.8628C775.145 27.8681 774.545 28.0267 774.013 28.3236C773.48 28.6205 773.033 29.0461 772.713 29.5603C773.042 30.0679 773.49 30.4889 774.021 30.7868C774.551 31.0846 775.147 31.2504 775.756 31.2697C776.37 31.2453 776.969 31.0776 777.504 30.7804C778.04 30.4833 778.496 30.0652 778.836 29.5603C778.506 29.0471 778.052 28.6231 777.514 28.3267C776.976 28.0303 776.372 27.8709 775.756 27.8628ZM775.756 30.9611C775.56 30.979 775.362 30.9563 775.175 30.8943C774.987 30.8324 774.815 30.7326 774.67 30.6013C774.524 30.47 774.407 30.3102 774.327 30.132C774.248 29.9537 774.207 29.7611 774.207 29.5663C774.207 29.3715 774.248 29.1788 774.327 29.0006C774.407 28.8223 774.524 28.6625 774.67 28.5312C774.815 28.4 774.987 28.3002 775.175 28.2382C775.362 28.1763 775.56 28.1535 775.756 28.1714C776.109 28.2036 776.436 28.3644 776.675 28.6224C776.913 28.8804 777.045 29.2171 777.045 29.5663C777.045 29.9155 776.913 30.2521 776.675 30.5101C776.436 30.7681 776.109 30.929 775.756 30.9611Z" fill="#EBEBEB"/>
<path d="M776.844 29.5725C776.844 29.7861 776.78 29.995 776.66 30.1726C776.539 30.3503 776.368 30.4888 776.168 30.5705C775.968 30.6523 775.748 30.6737 775.536 30.632C775.324 30.5903 775.128 30.4874 774.975 30.3364C774.822 30.1853 774.718 29.9928 774.676 29.7832C774.634 29.5737 774.655 29.3565 774.738 29.1591C774.821 28.9617 774.961 28.793 775.141 28.6743C775.321 28.5556 775.533 28.4923 775.749 28.4923C775.894 28.4907 776.037 28.5175 776.17 28.5712C776.304 28.625 776.425 28.7045 776.527 28.8051C776.629 28.9057 776.71 29.0254 776.764 29.1572C776.818 29.289 776.846 29.4302 776.844 29.5725Z" fill="#EBEBEB"/>
<path d="M775.756 37.6323C775.145 37.6376 774.545 37.7962 774.013 38.0931C773.48 38.3901 773.033 38.8156 772.713 39.3299C773.042 39.8375 773.49 40.2584 774.021 40.5563C774.551 40.8542 775.147 41.0199 775.756 41.0393C776.37 41.0148 776.969 40.8471 777.504 40.55C778.04 40.2528 778.496 39.8347 778.836 39.3299C778.506 38.8166 778.052 38.3926 777.514 38.0962C776.976 37.7998 776.372 37.6404 775.756 37.6323ZM775.756 40.7187C775.478 40.7187 775.205 40.637 774.973 40.4838C774.742 40.3307 774.561 40.1131 774.455 39.8586C774.349 39.6041 774.322 39.3242 774.377 39.0545C774.432 38.7848 774.568 38.5373 774.766 38.3436C774.964 38.1498 775.216 38.0185 775.489 37.9662C775.763 37.914 776.046 37.9432 776.303 38.0501C776.56 38.1571 776.779 38.3369 776.932 38.5669C777.086 38.7968 777.166 39.0665 777.164 39.3417C777.161 39.708 777.011 40.0582 776.747 40.3162C776.484 40.5741 776.128 40.7188 775.756 40.7187Z" fill="#EBEBEB"/>
<path d="M776.842 39.3304C776.858 39.481 776.842 39.6332 776.795 39.7772C776.747 39.9212 776.67 40.0538 776.567 40.1663C776.465 40.2788 776.339 40.3688 776.199 40.4304C776.059 40.4919 775.907 40.5238 775.754 40.5238C775.6 40.5238 775.449 40.4919 775.308 40.4304C775.168 40.3688 775.043 40.2788 774.94 40.1663C774.838 40.0538 774.76 39.9212 774.713 39.7772C774.665 39.6332 774.649 39.481 774.665 39.3304C774.693 39.065 774.82 38.8193 775.021 38.6407C775.222 38.4621 775.483 38.3633 775.754 38.3633C776.024 38.3633 776.285 38.4621 776.486 38.6407C776.687 38.8193 776.814 39.065 776.842 39.3304Z" fill="#EBEBEB"/>
<path d="M775.756 46.9517C775.145 46.957 774.545 47.1156 774.013 47.4125C773.48 47.7094 773.033 48.135 772.713 48.6492C773.042 49.1568 773.49 49.5778 774.021 49.8756C774.551 50.1735 775.147 50.3393 775.756 50.3586C776.37 50.3341 776.969 50.1664 777.504 49.8693C778.04 49.5722 778.496 49.154 778.836 48.6492C778.506 48.136 778.052 47.712 777.514 47.4156C776.976 47.1192 776.372 46.9597 775.756 46.9517ZM775.756 50.05C775.56 50.0679 775.362 50.0451 775.175 49.9832C774.987 49.9212 774.815 49.8214 774.67 49.6902C774.524 49.5589 774.407 49.399 774.327 49.2208C774.248 49.0426 774.207 48.8499 774.207 48.6551C774.207 48.4603 774.248 48.2676 774.327 48.0894C774.407 47.9112 774.524 47.7514 774.67 47.6201C774.815 47.4888 774.987 47.389 775.175 47.3271C775.362 47.2651 775.56 47.2424 775.756 47.2603C776.109 47.2924 776.436 47.4533 776.675 47.7113C776.913 47.9693 777.045 48.3059 777.045 48.6551C777.045 49.0043 776.913 49.3409 776.675 49.599C776.436 49.857 776.109 50.0178 775.756 50.05Z" fill="#EBEBEB"/>
<path d="M776.844 48.6604C776.844 48.874 776.78 49.0829 776.66 49.2606C776.539 49.4382 776.368 49.5767 776.168 49.6584C775.968 49.7402 775.748 49.7616 775.536 49.7199C775.324 49.6782 775.128 49.5753 774.975 49.4242C774.822 49.2732 774.718 49.0807 774.676 48.8711C774.634 48.6616 774.655 48.4444 774.738 48.247C774.821 48.0496 774.961 47.8809 775.141 47.7622C775.321 47.6435 775.533 47.5801 775.749 47.5801C775.894 47.5786 776.037 47.6054 776.17 47.6591C776.304 47.7129 776.425 47.7924 776.527 47.893C776.629 47.9936 776.71 48.1133 776.764 48.2451C776.818 48.3769 776.846 48.5181 776.844 48.6604Z" fill="#EBEBEB"/>
<path d="M837.98 34.5107H771.067V34.7956H837.98V34.5107Z" fill="#EBEBEB"/>
<path d="M837.98 43.8765H771.067V44.1614H837.98V43.8765Z" fill="#EBEBEB"/>
<path d="M799.49 31.6018C799.445 31.6018 799.402 31.5843 799.371 31.5531C799.339 31.5219 799.321 31.4797 799.321 31.4356V26.9484C799.321 26.9266 799.326 26.905 799.334 26.8848C799.343 26.8647 799.355 26.8463 799.371 26.8309C799.386 26.8155 799.405 26.8032 799.425 26.7949C799.446 26.7865 799.468 26.7822 799.49 26.7822C799.512 26.7822 799.534 26.7865 799.554 26.7949C799.575 26.8032 799.593 26.8155 799.609 26.8309C799.624 26.8463 799.637 26.8647 799.645 26.8848C799.654 26.905 799.658 26.9266 799.658 26.9484V31.2219H801.968C802.012 31.2219 802.055 31.2394 802.087 31.2706C802.118 31.3018 802.136 31.344 802.136 31.3881C802.136 31.4322 802.118 31.4745 802.087 31.5056C802.055 31.5368 802.012 31.5543 801.968 31.5543L799.49 31.6018Z" fill="#EBEBEB"/>
<path d="M805.961 28.4211V31.4363C805.961 31.4803 805.943 31.5226 805.912 31.5538C805.88 31.585 805.837 31.6025 805.793 31.6025C805.748 31.6025 805.705 31.585 805.674 31.5538C805.642 31.5226 805.624 31.4803 805.624 31.4363V30.9377C805.488 31.1312 805.309 31.2916 805.1 31.4068C804.892 31.522 804.66 31.5889 804.421 31.6025C803.972 31.6025 803.54 31.4261 803.222 31.1122C802.904 30.7983 802.725 30.3726 802.725 29.9287C802.725 29.4848 802.904 29.059 803.222 28.7451C803.54 28.4312 803.972 28.2549 804.421 28.2549C804.66 28.2667 804.893 28.3329 805.102 28.4482C805.31 28.5635 805.489 28.7249 805.624 28.9197V28.4211C805.624 28.377 805.642 28.3347 805.674 28.3036C805.705 28.2724 805.748 28.2549 805.793 28.2549C805.837 28.2549 805.88 28.2724 805.912 28.3036C805.943 28.3347 805.961 28.377 805.961 28.4211ZM805.624 29.9287C805.607 29.6811 805.516 29.444 805.363 29.2472C805.21 29.0503 805.001 28.9026 804.763 28.8226C804.525 28.7425 804.269 28.7337 804.026 28.7973C803.783 28.8608 803.564 28.9939 803.397 29.1797C803.231 29.3656 803.123 29.5959 803.089 29.8417C803.055 30.0876 803.095 30.3379 803.204 30.5613C803.314 30.7848 803.488 30.9713 803.704 31.0974C803.921 31.2235 804.17 31.2836 804.421 31.2701C804.757 31.24 805.069 31.0843 805.293 30.835C805.516 30.5857 805.635 30.2615 805.624 29.9287Z" fill="#EBEBEB"/>
<path d="M807.332 28.4211C807.33 28.3998 807.333 28.3785 807.34 28.3584C807.347 28.3383 807.358 28.3198 807.373 28.3042C807.388 28.2886 807.405 28.2761 807.425 28.2677C807.445 28.2592 807.466 28.2548 807.488 28.2549C807.533 28.2549 807.575 28.2724 807.607 28.3036C807.639 28.3347 807.656 28.377 807.656 28.4211V30.2254C807.641 30.3696 807.656 30.5153 807.701 30.6533C807.746 30.7912 807.82 30.9182 807.918 31.0261C808.016 31.1339 808.136 31.2202 808.271 31.2792C808.405 31.3383 808.55 31.3688 808.697 31.3688C808.844 31.3688 808.989 31.3383 809.123 31.2792C809.257 31.2202 809.377 31.1339 809.475 31.0261C809.574 30.9182 809.648 30.7912 809.693 30.6533C809.738 30.5153 809.753 30.3696 809.737 30.2254V28.4211C809.732 28.4079 809.729 28.3938 809.729 28.3795C809.729 28.3653 809.732 28.3511 809.737 28.338H809.966C809.972 28.3574 809.972 28.3779 809.966 28.3973C809.971 28.4208 809.971 28.4451 809.966 28.4686V31.3769C809.951 31.7682 809.789 32.1399 809.511 32.4189C809.232 32.6979 808.858 32.864 808.462 32.8845C808.221 32.8815 807.984 32.829 807.765 32.7302C807.731 32.708 807.706 32.6745 807.695 32.6358C807.685 32.5972 807.688 32.556 807.706 32.5198C807.724 32.4837 807.754 32.455 807.791 32.4392C807.828 32.4233 807.87 32.4212 807.909 32.4334C808.08 32.52 808.27 32.5648 808.462 32.564C808.789 32.5674 809.105 32.4457 809.342 32.2243C809.58 32.0029 809.722 31.6992 809.737 31.3769V31.1632C809.607 31.3113 809.446 31.4303 809.266 31.5122C809.086 31.5941 808.889 31.637 808.691 31.6381C808.511 31.6365 808.333 31.6 808.167 31.5305C808.001 31.4611 807.851 31.3601 807.725 31.2333C807.598 31.1066 807.499 30.9565 807.431 30.7917C807.364 30.6269 807.33 30.4506 807.332 30.2729V28.4211Z" fill="#EBEBEB"/>
<path d="M811.219 29.9405C811.212 29.5018 811.382 29.0783 811.691 28.7625C811.999 28.4467 812.422 28.2642 812.867 28.2549C813.286 28.2634 813.687 28.4285 813.988 28.7171C814.29 29.0056 814.469 29.3961 814.49 29.81C814.49 29.8297 814.486 29.8493 814.478 29.8674C814.47 29.8855 814.459 29.9017 814.444 29.9151C814.429 29.9285 814.412 29.9388 814.393 29.9452C814.374 29.9516 814.354 29.9541 814.334 29.9524H811.555C811.562 30.2926 811.702 30.6169 811.947 30.8563C812.192 31.0957 812.522 31.2314 812.867 31.2345C813.086 31.2353 813.303 31.1799 813.494 31.0738C813.686 30.9678 813.847 30.8145 813.961 30.6291C813.975 30.6139 813.991 30.6018 814.01 30.5934C814.029 30.5851 814.049 30.5808 814.069 30.5808C814.09 30.5808 814.11 30.5851 814.129 30.5934C814.147 30.6018 814.164 30.6139 814.178 30.6291C814.216 30.6513 814.243 30.6875 814.254 30.7297C814.266 30.7719 814.26 30.8167 814.238 30.8546C814.094 31.0863 813.892 31.2777 813.652 31.4107C813.412 31.5437 813.142 31.6138 812.867 31.6143C812.647 31.6112 812.43 31.5655 812.228 31.4797C812.027 31.3939 811.844 31.2697 811.691 31.1143C811.538 30.9589 811.418 30.7752 811.337 30.5738C811.256 30.3724 811.215 30.1572 811.219 29.9405ZM811.579 29.6675H814.142C814.091 29.3686 813.934 29.0972 813.699 28.9015C813.465 28.7058 813.168 28.5984 812.861 28.5984C812.553 28.5984 812.256 28.7058 812.022 28.9015C811.787 29.0972 811.631 29.3686 811.579 29.6675Z" fill="#EBEBEB"/>
<path d="M815.527 28.4323C815.527 28.3882 815.544 28.346 815.576 28.3148C815.608 28.2836 815.65 28.2661 815.695 28.2661C815.74 28.2661 815.783 28.2836 815.814 28.3148C815.846 28.346 815.863 28.3882 815.863 28.4323V29.1683C815.86 29.1407 815.86 29.1128 815.863 29.0852C815.999 28.8466 816.193 28.6461 816.429 28.5028C816.665 28.3594 816.934 28.2779 817.211 28.2661C817.255 28.2661 817.298 28.2836 817.33 28.3148C817.361 28.346 817.379 28.3882 817.379 28.4323C817.379 28.4764 817.361 28.5186 817.33 28.5498C817.298 28.581 817.255 28.5985 817.211 28.5985C817.016 28.6047 816.825 28.6576 816.655 28.7527C816.485 28.8479 816.342 28.9823 816.236 29.1446C816.063 29.381 815.925 29.6409 815.827 29.9162V31.3763C815.827 31.4204 815.81 31.4626 815.778 31.4938C815.746 31.525 815.704 31.5425 815.659 31.5425C815.614 31.5425 815.572 31.525 815.54 31.4938C815.508 31.4626 815.491 31.4204 815.491 31.3763L815.527 28.4323Z" fill="#EBEBEB"/>
<path d="M821.153 27.317L820.468 27.7087H820.383C820.354 27.7085 820.325 27.7007 820.3 27.6861C820.275 27.6715 820.254 27.6507 820.239 27.6256C820.226 27.6074 820.218 27.5867 820.214 27.5649C820.21 27.5431 820.211 27.5207 820.217 27.4993C820.223 27.4779 820.233 27.458 820.247 27.4409C820.261 27.4238 820.279 27.4099 820.299 27.4001L821.237 26.8422C821.278 26.8244 821.323 26.8218 821.365 26.8349C821.407 26.8481 821.443 26.876 821.466 26.9134C821.479 26.952 821.479 26.9936 821.466 27.0321V31.4125C821.466 31.4343 821.462 31.4559 821.453 31.476C821.445 31.4962 821.432 31.5145 821.417 31.53C821.401 31.5454 821.382 31.5576 821.362 31.566C821.342 31.5743 821.32 31.5786 821.298 31.5786C821.275 31.5786 821.254 31.5743 821.233 31.566C821.213 31.5576 821.194 31.5454 821.178 31.53C821.163 31.5145 821.15 31.4962 821.142 31.476C821.134 31.4559 821.129 31.4343 821.129 31.4125L821.153 27.317Z" fill="#EBEBEB"/>
<path d="M799.49 41.4308C799.445 41.4308 799.402 41.4133 799.371 41.3821C799.339 41.3509 799.321 41.3087 799.321 41.2646V36.8249C799.321 36.8031 799.326 36.7814 799.334 36.7613C799.343 36.7411 799.355 36.7228 799.371 36.7074C799.386 36.6919 799.405 36.6797 799.425 36.6713C799.446 36.663 799.468 36.6587 799.49 36.6587C799.512 36.6587 799.534 36.663 799.554 36.6713C799.575 36.6797 799.593 36.6919 799.609 36.7074C799.624 36.7228 799.637 36.7411 799.645 36.7613C799.654 36.7814 799.658 36.8031 799.658 36.8249V41.0984H801.968C802.012 41.0984 802.055 41.1159 802.087 41.1471C802.118 41.1782 802.136 41.2205 802.136 41.2646C802.136 41.3087 802.118 41.3509 802.087 41.3821C802.055 41.4133 802.012 41.4308 801.968 41.4308H799.49Z" fill="#EBEBEB"/>
<path d="M805.959 38.25V41.2652C805.959 41.3093 805.942 41.3515 805.91 41.3827C805.879 41.4139 805.836 41.4314 805.791 41.4314C805.746 41.4314 805.704 41.4139 805.672 41.3827C805.64 41.3515 805.623 41.3093 805.623 41.2652V40.7666C805.486 40.9601 805.307 41.1205 805.099 41.2357C804.89 41.3509 804.658 41.4178 804.42 41.4314C803.996 41.3961 803.602 41.2051 803.314 40.8962C803.026 40.5873 802.867 40.1831 802.867 39.7635C802.867 39.344 803.026 38.9397 803.314 38.6309C803.602 38.322 803.996 38.131 804.42 38.0957C804.658 38.1053 804.89 38.1692 805.099 38.2825C805.308 38.3958 805.487 38.5553 805.623 38.7486V38.25C805.623 38.2287 805.627 38.2076 805.636 38.1881C805.644 38.1685 805.657 38.151 805.673 38.1365C805.688 38.122 805.707 38.1109 805.728 38.1038C805.748 38.0968 805.77 38.094 805.791 38.0957C805.813 38.094 805.834 38.0968 805.855 38.1038C805.875 38.1109 805.894 38.122 805.909 38.1365C805.925 38.151 805.938 38.1685 805.947 38.1881C805.955 38.2076 805.96 38.2287 805.959 38.25ZM805.623 39.7576C805.606 39.51 805.515 39.2729 805.362 39.0761C805.209 38.8793 805 38.7315 804.762 38.6515C804.524 38.5714 804.267 38.5626 804.024 38.6262C803.781 38.6897 803.562 38.8228 803.396 39.0086C803.229 39.1945 803.122 39.4248 803.088 39.6706C803.053 39.9165 803.093 40.1668 803.203 40.3903C803.312 40.6137 803.486 40.8002 803.703 40.9263C803.919 41.0524 804.169 41.1125 804.42 41.099C804.757 41.0717 805.07 40.9169 805.294 40.6669C805.519 40.4169 805.636 40.0911 805.623 39.7576Z" fill="#EBEBEB"/>
<path d="M807.332 38.25C807.332 38.2091 807.349 38.1698 807.378 38.1409C807.407 38.1119 807.447 38.0957 807.488 38.0957C807.51 38.094 807.532 38.0968 807.552 38.1038C807.572 38.1109 807.591 38.122 807.607 38.1365C807.623 38.151 807.635 38.1685 807.644 38.1881C807.652 38.2076 807.657 38.2287 807.657 38.25V40.0069C807.641 40.151 807.656 40.2968 807.701 40.4347C807.747 40.5727 807.821 40.6997 807.919 40.8075C808.017 40.9154 808.137 41.0016 808.271 41.0606C808.405 41.1197 808.55 41.1502 808.697 41.1502C808.844 41.1502 808.989 41.1197 809.124 41.0606C809.258 41.0016 809.378 40.9154 809.476 40.8075C809.574 40.6997 809.648 40.5727 809.693 40.4347C809.738 40.2968 809.753 40.151 809.738 40.0069V38.25C809.732 38.2368 809.729 38.2227 809.729 38.2084C809.729 38.1942 809.732 38.18 809.738 38.1669H809.966C809.971 38.1904 809.971 38.2147 809.966 38.2381V41.194C809.966 41.4023 809.924 41.6086 809.843 41.8009C809.762 41.9932 809.643 42.1678 809.493 42.3146C809.344 42.4613 809.166 42.5774 808.97 42.656C808.775 42.7347 808.566 42.7744 808.354 42.7728C808.113 42.7657 807.875 42.7091 807.657 42.6066C807.623 42.5844 807.598 42.5509 807.588 42.5122C807.577 42.4736 807.581 42.4324 807.598 42.3962C807.616 42.3601 807.646 42.3314 807.683 42.3156C807.721 42.2997 807.762 42.2976 807.801 42.3098C807.972 42.3964 808.162 42.4412 808.354 42.4404C808.681 42.4438 808.997 42.3221 809.235 42.1007C809.472 41.8793 809.614 41.5756 809.629 41.2533V41.0396C809.499 41.1877 809.339 41.3067 809.158 41.3886C808.978 41.4705 808.782 41.5134 808.583 41.5145C808.399 41.4998 808.22 41.4487 808.057 41.3642C807.894 41.2798 807.75 41.1637 807.633 41.023C807.516 40.8823 807.429 40.7198 807.378 40.5452C807.326 40.3706 807.31 40.1875 807.332 40.0069V38.25Z" fill="#EBEBEB"/>
<path d="M811.219 39.769C811.215 39.5523 811.256 39.3371 811.337 39.1357C811.418 38.9343 811.538 38.7507 811.691 38.5952C811.844 38.4398 812.027 38.3157 812.228 38.2299C812.43 38.1441 812.647 38.0983 812.867 38.0952C813.285 38.1007 813.686 38.2633 813.988 38.5499C814.289 38.8365 814.469 39.2257 814.49 39.6384C814.49 39.6582 814.486 39.6777 814.478 39.6958C814.47 39.7139 814.459 39.7302 814.444 39.7436C814.429 39.757 814.412 39.7672 814.393 39.7736C814.374 39.7801 814.354 39.7825 814.334 39.7809H811.555C811.562 40.121 811.702 40.4453 811.947 40.6848C812.192 40.9242 812.522 41.0599 812.867 41.0629C813.086 41.0637 813.303 41.0084 813.494 40.9023C813.686 40.7962 813.847 40.643 813.961 40.4575C813.975 40.4424 813.991 40.4302 814.01 40.4219C814.029 40.4136 814.049 40.4093 814.069 40.4093C814.09 40.4093 814.11 40.4136 814.129 40.4219C814.147 40.4302 814.164 40.4424 814.178 40.4575C814.216 40.4798 814.243 40.5159 814.254 40.5581C814.266 40.6003 814.26 40.6452 814.238 40.6831C814.094 40.9147 813.892 41.1062 813.652 41.2392C813.412 41.3722 813.142 41.4423 812.867 41.4428C812.647 41.4397 812.43 41.394 812.228 41.3082C812.027 41.2224 811.844 41.0982 811.691 40.9428C811.538 40.7873 811.418 40.6037 811.337 40.4023C811.256 40.2009 811.215 39.9857 811.219 39.769ZM811.579 39.496H814.142C814.091 39.1971 813.934 38.9257 813.699 38.73C813.465 38.5342 813.168 38.4269 812.861 38.4269C812.553 38.4269 812.256 38.5342 812.022 38.73C811.787 38.9257 811.631 39.1971 811.579 39.496Z" fill="#EBEBEB"/>
<path d="M815.527 38.2614C815.527 38.2173 815.544 38.1751 815.576 38.1439C815.608 38.1127 815.65 38.0952 815.695 38.0952C815.74 38.0952 815.783 38.1127 815.814 38.1439C815.846 38.1751 815.863 38.2173 815.863 38.2614V38.9974C815.86 38.9698 815.86 38.9419 815.863 38.9143C815.999 38.6757 816.193 38.4752 816.429 38.3319C816.665 38.1885 816.934 38.107 817.211 38.0952C817.255 38.0952 817.298 38.1127 817.33 38.1439C817.361 38.1751 817.379 38.2173 817.379 38.2614C817.379 38.3055 817.361 38.3478 817.33 38.3789C817.298 38.4101 817.255 38.4276 817.211 38.4276C817.016 38.4338 816.825 38.4867 816.655 38.5818C816.485 38.677 816.342 38.8114 816.236 38.9737C816.063 39.2101 815.925 39.47 815.827 39.7453V41.2054C815.827 41.2495 815.81 41.2917 815.778 41.3229C815.746 41.3541 815.704 41.3716 815.659 41.3716C815.614 41.3716 815.572 41.3541 815.54 41.3229C815.508 41.2917 815.491 41.2495 815.491 41.2054L815.527 38.2614Z" fill="#EBEBEB"/>
<path d="M820.359 41.1934L822.621 39.1872C822.749 39.071 822.852 38.9297 822.922 38.7724C822.992 38.6151 823.029 38.4452 823.03 38.2732C823.032 37.9692 822.915 37.676 822.705 37.4541C822.591 37.326 822.45 37.2236 822.292 37.1539C822.135 37.0843 821.964 37.049 821.791 37.0505C821.479 37.0454 821.177 37.1604 820.949 37.371L820.708 37.5728C820.694 37.5883 820.676 37.6006 820.656 37.609C820.637 37.6174 820.615 37.6218 820.594 37.6218C820.572 37.6218 820.551 37.6174 820.532 37.609C820.512 37.6006 820.494 37.5883 820.48 37.5728C820.464 37.5573 820.451 37.5389 820.442 37.5185C820.434 37.4981 820.429 37.4762 820.429 37.4541C820.429 37.432 820.434 37.4101 820.442 37.3897C820.451 37.3693 820.464 37.3509 820.48 37.3354L820.72 37.1217C821.013 36.8594 821.395 36.7153 821.791 36.7181C822.017 36.7107 822.242 36.7526 822.45 36.8409C822.658 36.9291 822.843 37.0615 822.994 37.2286C823.266 37.5095 823.417 37.8842 823.415 38.2732C823.417 38.4958 823.373 38.7164 823.284 38.9209C823.194 39.1254 823.063 39.3091 822.897 39.4603L820.961 41.1934H823.246C823.291 41.1934 823.334 41.2109 823.365 41.2421C823.397 41.2733 823.415 41.3155 823.415 41.3596C823.415 41.4037 823.397 41.446 823.365 41.4771C823.334 41.5083 823.291 41.5258 823.246 41.5258H820.528C820.485 41.5423 820.438 41.5423 820.395 41.5258C820.36 41.517 820.327 41.4975 820.303 41.47C820.279 41.4425 820.264 41.4083 820.26 41.372C820.256 41.3358 820.263 41.2992 820.281 41.2673C820.299 41.2353 820.326 41.2096 820.359 41.1934Z" fill="#EBEBEB"/>
<path d="M799.49 51.2604C799.445 51.2604 799.402 51.2429 799.371 51.2117C799.339 51.1805 799.321 51.1382 799.321 51.0942V46.6545C799.321 46.6326 799.326 46.611 799.334 46.5909C799.343 46.5707 799.355 46.5524 799.371 46.537C799.386 46.5215 799.405 46.5093 799.425 46.5009C799.446 46.4926 799.468 46.4883 799.49 46.4883C799.512 46.4883 799.534 46.4926 799.554 46.5009C799.575 46.5093 799.593 46.5215 799.609 46.537C799.624 46.5524 799.637 46.5707 799.645 46.5909C799.654 46.611 799.658 46.6326 799.658 46.6545V50.928H801.968C802.012 50.928 802.055 50.9455 802.087 50.9767C802.118 51.0078 802.136 51.0501 802.136 51.0942C802.136 51.1382 802.118 51.1805 802.087 51.2117C802.055 51.2429 802.012 51.2604 801.968 51.2604H799.49Z" fill="#EBEBEB"/>
<path d="M805.959 48.0791V51.0943C805.959 51.1384 805.942 51.1806 805.91 51.2118C805.879 51.243 805.836 51.2605 805.791 51.2605C805.746 51.2605 805.704 51.243 805.672 51.2118C805.64 51.1806 805.623 51.1384 805.623 51.0943V50.5957C805.488 50.7905 805.309 50.9519 805.1 51.0672C804.892 51.1825 804.659 51.2487 804.42 51.2605C803.996 51.2252 803.602 51.0342 803.314 50.7253C803.026 50.4164 802.867 50.0122 802.867 49.5926C802.867 49.1731 803.026 48.7689 803.314 48.46C803.602 48.1511 803.996 47.9601 804.42 47.9248C804.658 47.9344 804.89 47.9983 805.099 48.1116C805.308 48.2249 805.487 48.3844 805.623 48.5777V48.0791C805.623 48.0578 805.627 48.0367 805.636 48.0172C805.644 47.9976 805.657 47.9801 805.673 47.9656C805.688 47.9511 805.707 47.94 805.728 47.9329C805.748 47.9259 805.77 47.9231 805.791 47.9248C805.813 47.9231 805.834 47.9259 805.855 47.9329C805.875 47.94 805.894 47.9511 805.909 47.9656C805.925 47.9801 805.938 47.9976 805.947 48.0172C805.955 48.0367 805.96 48.0578 805.959 48.0791ZM805.623 49.5867C805.606 49.3391 805.515 49.102 805.362 48.9052C805.209 48.7084 805 48.5606 804.762 48.4806C804.524 48.4005 804.267 48.3917 804.024 48.4553C803.781 48.5188 803.562 48.6519 803.396 48.8377C803.229 49.0236 803.122 49.2539 803.088 49.4997C803.053 49.7456 803.093 49.996 803.203 50.2194C803.312 50.4428 803.486 50.6293 803.703 50.7554C803.919 50.8815 804.169 50.9416 804.42 50.9281C804.757 50.9008 805.07 50.746 805.294 50.496C805.519 50.246 805.636 49.9202 805.623 49.5867Z" fill="#EBEBEB"/>
<path d="M807.332 48.0791C807.332 48.0382 807.349 47.9989 807.378 47.97C807.408 47.941 807.447 47.9248 807.489 47.9248C807.51 47.9231 807.532 47.9259 807.552 47.9329C807.573 47.94 807.591 47.9511 807.607 47.9656C807.623 47.9801 807.636 47.9976 807.644 48.0172C807.653 48.0367 807.657 48.0578 807.657 48.0791V49.8953C807.685 50.1486 807.806 50.3829 807.998 50.5531C808.191 50.7234 808.44 50.8175 808.698 50.8175C808.956 50.8175 809.205 50.7234 809.397 50.5531C809.589 50.3829 809.711 50.1486 809.738 49.8953V48.0791C809.733 48.066 809.73 48.0518 809.73 48.0375C809.73 48.0233 809.733 48.0092 809.738 47.996H809.967C809.972 48.0195 809.972 48.0438 809.967 48.0672V50.9875C809.965 51.1948 809.922 51.3998 809.84 51.5908C809.758 51.7817 809.639 51.9549 809.49 52.1004C809.34 52.2459 809.163 52.3609 808.968 52.4388C808.773 52.5167 808.565 52.556 808.355 52.5544C808.113 52.5473 807.876 52.4907 807.657 52.3882C807.623 52.366 807.599 52.3325 807.588 52.2939C807.577 52.2552 807.581 52.214 807.599 52.1779C807.616 52.1417 807.646 52.1131 807.684 52.0972C807.721 52.0813 807.763 52.0793 807.802 52.0914C807.993 52.1862 808.206 52.2312 808.421 52.2222C808.635 52.2132 808.843 52.1505 809.026 52.0401C809.209 51.9296 809.36 51.7751 809.466 51.5909C809.572 51.4067 809.628 51.1991 809.63 50.9875V50.7619C809.5 50.91 809.339 51.029 809.159 51.1109C808.978 51.1927 808.782 51.2357 808.583 51.2367C808.222 51.2336 807.876 51.0897 807.622 50.8362C807.367 50.5828 807.224 50.2403 807.224 49.8835L807.332 48.0791Z" fill="#EBEBEB"/>
<path d="M811.22 49.5986C811.216 49.3819 811.256 49.1667 811.338 48.9653C811.419 48.7639 811.539 48.5803 811.692 48.4248C811.845 48.2694 812.028 48.1452 812.229 48.0595C812.431 47.9737 812.648 47.9279 812.867 47.9248C813.292 47.9307 813.698 48.0983 814.001 48.3924C814.303 48.6866 814.479 49.0847 814.491 49.5036C814.491 49.5234 814.487 49.5429 814.479 49.561C814.471 49.5791 814.459 49.5954 814.445 49.6088C814.43 49.6222 814.413 49.6324 814.394 49.6388C814.375 49.6453 814.355 49.6477 814.335 49.6461H811.556C811.563 49.9862 811.703 50.3105 811.948 50.55C812.193 50.7894 812.523 50.9251 812.867 50.9281C813.087 50.9289 813.304 50.8736 813.495 50.7675C813.687 50.6614 813.848 50.5082 813.962 50.3227C813.976 50.3076 813.992 50.2954 814.011 50.2871C814.03 50.2788 814.05 50.2745 814.07 50.2745C814.091 50.2745 814.111 50.2788 814.13 50.2871C814.148 50.2954 814.165 50.3076 814.179 50.3227C814.217 50.345 814.244 50.3811 814.255 50.4233C814.267 50.4655 814.261 50.5104 814.239 50.5483C814.095 50.7799 813.893 50.9714 813.653 51.1044C813.413 51.2374 813.143 51.3075 812.867 51.308C812.645 51.305 812.425 51.2581 812.221 51.1701C812.017 51.0821 811.833 50.9547 811.679 50.7954C811.526 50.6362 811.406 50.4483 811.327 50.2428C811.248 50.0373 811.212 49.8182 811.22 49.5986ZM811.58 49.3256H814.142C814.091 49.0267 813.935 48.7553 813.7 48.5596C813.466 48.3638 813.169 48.2564 812.861 48.2564C812.554 48.2564 812.257 48.3638 812.023 48.5596C811.788 48.7553 811.631 49.0267 811.58 49.3256Z" fill="#EBEBEB"/>
<path d="M815.527 48.091C815.527 48.0469 815.544 48.0047 815.576 47.9735C815.608 47.9423 815.65 47.9248 815.695 47.9248C815.74 47.9248 815.783 47.9423 815.814 47.9735C815.846 48.0047 815.863 48.0469 815.863 48.091V48.827C815.86 48.7994 815.86 48.7715 815.863 48.7439C815.999 48.5053 816.193 48.3048 816.429 48.1615C816.665 48.0181 816.934 47.9366 817.211 47.9248C817.255 47.9248 817.298 47.9423 817.33 47.9735C817.361 48.0047 817.379 48.0469 817.379 48.091C817.379 48.1351 817.361 48.1773 817.33 48.2085C817.298 48.2397 817.255 48.2572 817.211 48.2572C817.016 48.2634 816.825 48.3163 816.655 48.4114C816.485 48.5066 816.342 48.641 816.236 48.8033C816.063 49.0397 815.925 49.2995 815.827 49.5749V51.035C815.827 51.079 815.81 51.1213 815.778 51.1525C815.746 51.1836 815.704 51.2012 815.659 51.2012C815.614 51.2012 815.572 51.1836 815.54 51.1525C815.508 51.1213 815.491 51.079 815.491 51.035L815.527 48.091Z" fill="#EBEBEB"/>
<path d="M823.284 46.7854L822.082 48.0555C822.398 48.112 822.689 48.2657 822.911 48.4948C823.072 48.6481 823.197 48.8331 823.28 49.0377C823.363 49.2422 823.401 49.4617 823.393 49.6818C823.399 49.9016 823.359 50.1203 823.276 50.3244C823.193 50.5285 823.069 50.7138 822.911 50.8689C822.59 51.178 822.157 51.3488 821.709 51.3438C821.486 51.3496 821.264 51.3105 821.058 51.2289C820.851 51.1472 820.663 51.0247 820.506 50.8689C820.476 50.8363 820.46 50.794 820.46 50.7502C820.46 50.7064 820.476 50.6642 820.506 50.6315C820.539 50.5989 820.585 50.5806 820.632 50.5806C820.679 50.5806 820.725 50.5989 820.758 50.6315C821.001 50.8632 821.323 50.9948 821.66 50.9995C822.005 50.9961 822.336 50.8647 822.587 50.6315C822.827 50.3866 822.961 50.0585 822.96 49.7175C822.98 49.5426 822.963 49.3656 822.909 49.1977C822.856 49.0299 822.767 48.8749 822.649 48.7429C822.531 48.6109 822.387 48.5048 822.225 48.4314C822.063 48.3579 821.887 48.3189 821.709 48.3167C821.68 48.3177 821.652 48.3117 821.627 48.2993C821.602 48.2868 821.58 48.2683 821.564 48.2455C821.531 48.2122 821.513 48.1674 821.513 48.1208C821.513 48.0742 821.531 48.0295 821.564 47.9962L822.767 46.8091H820.915C820.869 46.8061 820.826 46.786 820.795 46.7529C820.764 46.7199 820.746 46.6763 820.746 46.631C820.746 46.587 820.764 46.5447 820.796 46.5135C820.827 46.4823 820.87 46.4648 820.915 46.4648H823.176C823.221 46.4648 823.264 46.4823 823.295 46.5135C823.327 46.5447 823.344 46.587 823.344 46.631C823.352 46.6583 823.352 46.6869 823.344 46.7141C823.346 46.7229 823.346 46.7319 823.344 46.7405C823.342 46.7491 823.338 46.7572 823.332 46.764C823.326 46.7708 823.319 46.7763 823.31 46.78C823.302 46.7837 823.293 46.7855 823.284 46.7854Z" fill="#EBEBEB"/>
<path d="M794.606 35.2822H792.441V43.39H794.606V35.2822Z" fill="#6B6B6B"/>
<path d="M794.606 44.6128H792.441V52.7206H794.606V44.6128Z" fill="#3C3C3C"/>
<path d="M794.606 25.5239H792.441V33.6317H794.606V25.5239Z" fill="#C1C1C1"/>
<path d="M783.781 57.7417H771.067V58.0266H783.781V57.7417Z" fill="#EBEBEB"/>
<path d="M788.555 29.0742H784.153V32.7304H788.555V29.0742Z" fill="#EBEBEB"/>
<path d="M788.025 29.4767H787.507V28.5152C787.507 27.4587 787.134 26.9245 786.389 26.9245C785.186 26.9245 785.186 28.3371 785.186 28.3965V29.4767H784.681V28.3965C784.654 28.1525 784.679 27.9057 784.753 27.6714C784.827 27.4372 784.949 27.2204 785.111 27.0345C785.273 26.8487 785.473 26.6977 785.697 26.591C785.921 26.4842 786.164 26.424 786.413 26.4141C787.471 26.4141 788.049 27.1619 788.049 28.5152L788.025 29.4767Z" fill="#EBEBEB"/>
<path d="M832.126 31.7922C831.681 31.7922 831.246 31.662 830.876 31.4181C830.506 31.1742 830.218 30.8275 830.048 30.4219C829.878 30.0163 829.833 29.5699 829.92 29.1393C830.007 28.7087 830.221 28.3132 830.535 28.0027C830.85 27.6923 831.251 27.4808 831.687 27.3952C832.123 27.3095 832.576 27.3535 832.987 27.5215C833.398 27.6895 833.749 27.9741 833.996 28.3391C834.243 28.7042 834.375 29.1333 834.375 29.5724C834.372 30.1602 834.134 30.723 833.713 31.1386C833.292 31.5542 832.721 31.7891 832.126 31.7922ZM832.126 27.6374C831.738 27.6374 831.359 27.7509 831.037 27.9635C830.714 28.1762 830.463 28.4784 830.314 28.8319C830.166 29.1855 830.127 29.5745 830.203 29.9499C830.279 30.3252 830.465 30.67 830.739 30.9406C831.014 31.2112 831.363 31.3955 831.743 31.4702C832.124 31.5448 832.518 31.5065 832.876 31.3601C833.234 31.2136 833.541 30.9656 833.756 30.6474C833.971 30.3292 834.086 29.9551 834.086 29.5724C834.083 29.0602 833.876 28.5698 833.509 28.2076C833.142 27.8454 832.645 27.6406 832.126 27.6374Z" fill="#EBEBEB"/>
<path d="M832.126 41.5501C831.681 41.5501 831.246 41.4199 830.876 41.1759C830.506 40.932 830.218 40.5853 830.048 40.1797C829.878 39.7741 829.833 39.3277 829.92 38.8971C830.007 38.4665 830.221 38.071 830.535 37.7605C830.85 37.4501 831.251 37.2387 831.687 37.153C832.123 37.0674 832.576 37.1113 832.987 37.2793C833.398 37.4473 833.749 37.7319 833.996 38.0969C834.243 38.462 834.375 38.8912 834.375 39.3302C834.372 39.918 834.134 40.4808 833.713 40.8964C833.292 41.3121 832.721 41.5469 832.126 41.5501ZM832.126 37.3953C831.738 37.3953 831.359 37.5087 831.037 37.7214C830.714 37.934 830.463 38.2362 830.314 38.5897C830.166 38.9433 830.127 39.3323 830.203 39.7077C830.279 40.083 830.465 40.4278 830.739 40.6984C831.014 40.969 831.363 41.1533 831.743 41.228C832.124 41.3026 832.518 41.2643 832.876 41.1179C833.234 40.9714 833.541 40.7234 833.756 40.4052C833.971 40.087 834.086 39.7129 834.086 39.3302C834.083 38.818 833.876 38.3276 833.509 37.9654C833.142 37.6032 832.645 37.3984 832.126 37.3953Z" fill="#EBEBEB"/>
<path d="M832.12 51.3198C831.672 51.3222 831.234 51.1933 830.86 50.9495C830.487 50.7057 830.195 50.358 830.022 49.9504C829.849 49.5429 829.803 49.0938 829.889 48.6601C829.975 48.2264 830.189 47.8276 830.505 47.5143C830.82 47.201 831.223 46.9873 831.662 46.9002C832.101 46.8131 832.557 46.8566 832.97 47.0252C833.384 47.1937 833.738 47.4798 833.987 47.847C834.236 48.2143 834.369 48.6462 834.369 49.0881C834.369 49.678 834.133 50.2438 833.711 50.662C833.29 51.0802 832.718 51.3167 832.12 51.3198ZM832.12 47.1532C831.729 47.1508 831.346 47.2633 831.02 47.4763C830.693 47.6893 830.439 47.9933 830.288 48.3495C830.137 48.7057 830.097 49.0981 830.173 49.4769C830.248 49.8556 830.437 50.2036 830.713 50.4766C830.99 50.7496 831.342 50.9352 831.726 51.01C832.11 51.0847 832.507 51.0451 832.868 50.8963C833.229 50.7475 833.537 50.4961 833.753 50.1742C833.969 49.8522 834.083 49.4742 834.081 49.0881C834.081 48.5727 833.875 48.0781 833.508 47.7115C833.141 47.3448 832.642 47.1357 832.12 47.1294V47.1532Z" fill="#EBEBEB"/>
<path d="M255 392L261.076 428.057L302.335 648H309L278.997 428.057L274.546 392H255Z" fill="#C7C7C7"/>
<path d="M142.115 378H423V409H141L142.115 378Z" fill="#DBDBDB"/>
<path d="M1248.9 300.502C1237.91 289.722 1223.71 276.709 1207.03 281.384C1191.23 285.745 1185.19 302.979 1182.33 317.387C1178.85 335.912 1175.85 354.611 1172.91 373.206C1169.98 391.801 1167.16 410.919 1164.44 429.792C1162.9 440.433 1161.4 451.108 1159.9 461.749C1159.17 467.086 1158.44 472.424 1157.67 477.762C1156.9 483.099 1156.1 488.228 1155.79 493.461C1155.81 493.811 1155.95 494.143 1156.19 494.398C1156.43 494.653 1156.76 494.815 1157.11 494.856C1157.45 494.898 1157.81 494.816 1158.1 494.625C1158.39 494.433 1158.61 494.145 1158.72 493.81C1160.74 484.914 1161.58 475.669 1162.9 466.633C1164.23 457.597 1165.52 448.492 1166.84 439.421C1169.5 421.396 1172.19 403.383 1174.94 385.381C1177.68 367.38 1180.49 349.367 1183.35 331.342C1185.75 316.096 1186.83 297.118 1200.44 287.071C1204.11 284.559 1208.35 283.024 1212.78 282.609C1217.2 282.194 1221.66 282.913 1225.73 284.698C1234.34 288.569 1242.14 294.025 1248.72 300.781C1248.79 301.025 1249.11 300.711 1248.9 300.502Z" fill="#3A3A3A"/>
<path d="M1233.85 289.514C1233.85 289.514 1211.39 281.42 1200.29 297.817C1189.2 314.214 1202.46 355.904 1304.95 379.452C1301.94 347.469 1293.62 316.212 1280.32 286.967C1258.21 238.998 1219.13 257.244 1233.85 289.514Z" fill="#DADADA"/>
<path d="M1298.85 372.613C1297.31 369.745 1295.59 366.973 1293.72 364.31C1292.01 361.693 1290.23 359.077 1288.52 356.46C1287.2 354.472 1285.87 352.553 1284.51 350.599C1284.51 350.111 1284.51 349.622 1284.72 349.134C1284.93 348.645 1284.93 347.355 1285.07 346.482C1285.31 344.564 1285.59 342.645 1285.87 340.726C1286.15 338.807 1286.47 336.923 1286.85 335.04C1287.08 332.986 1287.52 330.963 1288.17 329.004C1288.17 328.69 1287.76 328.551 1287.72 329.004C1287.53 330.194 1287.23 331.362 1286.81 332.493L1286.12 335.075C1285.63 337.028 1285.17 338.982 1284.72 340.935C1284.27 342.889 1283.99 344.424 1283.67 346.343L1283.26 348.994C1281.44 346.378 1279.59 343.796 1277.67 341.284C1272.23 334.133 1266.48 327.33 1260.54 320.527C1260.54 320.527 1260.54 320.527 1260.54 320.317C1260.5 309.609 1261.39 298.916 1263.2 288.361C1263.2 288.082 1262.81 287.908 1262.74 288.361C1260.03 298.317 1258.75 308.606 1258.94 318.922C1256.81 316.55 1254.65 314.177 1252.45 311.945C1247.5 306.572 1242.41 301.304 1237.21 296.141C1237.18 296.12 1237.16 296.104 1237.13 296.093C1237.11 296.082 1237.08 296.076 1237.05 296.076C1237.02 296.076 1236.99 296.082 1236.96 296.093C1236.94 296.104 1236.91 296.12 1236.89 296.141C1236.87 296.161 1236.85 296.186 1236.84 296.213C1236.83 296.24 1236.83 296.269 1236.83 296.298C1236.83 296.327 1236.83 296.356 1236.84 296.383C1236.85 296.41 1236.87 296.434 1236.89 296.455C1245.51 305.735 1253.71 315.398 1261.66 325.236C1255.42 325.137 1249.18 325.37 1242.96 325.934C1235.98 326.457 1229.01 327.33 1222.24 328.306C1221.96 328.306 1222.03 328.795 1222.24 328.76C1229.09 327.759 1236 327.141 1242.93 326.911C1249.59 326.632 1256.22 326.911 1262.92 326.911C1267.22 332.26 1271.48 337.644 1275.69 343.064H1274.71C1273.14 343.064 1271.57 343.064 1270.03 343.064C1266.89 343.064 1263.79 343.343 1260.68 343.622C1254.33 344.126 1248.03 345.07 1241.81 346.448C1241.76 346.466 1241.73 346.497 1241.7 346.537C1241.67 346.578 1241.66 346.625 1241.66 346.674C1241.66 346.723 1241.67 346.771 1241.7 346.811C1241.73 346.852 1241.76 346.883 1241.81 346.901C1248.12 346.168 1254.4 345.575 1260.72 345.366C1263.75 345.366 1266.75 345.366 1269.79 345.366H1274.5C1275.36 345.493 1276.25 345.422 1277.08 345.157C1279.84 348.645 1282.59 352.134 1285.31 355.867C1287.48 358.728 1289.61 361.623 1291.73 364.519C1293.86 367.415 1295.82 370.729 1298.19 373.52C1298.31 373.608 1298.46 373.644 1298.61 373.621C1298.75 373.598 1298.88 373.518 1298.97 373.398C1299.06 373.277 1299.1 373.127 1299.07 372.98C1299.05 372.833 1298.97 372.701 1298.85 372.613Z" fill="#3A3A3A"/>
<path d="M1243.63 312.747C1239.96 312.28 1236.26 312.116 1232.57 312.259C1228.9 312.259 1225.24 312.259 1221.61 312.468C1221.58 312.453 1221.54 312.448 1221.5 312.452C1221.46 312.456 1221.42 312.47 1221.38 312.493C1221.35 312.515 1221.32 312.545 1221.31 312.58C1221.29 312.616 1221.28 312.655 1221.28 312.695C1221.28 312.735 1221.29 312.774 1221.31 312.809C1221.32 312.845 1221.35 312.875 1221.38 312.897C1221.42 312.919 1221.46 312.934 1221.5 312.938C1221.54 312.942 1221.58 312.937 1221.61 312.922C1225.31 312.678 1229.01 312.608 1232.71 312.643C1236.4 312.677 1239.89 313.061 1243.45 312.957C1243.73 312.922 1243.77 312.747 1243.63 312.747Z" fill="#3A3A3A"/>
<path d="M1275.76 320.981C1276.12 317.467 1276.66 313.974 1277.37 310.515C1277.37 310.166 1276.95 310.061 1276.91 310.515C1276.39 314.003 1275.73 317.492 1275.2 320.806C1274.96 322.551 1274.71 324.295 1274.51 325.969C1274.21 327.581 1274.07 329.216 1274.09 330.854C1274.11 330.915 1274.15 330.969 1274.2 331.006C1274.25 331.044 1274.32 331.064 1274.38 331.064C1274.45 331.064 1274.51 331.044 1274.57 331.006C1274.62 330.969 1274.66 330.915 1274.68 330.854C1274.99 329.243 1275.17 327.609 1275.2 325.969C1275.38 324.295 1275.55 322.725 1275.76 320.981Z" fill="#3A3A3A"/>
<path d="M1269.02 282.256C1268.11 285.745 1267.24 289.234 1266.61 292.722C1266.3 294.467 1266.02 296.211 1265.78 297.99C1265.47 299.705 1265.35 301.448 1265.43 303.188C1265.43 303.188 1265.67 303.188 1265.71 303.188C1266.12 301.575 1266.38 299.929 1266.51 298.269C1266.75 296.56 1267 294.781 1267.31 293.176C1267.91 289.687 1268.57 286.199 1269.44 282.71C1269.54 282.152 1269.09 281.977 1269.02 282.256Z" fill="#3A3A3A"/>
<path d="M1135.79 489.763C1135.24 483.298 1134.62 476.867 1133.95 470.471C1132.6 457.703 1131.06 444.98 1129.34 432.305C1127.63 419.641 1125.85 406.942 1123.97 394.313C1123.19 388.462 1121.88 382.694 1120.06 377.079C1119.38 374.673 1118.17 372.452 1116.5 370.585C1114.84 368.717 1112.78 367.252 1110.47 366.299C1098.43 362.148 1090.3 374.637 1085.45 383.463C1085.45 383.743 1085.7 383.917 1085.87 383.708C1088.77 379.521 1096.83 367.764 1105.93 368.323C1112.11 368.671 1116.99 373.032 1119.89 388.348C1127.25 426.514 1133.84 503.997 1134.64 509.056C1135.03 511.742 1136.95 511.638 1136.95 508.742C1137.09 502.427 1136.35 496.078 1135.79 489.763Z" fill="#3A3A3A"/>
<path d="M1088.73 378.718C1088.73 378.718 1099.2 341.564 1076 360.158C1037.27 391.068 1035.91 458.33 1035.91 458.33C1035.91 458.33 1104.75 418.35 1113.29 392.045C1126.03 352.727 1088.73 378.718 1088.73 378.718Z" fill="#DADADA"/>
<path d="M1101.77 396.964C1096.36 398.045 1090.89 398.778 1085.41 399.545L1077.66 400.627L1072.43 401.255C1077.52 394.278 1082.72 387.3 1087.64 379.974C1087.82 379.695 1087.4 379.381 1087.15 379.625C1083.09 383.832 1079.26 388.257 1075.68 392.882C1074.66 390.021 1073.62 387.161 1072.61 384.265C1071.59 381.369 1070.2 377.637 1069.33 374.218C1069.33 374.19 1069.32 374.163 1069.31 374.137C1069.3 374.112 1069.28 374.089 1069.26 374.07C1069.25 374.05 1069.22 374.035 1069.2 374.024C1069.17 374.014 1069.14 374.008 1069.12 374.008C1069.09 374.008 1069.06 374.014 1069.04 374.024C1069.01 374.035 1068.99 374.05 1068.97 374.07C1068.95 374.089 1068.93 374.112 1068.92 374.137C1068.91 374.163 1068.91 374.19 1068.91 374.218C1069.85 377.706 1070.51 381.195 1071.42 384.509C1072.33 387.823 1073.3 391.068 1074.45 394.243C1071.94 397.522 1069.54 400.871 1067.16 404.255C1065.98 400.766 1064.51 397.662 1063.47 394.243C1063.47 393.964 1062.94 394.243 1063.05 394.243C1064.27 398.01 1064.93 401.953 1066.08 405.72C1064.51 408.058 1062.94 410.36 1061.44 412.698C1058.65 417.024 1056.03 421.385 1053.45 425.78C1053.26 425.876 1053.1 426.027 1053 426.214C1052.89 426.4 1052.84 426.613 1052.86 426.827C1048.5 434.328 1044.38 441.968 1040.3 449.678C1040.27 449.706 1040.26 449.739 1040.24 449.775C1040.23 449.812 1040.23 449.85 1040.24 449.888C1040.24 449.925 1040.26 449.961 1040.28 449.991C1040.31 450.021 1040.34 450.046 1040.37 450.063C1040.4 450.08 1040.44 450.089 1040.48 450.089C1040.52 450.089 1040.55 450.08 1040.59 450.063C1040.62 450.046 1040.65 450.021 1040.67 449.99C1040.7 449.96 1040.71 449.925 1040.72 449.887C1044.8 442.282 1049.34 434.886 1054.05 427.629C1054.78 427.429 1055.52 427.289 1056.28 427.211L1058.65 426.687C1060.43 426.304 1062.14 425.85 1063.99 425.396C1067.48 424.559 1070.97 423.722 1074.45 423.094C1074.77 423.094 1074.45 422.606 1074.45 422.675C1070.3 423.443 1066.12 423.931 1061.93 424.42C1059.94 424.664 1057.95 424.908 1055.96 425.222H1055.69C1058.16 421.454 1060.67 417.721 1063.22 414.058C1065.77 410.395 1068.28 406.837 1070.86 403.278C1073.23 402.929 1075.61 402.301 1077.84 401.848L1086.04 400.522C1091.37 399.476 1096.68 398.289 1102.02 397.417C1102.08 397.385 1102.12 397.33 1102.14 397.265C1102.16 397.199 1102.15 397.129 1102.12 397.068C1102.09 397.008 1102.03 396.963 1101.97 396.944C1101.9 396.924 1101.83 396.931 1101.77 396.964Z" fill="#3A3A3A"/>
<path d="M1060.4 400.628L1059.46 397.663C1058.83 395.604 1058.31 393.546 1057.89 391.453C1057.89 391.139 1057.4 391.278 1057.44 391.453C1057.89 393.546 1058.38 395.639 1058.87 397.732C1059.31 399.834 1059.92 401.899 1060.68 403.907C1060.68 403.972 1060.7 404.035 1060.73 404.093C1060.76 404.15 1060.8 404.199 1060.86 404.236C1060.91 404.273 1060.97 404.298 1061.03 404.308C1061.1 404.318 1061.16 404.313 1061.23 404.293C1061.29 404.274 1061.34 404.24 1061.39 404.195C1061.44 404.15 1061.47 404.095 1061.49 404.034C1061.51 403.972 1061.52 403.907 1061.51 403.843C1061.51 403.779 1061.48 403.717 1061.45 403.663C1061.17 402.721 1060.75 401.675 1060.4 400.628Z" fill="#3A3A3A"/>
<path d="M1108.79 388.348C1105.65 388.837 1102.51 389.046 1099.34 389.325C1096.16 389.604 1093.02 390.058 1089.88 390.511V390.791C1093.06 390.581 1096.2 390.337 1099.34 389.918C1102.48 389.5 1105.65 389.046 1108.83 388.837C1109.11 388.802 1109.11 388.314 1108.79 388.348Z" fill="#3A3A3A"/>
<path d="M1186.45 442.735C1185.23 415.384 1183.49 388.068 1180.77 360.821C1179.37 347.25 1177.84 333.714 1175.95 320.213C1174.24 306.932 1171.61 293.784 1168.1 280.861C1165.68 270.821 1161.23 261.382 1155.02 253.126C1151.96 249.114 1147.92 245.948 1143.29 243.928C1138.67 241.907 1133.6 241.099 1128.58 241.578C1116.61 243.043 1106.95 250.614 1098.61 258.777C1089.26 267.988 1080.71 278.035 1072.02 287.873L1065.5 295.374C1065.5 295.583 1065.5 295.897 1065.85 295.688C1074.33 285.954 1083.12 276.5 1092.33 267.464C1100.84 259.091 1109.77 250.021 1121.39 246.532C1126.86 244.775 1132.72 244.629 1138.27 246.114C1142.7 247.508 1146.68 250.034 1149.82 253.44C1156.1 260.733 1160.54 269.415 1162.8 278.767C1170.13 303.921 1172.78 330.26 1175.5 356.216C1178.22 382.172 1180.14 409.07 1181.5 435.549C1182.86 462.028 1183.87 488.856 1186.42 515.405C1186.73 518.649 1187.15 521.928 1187.57 525.208C1187.85 527.406 1191.27 527.406 1191.06 525.208C1188.96 497.682 1187.67 470.226 1186.45 442.735Z" fill="#3A3A3A"/>
<path d="M1097.1 261.779C1097.1 261.779 1112.73 232.893 1094.28 223.613C1075.82 214.333 1014.04 283.304 996 384.092C996 384.092 1095.78 339.925 1129.65 295.968C1163.53 252.01 1125.12 242.486 1097.1 261.779Z" fill="#DADADA"/>
<path d="M1111.78 285.292C1100.55 285.292 1089.38 284.455 1078.15 284.524L1084.46 277.373C1087.61 274.166 1090.54 270.763 1093.26 267.186C1093.26 266.976 1093.05 266.627 1092.84 266.802C1089.81 269.426 1086.97 272.272 1084.36 275.314L1075.95 284.35C1071.7 288.99 1067.48 293.7 1063.29 298.305V296.944C1063.29 294.99 1063.29 293.037 1063.29 291.083V279.675C1063.29 271.965 1063.29 264.185 1063.88 256.51C1063.88 256.196 1063.46 256.231 1063.43 256.51C1062.9 264.255 1062.1 271.965 1061.72 279.71C1061.51 283.513 1061.44 287.315 1061.37 291.118C1061.37 293.072 1061.37 295.025 1061.37 297.014C1061.37 298.06 1061.37 299.212 1061.37 300.293C1060.71 301.061 1060.04 301.758 1059.38 302.491C1050.42 312.713 1041.94 323.423 1033.63 334.064C1033.67 333.471 1033.67 332.877 1033.63 332.284C1033.63 331.098 1033.39 329.912 1033.25 328.796C1032.94 326.214 1032.59 323.667 1032.2 321.086C1031.82 318.504 1031.47 316.306 1031.05 313.899C1030.63 311.492 1029.97 308.457 1029.76 305.736C1029.78 305.698 1029.78 305.658 1029.78 305.619C1029.77 305.579 1029.76 305.541 1029.74 305.508C1029.72 305.475 1029.69 305.448 1029.65 305.429C1029.61 305.41 1029.58 305.401 1029.54 305.401C1029.5 305.401 1029.46 305.41 1029.42 305.429C1029.39 305.448 1029.36 305.475 1029.33 305.508C1029.31 305.541 1029.3 305.579 1029.29 305.619C1029.29 305.658 1029.29 305.698 1029.31 305.736C1029.76 308.462 1030.08 311.21 1030.25 313.969C1030.46 316.411 1030.7 318.888 1030.91 321.365C1031.12 323.842 1031.37 326.284 1031.61 328.761C1031.61 329.947 1031.86 331.133 1031.96 332.249C1031.96 332.843 1031.96 333.436 1032.2 334.029C1032.25 334.522 1032.4 334.999 1032.66 335.424C1031.26 337.308 1029.83 339.157 1028.4 341.006C1022.75 348.507 1017.2 356.077 1011.66 363.648C1011.66 363.857 1011.66 364.206 1011.97 363.962C1017.24 356.984 1022.65 350.356 1028.12 343.692C1032.24 343.867 1036.43 343.692 1040.54 343.483C1044.66 343.274 1049.19 343.483 1053.52 343.483C1053.8 343.483 1053.8 343.029 1053.52 343.029C1049.19 343.029 1044.87 343.029 1040.54 343.029C1036.22 343.029 1032.59 342.855 1028.65 343.029C1033.46 337.169 1038.34 331.342 1043.23 325.586C1045.01 323.458 1046.72 321.33 1048.6 319.237C1050.26 319.412 1051.93 319.412 1053.59 319.237H1059.49C1063.18 319.237 1066.88 319.237 1070.55 319.237C1078.15 319.237 1085.79 318.853 1093.4 318.853C1093.71 318.853 1093.68 318.365 1093.4 318.365C1085.76 318.365 1078.15 317.946 1070.51 317.771L1059.45 317.492H1053.56C1052.44 317.492 1051.29 317.492 1050.07 317.492L1062.63 302.596C1062.73 302.528 1062.82 302.431 1062.87 302.317C1066.95 297.502 1071.03 292.688 1075.19 287.908L1076.89 285.955C1088.51 286.304 1100.13 285.536 1111.78 285.955C1112.06 285.78 1112.06 285.292 1111.78 285.292Z" fill="#3A3A3A"/>
<path d="M1106.03 305.283H1103.49C1103.24 305.283 1103.24 305.701 1103.49 305.701H1106.21C1106.35 305.597 1106.35 305.283 1106.03 305.283Z" fill="#3A3A3A"/>
<path d="M1099.99 305.282C1096.39 305.282 1092.79 305.212 1089.21 305.073H1083.84C1082.17 304.846 1080.48 304.846 1078.82 305.073C1078.82 305.073 1078.82 305.352 1078.82 305.387C1080.47 305.746 1082.16 305.863 1083.84 305.736H1089.25H1099.99C1100.04 305.718 1100.08 305.686 1100.1 305.646C1100.13 305.606 1100.15 305.558 1100.15 305.509C1100.15 305.46 1100.13 305.413 1100.1 305.372C1100.08 305.332 1100.04 305.3 1099.99 305.282Z" fill="#3A3A3A"/>
<path d="M1068.6 338.844C1061.31 337.631 1053.94 336.954 1046.55 336.82C1053.87 337.518 1061.2 337.902 1068.49 339.088C1068.8 339.332 1068.91 338.879 1068.6 338.844Z" fill="#3A3A3A"/>
<path d="M1038.63 306.747L1038.42 304.794C1038.24 303.363 1038 301.933 1037.75 300.503C1037.33 297.747 1036.85 295.025 1036.32 292.304C1036.32 292.025 1035.87 292.095 1035.9 292.304C1036.22 295.095 1036.53 297.921 1036.81 300.747C1036.81 302.142 1037.02 303.538 1037.16 304.933C1037.12 306.27 1037.3 307.604 1037.72 308.875C1037.76 308.974 1037.82 309.059 1037.91 309.119C1038 309.179 1038.1 309.211 1038.21 309.211C1038.31 309.211 1038.42 309.179 1038.5 309.119C1038.59 309.059 1038.66 308.974 1038.7 308.875C1038.82 308.169 1038.8 307.444 1038.63 306.747Z" fill="#3A3A3A"/>
<path d="M1185.46 224.659C1181.98 218.03 1177.34 209.239 1168.44 209.797C1161.08 210.25 1157.76 217.751 1156.19 223.961C1151.31 243.183 1151 263.418 1150.02 283.094C1148.03 324.679 1146.25 366.299 1145.97 407.954C1145.97 419.501 1145.97 431.014 1145.97 442.562C1145.97 454.109 1145.97 466.18 1146.81 477.937C1146.85 478.134 1146.96 478.311 1147.11 478.438C1147.27 478.566 1147.46 478.635 1147.66 478.635C1147.87 478.635 1148.06 478.566 1148.22 478.438C1148.37 478.311 1148.48 478.134 1148.52 477.937C1148.52 467.854 1148.24 457.772 1148.21 447.725C1148.17 437.677 1148.21 428.049 1148.41 418.245C1148.72 398.337 1149.24 378.44 1149.98 358.554C1150.72 338.773 1151.59 319.027 1152.43 299.246C1152.85 289.362 1153.28 279.489 1153.72 269.628C1154.14 260.069 1154.55 250.475 1155.64 240.951C1156.26 235.648 1157.07 230.31 1158.15 225.042C1158.73 221.127 1160.33 217.434 1162.79 214.332C1164.49 212.658 1166.74 211.645 1169.12 211.473C1171.5 211.3 1173.87 211.98 1175.8 213.39C1179.86 216.328 1183.05 220.305 1185.05 224.903C1185.22 225.042 1185.6 225.042 1185.46 224.659Z" fill="#3A3A3A"/>
<path d="M1183.07 221.554C1183.07 221.554 1175.74 195.703 1191.93 208.611C1218.9 230.171 1219.84 277.024 1219.84 277.024C1219.84 277.024 1171.87 249.114 1165.94 230.799C1157.08 203.378 1183.07 221.554 1183.07 221.554Z" fill="#DADADA"/>
<path d="M1209.75 257.731C1209.33 257.033 1208.84 256.336 1208.38 255.603C1208.45 254.872 1208.45 254.136 1208.38 253.405C1208.38 252.289 1208.38 251.172 1208.38 249.916C1208.38 247.754 1208.38 245.556 1208.63 243.393C1208.63 243.328 1208.6 243.266 1208.56 243.22C1208.51 243.174 1208.45 243.148 1208.38 243.148C1208.32 243.148 1208.26 243.174 1208.21 243.22C1208.17 243.266 1208.14 243.328 1208.14 243.393C1208.14 245.521 1207.97 247.684 1207.9 249.812V253.021V254.417C1206.01 251.486 1204.09 248.591 1202.07 245.765C1201.51 244.928 1200.88 244.125 1200.29 243.323C1200.06 240.513 1200.06 237.69 1200.29 234.88C1200.29 231.845 1200.29 228.845 1200.5 225.845C1200.5 225.566 1200.05 225.566 1200.01 225.845C1200.01 228.984 1199.77 232.124 1199.63 235.229C1199.63 237.462 1199.31 239.695 1199.42 241.927C1194.81 235.648 1189.89 229.577 1184.91 223.542C1184.91 223.333 1184.42 223.542 1184.56 223.821C1187.66 227.728 1190.59 231.706 1193.49 235.752C1187.84 234.427 1182.11 233.694 1176.39 232.857C1176.08 232.857 1175.97 233.275 1176.39 233.31C1182.46 234.217 1188.43 235.752 1194.43 237.078L1201.41 246.812L1204.13 250.824H1203.85L1202 250.579C1200.67 250.579 1199.35 250.3 1198.02 250.196C1195.23 249.986 1192.48 249.847 1189.72 249.707C1189.41 249.707 1189.41 250.161 1189.72 250.161C1192.44 250.161 1195.16 250.44 1197.85 250.719L1202.14 251.242L1204.02 251.452H1204.58L1209.19 258.254C1211.87 262.266 1214.32 266.557 1217.21 270.43C1217.21 270.639 1217.7 270.43 1217.56 270.186C1215.21 265.878 1212.6 261.718 1209.75 257.731Z" fill="#3A3A3A"/>
<path d="M1197.68 228.53C1197.68 227.553 1197.68 226.542 1197.68 225.53C1197.62 223.41 1197.7 221.289 1197.92 219.181C1197.94 219.143 1197.94 219.103 1197.94 219.064C1197.94 219.024 1197.92 218.986 1197.9 218.953C1197.88 218.92 1197.85 218.893 1197.81 218.874C1197.78 218.855 1197.74 218.846 1197.7 218.846C1197.66 218.846 1197.62 218.855 1197.58 218.874C1197.55 218.893 1197.52 218.92 1197.49 218.953C1197.47 218.986 1197.46 219.024 1197.45 219.064C1197.45 219.103 1197.46 219.143 1197.47 219.181C1197.47 221.274 1197.23 223.367 1197.16 225.46C1197.16 226.507 1197.16 227.553 1197.16 228.6V230.03C1197.07 230.526 1197.07 231.034 1197.16 231.53C1197.16 231.586 1197.18 231.639 1197.22 231.678C1197.26 231.718 1197.31 231.74 1197.37 231.74C1197.42 231.74 1197.47 231.718 1197.51 231.678C1197.55 231.639 1197.57 231.586 1197.57 231.53C1197.65 231.068 1197.65 230.597 1197.57 230.135C1197.68 229.542 1197.68 229.019 1197.68 228.53Z" fill="#3A3A3A"/>
<path d="M1191.89 239.241C1190.11 238.927 1188.4 238.823 1186.49 238.683C1184.57 238.543 1182.54 238.334 1180.59 238.09C1180.24 238.09 1180.17 238.509 1180.59 238.543C1184.39 238.788 1188.16 239.451 1191.93 239.59C1191.95 239.588 1191.97 239.581 1191.99 239.57C1192.01 239.559 1192.03 239.544 1192.05 239.527C1192.06 239.509 1192.07 239.488 1192.08 239.466C1192.08 239.444 1192.09 239.421 1192.08 239.398C1192.08 239.375 1192.08 239.353 1192.06 239.333C1192.05 239.312 1192.04 239.294 1192.02 239.28C1192 239.265 1191.98 239.254 1191.96 239.248C1191.94 239.241 1191.92 239.239 1191.89 239.241Z" fill="#3A3A3A"/>
<path d="M1206.96 239.381C1206.96 239.591 1206.96 240.149 1206.96 240.393V244.824C1206.85 245.354 1206.85 245.899 1206.96 246.429C1207.03 246.177 1207.03 245.912 1206.96 245.661V240.393C1206.96 240.114 1206.96 239.591 1206.96 239.381C1206.65 238.998 1206.96 239.172 1206.96 239.381Z" fill="#3A3A3A"/>
<path d="M1186.59 362.74C1176.51 355.17 1167.44 344.285 1153.9 343.762C1142.7 343.343 1134.85 351.751 1130.35 361.205C1128.11 366.199 1126.28 371.367 1124.88 376.66C1122.85 383.637 1120.95 390.754 1119.16 398.01C1115.67 411.965 1112.63 426.269 1110.19 440.538C1108.83 448.492 1107.54 456.481 1106.7 464.505C1105.43 472.591 1104.64 480.746 1104.33 488.926C1104.36 489.221 1104.49 489.497 1104.69 489.709C1104.9 489.92 1105.18 490.053 1105.47 490.086C1105.77 490.119 1106.06 490.049 1106.31 489.889C1106.56 489.728 1106.75 489.487 1106.84 489.205C1108.2 482.471 1108.76 475.564 1109.77 468.796C1110.78 462.028 1111.79 455.155 1112.95 448.387C1115.27 434.804 1117.95 421.292 1120.97 407.849C1123.86 395.15 1126.69 382.277 1130.81 369.927C1133.74 361.065 1138.45 350.739 1148.01 347.564C1162.55 342.715 1175.92 355.03 1186.38 363.019C1186.49 363.263 1186.84 362.914 1186.59 362.74Z" fill="#3A3A3A"/>
<path d="M1176.16 355.519C1176.16 355.519 1166.84 328.97 1180.31 323.772C1200.44 315.957 1253.19 375.37 1242.86 466.354C1217.98 452.437 1194.29 436.486 1172.04 418.664C1141.93 393.406 1134.26 360.438 1147.62 351.926C1160.98 343.413 1176.16 355.519 1176.16 355.519Z" fill="#DADADA"/>
<path d="M1236.75 446.853C1235.35 443.677 1233.72 440.611 1231.86 437.678C1230.12 434.538 1228.37 431.433 1226.59 428.363C1223.11 422.397 1219.62 416.397 1216.13 410.466L1214.35 407.57C1214.35 407.221 1214.35 406.872 1214.59 406.524L1215.19 403.872C1215.64 401.919 1215.99 399.895 1216.34 397.907C1217.07 394.034 1217.77 390.092 1218.81 386.254C1218.81 385.975 1218.4 385.871 1218.36 386.254C1217.52 390.127 1216.3 393.964 1215.15 397.767C1214.56 399.651 1213.97 401.535 1213.48 403.419L1212.95 405.372C1208.63 398.395 1204.23 391.208 1199.49 384.44C1199.78 383.492 1199.94 382.504 1199.94 381.51C1199.94 380.184 1200.26 378.858 1200.39 377.533C1200.78 374.532 1201.09 371.532 1201.55 368.567C1202.32 362.702 1203.39 356.88 1204.76 351.123C1204.76 350.844 1204.37 350.775 1204.27 351.123C1202.84 356.845 1201.27 362.566 1200.15 368.392C1199.63 371.253 1199.14 374.114 1198.75 376.974C1198.55 378.405 1198.41 379.835 1198.27 381.3C1198.27 381.719 1198.27 382.173 1198.27 382.591C1196.8 380.533 1195.34 378.475 1193.8 376.451C1189.16 370.346 1184.35 364.345 1179.46 358.415C1179.46 358.171 1178.9 358.415 1179.08 358.659C1187.41 369.331 1195.07 380.516 1202 392.15L1205.98 398.569L1204.65 398.395C1202.94 398.186 1201.16 398.081 1199.52 397.907L1189.06 397.034C1182.08 396.476 1175.31 396.058 1168.47 395.325C1168.16 395.325 1168.09 395.744 1168.47 395.778C1175.45 396.581 1182.43 397.697 1189.41 398.674C1192.89 399.162 1196.38 399.616 1199.63 400.035C1202.21 400.571 1204.84 400.84 1207.48 400.837L1215.12 413.78C1214.51 413.745 1213.91 413.745 1213.3 413.78H1203.57H1190.31C1190 413.78 1190.03 414.234 1190.31 414.234C1194.78 414.234 1199.24 414.513 1203.71 414.757L1210.09 415.141C1211.14 415.141 1212.19 415.315 1213.27 415.35C1214.19 415.559 1215.14 415.559 1216.06 415.35C1218.36 419.083 1220.66 422.816 1223.04 426.549C1225.41 430.282 1227.29 433.526 1229.46 436.805C1231.52 440.464 1233.85 443.963 1236.43 447.271C1236.5 447.271 1236.85 447.132 1236.75 446.853Z" fill="#3A3A3A"/>
<path d="M1217.36 373.311C1216.93 376.229 1216.32 379.118 1215.55 381.963C1214.78 384.894 1213.91 387.824 1212.97 390.72C1212.94 390.794 1212.95 390.874 1212.99 390.943C1213.02 391.011 1213.08 391.063 1213.16 391.086C1213.23 391.109 1213.31 391.102 1213.38 391.066C1213.45 391.03 1213.5 390.968 1213.52 390.894C1214.43 387.999 1215.23 385.138 1215.93 382.207C1216.63 379.277 1217.08 376.312 1217.82 373.381C1217.89 373.102 1217.4 372.997 1217.36 373.311Z" fill="#3A3A3A"/>
<path d="M1187.43 391.068C1186.8 390.535 1186.01 390.239 1185.19 390.231L1181.36 389.707L1174.38 388.835C1169.39 388.277 1164.43 387.789 1159.48 387.161C1159.17 387.161 1159.1 387.579 1159.48 387.614C1164.19 388.172 1168.83 388.905 1173.44 389.498L1180.41 390.405L1183.9 390.754C1185.19 390.761 1186.46 390.985 1187.67 391.417C1187.43 391.521 1187.56 391.242 1187.43 391.068Z" fill="#3A3A3A"/>
<path d="M1217.29 431.084C1214.96 430.875 1212.58 430.805 1210.32 430.735H1206.83H1205.12C1204.38 430.806 1203.63 430.806 1202.89 430.735C1202.57 430.735 1202.54 431.224 1202.89 431.189C1203.58 431.119 1204.28 431.119 1204.98 431.189H1206.83L1210.32 431.398C1212.65 431.398 1215.03 431.677 1217.29 431.712C1217.54 431.608 1217.57 431.119 1217.29 431.084Z" fill="#3A3A3A"/>
<path d="M1231.63 420.897C1231.91 419.571 1232.16 418.246 1232.4 416.92L1233.87 409.035C1233.85 408.99 1233.82 408.951 1233.78 408.924C1233.73 408.896 1233.69 408.882 1233.64 408.882C1233.59 408.882 1233.54 408.896 1233.5 408.924C1233.46 408.951 1233.43 408.99 1233.41 409.035C1232.82 411.582 1232.26 414.129 1231.67 416.676L1230.83 420.513C1230.83 421.106 1230.59 421.699 1230.48 422.292C1230.27 422.897 1230.2 423.541 1230.27 424.176C1230.27 424.386 1230.62 424.56 1230.76 424.351C1231.27 423.266 1231.57 422.094 1231.63 420.897Z" fill="#3A3A3A"/>
<path d="M1211.85 499.321L1209.58 536.929L1202.88 647.974H1089.01L1082.31 536.929L1080.04 499.321H1211.85Z" fill="#595959"/>
<path d="M1211.85 499.321L1209.58 536.929H1082.31L1080.04 499.321H1211.85Z" fill="#3A3A3A"/>
<path d="M1222.3 472.739H1069.54V510.382H1222.3V472.739Z" fill="#595959"/>
</svg>
