
<svg width="1305" height="648" viewBox="0 0 1305 648" fill="none" xmlns="http://www.w3.org/2000/svg">
<path d="M78.3236 225.784L74.793 225.333L92.9755 87.0905L158.939 50.8823L160.645 54.001L96.2708 89.3462L78.3236 225.784Z" fill="#333333"/>
<path d="M89.6055 88.2093C89.6055 89.2024 89.9 90.1732 90.4517 90.9989C91.0035 91.8247 91.7877 92.4683 92.7052 92.8483C93.6227 93.2284 94.6323 93.3278 95.6064 93.1341C96.5804 92.9403 97.4751 92.4621 98.1774 91.7599C98.8796 91.0576 99.3578 90.1629 99.5516 89.1889C99.7453 88.2149 99.6459 87.2052 99.2658 86.2877C98.8858 85.3702 98.2422 84.586 97.4164 84.0342C96.5907 83.4825 95.6199 83.188 94.6268 83.188C93.295 83.188 92.0178 83.717 91.0762 84.6587C90.1345 85.6004 89.6055 86.8775 89.6055 88.2093Z" fill="#E0E0E0"/>
<path d="M156.674 54.5505C157.002 55.4879 157.601 56.3069 158.394 56.9041C159.188 57.5013 160.141 57.8497 161.132 57.9053C162.124 57.961 163.11 57.7214 163.965 57.2168C164.82 56.7122 165.507 55.9652 165.938 55.0704C166.369 54.1757 166.524 53.1732 166.386 52.1898C166.247 51.2065 165.819 50.2864 165.158 49.5459C164.496 48.8054 163.629 48.2778 162.668 48.0298C161.706 47.7817 160.692 47.8244 159.755 48.1525C158.498 48.5923 157.467 49.5136 156.89 50.7134C156.312 51.9133 156.234 53.2935 156.674 54.5505Z" fill="#E0E0E0"/>
<path d="M194.792 46.0733L181.221 78.731L166.483 69.6329L157.518 64.0841L167.699 39.6156L177.971 42.0681L194.792 46.0733Z" fill="#E0E0E0"/>
<path opacity="0.1" d="M194.798 46.0715L181.227 78.7292L166.489 69.6311L177.977 42.0663L194.798 46.0715Z" fill="black"/>
<path d="M231.374 47.0498L207.7 103.982L170.398 80.1089L188.131 37.433L231.374 47.0498Z" fill="#E0E0E0"/>
<path d="M108.883 237.848H48L51.7267 218.724H105.137L108.883 237.848Z" fill="#E0E0E0"/>
<path d="M66 257H34V648H66V257Z" fill="#B5B5B5"/>
<path d="M1064 257H1033V648H1064V257Z" fill="#B5B5B5"/>
<path d="M1092.03 237.797H22.2145C9.94579 237.797 0 241.953 0 247.079V249.627C0 254.753 9.94579 258.909 22.2145 258.909H1092.03C1104.3 258.909 1114.24 254.753 1114.24 249.627V247.079C1114.24 241.953 1104.3 237.797 1092.03 237.797Z" fill="#B5B5B5"/>
<path d="M364 392L370.076 428.057L411.335 648H418L387.997 428.057L383.546 392H364Z" fill="#C7C7C7"/>
<path d="M236 648H242.665L283.924 428.057L290 392H270.43L266.003 428.057L236 648Z" fill="#939393"/>
<path d="M114 648H120.521L161.034 428.057L167 392H147.807L143.46 428.057L114 648Z" fill="#C7C7C7"/>
<path d="M124 409H423V377.589H311.067L273.453 113H135.412L124 409Z" fill="#A5A5A5"/>
<path d="M124 409H140.349L151 113H135.445L124 409Z" fill="#DBDBDB"/>
<path d="M834.7 0H512.6C503.488 0 496.102 7.38661 496.102 16.4985V218.319C496.102 227.431 503.488 234.817 512.6 234.817H834.7C843.812 234.817 851.198 227.431 851.198 218.319V16.4985C851.198 7.38661 843.812 0 834.7 0Z" fill="black"/>
<path d="M481.254 217.457H865.973V217.853C865.973 223.199 863.849 228.326 860.069 232.106C856.29 235.886 851.163 238.009 845.817 238.009H501.41C496.064 238.009 490.937 235.886 487.157 232.106C483.377 228.326 481.254 223.199 481.254 217.853V217.457Z" fill="black"/>
<path d="M841 9H506V205H841V9Z" fill="white"/>
<path d="M255 392L261.076 428.057L302.335 648H309L278.997 428.057L274.546 392H255Z" fill="#C7C7C7"/>
<path d="M142.115 378H423V409H141L142.115 378Z" fill="#DBDBDB"/>
<path d="M1248.9 300.502C1237.91 289.722 1223.71 276.709 1207.03 281.384C1191.23 285.745 1185.19 302.979 1182.33 317.387C1178.85 335.912 1175.85 354.611 1172.91 373.206C1169.98 391.801 1167.16 410.919 1164.44 429.792C1162.9 440.433 1161.4 451.108 1159.9 461.749C1159.17 467.086 1158.44 472.424 1157.67 477.762C1156.9 483.099 1156.1 488.228 1155.79 493.461C1155.81 493.811 1155.95 494.143 1156.19 494.398C1156.43 494.653 1156.76 494.815 1157.11 494.856C1157.45 494.898 1157.81 494.816 1158.1 494.625C1158.39 494.433 1158.61 494.145 1158.72 493.81C1160.74 484.914 1161.58 475.669 1162.9 466.633C1164.23 457.597 1165.52 448.492 1166.84 439.421C1169.5 421.396 1172.19 403.383 1174.94 385.381C1177.68 367.38 1180.49 349.367 1183.35 331.342C1185.75 316.096 1186.83 297.118 1200.44 287.071C1204.11 284.559 1208.35 283.024 1212.78 282.609C1217.2 282.194 1221.66 282.913 1225.73 284.698C1234.34 288.569 1242.14 294.025 1248.72 300.781C1248.79 301.025 1249.11 300.711 1248.9 300.502Z" fill="#3A3A3A"/>
<path d="M1233.85 289.514C1233.85 289.514 1211.39 281.42 1200.29 297.817C1189.2 314.214 1202.46 355.904 1304.95 379.452C1301.94 347.469 1293.62 316.212 1280.32 286.967C1258.21 238.998 1219.13 257.244 1233.85 289.514Z" fill="#DADADA"/>
<path d="M1298.85 372.613C1297.31 369.745 1295.59 366.973 1293.72 364.31C1292.01 361.693 1290.23 359.077 1288.52 356.46C1287.2 354.472 1285.87 352.553 1284.51 350.599C1284.51 350.111 1284.51 349.622 1284.72 349.134C1284.93 348.645 1284.93 347.355 1285.07 346.482C1285.31 344.564 1285.59 342.645 1285.87 340.726C1286.15 338.807 1286.47 336.923 1286.85 335.04C1287.08 332.986 1287.52 330.963 1288.17 329.004C1288.17 328.69 1287.76 328.551 1287.72 329.004C1287.53 330.194 1287.23 331.362 1286.81 332.493L1286.12 335.075C1285.63 337.028 1285.17 338.982 1284.72 340.935C1284.27 342.889 1283.99 344.424 1283.67 346.343L1283.26 348.994C1281.44 346.378 1279.59 343.796 1277.67 341.284C1272.23 334.133 1266.48 327.33 1260.54 320.527C1260.54 320.527 1260.54 320.527 1260.54 320.317C1260.5 309.609 1261.39 298.916 1263.2 288.361C1263.2 288.082 1262.81 287.908 1262.74 288.361C1260.03 298.317 1258.75 308.606 1258.94 318.922C1256.81 316.55 1254.65 314.177 1252.45 311.945C1247.5 306.572 1242.41 301.304 1237.21 296.141C1237.18 296.12 1237.16 296.104 1237.13 296.093C1237.11 296.082 1237.08 296.076 1237.05 296.076C1237.02 296.076 1236.99 296.082 1236.96 296.093C1236.94 296.104 1236.91 296.12 1236.89 296.141C1236.87 296.161 1236.85 296.186 1236.84 296.213C1236.83 296.24 1236.83 296.269 1236.83 296.298C1236.83 296.327 1236.83 296.356 1236.84 296.383C1236.85 296.41 1236.87 296.434 1236.89 296.455C1245.51 305.735 1253.71 315.398 1261.66 325.236C1255.42 325.137 1249.18 325.37 1242.96 325.934C1235.98 326.457 1229.01 327.33 1222.24 328.306C1221.96 328.306 1222.03 328.795 1222.24 328.76C1229.09 327.759 1236 327.141 1242.93 326.911C1249.59 326.632 1256.22 326.911 1262.92 326.911C1267.22 332.26 1271.48 337.644 1275.69 343.064H1274.71C1273.14 343.064 1271.57 343.064 1270.03 343.064C1266.89 343.064 1263.79 343.343 1260.68 343.622C1254.33 344.126 1248.03 345.07 1241.81 346.448C1241.76 346.466 1241.73 346.497 1241.7 346.537C1241.67 346.578 1241.66 346.625 1241.66 346.674C1241.66 346.723 1241.67 346.771 1241.7 346.811C1241.73 346.852 1241.76 346.883 1241.81 346.901C1248.12 346.168 1254.4 345.575 1260.72 345.366C1263.75 345.366 1266.75 345.366 1269.79 345.366H1274.5C1275.36 345.493 1276.25 345.422 1277.08 345.157C1279.84 348.645 1282.59 352.134 1285.31 355.867C1287.48 358.728 1289.61 361.623 1291.73 364.519C1293.86 367.415 1295.82 370.729 1298.19 373.52C1298.31 373.608 1298.46 373.644 1298.61 373.621C1298.75 373.598 1298.88 373.518 1298.97 373.398C1299.06 373.277 1299.1 373.127 1299.07 372.98C1299.05 372.833 1298.97 372.701 1298.85 372.613Z" fill="#3A3A3A"/>
<path d="M1135.79 489.763C1135.24 483.298 1134.62 476.867 1133.95 470.471C1132.6 457.703 1131.06 444.98 1129.34 432.305C1127.63 419.641 1125.85 406.942 1123.97 394.313C1123.19 388.462 1121.88 382.694 1120.06 377.079C1119.38 374.673 1118.17 372.452 1116.5 370.585C1114.84 368.717 1112.78 367.252 1110.47 366.299C1098.43 362.148 1090.3 374.637 1085.45 383.463C1085.45 383.743 1085.7 383.917 1085.87 383.708C1088.77 379.521 1096.83 367.764 1105.93 368.323C1112.11 368.671 1116.99 373.032 1119.89 388.348C1127.25 426.514 1133.84 503.997 1134.64 509.056C1135.03 511.742 1136.95 511.638 1136.95 508.742C1137.09 502.427 1136.35 496.078 1135.79 489.763Z" fill="#3A3A3A"/>
<path d="M1088.73 378.718C1088.73 378.718 1099.2 341.564 1076 360.158C1037.27 391.068 1035.91 458.33 1035.91 458.33C1035.91 458.33 1104.75 418.35 1113.29 392.045C1126.03 352.727 1088.73 378.718 1088.73 378.718Z" fill="#DADADA"/>
<path d="M1101.77 396.964C1096.36 398.045 1090.89 398.778 1085.41 399.545L1077.66 400.627L1072.43 401.255C1077.52 394.278 1082.72 387.3 1087.64 379.974C1087.82 379.695 1087.4 379.381 1087.15 379.625C1083.09 383.832 1079.26 388.257 1075.68 392.882C1074.66 390.021 1073.62 387.161 1072.61 384.265C1071.59 381.369 1070.2 377.637 1069.33 374.218C1069.33 374.19 1069.32 374.163 1069.31 374.137C1069.3 374.112 1069.28 374.089 1069.26 374.07C1069.25 374.05 1069.22 374.035 1069.2 374.024C1069.17 374.014 1069.14 374.008 1069.12 374.008C1069.09 374.008 1069.06 374.014 1069.04 374.024C1069.01 374.035 1068.99 374.05 1068.97 374.07C1068.95 374.089 1068.93 374.112 1068.92 374.137C1068.91 374.163 1068.91 374.19 1068.91 374.218C1069.85 377.706 1070.51 381.195 1071.42 384.509C1072.33 387.823 1073.3 391.068 1074.45 394.243C1071.94 397.522 1069.54 400.871 1067.16 404.255C1065.98 400.766 1064.51 397.662 1063.47 394.243C1063.47 393.964 1062.94 394.243 1063.05 394.243C1064.27 398.01 1064.93 401.953 1066.08 405.72C1064.51 408.058 1062.94 410.36 1061.44 412.698C1058.65 417.024 1056.03 421.385 1053.45 425.78C1053.26 425.876 1053.1 426.027 1053 426.214C1052.89 426.4 1052.84 426.613 1052.86 426.827C1048.5 434.328 1044.38 441.968 1040.3 449.678C1040.27 449.706 1040.26 449.739 1040.24 449.775C1040.23 449.812 1040.23 449.85 1040.24 449.888C1040.24 449.925 1040.26 449.961 1040.28 449.991C1040.31 450.021 1040.34 450.046 1040.37 450.063C1040.4 450.08 1040.44 450.089 1040.48 450.089C1040.52 450.089 1040.55 450.08 1040.59 450.063C1040.62 450.046 1040.65 450.021 1040.67 449.99C1040.7 449.96 1040.71 449.925 1040.72 449.887C1044.8 442.282 1049.34 434.886 1054.05 427.629C1054.78 427.429 1055.52 427.289 1056.28 427.211L1058.65 426.687C1060.43 426.304 1062.14 425.85 1063.99 425.396C1067.48 424.559 1070.97 423.722 1074.45 423.094C1074.77 423.094 1074.45 422.606 1074.45 422.675C1070.3 423.443 1066.12 423.931 1061.93 424.42C1059.94 424.664 1057.95 424.908 1055.96 425.222H1055.69C1058.16 421.454 1060.67 417.721 1063.22 414.058C1065.77 410.395 1068.28 406.837 1070.86 403.278C1073.23 402.929 1075.61 402.301 1077.84 401.848L1086.04 400.522C1091.37 399.476 1096.68 398.289 1102.02 397.417C1102.08 397.385 1102.12 397.33 1102.14 397.265C1102.16 397.199 1102.15 397.129 1102.12 397.068C1102.09 397.008 1102.03 396.963 1101.97 396.944C1101.9 396.924 1101.83 396.931 1101.77 396.964Z" fill="#3A3A3A"/>
<path d="M1186.45 442.735C1185.23 415.384 1183.49 388.068 1180.77 360.821C1179.37 347.25 1177.84 333.714 1175.95 320.213C1174.24 306.932 1171.61 293.784 1168.1 280.861C1165.68 270.821 1161.23 261.382 1155.02 253.126C1151.96 249.114 1147.92 245.948 1143.29 243.928C1138.67 241.907 1133.6 241.099 1128.58 241.578C1116.61 243.043 1106.95 250.614 1098.61 258.777C1089.26 267.988 1080.71 278.035 1072.02 287.873L1065.5 295.374C1065.5 295.583 1065.5 295.897 1065.85 295.688C1074.33 285.954 1083.12 276.5 1092.33 267.464C1100.84 259.091 1109.77 250.021 1121.39 246.532C1126.86 244.775 1132.72 244.629 1138.27 246.114C1142.7 247.508 1146.68 250.034 1149.82 253.44C1156.1 260.733 1160.54 269.415 1162.8 278.767C1170.13 303.921 1172.78 330.26 1175.5 356.216C1178.22 382.172 1180.14 409.07 1181.5 435.549C1182.86 462.028 1183.87 488.856 1186.42 515.405C1186.73 518.649 1187.15 521.928 1187.57 525.208C1187.85 527.406 1191.27 527.406 1191.06 525.208C1188.96 497.682 1187.67 470.226 1186.45 442.735Z" fill="#3A3A3A"/>
<path d="M1097.1 261.779C1097.1 261.779 1112.73 232.893 1094.28 223.613C1075.82 214.333 1014.04 283.304 996 384.092C996 384.092 1095.78 339.925 1129.65 295.968C1163.53 252.01 1125.12 242.486 1097.1 261.779Z" fill="#DADADA"/>
<path d="M1111.78 285.292C1100.55 285.292 1089.38 284.455 1078.15 284.524L1084.46 277.373C1087.61 274.166 1090.54 270.763 1093.26 267.186C1093.26 266.976 1093.05 266.627 1092.84 266.802C1089.81 269.426 1086.97 272.272 1084.36 275.314L1075.95 284.35C1071.7 288.99 1067.48 293.7 1063.29 298.305V296.944C1063.29 294.99 1063.29 293.037 1063.29 291.083V279.675C1063.29 271.965 1063.29 264.185 1063.88 256.51C1063.88 256.196 1063.46 256.231 1063.43 256.51C1062.9 264.255 1062.1 271.965 1061.72 279.71C1061.51 283.513 1061.44 287.315 1061.37 291.118C1061.37 293.072 1061.37 295.025 1061.37 297.014C1061.37 298.06 1061.37 299.212 1061.37 300.293C1060.71 301.061 1060.04 301.758 1059.38 302.491C1050.42 312.713 1041.94 323.423 1033.63 334.064C1033.67 333.471 1033.67 332.877 1033.63 332.284C1033.63 331.098 1033.39 329.912 1033.25 328.796C1032.94 326.214 1032.59 323.667 1032.2 321.086C1031.82 318.504 1031.47 316.306 1031.05 313.899C1030.63 311.492 1029.97 308.457 1029.76 305.736C1029.78 305.698 1029.78 305.658 1029.78 305.619C1029.77 305.579 1029.76 305.541 1029.74 305.508C1029.72 305.475 1029.69 305.448 1029.65 305.429C1029.61 305.41 1029.58 305.401 1029.54 305.401C1029.5 305.401 1029.46 305.41 1029.42 305.429C1029.39 305.448 1029.36 305.475 1029.33 305.508C1029.31 305.541 1029.3 305.579 1029.29 305.619C1029.29 305.658 1029.29 305.698 1029.31 305.736C1029.76 308.462 1030.08 311.21 1030.25 313.969C1030.46 316.411 1030.7 318.888 1030.91 321.365C1031.12 323.842 1031.37 326.284 1031.61 328.761C1031.61 329.947 1031.86 331.133 1031.96 332.249C1031.96 332.843 1031.96 333.436 1032.2 334.029C1032.25 334.522 1032.4 334.999 1032.66 335.424C1031.26 337.308 1029.83 339.157 1028.4 341.006C1022.75 348.507 1017.2 356.077 1011.66 363.648C1011.66 363.857 1011.66 364.206 1011.97 363.962C1017.24 356.984 1022.65 350.356 1028.12 343.692C1032.24 343.867 1036.43 343.692 1040.54 343.483C1044.66 343.274 1049.19 343.483 1053.52 343.483C1053.8 343.483 1053.8 343.029 1053.52 343.029C1049.19 343.029 1044.87 343.029 1040.54 343.029C1036.22 343.029 1032.59 342.855 1028.65 343.029C1033.46 337.169 1038.34 331.342 1043.23 325.586C1045.01 323.458 1046.72 321.33 1048.6 319.237C1050.26 319.412 1051.93 319.412 1053.59 319.237H1059.49C1063.18 319.237 1066.88 319.237 1070.55 319.237C1078.15 319.237 1085.79 318.853 1093.4 318.853C1093.71 318.853 1093.68 318.365 1093.4 318.365C1085.76 318.365 1078.15 317.946 1070.51 317.771L1059.45 317.492H1053.56C1052.44 317.492 1051.29 317.492 1050.07 317.492L1062.63 302.596C1062.73 302.528 1062.82 302.431 1062.87 302.317C1066.95 297.502 1071.03 292.688 1075.19 287.908L1076.89 285.955C1088.51 286.304 1100.13 285.536 1111.78 285.955C1112.06 285.78 1112.06 285.292 1111.78 285.292Z" fill="#3A3A3A"/>
<path d="M1185.46 224.659C1181.98 218.03 1177.34 209.239 1168.44 209.797C1161.08 210.25 1157.76 217.751 1156.19 223.961C1151.31 243.183 1151 263.418 1150.02 283.094C1148.03 324.679 1146.25 366.299 1145.97 407.954C1145.97 419.501 1145.97 431.014 1145.97 442.562C1145.97 454.109 1145.97 466.18 1146.81 477.937C1146.85 478.134 1146.96 478.311 1147.11 478.438C1147.27 478.566 1147.46 478.635 1147.66 478.635C1147.87 478.635 1148.06 478.566 1148.22 478.438C1148.37 478.311 1148.48 478.134 1148.52 477.937C1148.52 467.854 1148.24 457.772 1148.21 447.725C1148.17 437.677 1148.21 428.049 1148.41 418.245C1148.72 398.337 1149.24 378.44 1149.98 358.554C1150.72 338.773 1151.59 319.027 1152.43 299.246C1152.85 289.362 1153.28 279.489 1153.72 269.628C1154.14 260.069 1154.55 250.475 1155.64 240.951C1156.26 235.648 1157.07 230.31 1158.15 225.042C1158.73 221.127 1160.33 217.434 1162.79 214.332C1164.49 212.658 1166.74 211.645 1169.12 211.473C1171.5 211.3 1173.87 211.98 1175.8 213.39C1179.86 216.328 1183.05 220.305 1185.05 224.903C1185.22 225.042 1185.6 225.042 1185.46 224.659Z" fill="#3A3A3A"/>
<path d="M1183.07 221.554C1183.07 221.554 1175.74 195.703 1191.93 208.611C1218.9 230.171 1219.84 277.024 1219.84 277.024C1219.84 277.024 1171.87 249.114 1165.94 230.799C1157.08 203.378 1183.07 221.554 1183.07 221.554Z" fill="#DADADA"/>
<path d="M1209.75 257.731C1209.33 257.033 1208.84 256.336 1208.38 255.603C1208.45 254.872 1208.45 254.136 1208.38 253.405C1208.38 252.289 1208.38 251.172 1208.38 249.916C1208.38 247.754 1208.38 245.556 1208.63 243.393C1208.63 243.328 1208.6 243.266 1208.56 243.22C1208.51 243.174 1208.45 243.148 1208.38 243.148C1208.32 243.148 1208.26 243.174 1208.21 243.22C1208.17 243.266 1208.14 243.328 1208.14 243.393C1208.14 245.521 1207.97 247.684 1207.9 249.812V253.021V254.417C1206.01 251.486 1204.09 248.591 1202.07 245.765C1201.51 244.928 1200.88 244.125 1200.29 243.323C1200.06 240.513 1200.06 237.69 1200.29 234.88C1200.29 231.845 1200.29 228.845 1200.5 225.845C1200.5 225.566 1200.05 225.566 1200.01 225.845C1200.01 228.984 1199.77 232.124 1199.63 235.229C1199.63 237.462 1199.31 239.695 1199.42 241.927C1194.81 235.648 1189.89 229.577 1184.91 223.542C1184.91 223.333 1184.42 223.542 1184.56 223.821C1187.66 227.728 1190.59 231.706 1193.49 235.752C1187.84 234.427 1182.11 233.694 1176.39 232.857C1176.08 232.857 1175.97 233.275 1176.39 233.31C1182.46 234.217 1188.43 235.752 1194.43 237.078L1201.41 246.812L1204.13 250.824H1203.85L1202 250.579C1200.67 250.579 1199.35 250.3 1198.02 250.196C1195.23 249.986 1192.48 249.847 1189.72 249.707C1189.41 249.707 1189.41 250.161 1189.72 250.161C1192.44 250.161 1195.16 250.44 1197.85 250.719L1202.14 251.242L1204.02 251.452H1204.58L1209.19 258.254C1211.87 262.266 1214.32 266.557 1217.21 270.43C1217.21 270.639 1217.7 270.43 1217.56 270.186C1215.21 265.878 1212.6 261.718 1209.75 257.731Z" fill="#3A3A3A"/>
<path d="M1206.96 239.381C1206.96 239.591 1206.96 240.149 1206.96 240.393V244.824C1206.85 245.354 1206.85 245.899 1206.96 246.429C1207.03 246.177 1207.03 245.912 1206.96 245.661V240.393C1206.96 240.114 1206.96 239.591 1206.96 239.381C1206.65 238.998 1206.96 239.172 1206.96 239.381Z" fill="#3A3A3A"/>
<path d="M1186.59 362.74C1176.51 355.17 1167.44 344.285 1153.9 343.762C1142.7 343.343 1134.85 351.751 1130.35 361.205C1128.11 366.199 1126.28 371.367 1124.88 376.66C1122.85 383.637 1120.95 390.754 1119.16 398.01C1115.67 411.965 1112.63 426.269 1110.19 440.538C1108.83 448.492 1107.54 456.481 1106.7 464.505C1105.43 472.591 1104.64 480.746 1104.33 488.926C1104.36 489.221 1104.49 489.497 1104.69 489.709C1104.9 489.92 1105.18 490.053 1105.47 490.086C1105.77 490.119 1106.06 490.049 1106.31 489.889C1106.56 489.728 1106.75 489.487 1106.84 489.205C1108.2 482.471 1108.76 475.564 1109.77 468.796C1110.78 462.028 1111.79 455.155 1112.95 448.387C1115.27 434.804 1117.95 421.292 1120.97 407.849C1123.86 395.15 1126.69 382.277 1130.81 369.927C1133.74 361.065 1138.45 350.739 1148.01 347.564C1162.55 342.715 1175.92 355.03 1186.38 363.019C1186.49 363.263 1186.84 362.914 1186.59 362.74Z" fill="#3A3A3A"/>
<path d="M1176.16 355.519C1176.16 355.519 1166.84 328.97 1180.31 323.772C1200.44 315.957 1253.19 375.37 1242.86 466.354C1217.98 452.437 1194.29 436.486 1172.04 418.664C1141.93 393.406 1134.26 360.438 1147.62 351.926C1160.98 343.413 1176.16 355.519 1176.16 355.519Z" fill="#DADADA"/>
<path d="M1236.75 446.853C1235.35 443.677 1233.72 440.611 1231.86 437.678C1230.12 434.538 1228.37 431.433 1226.59 428.363C1223.11 422.397 1219.62 416.397 1216.13 410.466L1214.35 407.57C1214.35 407.221 1214.35 406.872 1214.59 406.524L1215.19 403.872C1215.64 401.919 1215.99 399.895 1216.34 397.907C1217.07 394.034 1217.77 390.092 1218.81 386.254C1218.81 385.975 1218.4 385.871 1218.36 386.254C1217.52 390.127 1216.3 393.964 1215.15 397.767C1214.56 399.651 1213.97 401.535 1213.48 403.419L1212.95 405.372C1208.63 398.395 1204.23 391.208 1199.49 384.44C1199.78 383.492 1199.94 382.504 1199.94 381.51C1199.94 380.184 1200.26 378.858 1200.39 377.533C1200.78 374.532 1201.09 371.532 1201.55 368.567C1202.32 362.702 1203.39 356.88 1204.76 351.123C1204.76 350.844 1204.37 350.775 1204.27 351.123C1202.84 356.845 1201.27 362.566 1200.15 368.392C1199.63 371.253 1199.14 374.114 1198.75 376.974C1198.55 378.405 1198.41 379.835 1198.27 381.3C1198.27 381.719 1198.27 382.173 1198.27 382.591C1196.8 380.533 1195.34 378.475 1193.8 376.451C1189.16 370.346 1184.35 364.345 1179.46 358.415C1179.46 358.171 1178.9 358.415 1179.08 358.659C1187.41 369.331 1195.07 380.516 1202 392.15L1205.98 398.569L1204.65 398.395C1202.94 398.186 1201.16 398.081 1199.52 397.907L1189.06 397.034C1182.08 396.476 1175.31 396.058 1168.47 395.325C1168.16 395.325 1168.09 395.744 1168.47 395.778C1175.45 396.581 1182.43 397.697 1189.41 398.674C1192.89 399.162 1196.38 399.616 1199.63 400.035C1202.21 400.571 1204.84 400.84 1207.48 400.837L1215.12 413.78C1214.51 413.745 1213.91 413.745 1213.3 413.78H1203.57H1190.31C1190 413.78 1190.03 414.234 1190.31 414.234C1194.78 414.234 1199.24 414.513 1203.71 414.757L1210.09 415.141C1211.14 415.141 1212.19 415.315 1213.27 415.35C1214.19 415.559 1215.14 415.559 1216.06 415.35C1218.36 419.083 1220.66 422.816 1223.04 426.549C1225.41 430.282 1227.29 433.526 1229.46 436.805C1231.52 440.464 1233.85 443.963 1236.43 447.271C1236.5 447.271 1236.85 447.132 1236.75 446.853Z" fill="#3A3A3A"/>
<path d="M1211.85 499.321L1209.58 536.929L1202.88 647.974H1089.01L1082.31 536.929L1080.04 499.321H1211.85Z" fill="#595959"/>
<path d="M1211.85 499.321L1209.58 536.929H1082.31L1080.04 499.321H1211.85Z" fill="#3A3A3A"/>
<path d="M1222.3 472.739H1069.54V510.382H1222.3V472.739Z" fill="#595959"/>
</svg>
